<?xml version="1.0" encoding="utf-8"?>
<!-- Generator: Adobe Illustrator 27.5.0, SVG Export Plug-In . SVG Version: 6.00 Build 0)  -->
<svg version="1.1" xmlns="http://www.w3.org/2000/svg" xmlns:xlink="http://www.w3.org/1999/xlink" x="0px" y="0px"
	 viewBox="0 0 3710 3710" style="enable-background:new 0 0 3710 3710;" xml:space="preserve">
<g id="Background">
	<g>
		<g>
			<rect style="fill:#FFFFFF;" width="3710" height="3710"/>
		</g>
	</g>
</g>
<g id="Illustration">
	<g>
		<linearGradient id="SVGID_1_" gradientUnits="userSpaceOnUse" x1="3594.2234" y1="4047.9324" x2="1160.0787" y2="1024.8774">
			<stop  offset="0" style="stop-color:#B37CFF"/>
			<stop  offset="1" style="stop-color:#F895E7"/>
		</linearGradient>
		<path style="opacity:0.3;fill:url(#SVGID_1_);" d="M2924.575,2855.749c-55.911,58.861-108.814,96.82-150.612,126.81
			c-491.321,352.528-1072.684,249.768-1196.24,224.673c-182.453-37.057-535.132-108.688-790.112-408.54
			c-385.764-453.651-325.695-1168.364-26.47-1640.157c54.733-86.299,343.848-565.278,931.472-642.091
			c355.624-46.486,770.168,47.271,1070.369,298.78C3393.13,1343.164,3348.271,2409.695,2924.575,2855.749z"/>
		<g>
			<g>
				
					<linearGradient id="SVGID_00000039819627360405418830000009951641743867954333_" gradientUnits="userSpaceOnUse" x1="540.027" y1="1248.8816" x2="1333.9473" y2="1248.8816">
					<stop  offset="0" style="stop-color:#CE1567"/>
					<stop  offset="1" style="stop-color:#7A1DBC"/>
				</linearGradient>
				<path style="fill:url(#SVGID_00000039819627360405418830000009951641743867954333_);" d="M1172.914,1569.83
					c10.251,109.564,34.319,254.418,63.245,379.244h18.165c-37.403-150.632-71.826-356.923-61.69-594.722
					c10.224-239.804,67.888-530.963-39.639-670.049c-89.491-115.757-469.234-133.062-594.107-135.61
					c-15.603-0.319-24.536,17.988-14.824,30.432c47.873,61.351,148.119,203.436,156.852,327.508
					c11.512,163.535,136.301,291.891,260.298,345.322C1085.211,1305.387,1151.986,1346.143,1172.914,1569.83z"/>
				<path style="fill:#FFFFFF;" d="M715.018,649.779c76.81,19.855,149.459,55.543,213.022,104.425
					c31.842,24.345,60.699,52.951,85.584,84.885c24.62,32.116,45.292,67.69,59.643,105.899l5.313,14.347
					c1.739,4.793,3.038,9.738,4.575,14.601c1.416,4.88,3.019,9.803,4.277,14.646l3.795,14.533
					c5.102,19.367,10.112,38.76,14.926,58.204c9.687,38.873,18.763,77.907,27.245,117.073
					c16.999,78.333,31.625,157.182,41.488,236.914c0.237,1.913-1.094,3.659-2.973,3.9c-1.813,0.233-3.474-1.021-3.8-2.829
					l-0.019-0.107c-7.011-39.245-14.767-78.495-23.252-117.512c-8.309-39.069-17.081-78.033-26.272-116.893l-13.968-58.243
					l-14.612-58.08c-4.857-19.363-9.909-38.676-15.054-57.963l-3.826-14.474c-1.27-4.83-2.794-9.406-4.176-14.121
					c-1.453-4.668-2.66-9.423-4.307-14.024l-5.022-13.777c-13.482-36.756-33.36-70.792-56.531-102.153
					c-11.926-15.43-24.404-30.506-38.252-44.28l-5.094-5.262l-5.293-5.058c-3.544-3.357-7.003-6.811-10.617-10.095
					c-7.319-6.465-14.563-13.031-22.227-19.099c-30.208-24.849-63.39-45.936-97.871-64.431
					c-34.486-18.446-70.77-34.035-108.007-45.579l-0.172-0.054c-1.454-0.45-2.273-2.015-1.831-3.496
					C712.138,650.243,713.604,649.416,715.018,649.779z"/>
			</g>
			<g>
				
					<linearGradient id="SVGID_00000004510808859715370830000014073303275936584067_" gradientUnits="userSpaceOnUse" x1="471.5674" y1="1631.475" x2="1324.9224" y2="1631.475">
					<stop  offset="0" style="stop-color:#A737D5"/>
					<stop  offset="1" style="stop-color:#EF497A"/>
				</linearGradient>
				<path style="fill:url(#SVGID_00000004510808859715370830000014073303275936584067_);" d="M1176.494,1718.228
					c64.946,97.115,56.607,151.454,58.603,197.478c0.353,8.171,0.795,19.722,1.724,33.368h17.734
					c-3.621-18.736-6.19-37.624-7.109-56.151c-6.316-127.111-34.47-344.063-142.096-473.842
					c-107.625-129.78-225.484-141.62-373.991-23.638c-123.758,98.317-200.954,147.933-246.228,157.157
					c-11.209,2.284-16.93,15.173-11.475,25.406c29.037,54.463,111.134,179.565,248.974,170.757
					C898.458,1737.53,1111.548,1621.114,1176.494,1718.228z"/>
				<path style="fill:#FFFFFF;" d="M781.667,1551.751c9.726-9.432,20.03-17.926,30.664-26.127
					c10.629-8.175,21.584-15.961,32.988-23.063c22.73-14.295,46.987-26.497,72.819-34.899c12.919-4.152,26.225-7.355,39.835-9.121
					c13.608-1.676,27.516-1.908,41.315-0.163c3.433,0.567,6.902,0.899,10.305,1.677c3.376,0.811,6.868,1.472,10.145,2.427
					l19.381,6.123l18.965,7.509l18.383,8.995c24.094,12.934,45.894,30.407,64.033,50.994c18.281,20.527,32.581,44.183,44.348,68.682
					l4.416,9.206c1.516,3.049,2.616,6.275,3.943,9.402c2.5,6.317,5.193,12.56,7.524,18.929l6.525,19.265
					c2.311,6.377,3.784,13.005,5.651,19.507c7.369,26.051,12.445,52.611,16.83,79.197c0.244,1.484-0.738,2.888-2.195,3.137
					c-1.391,0.239-2.711-0.662-3.041-2.036l-0.021-0.088c-6.193-26.055-12.149-52.148-20.666-77.389
					c-3.862-12.753-8.761-25.089-13.316-37.538c-2.454-6.149-5.253-12.14-7.856-18.212c-1.376-2.999-2.532-6.112-4.087-9.015
					l-4.53-8.775c-11.991-23.414-26.548-45.355-43.934-64.546c-17.399-19.189-38.047-35.023-60.658-47.148l-17.338-8.37
					l-17.964-7.001l-18.453-5.719c-3.064-0.886-6.069-1.471-9.105-2.232c-3.028-0.725-6.151-1.024-9.221-1.567
					c-12.384-1.654-25.053-1.554-37.635-0.092c-12.6,1.372-25.141,4.073-37.458,7.742c-24.671,7.318-48.461,18.235-71.315,30.947
					c-11.383,6.448-22.662,13.183-33.612,20.479c-10.914,7.305-21.7,15.019-31.977,23.123l-0.068,0.052
					c-1.214,0.958-2.961,0.732-3.901-0.505C780.507,1554.38,780.653,1552.741,781.667,1551.751z"/>
			</g>
		</g>
		<g>
			
				<linearGradient id="SVGID_00000121254400689922812440000016927978440842189757_" gradientUnits="userSpaceOnUse" x1="2051.543" y1="3068.9163" x2="1916.2687" y2="-935.2712">
				<stop  offset="0" style="stop-color:#2B3582"/>
				<stop  offset="1" style="stop-color:#150E42"/>
			</linearGradient>
			<path style="fill:url(#SVGID_00000121254400689922812440000016927978440842189757_);" d="M1099.83,959.365
				c0-95.52,77.435-172.955,172.956-172.955h1470.821c81.144,0,148.054,63.59,152.179,144.629l108.568,2132.416
				c3.229,63.416-46.692,116.907-110.18,118.062l-1685.746,30.638c-59.655,1.084-108.598-46.977-108.598-106.642V959.365z"/>
			
				<linearGradient id="SVGID_00000148628889080320588000000015145579093747298235_" gradientUnits="userSpaceOnUse" x1="775.9715" y1="2704.5635" x2="2309.1116" y2="3678.5601">
				<stop  offset="0" style="stop-color:#A737D5"/>
				<stop  offset="1" style="stop-color:#EF497A"/>
			</linearGradient>
			<path style="fill:url(#SVGID_00000148628889080320588000000015145579093747298235_);" d="M1454.804,3175.902
				c-0.018,0-0.035,0-0.053,0l-188.625-2.438c-63.073-0.818-114.385-52.799-114.385-115.873v-284.789
				c0-2.226,1.803-4.027,4.027-4.027c2.224,0,4.027,1.801,4.027,4.027v284.789c0,58.69,47.745,107.056,106.435,107.819
				l188.623,2.438c2.224,0.027,4.003,1.856,3.976,4.078C1458.799,3174.133,1457.002,3175.902,1454.804,3175.902z"/>
			
				<linearGradient id="SVGID_00000076566297400713197160000005448384508400643771_" gradientUnits="userSpaceOnUse" x1="904.6594" y1="2501.999" x2="2437.7979" y2="3475.9944">
				<stop  offset="0" style="stop-color:#A737D5"/>
				<stop  offset="1" style="stop-color:#EF497A"/>
			</linearGradient>
			<path style="fill:url(#SVGID_00000076566297400713197160000005448384508400643771_);" d="M1155.768,2688.615
				c-2.224,0-4.027-1.801-4.027-4.027v-46.121c0-2.226,1.803-4.027,4.027-4.027c2.224,0,4.027,1.801,4.027,4.027v46.121
				C1159.795,2686.813,1157.992,2688.615,1155.768,2688.615z"/>
			<g>
				
					<linearGradient id="SVGID_00000129202550097773375200000018307856502741801092_" gradientUnits="userSpaceOnUse" x1="1321.7776" y1="3491.9277" x2="3004.9363" y2="-76.3627">
					<stop  offset="0" style="stop-color:#53D8FF"/>
					<stop  offset="1" style="stop-color:#3840F7"/>
				</linearGradient>
				<path style="fill:url(#SVGID_00000129202550097773375200000018307856502741801092_);" d="M1220.327,819.232
					c-0.18-30.561,26.697-54.214,56.981-50.107c200.854,27.238,891.538,111.479,1462.587,67.643
					c26.042-1.999,48.643,17.732,50.029,43.814l113.839,2141.921c1.561,29.369-20.866,54.484-50.225,56.221
					c-240.173,14.213-1229.279,69.157-1582.078,32.205c-21.472-2.249-37.771-20.327-37.898-41.917L1220.327,819.232z"/>
				<path style="opacity:0.6;fill:#FFFFFF;" d="M1243.986,872.907c-0.173-29.41,25.692-52.173,54.836-48.22
					c193.291,26.212,857.966,107.281,1407.513,65.095c25.061-1.924,46.811,17.065,48.144,42.164l109.552,2061.265
					c1.502,28.263-20.08,52.432-48.334,54.104c-231.129,13.678-1182.99,66.553-1522.504,30.992
					c-20.664-2.164-36.349-19.562-36.471-40.338L1243.986,872.907z"/>
				<path style="opacity:0.58;fill:#FFFFFF;" d="M2674.907,1180.304H1382.96c-5.756,0-10.422-4.666-10.422-10.423v-155.877
					c0-5.756,4.666-10.422,10.422-10.422h1291.948c5.756,0,10.423,4.666,10.423,10.422v155.877
					C2685.33,1175.637,2680.664,1180.304,2674.907,1180.304z"/>
				<path style="opacity:0.58;fill:#FFFFFF;" d="M2701.029,2007.525H1375.494c-3.237,0-5.862-2.624-5.862-5.862v-76.638
					c0-3.237,2.624-5.862,5.862-5.862h1325.535c3.237,0,5.862,2.624,5.862,5.862v76.638
					C2706.89,2004.901,2704.266,2007.525,2701.029,2007.525z"/>
				<path style="opacity:0.58;fill:#FFFFFF;" d="M2702.611,2143.854H1373.912c-2.364,0-4.279-1.916-4.279-4.279v-79.802
					c0-2.364,1.916-4.28,4.279-4.28h1328.699c2.364,0,4.28,1.916,4.28,4.28v79.802
					C2706.89,2141.938,2704.974,2143.854,2702.611,2143.854z"/>
				<path style="opacity:0.58;fill:#FFFFFF;" d="M2730.782,2922.279H1375.904c-2.85,0-5.161-2.311-5.161-5.161v-78.039
					c0-2.85,2.311-5.161,5.161-5.161h1354.878c2.85,0,5.161,2.311,5.161,5.161v78.039
					C2735.943,2919.968,2733.632,2922.279,2730.782,2922.279z"/>
				<path style="opacity:0.25;fill:#FFFFFF;" d="M2673.347,1826.597H1401.691c-17.706,0-32.059-14.353-32.059-32.059v-476.147
					c0-17.706,14.353-32.059,32.059-32.059h1250.094c17.142,0,31.25,13.484,32.026,30.609l21.562,476.147
					C2706.2,1811.344,2691.622,1826.597,2673.347,1826.597z"/>
				<path style="fill:#FFFFFF;" d="M2674.089,1831.647H1402.434c-20.461,0-37.108-16.647-37.108-37.108v-476.148
					c0-20.461,16.647-37.108,37.108-37.108h1250.094c19.887,0,36.17,15.563,37.07,35.43l21.562,476.146
					c0.462,10.22-3.176,19.923-10.244,27.318C2693.847,1827.574,2684.32,1831.647,2674.089,1831.647z M1402.434,1291.382
					c-14.894,0-27.009,12.116-27.009,27.009v476.148c0,14.894,12.116,27.009,27.009,27.009h1271.656
					c7.446,0,14.381-2.965,19.526-8.348c5.145-5.383,7.793-12.444,7.456-19.884l-21.562-476.146
					c-0.654-14.461-12.507-25.788-26.981-25.788H1402.434z"/>
				<path style="opacity:0.25;fill:#FFFFFF;" d="M2693.673,2780.018H1411.406c-22.457,0-40.663-18.205-40.663-40.663v-458.939
					c0-22.457,18.205-40.663,40.663-40.663h1264.477c21.844,0,39.786,17.26,40.632,39.088l17.791,458.939
					C2735.199,2760.838,2716.749,2780.018,2693.673,2780.018z"/>
				<path style="fill:#FFFFFF;" d="M2693.674,2785.067H1411.405c-25.206,0-45.711-20.507-45.711-45.711v-458.94
					c0-25.205,20.505-45.711,45.711-45.711h1264.478c24.659,0,44.722,19.302,45.678,43.941l17.79,458.94
					c0.486,12.537-4.037,24.419-12.734,33.461C2717.919,2780.088,2706.22,2785.067,2693.674,2785.067z M1411.405,2244.803
					c-19.637,0-35.613,15.975-35.613,35.613v458.94c0,19.637,15.975,35.613,35.613,35.613h1282.269
					c9.773,0,18.889-3.879,25.665-10.923c6.775-7.045,10.299-16.302,9.92-26.069l-17.79-458.94
					c-0.745-19.197-16.376-34.233-35.586-34.233H1411.405z"/>
				
					<rect x="1765.14" y="1286.295" transform="matrix(0.9999 -0.0166 0.0166 0.9999 -25.6122 29.6217)" style="fill:#FFFFFF;" width="10.1" height="540.34"/>
				
					<rect x="2257.182" y="1286.234" transform="matrix(0.9996 -0.027 0.027 0.9996 -41.1827 61.6213)" style="fill:#FFFFFF;" width="10.099" height="540.462"/>
				
					<rect x="1770.142" y="1445.3" transform="matrix(0.9999 -0.0146 0.0146 0.9999 -20.9992 32.8142)" style="fill:#FFFFFF;" width="920.197" height="10.1"/>
				<rect x="1772.434" y="1655.694" style="fill:#FFFFFF;" width="925.734" height="10.099"/>
				
					<rect x="1498.915" y="2504.836" transform="matrix(0.0124 -0.9999 0.9999 0.0124 -762.5035 4247.7798)" style="fill:#FFFFFF;" width="540.306" height="10.1"/>
				<rect x="1775.801" y="2365.984" style="fill:#FFFFFF;" width="945.931" height="10.099"/>
				<rect x="1769.068" y="2490.537" style="fill:#FFFFFF;" width="956.03" height="10.099"/>
				
					<rect x="2245.428" y="2160.106" transform="matrix(0.0125 -0.9999 0.9999 0.0125 -417.8103 4857.8062)" style="fill:#FFFFFF;" width="10.1" height="960.648"/>
			</g>
			
				<linearGradient id="SVGID_00000182514596471559061600000014211306904014671255_" gradientUnits="userSpaceOnUse" x1="2263.5154" y1="276.1201" x2="1586.9899" y2="1166.0737">
				<stop  offset="0" style="stop-color:#2B3582"/>
				<stop  offset="1" style="stop-color:#150E42"/>
			</linearGradient>
			<path style="fill:url(#SVGID_00000182514596471559061600000014211306904014671255_);" d="M2099.417,495.666
				c-53.128-36.96-99.324-36.228-131.843-26.632c-29.665,8.753-48.892,37.394-46.07,68.194l14.024,153.074l166.883,14.81
				C2102.411,705.112,2203.61,568.151,2099.417,495.666z M2026.028,619.159c-22.981,0-41.611-18.629-41.611-41.611
				c0-22.982,18.63-41.612,41.611-41.612c22.982,0,41.612,18.63,41.612,41.612C2067.64,600.53,2049.01,619.159,2026.028,619.159z"/>
			<path style="fill:#FFFFFF;" d="M1952.198,625.91c-2.059,0-3.814-1.569-4.005-3.661l-2.234-24.378
				c-0.204-2.214,1.428-4.173,3.642-4.377c2.259-0.212,4.176,1.428,4.377,3.646l2.234,24.378c0.205,2.214-1.427,4.172-3.642,4.377
				C1952.444,625.906,1952.32,625.91,1952.198,625.91z M1947.821,578.137c-2.059,0-3.814-1.569-4.005-3.661l-1.697-18.506
				c-2.69-29.341,15.773-56.661,43.898-64.962c19.918-5.879,40.44-6.721,60.992-2.505c2.178,0.444,3.582,2.576,3.136,4.754
				c-0.446,2.175-2.558,3.567-4.753,3.134c-19.252-3.94-38.458-3.158-57.097,2.34c-24.447,7.216-40.496,30.981-38.157,56.507
				l1.697,18.506c0.205,2.214-1.427,4.173-3.641,4.377C1948.067,578.133,1947.943,578.137,1947.821,578.137z"/>
			
				<linearGradient id="SVGID_00000098217855849600093540000001210699930439878284_" gradientUnits="userSpaceOnUse" x1="2337.7251" y1="332.5311" x2="1661.1989" y2="1222.4855">
				<stop  offset="0" style="stop-color:#2B3582"/>
				<stop  offset="1" style="stop-color:#150E42"/>
			</linearGradient>
			<path style="fill:url(#SVGID_00000098217855849600093540000001210699930439878284_);" d="M1707.764,789.226v-76.961
				c0-26.567,22.019-47.845,48.571-46.935l530.612,18.18c23.548,0.807,42.618,19.394,44.029,42.914l4.434,73.948L1707.764,789.226z"
				/>
			<path style="fill:#FFFFFF;" d="M1905.615,694.328h-22.819c-2.224,0-4.027-1.801-4.027-4.027c0-2.226,1.803-4.027,4.027-4.027
				h22.819c2.224,0,4.027,1.801,4.027,4.027C1909.642,692.528,1907.839,694.328,1905.615,694.328z"/>
			<path style="fill:#FFFFFF;" d="M1736.483,765.06c-2.224,0-4.027-1.801-4.027-4.027v-31.134c0-24.056,19.57-43.624,43.626-43.624
				h83.893c2.224,0,4.027,1.801,4.027,4.027c0,2.226-1.803,4.027-4.027,4.027h-83.893c-19.614,0-35.572,15.958-35.572,35.57v31.134
				C1740.51,763.259,1738.707,765.06,1736.483,765.06z"/>
			
				<linearGradient id="SVGID_00000164472015446639973540000005633823570744798374_" gradientUnits="userSpaceOnUse" x1="2252.4709" y1="386.9685" x2="1785.3441" y2="1244.7085">
				<stop  offset="0" style="stop-color:#53D8FF"/>
				<stop  offset="1" style="stop-color:#3840F7"/>
			</linearGradient>
			<path style="fill:url(#SVGID_00000164472015446639973540000005633823570744798374_);" d="M1491.561,808.66
				c1.281-26.65,23.261-47.6,49.942-47.601l927.875-0.025c33.364-0.001,61.887,24.009,67.579,56.883l0.785,4.537
				c6.233,36.009-21.49,68.944-58.034,68.944h-951.945c-21.87,0-39.299-18.286-38.249-40.131L1491.561,808.66z"/>
		</g>
		<g>
			<g>
				<g>
					
						<linearGradient id="SVGID_00000034802721907010027010000005320904442444759427_" gradientUnits="userSpaceOnUse" x1="1654.5892" y1="2040.0562" x2="1831.6935" y2="1834.489" gradientTransform="matrix(0.9651 -0.2618 0.2618 0.9651 -1163.5303 186.1516)">
						<stop  offset="0" style="stop-color:#FDF53F"/>
						<stop  offset="1" style="stop-color:#D93C65"/>
					</linearGradient>
					
						<circle style="fill:url(#SVGID_00000034802721907010027010000005320904442444759427_);" cx="1086.872" cy="1472.136" r="132.035"/>
					
						<linearGradient id="SVGID_00000114038193718110039110000009485758549611281342_" gradientUnits="userSpaceOnUse" x1="1931.7689" y1="1684.5558" x2="1408.0671" y2="2475.7197" gradientTransform="matrix(0.9651 -0.2618 0.2618 0.9651 -1163.5303 186.1516)">
						<stop  offset="0" style="stop-color:#FDF53F"/>
						<stop  offset="1" style="stop-color:#D93C65"/>
					</linearGradient>
					
						<circle style="fill:url(#SVGID_00000114038193718110039110000009485758549611281342_);" cx="1086.872" cy="1472.136" r="127.644"/>
					<path style="fill:#FFFFFF;" d="M972.52,1452.641c-0.623,0.169-1.296,0.2-1.973,0.06c-2.31-0.475-3.797-2.732-3.321-5.038
						c9.333-45.453,42.93-81.225,87.678-93.365c7.141-1.937,14.467-3.234,21.773-3.855c2.347-0.2,4.413,1.542,4.614,3.889
						c0.201,2.351-1.526,4.431-3.892,4.615c-6.794,0.582-13.611,1.788-20.26,3.591c-41.62,11.291-72.869,44.565-81.552,86.84
						C975.252,1451.01,974.027,1452.232,972.52,1452.641z"/>
					
						<ellipse transform="matrix(0.7071 -0.7071 0.7071 0.7071 -723.0037 1202.6987)" style="opacity:0.78;fill:#FFFFFF;" cx="1090.284" cy="1474.092" rx="108.036" ry="108.035"/>
					<g>
						
							<linearGradient id="SVGID_00000180355800466555291750000003178808515248788629_" gradientUnits="userSpaceOnUse" x1="1916.146" y1="1707.2261" x2="1637.2877" y2="2175.3828" gradientTransform="matrix(0.9651 -0.2618 0.2618 0.9651 -1163.5303 186.1516)">
							<stop  offset="0" style="stop-color:#FDF53F"/>
							<stop  offset="1" style="stop-color:#D93C65"/>
						</linearGradient>
						<path style="fill:url(#SVGID_00000180355800466555291750000003178808515248788629_);" d="M1101.08,1554.381l-3.077-11.343
							c-11.954,2.735-24.408,3.117-33.702,1.733c-3.318-0.493-5.734-3.413-5.729-6.767l0.015-11.349
							c0.005-4.163,3.677-7.311,7.804-6.764c9.178,1.219,20.094,1.192,31.066-1.785c11.39-3.09,18.837-9.255,16.689-17.171
							c-1.937-7.142-9.653-9.608-26.636-9.561c-24.262-0.05-43.15-5.497-48.544-25.381c-4.871-17.954,4.539-35.222,26.324-45.069
							l-3.078-11.345c-0.99-3.65,1.166-7.412,4.816-8.403l6.665-1.808c3.65-0.99,7.412,1.167,8.402,4.817l2.763,10.186
							c11.061-2.531,19.534-2.82,26.458-2.314c3.547,0.259,6.264,3.268,6.264,6.825l0.001,10.491c0,4.046-3.467,7.202-7.494,6.812
							c-6.417-0.622-15.267-0.681-25.963,2.22c-13.514,3.666-15.856,10.312-14.494,15.331c1.676,6.177,10.936,8.225,29.97,8.865
							c27.139,0.72,40.391,8.317,45.472,27.043c4.661,17.182-3.891,36.083-27.554,46.647l3.444,12.695
							c0.99,3.651-1.166,7.412-4.816,8.402l-6.666,1.808C1105.832,1560.187,1102.07,1558.031,1101.08,1554.381z"/>
					</g>
				</g>
				<g>
					
						<linearGradient id="SVGID_00000023247857766721049750000017008635224865741963_" gradientUnits="userSpaceOnUse" x1="1887.8859" y1="1879.4644" x2="2176.9194" y2="1543.9794" gradientTransform="matrix(0.9651 -0.2618 0.2618 0.9651 -1163.5303 186.1516)">
						<stop  offset="0" style="stop-color:#FDF53F"/>
						<stop  offset="1" style="stop-color:#D93C65"/>
					</linearGradient>
					
						<circle style="fill:url(#SVGID_00000023247857766721049750000017008635224865741963_);" cx="1345.489" cy="1098.26" r="215.481"/>
					
						<linearGradient id="SVGID_00000126301745133718513200000005083644544336786874_" gradientUnits="userSpaceOnUse" x1="2340.2422" y1="1299.2887" x2="1485.5619" y2="2590.467" gradientTransform="matrix(0.9651 -0.2618 0.2618 0.9651 -1163.5303 186.1516)">
						<stop  offset="0" style="stop-color:#FDF53F"/>
						<stop  offset="1" style="stop-color:#D93C65"/>
					</linearGradient>
					
						<circle style="fill:url(#SVGID_00000126301745133718513200000005083644544336786874_);" cx="1345.489" cy="1098.26" r="208.316"/>
					<path style="fill:#FFFFFF;" d="M1158.094,1063.582c-0.585,0.158-1.215,0.188-1.849,0.056c-2.166-0.445-3.56-2.561-3.114-4.723
						c15.006-73.075,69.019-130.593,140.963-150.11c11.481-3.115,23.259-5.2,35.008-6.193c2.202-0.189,4.139,1.444,4.326,3.649
						c0.186,2.201-1.438,4.16-3.65,4.323c-11.27,0.956-22.572,2.957-33.589,5.945c-69.011,18.721-120.823,73.898-135.221,143.992
						C1160.655,1062.053,1159.507,1063.199,1158.094,1063.582z"/>
					
						<ellipse transform="matrix(0.7071 -0.7071 0.7071 0.7071 -383.1286 1277.9501)" style="opacity:0.78;fill:#FFFFFF;" cx="1351.058" cy="1101.452" rx="176.314" ry="176.313"/>
					<g>
						
							<linearGradient id="SVGID_00000016042591850167021500000004610789192421751698_" gradientUnits="userSpaceOnUse" x1="2314.7458" y1="1336.286" x2="1859.6486" y2="2100.3188" gradientTransform="matrix(0.9651 -0.2618 0.2618 0.9651 -1163.5303 186.1516)">
							<stop  offset="0" style="stop-color:#FDF53F"/>
							<stop  offset="1" style="stop-color:#D93C65"/>
						</linearGradient>
						<path style="fill:url(#SVGID_00000016042591850167021500000004610789192421751698_);" d="M1368.676,1232.484l-5.022-18.513
							c-19.509,4.463-39.833,5.086-55.001,2.83c-5.416-0.806-9.358-5.569-9.35-11.046l0.025-18.52
							c0.009-6.794,6.001-11.932,12.737-11.038c14.978,1.99,32.794,1.945,50.7-2.913c18.589-5.043,30.742-15.106,27.237-28.023
							c-3.162-11.656-15.754-15.681-43.47-15.604c-39.596-0.082-70.421-8.971-79.224-41.422
							c-7.949-29.302,7.408-57.483,42.96-73.553l-5.023-18.515c-1.616-5.957,1.903-12.097,7.86-13.713l10.877-2.951
							c5.958-1.616,12.097,1.903,13.714,7.86l4.51,16.623c18.052-4.13,31.879-4.603,43.179-3.776
							c5.79,0.423,10.222,5.333,10.222,11.138l0.001,17.122c0.001,6.602-5.658,11.754-12.23,11.117
							c-10.472-1.015-24.916-1.112-42.371,3.623c-22.054,5.983-25.876,16.828-23.653,25.02c2.735,10.082,17.847,13.423,48.91,14.468
							c44.292,1.176,65.919,13.574,74.21,44.135c7.607,28.041-6.349,58.886-44.967,76.128l5.62,20.718
							c1.616,5.958-1.903,12.097-7.86,13.714l-10.878,2.951C1376.432,1241.961,1370.293,1238.442,1368.676,1232.484z"/>
					</g>
				</g>
				<g>
					
						<linearGradient id="SVGID_00000127042836393599256120000016172885721232910232_" gradientUnits="userSpaceOnUse" x1="2027.9559" y1="2370.6821" x2="2325.3682" y2="2025.472" gradientTransform="matrix(0.9651 -0.2618 0.2618 0.9651 -1163.5303 186.1516)">
						<stop  offset="0" style="stop-color:#FDF53F"/>
						<stop  offset="1" style="stop-color:#D93C65"/>
					</linearGradient>
					
						<circle style="fill:url(#SVGID_00000127042836393599256120000016172885721232910232_);" cx="1614.923" cy="1523.851" r="221.727"/>
					
						<linearGradient id="SVGID_00000005955106207053347390000015726943908581225905_" gradientUnits="userSpaceOnUse" x1="2493.4253" y1="1773.6881" x2="1613.9697" y2="3102.2947" gradientTransform="matrix(0.9651 -0.2618 0.2618 0.9651 -1163.5303 186.1516)">
						<stop  offset="0" style="stop-color:#FDF53F"/>
						<stop  offset="1" style="stop-color:#D93C65"/>
					</linearGradient>
					
						<circle style="fill:url(#SVGID_00000005955106207053347390000015726943908581225905_);" cx="1614.923" cy="1523.851" r="214.354"/>
					<path style="fill:#FFFFFF;" d="M1422.066,1488.056c-0.585,0.159-1.214,0.188-1.849,0.057c-2.166-0.445-3.56-2.561-3.114-4.723
						c15.431-75.149,70.979-134.299,144.966-154.37c11.806-3.203,23.918-5.347,36.003-6.369c2.203-0.189,4.14,1.444,4.327,3.649
						c0.186,2.201-1.428,4.146-3.65,4.323c-11.606,0.987-23.243,3.046-34.584,6.123c-71.055,19.276-124.401,76.083-139.223,148.253
						C1424.628,1486.527,1423.479,1487.673,1422.066,1488.056z"/>
					
						<ellipse transform="matrix(0.0106 -0.9999 0.9999 0.0106 76.3532 3131.4424)" style="opacity:0.78;fill:#FFFFFF;" cx="1620.654" cy="1527.136" rx="181.424" ry="181.425"/>
					<g>
						
							<linearGradient id="SVGID_00000109743448928334417740000001522255947211999882_" gradientUnits="userSpaceOnUse" x1="2467.1895" y1="1811.7581" x2="1998.9" y2="2597.9385" gradientTransform="matrix(0.9651 -0.2618 0.2618 0.9651 -1163.5303 186.1516)">
							<stop  offset="0" style="stop-color:#FDF53F"/>
							<stop  offset="1" style="stop-color:#D93C65"/>
						</linearGradient>
						<path style="fill:url(#SVGID_00000109743448928334417740000001522255947211999882_);" d="M1638.783,1661.966l-5.168-19.05
							c-20.075,4.592-40.988,5.234-56.595,2.911c-5.573-0.829-9.63-5.731-9.621-11.366l0.026-19.057
							c0.009-6.991,6.175-12.278,13.105-11.358c15.413,2.047,33.745,2.001,52.171-2.997c19.127-5.189,31.632-15.543,28.026-28.836
							c-3.254-11.994-16.21-16.136-44.729-16.055c-40.745-0.084-72.463-9.231-81.521-42.623
							c-8.18-30.151,7.623-59.149,44.206-75.685l-5.168-19.051c-1.663-6.13,1.959-12.448,8.089-14.11l11.192-3.036
							c6.13-1.663,12.448,1.958,14.11,8.088l4.64,17.105c18.576-4.25,32.804-4.736,44.432-3.885
							c5.957,0.435,10.518,5.488,10.519,11.461l0.002,17.617c0,6.794-5.823,12.095-12.584,11.44
							c-10.776-1.045-25.638-1.144-43.599,3.728c-22.694,6.156-26.626,17.316-24.34,25.745
							c2.814,10.374,18.365,13.812,50.328,14.887c45.575,1.21,67.83,13.967,76.36,45.414c7.827,28.853-6.532,60.593-46.27,78.335
							l5.783,21.319c1.663,6.13-1.958,12.448-8.089,14.111l-11.194,3.037C1646.764,1671.717,1640.446,1668.096,1638.783,1661.966z"
							/>
					</g>
				</g>
				<g>
					
						<linearGradient id="SVGID_00000158743392972220332490000013123477881449884561_" gradientUnits="userSpaceOnUse" x1="2365.604" y1="1930.9047" x2="2603.4636" y2="1654.818" gradientTransform="matrix(0.9651 -0.2618 0.2618 0.9651 -1163.5303 186.1516)">
						<stop  offset="0" style="stop-color:#FDF53F"/>
						<stop  offset="1" style="stop-color:#D93C65"/>
					</linearGradient>
					
						<circle style="fill:url(#SVGID_00000158743392972220332490000013123477881449884561_);" cx="1785.48" cy="1094.99" r="177.329"/>
					
						<linearGradient id="SVGID_00000045578285703678623000000013143242456031050153_" gradientUnits="userSpaceOnUse" x1="2737.8696" y1="1453.4504" x2="2034.5128" y2="2516.022" gradientTransform="matrix(0.9651 -0.2618 0.2618 0.9651 -1163.5303 186.1516)">
						<stop  offset="0" style="stop-color:#FDF53F"/>
						<stop  offset="1" style="stop-color:#D93C65"/>
					</linearGradient>
					
						<circle style="fill:url(#SVGID_00000045578285703678623000000013143242456031050153_);" cx="1785.48" cy="1094.99" r="171.433"/>
					<path style="fill:#FFFFFF;" d="M1631.544,1067.488c-0.638,0.173-1.325,0.205-2.019,0.062c-2.364-0.486-3.885-2.796-3.399-5.156
						c12.432-60.536,57.179-108.185,116.776-124.352c9.498-2.577,19.255-4.304,29.002-5.132c2.401-0.205,4.516,1.577,4.721,3.979
						c0.203,2.403-1.552,4.544-3.983,4.722c-9.223,0.787-18.459,2.422-27.453,4.862c-56.396,15.299-98.741,60.392-110.507,117.675
						C1634.34,1065.819,1633.086,1067.07,1631.544,1067.488z"/>
					
						<ellipse transform="matrix(0.7071 -0.7071 0.7071 0.7071 -251.8349 1587.2507)" style="opacity:0.78;fill:#FFFFFF;" cx="1790.064" cy="1097.617" rx="145.097" ry="145.097"/>
					<g>
						
							<linearGradient id="SVGID_00000130632559872999095450000011679921456816559239_" gradientUnits="userSpaceOnUse" x1="2716.8877" y1="1483.8971" x2="2342.3665" y2="2112.6565" gradientTransform="matrix(0.9651 -0.2618 0.2618 0.9651 -1163.5303 186.1516)">
							<stop  offset="0" style="stop-color:#FDF53F"/>
							<stop  offset="1" style="stop-color:#D93C65"/>
						</linearGradient>
						<path style="fill:url(#SVGID_00000130632559872999095450000011679921456816559239_);" d="M1804.563,1205.449l-4.133-15.235
							c-16.055,3.672-32.781,4.186-45.263,2.328c-4.457-0.663-7.701-4.584-7.695-9.09l0.02-15.241
							c0.008-5.591,4.939-9.819,10.481-9.084c12.327,1.637,26.989,1.601,41.724-2.396c15.297-4.15,25.298-12.431,22.414-23.062
							c-2.602-9.592-12.964-12.905-35.773-12.841c-32.586-0.068-57.953-7.383-65.197-34.088
							c-6.542-24.114,6.096-47.305,35.354-60.529l-4.133-15.237c-1.33-4.903,1.566-9.956,6.468-11.286l8.951-2.428
							c4.903-1.33,9.956,1.566,11.286,6.469l3.711,13.68c14.856-3.398,26.235-3.787,35.534-3.107
							c4.764,0.348,8.412,4.389,8.413,9.166l0.001,14.09c0,5.433-4.656,9.673-10.065,9.149c-8.618-0.835-20.504-0.915-34.869,2.982
							c-18.15,4.924-21.295,13.848-19.466,20.59c2.251,8.297,14.687,11.047,40.251,11.906c36.449,0.968,54.248,11.17,61.07,36.321
							c6.26,23.076-5.225,48.46-37.006,62.649l4.625,17.05c1.33,4.903-1.566,9.955-6.469,11.285l-8.952,2.429
							C1810.946,1213.248,1805.893,1210.351,1804.563,1205.449z"/>
					</g>
				</g>
			</g>
		</g>
		<g>
			<g>
				<g>
					
						<linearGradient id="SVGID_00000049213378799778479430000004213914706536326805_" gradientUnits="userSpaceOnUse" x1="446.9284" y1="2537.6514" x2="1656.2294" y2="2537.6514">
						<stop  offset="0" style="stop-color:#2B3582"/>
						<stop  offset="1" style="stop-color:#150E42"/>
					</linearGradient>
					<path style="fill:url(#SVGID_00000049213378799778479430000004213914706536326805_);" d="M466.71,1896.838
						c-6.367,227.378-27.016,1011.69-17.159,1289.627c1.044,29.445,27.706,53.078,60.964,54.042
						c164.49,4.765,767.501,16.844,1036.551,6.851c56.039-2.082,100.604-42.269,101.766-91.915
						c5.592-238.663,17.926-909.929-11.392-1217.436c-3.514-36.844-36.177-66.184-77.734-69.865
						c-179.137-15.865-784.741-54.648-1017.185-41.293C500.599,1829.256,467.75,1859.657,466.71,1896.838z"/>
					
						<linearGradient id="SVGID_00000052104164301374273320000009106494192049691274_" gradientUnits="userSpaceOnUse" x1="961.9841" y1="2421.74" x2="1074.7108" y2="1954.4707">
						<stop  offset="0" style="stop-color:#A737D5"/>
						<stop  offset="1" style="stop-color:#EF497A"/>
					</linearGradient>
					<path style="fill:url(#SVGID_00000052104164301374273320000009106494192049691274_);" d="M513.953,1997.089v192.694
						c0,36.952,29.956,66.908,66.908,66.908h920.651c36.952,0,66.907-29.956,66.907-66.908v-192.694
						c0-36.952-29.956-66.908-66.907-66.908H580.861C543.909,1930.181,513.953,1960.137,513.953,1997.089z"/>
					<path style="opacity:0.2;fill:#FFFFFF;" d="M1521.461,1995.984c-8.139-8.416-19.292-13.25-30.998-13.434l-861.468-13.688
						c-23.031-0.367-42.462,17.052-44.61,39.984l-17.9,191.12c-1.466,15.649,24.279,28.825,57.101,29.223l846.942,10.263
						c32.772,0.396,59.864-12.102,60.135-27.743l3.194-184.298C1534.06,2015.704,1529.601,2004.397,1521.461,1995.984z"/>
				</g>
				
					<linearGradient id="SVGID_00000005986106222385216180000000615649989522375823_" gradientUnits="userSpaceOnUse" x1="339.912" y1="2745.8684" x2="1150.7988" y2="1965.2018">
					<stop  offset="0" style="stop-color:#53D8FF"/>
					<stop  offset="1" style="stop-color:#3840F7"/>
				</linearGradient>
				<path style="opacity:0.63;fill:url(#SVGID_00000005986106222385216180000000615649989522375823_);" d="M744.116,2452.062
					c0,33.996-27.559,61.555-61.555,61.555h-74.937c-33.996,0-61.555-27.559-61.555-61.555l0,0
					c0-33.996,27.559-61.555,61.555-61.555h74.937C716.557,2390.506,744.116,2418.066,744.116,2452.062L744.116,2452.062z"/>
				
					<linearGradient id="SVGID_00000075137947539404659780000015821568374572108978_" gradientUnits="userSpaceOnUse" x1="473.7971" y1="2884.9358" x2="1284.6836" y2="2104.2698">
					<stop  offset="0" style="stop-color:#53D8FF"/>
					<stop  offset="1" style="stop-color:#3840F7"/>
				</linearGradient>
				<path style="opacity:0.63;fill:url(#SVGID_00000075137947539404659780000015821568374572108978_);" d="M1022.452,2452.062
					c0,33.996-27.559,61.555-61.555,61.555H885.96c-33.996,0-61.555-27.559-61.555-61.555l0,0c0-33.996,27.559-61.555,61.555-61.555
					h74.937C994.893,2390.506,1022.452,2418.066,1022.452,2452.062L1022.452,2452.062z"/>
				
					<linearGradient id="SVGID_00000070798183070893722860000012442032663152509622_" gradientUnits="userSpaceOnUse" x1="602.5317" y1="3018.656" x2="1413.4186" y2="2237.9895">
					<stop  offset="0" style="stop-color:#53D8FF"/>
					<stop  offset="1" style="stop-color:#3840F7"/>
				</linearGradient>
				<path style="opacity:0.63;fill:url(#SVGID_00000070798183070893722860000012442032663152509622_);" d="M1290.083,2452.062
					c0,33.996-27.559,61.555-61.555,61.555h-74.937c-33.996,0-61.555-27.559-61.555-61.555l0,0
					c0-33.996,27.559-61.555,61.555-61.555h74.937C1262.524,2390.506,1290.083,2418.066,1290.083,2452.062L1290.083,2452.062z"/>
				
					<linearGradient id="SVGID_00000109723369063761892750000015983771146424138378_" gradientUnits="userSpaceOnUse" x1="1523.7301" y1="2389.0354" x2="1082.574" y2="2909.2051">
					<stop  offset="0" style="stop-color:#E40045"/>
					<stop  offset="1" style="stop-color:#5C0E16"/>
				</linearGradient>
				<path style="fill:url(#SVGID_00000109723369063761892750000015983771146424138378_);" d="M1561.38,2461.098
					c0,34.547-28.005,62.552-62.552,62.552H1426.4c-34.547,0-62.552-28.006-62.552-62.552l0,0c0-34.546,28.006-62.552,62.552-62.552
					h72.428C1533.374,2398.546,1561.38,2426.552,1561.38,2461.098L1561.38,2461.098z"/>
				
					<linearGradient id="SVGID_00000026130138906421099350000004622403637381191596_" gradientUnits="userSpaceOnUse" x1="436.1891" y1="2845.8735" x2="1247.0753" y2="2065.2078">
					<stop  offset="0" style="stop-color:#53D8FF"/>
					<stop  offset="1" style="stop-color:#3840F7"/>
				</linearGradient>
				<path style="opacity:0.63;fill:url(#SVGID_00000026130138906421099350000004622403637381191596_);" d="M744.116,2644.756
					c0,33.996-27.559,61.555-61.555,61.555h-74.937c-33.996,0-61.555-27.559-61.555-61.555l0,0
					c0-33.996,27.559-61.555,61.555-61.555h74.937C716.557,2583.201,744.116,2610.76,744.116,2644.756L744.116,2644.756z"/>
				
					<linearGradient id="SVGID_00000161629069374191679340000003550605296725847189_" gradientUnits="userSpaceOnUse" x1="570.0743" y1="2984.9412" x2="1380.9602" y2="2204.2756">
					<stop  offset="0" style="stop-color:#53D8FF"/>
					<stop  offset="1" style="stop-color:#3840F7"/>
				</linearGradient>
				<path style="opacity:0.63;fill:url(#SVGID_00000161629069374191679340000003550605296725847189_);" d="M1022.452,2644.756
					c0,33.996-27.559,61.555-61.555,61.555H885.96c-33.996,0-61.555-27.559-61.555-61.555l0,0c0-33.996,27.559-61.555,61.555-61.555
					h74.937C994.893,2583.201,1022.452,2610.76,1022.452,2644.756L1022.452,2644.756z"/>
				
					<linearGradient id="SVGID_00000008828611690443775190000004098042385301799345_" gradientUnits="userSpaceOnUse" x1="698.8103" y1="3118.6597" x2="1509.6965" y2="2337.9939">
					<stop  offset="0" style="stop-color:#53D8FF"/>
					<stop  offset="1" style="stop-color:#3840F7"/>
				</linearGradient>
				<path style="opacity:0.63;fill:url(#SVGID_00000008828611690443775190000004098042385301799345_);" d="M1290.083,2644.756
					c0,33.996-27.559,61.555-61.555,61.555h-74.937c-33.996,0-61.555-27.559-61.555-61.555l0,0
					c0-33.996,27.559-61.555,61.555-61.555h74.937C1262.524,2583.201,1290.083,2610.76,1290.083,2644.756L1290.083,2644.756z"/>
				
					<linearGradient id="SVGID_00000106147938980647232780000011459570540012444814_" gradientUnits="userSpaceOnUse" x1="832.6954" y1="3257.7273" x2="1643.5817" y2="2477.0615">
					<stop  offset="0" style="stop-color:#53D8FF"/>
					<stop  offset="1" style="stop-color:#3840F7"/>
				</linearGradient>
				<path style="fill:url(#SVGID_00000106147938980647232780000011459570540012444814_);" d="M1568.419,2644.756
					c0,33.996-27.559,61.555-61.555,61.555h-74.937c-33.996,0-61.555-27.559-61.555-61.555l0,0
					c0-33.996,27.559-61.555,61.555-61.555h74.937C1540.86,2583.201,1568.419,2610.76,1568.419,2644.756L1568.419,2644.756z"/>
				<g>
					
						<linearGradient id="SVGID_00000087373272144929420970000007037697770429874816_" gradientUnits="userSpaceOnUse" x1="521.4561" y1="2934.4412" x2="1332.343" y2="2153.7747">
						<stop  offset="0" style="stop-color:#53D8FF"/>
						<stop  offset="1" style="stop-color:#3840F7"/>
					</linearGradient>
					<path style="opacity:0.63;fill:url(#SVGID_00000087373272144929420970000007037697770429874816_);" d="M744.116,2815.413
						c0,33.996-27.559,61.555-61.555,61.555h-74.937c-33.996,0-61.555-27.559-61.555-61.555l0,0
						c0-33.996,27.559-61.555,61.555-61.555h74.937C716.557,2753.857,744.116,2781.417,744.116,2815.413L744.116,2815.413z"/>
					
						<linearGradient id="SVGID_00000072990883219056603510000017290677431754057092_" gradientUnits="userSpaceOnUse" x1="655.3408" y1="3073.509" x2="1466.2273" y2="2292.843">
						<stop  offset="0" style="stop-color:#53D8FF"/>
						<stop  offset="1" style="stop-color:#3840F7"/>
					</linearGradient>
					<path style="opacity:0.63;fill:url(#SVGID_00000072990883219056603510000017290677431754057092_);" d="M1022.452,2815.413
						c0,33.996-27.559,61.555-61.555,61.555H885.96c-33.996,0-61.555-27.559-61.555-61.555l0,0
						c0-33.996,27.559-61.555,61.555-61.555h74.937C994.893,2753.857,1022.452,2781.417,1022.452,2815.413L1022.452,2815.413z"/>
					
						<linearGradient id="SVGID_00000058579667796451873900000009730462011954323362_" gradientUnits="userSpaceOnUse" x1="784.0768" y1="3207.2278" x2="1594.9636" y2="2426.5613">
						<stop  offset="0" style="stop-color:#53D8FF"/>
						<stop  offset="1" style="stop-color:#3840F7"/>
					</linearGradient>
					<path style="opacity:0.63;fill:url(#SVGID_00000058579667796451873900000009730462011954323362_);" d="M1290.083,2815.413
						c0,33.996-27.559,61.555-61.555,61.555h-74.937c-33.996,0-61.555-27.559-61.555-61.555l0,0
						c0-33.996,27.559-61.555,61.555-61.555h74.937C1262.524,2753.857,1290.083,2781.417,1290.083,2815.413L1290.083,2815.413z"/>
				</g>
				<g>
					
						<linearGradient id="SVGID_00000152247789155554177390000014685200417647353736_" gradientUnits="userSpaceOnUse" x1="615.0596" y1="3031.668" x2="1425.9465" y2="2251.0015">
						<stop  offset="0" style="stop-color:#53D8FF"/>
						<stop  offset="1" style="stop-color:#3840F7"/>
					</linearGradient>
					<path style="opacity:0.63;fill:url(#SVGID_00000152247789155554177390000014685200417647353736_);" d="M744.116,3002.754
						c0,33.996-27.559,61.555-61.555,61.555h-74.937c-33.996,0-61.555-27.559-61.555-61.555l0,0
						c0-33.996,27.559-61.555,61.555-61.555h74.937C716.557,2941.199,744.116,2968.759,744.116,3002.754L744.116,3002.754z"/>
					
						<linearGradient id="SVGID_00000156562712145396865750000017081316246320479158_" gradientUnits="userSpaceOnUse" x1="748.9445" y1="3170.7356" x2="1559.8311" y2="2390.0693">
						<stop  offset="0" style="stop-color:#53D8FF"/>
						<stop  offset="1" style="stop-color:#3840F7"/>
					</linearGradient>
					<path style="opacity:0.63;fill:url(#SVGID_00000156562712145396865750000017081316246320479158_);" d="M1022.452,3002.754
						c0,33.996-27.559,61.555-61.555,61.555H885.96c-33.996,0-61.555-27.559-61.555-61.555l0,0
						c0-33.996,27.559-61.555,61.555-61.555h74.937C994.893,2941.199,1022.452,2968.759,1022.452,3002.754L1022.452,3002.754z"/>
					
						<linearGradient id="SVGID_00000161619268178594773860000005490935400047262386_" gradientUnits="userSpaceOnUse" x1="877.6796" y1="3304.4551" x2="1688.5664" y2="2523.7888">
						<stop  offset="0" style="stop-color:#53D8FF"/>
						<stop  offset="1" style="stop-color:#3840F7"/>
					</linearGradient>
					<path style="opacity:0.63;fill:url(#SVGID_00000161619268178594773860000005490935400047262386_);" d="M1290.083,3002.754
						c0,33.996-27.559,61.555-61.555,61.555h-74.937c-33.996,0-61.555-27.559-61.555-61.555l0,0
						c0-33.996,27.559-61.555,61.555-61.555h74.937C1262.524,2941.199,1290.083,2968.759,1290.083,3002.754L1290.083,3002.754z"/>
				</g>
				
					<linearGradient id="SVGID_00000155831824826364174100000006996961546749587612_" gradientUnits="userSpaceOnUse" x1="1376.2535" y1="3046.7471" x2="1643.1915" y2="2658.9316">
					<stop  offset="0" style="stop-color:#53D8FF"/>
					<stop  offset="1" style="stop-color:#3840F7"/>
				</linearGradient>
				<path style="fill:url(#SVGID_00000155831824826364174100000006996961546749587612_);" d="M1541.656,2997.727
					c0,43.031-34.884,77.915-77.915,77.915h-4.748c-43.031,0-77.915-34.884-77.915-77.915v-149.269
					c0-43.031,34.884-77.916,77.915-77.916h4.748c43.031,0,77.915,34.884,77.915,77.916V2997.727z"/>
			</g>
			<g style="opacity:0.7;">
				<path style="fill:#FFFFFF;" d="M1434.604,2023.852c0,7.39-5.991,13.381-13.381,13.381h-37.468
					c-7.391,0-13.382-5.991-13.382-13.381l0,0c0-7.39,5.991-13.381,13.382-13.381h37.468
					C1428.613,2010.47,1434.604,2016.462,1434.604,2023.852L1434.604,2023.852z"/>
				<path style="fill:#FFFFFF;" d="M1434.604,2205.841c0,7.391-5.991,13.382-13.381,13.382h-37.468
					c-7.391,0-13.382-5.991-13.382-13.382l0,0c0-7.39,5.991-13.381,13.382-13.381h37.468
					C1428.613,2192.459,1434.604,2198.451,1434.604,2205.841L1434.604,2205.841z"/>
				<path style="fill:#FFFFFF;" d="M1375.725,2098.789c0,7.39-5.991,13.381-13.382,13.381l0,0c-7.391,0-13.381-5.991-13.381-13.381
					v-37.468c0-7.39,5.991-13.381,13.381-13.381l0,0c7.39,0,13.382,5.991,13.382,13.381V2098.789z"/>
				<path style="fill:#FFFFFF;" d="M1375.725,2173.725c0,7.391-5.991,13.382-13.382,13.382l0,0c-7.391,0-13.381-5.991-13.381-13.382
					v-37.468c0-7.39,5.991-13.382,13.381-13.382l0,0c7.39,0,13.382,5.991,13.382,13.382V2173.725z"/>
				<path style="fill:#FFFFFF;" d="M1466.719,2098.789c0,7.39-5.991,13.381-13.382,13.381l0,0c-7.391,0-13.381-5.991-13.381-13.381
					v-37.468c0-7.39,5.991-13.381,13.381-13.381l0,0c7.391,0,13.382,5.991,13.382,13.381V2098.789z"/>
				<path style="fill:#FFFFFF;" d="M1466.719,2173.725c0,7.391-5.991,13.382-13.382,13.382l0,0c-7.391,0-13.381-5.991-13.381-13.382
					v-37.468c0-7.39,5.991-13.382,13.381-13.382l0,0c7.391,0,13.382,5.991,13.382,13.382V2173.725z"/>
			</g>
		</g>
		<g>
			<g>
				<g>
					
						<linearGradient id="SVGID_00000137839291412814866400000009249831336099676576_" gradientUnits="userSpaceOnUse" x1="-2748.0479" y1="3248.1543" x2="-2609.9194" y2="3248.1543" gradientTransform="matrix(-1 0 0 1 83.0112 0)">
						<stop  offset="0" style="stop-color:#53D8FF"/>
						<stop  offset="1" style="stop-color:#3840F7"/>
					</linearGradient>
					<path style="fill:url(#SVGID_00000137839291412814866400000009249831336099676576_);" d="M2696.831,3241.473
						c23.663,2.045,64.731,5.368,97.108,6.792c19.462,0.857,30.667-1.049,37.12-3.633c-0.011,0.728-0.031,1.415-0.06,2.053
						c-0.153,3.407-2.921,6.133-6.363,6.325c-61.177,3.414-109.831,1.181-127.152,0.127c-3.581-0.218-5.716-4.11-3.885-7.163
						C2694.516,3244.448,2695.626,3242.952,2696.831,3241.473z"/>
					
						<linearGradient id="SVGID_00000017505295023498006210000010134011734454413214_" gradientUnits="userSpaceOnUse" x1="-2748.0557" y1="3221.0825" x2="-2613.8201" y2="3221.0825" gradientTransform="matrix(-1 0 0 1 83.0112 0)">
						<stop  offset="0" style="stop-color:#2B3582"/>
						<stop  offset="1" style="stop-color:#150E42"/>
					</linearGradient>
					<path style="fill:url(#SVGID_00000017505295023498006210000010134011734454413214_);" d="M2793.939,3248.266
						c-32.377-1.425-73.445-4.747-97.108-6.792c23.264-28.544,97.108-47.782,97.108-47.782h20.855
						c14.344,20.677,16.421,40.363,16.264,50.942C2824.606,3247.217,2813.401,3249.123,2793.939,3248.266z"/>
					
						<linearGradient id="SVGID_00000101102485933890380040000010123623735847121076_" gradientUnits="userSpaceOnUse" x1="-2735.2952" y1="3183.2876" x2="-2696.3872" y2="3183.2876" gradientTransform="matrix(-1 0 0 1 83.0112 0)">
						<stop  offset="0" style="stop-color:#F9B776"/>
						<stop  offset="1" style="stop-color:#F47960"/>
					</linearGradient>
					<path style="fill:url(#SVGID_00000101102485933890380040000010123623735847121076_);" d="M2818.306,3159.644l-1.952,38.621
						c-0.211,4.182-3.342,7.697-7.53,8.296c-4.167,0.596-9.748,0.672-15.667-1.298c-3.641-1.212-6.344-4.28-7.016-8.022
						l-6.744-37.596H2818.306z"/>
				</g>
				<g>
					<g>
						
							<linearGradient id="SVGID_00000038399575228225437920000004316352398587119781_" gradientUnits="userSpaceOnUse" x1="-3023.4182" y1="3245.1753" x2="-2970.4854" y2="3245.1753" gradientTransform="matrix(-1 0 0 1 83.0112 0)">
							<stop  offset="0" style="stop-color:#53D8FF"/>
							<stop  offset="1" style="stop-color:#3840F7"/>
						</linearGradient>
						<path style="fill:url(#SVGID_00000038399575228225437920000004316352398587119781_);" d="M3089.193,3247.976
							c10.261-1.431,14.904-6.762,16.851-12.461c0.013,0.052,0.026,0.103,0.039,0.154c1.51,6.011-1.99,12.242-8.987,15.205
							c-8.458,3.581-17.704,4.191-24.883,3.896c-7.702-0.317-14.772-3.505-18.658-8.606l-0.058-0.076
							C3061.227,3249.913,3072.08,3250.363,3089.193,3247.976z"/>
						
							<linearGradient id="SVGID_00000034773073181003379880000006416814093117495984_" gradientUnits="userSpaceOnUse" x1="-3023.0332" y1="3204.4185" x2="-2945.3376" y2="3204.4185" gradientTransform="matrix(-1 0 0 1 83.0112 0)">
							<stop  offset="0" style="stop-color:#2B3582"/>
							<stop  offset="1" style="stop-color:#150E42"/>
						</linearGradient>
						<path style="fill:url(#SVGID_00000034773073181003379880000006416814093117495984_);" d="M3040.811,3159.396h17.199
							c26.198-0.535,42.649,54.721,48.034,76.119c-1.947,5.699-6.59,11.03-16.851,12.461c-17.114,2.387-27.966,1.937-35.697-1.889
							c-14.154-18.625-21.171-45.904-24.544-61.823C3025.117,3166.159,3040.811,3159.396,3040.811,3159.396z"/>
					</g>
					
						<linearGradient id="SVGID_00000078725937125853251260000013048621804600171405_" gradientUnits="userSpaceOnUse" x1="-2982.6484" y1="3150.8523" x2="-2936.1494" y2="3150.8523" gradientTransform="matrix(-1 0 0 1 83.0112 0)">
						<stop  offset="0" style="stop-color:#F9B776"/>
						<stop  offset="1" style="stop-color:#F47960"/>
					</linearGradient>
					<path style="fill:url(#SVGID_00000078725937125853251260000013048621804600171405_);" d="M3055.799,3123.55l9.551,37.985
						c1.171,4.657-1.058,9.475-5.364,11.684c-5.342,2.742-12.865,5.623-19.778,4.789c-3.251-0.392-5.952-2.682-7.026-5.744
						l-14.021-39.964L3055.799,3123.55z"/>
				</g>
				
					<linearGradient id="SVGID_00000104707391040159961860000002421538218603943869_" gradientUnits="userSpaceOnUse" x1="2259.3469" y1="3863.1582" x2="2966.2722" y2="2759.0103">
					<stop  offset="0" style="stop-color:#CB236D"/>
					<stop  offset="1" style="stop-color:#4C246D"/>
				</linearGradient>
				<path style="fill:url(#SVGID_00000104707391040159961860000002421538218603943869_);" d="M3067.191,3134.529
					c-11.883,10.54-50.531,11.931-50.531,11.931c-139.219-334.14-196.169-381.609-196.169-381.609
					c20.103,126.12,3.241,405.333,3.241,405.333c-22.974,10.137-52.592,0-52.592,0c-1.866-206.475-33.602-386.541-71.094-528.5
					c94.095-2.115,144.135-34.314,160.473-47.238C2938.955,2720.899,3067.191,3134.529,3067.191,3134.529z"/>
				
					<linearGradient id="SVGID_00000182498711037620996690000013277654168711856273_" gradientUnits="userSpaceOnUse" x1="-2397.8877" y1="2180.1838" x2="-3463.8594" y2="3107.3091" gradientTransform="matrix(-1 0 0 1 83.0112 0)">
					<stop  offset="0" style="stop-color:#FDF53F"/>
					<stop  offset="1" style="stop-color:#D93C65"/>
				</linearGradient>
				<path style="fill:url(#SVGID_00000182498711037620996690000013277654168711856273_);" d="M2836.623,2210.185
					c17.81,88.837,11.427,247.841,7.235,320.366c-1.178,20.385,13.052,48.644,24.553,67.923c1.804,3.024,0.691,6.896-2.441,8.506
					c-19.257,9.897-84.494,40.571-160.103,44.387c-5.042,0.254-9.543-3.18-10.849-8.056
					c-56.085-209.414-121.228-343.231-121.228-343.231C2645.71,2185.23,2836.623,2210.185,2836.623,2210.185z"/>
				
					<linearGradient id="SVGID_00000155842768546791530580000005723724517257281943_" gradientUnits="userSpaceOnUse" x1="-2825.9526" y1="2978.6519" x2="-2803.6716" y2="2934.0901" gradientTransform="matrix(-1 0 0 1 83.0112 0)">
					<stop  offset="0" style="stop-color:#53D8FF"/>
					<stop  offset="1" style="stop-color:#3840F7"/>
				</linearGradient>
				<path style="fill:url(#SVGID_00000155842768546791530580000005723724517257281943_);" d="M2810.991,2756.941
					c0.79,0,1.591-0.213,2.316-0.653c2.101-1.284,2.767-4.023,1.489-6.122c-0.749-1.232-18.758-30.34-55.2-47.922
					c-2.214-1.062-4.881-0.144-5.954,2.077c-1.069,2.216-0.139,4.885,2.079,5.952c33.974,16.393,51.288,44.251,51.46,44.53
					C2808.021,2756.179,2809.489,2756.941,2810.991,2756.941z"/>
				<g>
					
						<linearGradient id="SVGID_00000112634355614588588570000009795661831996355983_" gradientUnits="userSpaceOnUse" x1="-2769.6155" y1="2473.071" x2="-2935.1438" y2="2619.6499" gradientTransform="matrix(-1 0 0 1 83.0112 0)">
						<stop  offset="0" style="stop-color:#F9B776"/>
						<stop  offset="1" style="stop-color:#F47960"/>
					</linearGradient>
					<path style="fill:url(#SVGID_00000112634355614588588570000009795661831996355983_);" d="M2948.337,2465.147
						c-5.721,41.385-22.623,86.526-56.436,134.475l-12.853-10.479c0,0,14.837-60.201,6.403-128.522
						C2906.308,2456.553,2930.942,2460.748,2948.337,2465.147z"/>
					
						<linearGradient id="SVGID_00000044147069679076819890000005733447199251422880_" gradientUnits="userSpaceOnUse" x1="-2486.7554" y1="2081.9348" x2="-3547.9177" y2="3004.8772" gradientTransform="matrix(-1 0 0 1 83.0112 0)">
						<stop  offset="0" style="stop-color:#FDF53F"/>
						<stop  offset="1" style="stop-color:#D93C65"/>
					</linearGradient>
					<path style="fill:url(#SVGID_00000044147069679076819890000005733447199251422880_);" d="M2816.73,2319.799l19.893-109.614
						c0,0,132.913,101.597,111.714,254.963c-17.395-4.4-42.029-8.594-62.886-4.525
						C2879.374,2411.406,2861.223,2357.977,2816.73,2319.799z"/>
				</g>
				<g>
					
						<linearGradient id="SVGID_00000084531181116328458920000008229390758919004837_" gradientUnits="userSpaceOnUse" x1="-2319.9412" y1="2273.7297" x2="-3381.1064" y2="3196.6746" gradientTransform="matrix(-1 0 0 1 83.0112 0)">
						<stop  offset="0" style="stop-color:#FDF53F"/>
						<stop  offset="1" style="stop-color:#D93C65"/>
					</linearGradient>
					<path style="fill:url(#SVGID_00000084531181116328458920000008229390758919004837_);" d="M2573.789,2300.08l51.304,110.491
						c-8.295,66.707-44.13,95.55-82.768,106.613c-2.41-30.402-10.097-54.964-17.23-71.954
						C2574.465,2394.258,2573.789,2300.08,2573.789,2300.08z"/>
					
						<linearGradient id="SVGID_00000000914528631951058690000000972879883638848413_" gradientUnits="userSpaceOnUse" x1="-2459.3142" y1="2486.9358" x2="-2328.9539" y2="2486.9358" gradientTransform="matrix(-1 0 0 1 83.0112 0)">
						<stop  offset="0" style="stop-color:#F9B776"/>
						<stop  offset="1" style="stop-color:#F47960"/>
					</linearGradient>
					<path style="fill:url(#SVGID_00000000914528631951058690000000972879883638848413_);" d="M2525.095,2445.23
						c7.133,16.99,14.82,41.552,17.23,71.954c-103.087,39.996-130.36-37.571-130.36-37.571l19.052-3.361
						C2474.04,2480.784,2504.094,2466.914,2525.095,2445.23z"/>
				</g>
				
					<linearGradient id="SVGID_00000020381588072108323650000006944560298158673307_" gradientUnits="userSpaceOnUse" x1="-2586.0273" y1="2138.5662" x2="-2587.4512" y2="2382.0042" gradientTransform="matrix(-1 0 0 1 83.0112 0)">
					<stop  offset="0" style="stop-color:#F9B776"/>
					<stop  offset="1" style="stop-color:#F47960"/>
				</linearGradient>
				<path style="fill:url(#SVGID_00000020381588072108323650000006944560298158673307_);" d="M2621.058,2163.67l24.768,91.051
					c2.782,10.228,13.846,15.721,23.689,11.787c10.622-4.247,24.098-10.042,35.699-16.306c12.383-6.686,16.257-22.615,8.419-34.303
					l-51.494-76.781L2621.058,2163.67z"/>
			</g>
			<g>
				
					<linearGradient id="SVGID_00000062161236302454576300000018317484307126791043_" gradientUnits="userSpaceOnUse" x1="-2855.0295" y1="3204.7881" x2="-2974.8611" y2="3363.3154" gradientTransform="matrix(-0.9897 -0.1428 -0.1428 0.9897 222.066 -1480.9402)">
					<stop  offset="0" style="stop-color:#F9B776"/>
					<stop  offset="1" style="stop-color:#F47960"/>
				</linearGradient>
				<path style="fill:url(#SVGID_00000062161236302454576300000018317484307126791043_);" d="M2566.871,2094.493
					c-0.226,1.564,20.658,103.903,20.658,103.903l58.181-13.166l-5.383-99.938
					C2640.327,2085.292,2570.647,2068.317,2566.871,2094.493z"/>
				
					<linearGradient id="SVGID_00000137092418912988911460000001334218156351927477_" gradientUnits="userSpaceOnUse" x1="-2946.5469" y1="3243.0288" x2="-2803.4065" y2="3243.0288" gradientTransform="matrix(-0.9897 -0.1428 -0.1428 0.9897 222.066 -1480.9402)">
					<stop  offset="0" style="stop-color:#2B3582"/>
					<stop  offset="1" style="stop-color:#150E42"/>
				</linearGradient>
				<path style="fill:url(#SVGID_00000137092418912988911460000001334218156351927477_);" d="M2627.241,2107.562l6.953,52.387
					c0.089,0.672,0.089,1.335-0.008,2.006c-0.587,4.106-3.641,18.086-17.754,14.088c-12.806-3.627-24.546-6.747-32.656-4.267
					c-3.641,1.114-5.838,4.802-5.076,8.533c1.9,9.298,6.569,30.17,13.391,47.686c1.385,3.554,5.277,5.42,8.939,4.353
					c11.034-3.217,34.117-10.653,51.285-20.984c2.326-1.4,3.712-3.93,3.598-6.643c-0.558-13.225-2.105-53.427-0.803-64.696
					c1.222-10.577,14.203-16.914,19.843-19.186c1.849-0.745,3.299-2.202,4.037-4.053c2.612-6.545,6.212-21.69-12.874-27.897
					c-3.995-1.299-6.1-5.605-4.68-9.559c2.826-7.87,4.019-19.881-10.747-26.498c-15.008-6.726-26.216,1.275-32.268,7.777
					c-2.447,2.629-6.374,3.03-9.41,1.111c-1.729-1.092-3.955-1.45-6.646,0.226c-3.625,2.259-8.426,0.719-10.297-3.12
					c-3.594-7.377-10.918-15.279-25.611-12.762c-26.072,4.465-29.025,33.356-22.147,50.285c6.877,16.93,34.869,10.482,48.911,1.947
					c10.677-6.49,24.526,0.312,30.551,3.946C2625.685,2103.392,2626.948,2105.352,2627.241,2107.562z"/>
				
					<linearGradient id="SVGID_00000060726372380534194600000018432238958949986203_" gradientUnits="userSpaceOnUse" x1="-3030.5354" y1="3330.3291" x2="-2934.4209" y2="3231.7183" gradientTransform="matrix(-0.9897 -0.1428 -0.1428 0.9897 222.066 -1480.9402)">
					<stop  offset="0" style="stop-color:#F9B776"/>
					<stop  offset="1" style="stop-color:#F47960"/>
				</linearGradient>
				<path style="fill:url(#SVGID_00000060726372380534194600000018432238958949986203_);" d="M2657.454,2159.125
					c0,0-10.718-30.014,0.293-37.364s27.321-3.534,23.73,18.208C2677.011,2167.014,2657.454,2159.125,2657.454,2159.125z"/>
			</g>
			
				<linearGradient id="SVGID_00000043424081392550757940000015868260681308275859_" gradientUnits="userSpaceOnUse" x1="-2342.8035" y1="2471.6257" x2="-2296.1204" y2="2471.6257" gradientTransform="matrix(-1 0 0 1 83.0112 0)">
				<stop  offset="0" style="stop-color:#F9B776"/>
				<stop  offset="1" style="stop-color:#F47960"/>
			</linearGradient>
			<path style="fill:url(#SVGID_00000043424081392550757940000015868260681308275859_);" d="M2419.607,2493.805
				c-5.189,4.054-22.966-4.409-33.844-10.26c-5.302-2.851-7.869-9.051-6.049-14.789c2.618-8.256,6.98-18.912,12.354-20.255
				C2400.985,2446.271,2440.99,2477.1,2419.607,2493.805z"/>
			<g>
				<g>
					
						<linearGradient id="SVGID_00000039117420615096242760000004208540073432839572_" gradientUnits="userSpaceOnUse" x1="-2091.5354" y1="2247.759" x2="-3595.1584" y2="3344.6257" gradientTransform="matrix(-1 0 0 1 83.0112 0)">
						<stop  offset="0" style="stop-color:#CE1567"/>
						<stop  offset="1" style="stop-color:#7A1DBC"/>
					</linearGradient>
					<path style="fill:url(#SVGID_00000039117420615096242760000004208540073432839572_);" d="M3235.515,2732.835l-1036.652-368.688
						l-54.846,152.35l1036.293,378.987c22.01,8.05,46.574-0.878,58.369-21.13c12.114-20.803,23.69-53.307,24.388-101.992
						C3263.321,2754.662,3252.194,2738.767,3235.515,2732.835z"/>
					<g>
						
							<linearGradient id="SVGID_00000079463141686890163350000005367926057305021848_" gradientUnits="userSpaceOnUse" x1="1870.0573" y1="2370.7598" x2="2021.3512" y2="2370.7598">
							<stop  offset="0" style="stop-color:#A737D5"/>
							<stop  offset="1" style="stop-color:#EF497A"/>
						</linearGradient>
						<path style="fill:url(#SVGID_00000079463141686890163350000005367926057305021848_);" d="M1878.155,2324.771l143.196,17.581
							c-0.151,19.709-6.605,45.206-28.45,74.458l-119.587-78.887C1866.965,2333.735,1870.606,2323.844,1878.155,2324.771z"/>
						
							<linearGradient id="SVGID_00000109025731093135517340000009875217459557386414_" gradientUnits="userSpaceOnUse" x1="-1865.6604" y1="2239.1895" x2="-2598.9717" y2="2992.8147" gradientTransform="matrix(-1 0 0 1 83.0112 0)">
							<stop  offset="0" style="stop-color:#FDF53F"/>
							<stop  offset="1" style="stop-color:#D93C65"/>
						</linearGradient>
						<path style="fill:url(#SVGID_00000109025731093135517340000009875217459557386414_);" d="M2198.863,2364.146
							c6.56,95.478-54.846,152.35-54.846,152.35l-151.117-99.687c21.845-29.252,28.299-54.749,28.45-74.458L2198.863,2364.146z"/>
					</g>
				</g>
				
					<linearGradient id="SVGID_00000032641680093773965990000016822284450797423750_" gradientUnits="userSpaceOnUse" x1="-2312.8486" y1="2261.1887" x2="-2974.6411" y2="2941.3137" gradientTransform="matrix(-1 0 0 1 83.0112 0)">
					<stop  offset="0" style="stop-color:#B37CFF"/>
					<stop  offset="1" style="stop-color:#F895E7"/>
				</linearGradient>
				<path style="fill:url(#SVGID_00000032641680093773965990000016822284450797423750_);" d="M3222.655,2779.553
					c1.256,0,2.431-0.78,2.871-2.032c0.563-1.586-0.271-3.327-1.857-3.886l-991.798-350.509c-1.592-0.559-3.33,0.271-3.886,1.857
					c-0.562,1.586,0.271,3.327,1.857,3.886l991.798,350.509C3221.977,2779.497,3222.319,2779.553,3222.655,2779.553z"/>
				
					<linearGradient id="SVGID_00000059274563714382399200000009849340505919727491_" gradientUnits="userSpaceOnUse" x1="-2295.7383" y1="2320.957" x2="-2957.5322" y2="3001.0835" gradientTransform="matrix(-1 0 0 1 83.0112 0)">
					<stop  offset="0" style="stop-color:#B37CFF"/>
					<stop  offset="1" style="stop-color:#F895E7"/>
				</linearGradient>
				<path style="fill:url(#SVGID_00000059274563714382399200000009849340505919727491_);" d="M3205.545,2839.323
					c1.256,0,2.431-0.78,2.872-2.032c0.562-1.586-0.271-3.327-1.857-3.886l-991.798-350.512c-1.592-0.559-3.327,0.268-3.886,1.857
					c-0.563,1.586,0.271,3.327,1.857,3.886l991.798,350.512C3204.867,2839.267,3205.21,2839.323,3205.545,2839.323z"/>
			</g>
			
				<linearGradient id="SVGID_00000031182250161992068240000009746586487022333614_" gradientUnits="userSpaceOnUse" x1="-2704.248" y1="2546.8887" x2="-2869.7764" y2="2693.4678" gradientTransform="matrix(-1 0 0 1 83.0112 0)">
				<stop  offset="0" style="stop-color:#F9B776"/>
				<stop  offset="1" style="stop-color:#F47960"/>
			</linearGradient>
			<path style="fill:url(#SVGID_00000031182250161992068240000009746586487022333614_);" d="M2884.348,2587.32l-59.998-4.89
				l-25.984,23.952c0,0,6.147,8.498,25.366,3.613s45.545-6.083,45.545-6.083s26.531,11.961,26.854-10.419L2884.348,2587.32z"/>
		</g>
	</g>
</g>
</svg>
