<svg width="3500" height="2000" viewBox="0 0 3500 2000" fill="none" xmlns="http://www.w3.org/2000/svg">
<g clip-path="url(#clip0_1_4)">
<path d="M623.742 1821.23H2975.39C3014.07 1761.6 3019.11 1671.07 2999.99 1602.62C2980.87 1534.17 2931.27 1474.84 2867.29 1443.88C2813.23 1417.73 2748.93 1410.31 2703.76 1370.73C2648.49 1322.3 2638.77 1241.89 2615.83 1172.08C2557.94 995.996 2382.59 861.382 2197.27 864.498C2028.93 867.328 1881.84 971.153 1739.79 1061.53C1597.74 1151.91 1430.24 1235.43 1267.36 1192.82C1221.98 1180.95 1179.34 1159.61 1133.48 1149.8C991.379 1119.41 834.546 1222.22 805.747 1364.65C784.341 1470.52 821.621 1596.09 751.11 1677.91C706.136 1730.09 629.867 1752.61 623.742 1821.23Z" fill="#C29739"/>
<path d="M2624.24 349.55C2590.25 340.789 2556.05 338.311 2522.5 344.854C2349.69 378.552 2419.46 566.091 2366.02 679.851C2353.83 705.789 2337.26 729.724 2317.08 750.091C2248.34 819.493 2179.27 862.423 2181.31 971.306C2182.93 1057.83 2229.52 1143.34 2298.01 1195.34C2357.94 1240.86 2435.58 1261.82 2510.33 1254.62C2595.74 1246.4 2628.31 1188.08 2676 1124.51C2750.57 1025.12 2847.36 1067.3 2951.52 1039.82C3026.53 1020.04 3084.02 950.46 3097.43 875.195C3122.51 734.449 3025.99 631.173 2928.47 546.845C2850.4 479.341 2738.44 378.984 2624.24 349.55Z" fill="#CCE6FF"/>
<path d="M2495.4 1256.51C2429.14 1256.51 2363.56 1235.03 2311.82 1195.74C2241.31 1142.2 2196.52 1056.2 2194.93 971.315C2193.23 880.452 2241.14 835.204 2296.62 782.812C2307.79 772.265 2319.34 761.359 2330.85 749.739C2350.92 729.469 2367.36 705.884 2379.69 679.638C2397.62 641.473 2401.71 594.312 2405.66 548.704C2409.55 503.89 2413.57 457.55 2430.9 420.713C2440.23 400.867 2452.58 385.229 2468.65 372.903C2486.67 359.091 2508.87 349.755 2536.52 344.363C2568.15 338.198 2602.45 339.779 2638.49 349.065C2747.6 377.189 2854.21 469.589 2932.05 537.057C2935.74 540.255 2939.36 543.395 2942.92 546.467C3023.42 616.075 3054.97 659.525 3073.47 689.601C3110.86 750.387 3123.48 811.123 3112.04 875.283C3105.42 912.458 3087.67 949.166 3062.07 978.643C3035.35 1009.42 3002.05 1030.74 2965.77 1040.31C2931.65 1049.31 2898.45 1050.84 2866.34 1052.32C2833.26 1053.84 2802.01 1055.28 2772.52 1064.7C2739.42 1075.26 2713.36 1094.36 2690.52 1124.81C2685.18 1131.93 2679.99 1139.04 2674.97 1145.91C2635.04 1200.58 2600.56 1247.8 2524.5 1255.12C2514.82 1256.05 2505.1 1256.51 2495.4 1256.51ZM2575.53 341.68C2562.21 341.68 2549.25 342.9 2536.72 345.344C2509.22 350.707 2487.15 359.981 2469.26 373.697C2453.32 385.923 2441.06 401.441 2431.8 421.139C2414.55 457.814 2410.54 504.064 2406.66 548.79C2402.7 594.486 2398.6 641.737 2380.59 680.063C2368.21 706.412 2351.72 730.091 2331.56 750.443C2320.04 762.075 2308.48 772.987 2297.31 783.539C2242 835.768 2194.24 880.875 2195.93 971.296C2197.52 1055.88 2242.16 1141.58 2312.43 1194.94C2371.54 1239.83 2448.81 1261.41 2524.4 1254.12C2600.01 1246.85 2634.38 1199.8 2674.16 1145.32C2679.19 1138.44 2684.38 1131.33 2689.73 1124.21C2740.04 1057.14 2801.37 1054.31 2866.3 1051.32C2898.35 1049.84 2931.5 1048.31 2965.51 1039.34C3001.6 1029.82 3034.73 1008.61 3061.32 977.987C3086.8 948.644 3104.47 912.107 3111.06 875.107C3122.45 811.2 3109.88 750.693 3072.62 690.125C3054.16 660.11 3022.66 616.742 2942.27 547.224C2938.71 544.152 2935.09 541.011 2931.4 537.813C2853.63 470.41 2747.13 378.099 2638.24 350.034C2616.64 344.468 2595.67 341.68 2575.53 341.68Z" fill="#102A54"/>
<path d="M1096.33 454.151C1021.52 401.35 925.738 389.231 862.374 464.942C817.214 518.902 803.337 594.203 747.178 639.922C685.287 690.307 595.663 689.004 536.383 742.704C447.233 823.468 421.635 976.387 490.277 1076.96C573.348 1198.68 799.781 1281.28 942.452 1267.22C1069.47 1254.7 1178.1 1160.81 1217.7 1040.52C1247.77 949.182 1239.73 850.331 1223.74 757.122C1209.6 674.685 1199.85 568.315 1146.29 500.68C1133.06 483.979 1115.89 467.961 1096.33 454.151Z" fill="#CCE6FF"/>
<path d="M890.89 1261.31C826.248 1261.31 748.059 1244.95 674.905 1215.53C630.892 1197.84 591.123 1176.63 556.702 1152.49C519.81 1126.62 490.955 1098.63 470.941 1069.31C438.082 1021.16 425.225 959.041 434.74 894.392C443.953 831.796 473.981 773.478 517.124 734.394C547.826 706.582 587.294 693.269 625.462 680.394C661.169 668.349 698.092 655.894 727.939 631.596C760.224 605.313 778.848 568.539 796.859 532.976C810.152 506.728 823.898 479.586 843.067 456.683C872.512 421.5 911.385 402.916 955.505 402.916C955.719 402.916 955.925 402.916 956.139 402.917C995.567 403.076 1038.73 418.307 1077.69 445.805C1097.18 459.561 1114.49 475.685 1127.76 492.432C1173.87 550.667 1187.48 636.971 1199.48 713.116C1201.46 725.666 1203.33 737.521 1205.31 749.1C1214.82 804.533 1219.35 849.808 1219.57 891.583C1219.84 944.202 1213.2 990.373 1199.25 1032.74C1158.58 1156.29 1047.79 1247.53 923.578 1259.78C913.169 1260.8 902.234 1261.31 890.89 1261.31ZM955.505 403.915C911.687 403.915 873.084 422.374 843.834 457.324C824.739 480.14 811.019 507.23 797.751 533.427C779.693 569.083 761.02 605.953 728.57 632.37C698.583 656.783 661.573 669.267 625.781 681.34C548.342 707.463 532.812 721.53 517.795 735.134C474.82 774.066 444.908 832.166 435.729 894.536C426.25 958.935 439.049 1020.8 471.767 1068.74C491.713 1097.97 520.483 1125.87 557.276 1151.67C591.634 1175.76 631.336 1196.94 675.278 1214.6C761.127 1249.12 853.913 1265.64 923.48 1258.78C1047.31 1246.57 1157.75 1155.61 1198.3 1032.42C1230.12 935.781 1218.23 830.335 1204.33 749.268C1202.34 737.683 1200.47 725.825 1198.49 713.27C1186.51 637.247 1172.93 551.081 1126.97 493.052C1113.77 476.379 1096.53 460.323 1077.12 446.621C1038.32 419.24 995.36 404.074 956.136 403.916C955.925 403.915 955.714 403.915 955.505 403.915Z" fill="#102A54"/>
<path d="M636.018 915.807L1049.69 753.334C1052.55 752.211 1055.79 752.76 1058.12 754.762L1100.87 791.47L623.742 981.446L630.816 922.537C631.179 919.508 633.178 916.922 636.018 915.807Z" fill="#FCA714"/>
<path d="M623.742 981.446L626.242 1050.91C626.394 1055.14 630.688 1057.95 634.627 1056.4L1143.77 855.212C1147.66 853.674 1148.9 848.774 1146.21 845.566L1100.87 791.47L623.742 981.446Z" fill="#FFB841"/>
<path d="M1412.6 596.408C1434.2 574.806 1434.2 539.781 1412.6 518.179C1391 496.577 1355.97 496.577 1334.37 518.179C1312.77 539.781 1312.77 574.806 1334.37 596.408C1355.97 618.011 1391 618.011 1412.6 596.408Z" fill="#F3F6FD"/>
<path d="M857.347 1452.99C865.444 1445.91 866.273 1433.62 859.2 1425.52C852.127 1417.42 839.83 1416.59 831.734 1423.67C823.637 1430.74 822.808 1443.04 829.881 1451.13C836.954 1459.23 849.251 1460.06 857.347 1452.99Z" fill="#F3F6FD"/>
<path d="M2029.85 846.643C2031.93 837.85 2026.48 829.04 2017.69 826.964C2008.9 824.888 2000.09 830.332 1998.01 839.124C1995.93 847.917 2001.38 856.727 2010.17 858.803C2018.96 860.879 2027.77 855.435 2029.85 846.643Z" fill="#F3F6FD"/>
<path d="M2262.74 629.514C2293.85 598.406 2293.85 547.97 2262.74 516.863C2231.63 485.755 2181.19 485.755 2150.09 516.863C2118.98 547.97 2118.98 598.406 2150.09 629.514C2181.19 660.621 2231.63 660.621 2262.74 629.514Z" fill="#F3F6FD"/>
<path d="M2998.43 1232.7C3016.3 1214.83 3016.3 1185.86 2998.43 1167.99C2980.56 1150.12 2951.59 1150.12 2933.72 1167.99C2915.84 1185.86 2915.84 1214.83 2933.72 1232.7C2951.59 1250.57 2980.56 1250.57 2998.43 1232.7Z" fill="#F3F6FD"/>
<path d="M2452.16 1597.72C2463.39 1597.72 2472.49 1588.61 2472.49 1577.38C2472.49 1566.15 2463.39 1557.05 2452.16 1557.05C2440.93 1557.05 2431.83 1566.15 2431.83 1577.38C2431.83 1588.61 2440.93 1597.72 2452.16 1597.72Z" fill="#F3F6FD"/>
<path d="M1368.02 1028.66C1384.72 1028.66 1398.25 1015.12 1398.25 998.429C1398.25 981.735 1384.72 968.202 1368.02 968.202C1351.33 968.202 1337.8 981.735 1337.8 998.429C1337.8 1015.12 1351.33 1028.66 1368.02 1028.66Z" fill="#F3F6FD"/>
<path d="M1171.11 1697.78C1173.81 1681.15 1162.51 1665.48 1145.88 1662.78C1129.26 1660.08 1113.59 1671.38 1110.89 1688.01C1108.19 1704.63 1119.48 1720.3 1136.11 1723C1152.74 1725.7 1168.41 1714.41 1171.11 1697.78Z" fill="#F3F6FD"/>
<path d="M1719.23 195.281C1737.5 186.947 1758.82 184.546 1783.18 188.085C1815.19 192.734 1840.66 204.244 1859.62 222.615C1878.56 240.985 1885.86 265.183 1881.5 295.205C1878.82 313.616 1871.98 328.457 1860.97 339.727C1854.49 346.595 1842.76 354.869 1825.78 364.549L1809.04 374.048C1799.92 379.23 1793.41 385.875 1789.49 393.983C1789.14 394.717 1788.79 395.514 1788.45 396.373C1783.43 409.06 1770.58 416.831 1757.08 414.87L1756.69 414.813C1739.04 412.249 1727.86 394.531 1733.09 377.48C1735.17 370.731 1737.3 365.46 1739.51 361.668C1744.5 353.067 1755.49 343.926 1772.47 334.244L1789.69 324.382C1795.33 321.297 1800.03 317.716 1803.8 313.634C1810.57 306.667 1814.64 298.507 1816 289.16C1817.56 278.399 1815.84 268.134 1810.84 258.369C1805.84 248.607 1795.01 242.512 1778.34 240.09C1761.95 237.709 1749.53 241.474 1741.09 251.382C1737.48 255.63 1734.48 260.047 1732.1 264.632C1726.35 275.728 1714.45 282.217 1702.08 280.42L1698.05 279.835C1678.77 277.035 1667.47 256.342 1675.89 238.776C1685.68 218.369 1700.13 203.87 1719.23 195.281ZM1748.57 443.352L1754.57 444.223C1770.45 446.53 1781.46 461.278 1779.15 477.162L1778.59 481.032C1776.28 496.916 1761.53 507.922 1745.65 505.615L1739.65 504.744C1723.77 502.437 1712.76 487.69 1715.07 471.805L1715.63 467.935C1717.94 452.051 1732.69 441.044 1748.57 443.352Z" fill="#CCE6FF"/>
<path d="M1754.09 511.729C1752.68 511.729 1751.26 511.628 1749.82 511.419L1743.83 510.548C1736.01 509.413 1729.11 505.302 1724.38 498.974C1719.66 492.645 1717.69 484.857 1718.82 477.043L1719.38 473.172C1721.73 457.04 1736.76 445.817 1752.89 448.166L1758.88 449.037C1775.02 451.38 1786.23 466.411 1783.89 482.542L1783.33 486.413C1781.19 501.11 1768.53 511.729 1754.09 511.729ZM1748.62 448.857C1734.67 448.857 1722.43 459.115 1720.37 473.316L1719.81 477.187C1718.71 484.737 1720.62 492.262 1725.19 498.376C1729.75 504.49 1736.42 508.461 1743.97 509.559L1749.96 510.43C1765.55 512.696 1780.07 501.855 1782.34 486.27L1782.9 482.399C1785.16 466.814 1774.33 452.292 1758.74 450.027L1752.74 449.156C1751.36 448.955 1749.98 448.857 1748.62 448.857ZM1765.5 420.983C1764.09 420.983 1762.68 420.882 1761.26 420.675L1760.86 420.619C1752.32 419.377 1744.76 414.478 1740.14 407.179C1735.52 399.865 1734.32 390.923 1736.86 382.644C1738.94 375.889 1741.11 370.534 1743.32 366.727C1748.34 358.09 1759.49 348.802 1776.47 339.121L1793.69 329.259C1799.27 326.207 1803.97 322.624 1807.68 318.606C1814.36 311.737 1818.42 303.596 1819.75 294.399C1821.29 283.792 1819.58 273.533 1814.65 263.907C1809.75 254.341 1798.93 248.28 1782.51 245.895C1766.38 243.554 1754 247.293 1745.72 257.017C1742.15 261.216 1739.15 265.642 1736.8 270.174C1730.88 281.57 1718.61 288.019 1706.26 286.226L1702.23 285.641C1692.79 284.269 1684.79 278.644 1680.3 270.209C1675.87 261.902 1675.65 252.303 1679.69 243.871C1689.48 223.448 1704.15 208.732 1723.27 200.134C1741.55 191.797 1763.16 189.364 1787.5 192.899C1819.46 197.542 1845.27 209.205 1864.21 227.565C1883.19 245.97 1890.61 270.538 1886.24 300.586C1883.56 319.019 1876.61 334.091 1865.57 345.385C1859.1 352.253 1847.22 360.635 1830.28 370.292L1813.54 379.792C1804.55 384.897 1798.04 391.531 1794.19 399.51C1793.84 400.236 1793.49 401.029 1793.16 401.867C1788.54 413.558 1777.53 420.982 1765.5 420.983ZM1773.58 244.217C1776.47 244.217 1779.49 244.446 1782.66 244.906C1799.42 247.341 1810.48 253.58 1815.54 263.451C1820.56 273.266 1822.31 283.726 1820.74 294.542C1819.38 303.952 1815.22 312.279 1808.4 319.292C1804.63 323.381 1799.84 327.03 1794.18 330.13L1776.96 339.988C1760.14 349.581 1749.12 358.746 1744.19 367.228C1742.01 370.969 1739.87 376.253 1737.82 382.936C1735.36 390.935 1736.52 399.575 1740.99 406.642C1745.45 413.695 1752.75 418.428 1761.01 419.627L1761.4 419.683C1774.56 421.603 1787.24 414.117 1792.23 401.497C1792.57 400.637 1792.93 399.822 1793.29 399.074C1797.23 390.908 1803.88 384.128 1813.04 378.921L1829.78 369.421C1846.64 359.815 1858.44 351.494 1864.85 344.691C1875.74 333.545 1882.6 318.659 1885.25 300.441C1889.57 270.728 1882.25 246.45 1863.52 228.281C1844.73 210.07 1819.1 198.499 1787.35 193.886C1763.21 190.379 1741.79 192.787 1723.69 201.043L1723.68 201.044C1704.78 209.543 1690.28 224.097 1680.59 244.302C1676.69 252.443 1676.9 261.714 1681.18 269.737C1685.52 277.889 1693.25 283.324 1702.37 284.65L1706.4 285.235C1718.34 286.967 1730.19 280.73 1735.91 269.711C1738.3 265.113 1741.34 260.624 1744.96 256.367C1751.84 248.287 1761.45 244.217 1773.58 244.217Z" fill="#102A54"/>
<path d="M840.001 1593.33C767.274 1532.97 669.048 1504.42 575.296 1516.37C602.294 1543.58 632.379 1567.35 663.366 1589.91C678.861 1601.19 694.989 1611.95 712.911 1618.74C754.876 1634.66 805.673 1622.24 840.001 1593.33Z" fill="#6CB597"/>
<path d="M866.143 1604.45C910.003 1544.6 977.561 1502.61 1050.65 1489.79C1041.42 1520.87 1027.91 1551.07 1011.52 1579.04C995.764 1605.94 974.063 1632.87 943.503 1638.99C914.75 1644.75 888.025 1623.98 866.143 1604.45Z" fill="#6CB597"/>
<path d="M678.303 1364.96C704.705 1447.49 764.467 1518.81 841.1 1559.25C850.1 1510.83 839.453 1458.12 805.825 1422.13C771.508 1385.41 726.892 1377.83 678.303 1364.96Z" fill="#6CB597"/>
<path d="M862.917 1564.88C844.047 1496.41 863.719 1418.64 912.879 1367.38C923.329 1397.67 931.386 1434.58 931.602 1466.62C931.752 1488.88 928.978 1512.27 916.143 1530.45C902.84 1549.3 883.99 1555.49 862.917 1564.88Z" fill="#6CB597"/>
<path d="M858.941 1697.69L839.033 1559.65C832.539 1532.92 811.759 1488.43 749.686 1428.15C712.396 1391.93 677.433 1366.92 677.084 1366.67C676.138 1366 675.917 1364.69 676.591 1363.74C677.264 1362.8 678.577 1362.57 679.524 1363.25C679.875 1363.5 715.058 1388.66 752.573 1425.09C815.474 1486.16 836.545 1531.49 843.144 1558.76L843.181 1558.95L858.642 1666.16C858.484 1633.49 858.652 1584.3 860.827 1564.65C864.2 1534.16 908.951 1373.63 910.854 1366.81C911.166 1365.69 912.322 1365.04 913.445 1365.35C914.564 1365.66 915.217 1366.82 914.905 1367.94C914.44 1369.61 868.343 1534.96 865.007 1565.11C861.668 1595.3 863.11 1696.34 863.125 1697.35L858.941 1697.69Z" fill="#102A54"/>
<path d="M856.191 1727.33L838.993 1601.49C838.383 1597.02 835.63 1593.13 831.63 1591.07C805.357 1577.55 752.655 1560.7 679.222 1542.36C623.658 1528.48 575.354 1518.53 574.873 1518.43C573.735 1518.2 573.002 1517.09 573.236 1515.95C573.469 1514.81 574.579 1514.08 575.718 1514.31C576.201 1514.41 624.578 1524.38 680.225 1538.28C755.029 1556.96 806.616 1573.46 833.553 1587.33C838.772 1590.01 842.363 1595.09 843.159 1600.92L855.505 1691.27L864.12 1603.53L864.617 1603.01C880.721 1586.04 1042.71 1491.97 1049.6 1487.98C1050.6 1487.39 1051.89 1487.73 1052.47 1488.74C1053.05 1489.74 1052.71 1491.03 1051.71 1491.61C1050.04 1492.58 886.555 1587.51 868.162 1605.4L856.191 1727.33Z" fill="#102A54"/>
<path d="M796.356 1658.52H916.87C922.353 1658.52 926.466 1663.54 925.39 1668.91L897.215 1809.78C895.995 1815.88 890.641 1820.27 884.422 1820.27H829.63C823.439 1820.27 818.101 1815.92 816.852 1809.85L787.844 1668.96C786.736 1663.57 790.853 1658.52 796.356 1658.52Z" fill="#102A54"/>
<path d="M3251.22 1825.62H297.632C294.678 1825.62 292.283 1823.22 292.283 1820.27C292.283 1817.31 294.678 1814.92 297.632 1814.92H3251.22C3254.17 1814.92 3256.57 1817.31 3256.57 1820.27C3256.57 1823.22 3254.17 1825.62 3251.22 1825.62Z" fill="#102A54"/>
<path d="M2538.95 1166.14C2538.95 1166.14 2563.95 1114.68 2569.23 1107.81C2574.51 1100.94 2628.4 1067.13 2628.4 1067.13C2628.4 1067.13 2633.68 1077.7 2631.04 1084.04C2628.4 1090.38 2604.63 1118.91 2604.63 1118.91L2670.67 1104.64C2670.67 1104.64 2737.77 1067.66 2742.52 1071.89C2747.28 1076.11 2743.78 1154.57 2727.2 1166.14C2713.79 1175.49 2605.16 1188.12 2605.16 1188.12L2581.48 1209.91L2538.95 1166.14Z" fill="#FFC0B1"/>
<mask id="mask0_1_4" style="mask-type:luminance" maskUnits="userSpaceOnUse" x="2538" y="1067" width="207" height="143">
<path d="M2538.95 1166.14C2538.95 1166.14 2563.95 1114.68 2569.23 1107.81C2574.51 1100.94 2628.4 1067.13 2628.4 1067.13C2628.4 1067.13 2633.68 1077.7 2631.04 1084.04C2628.4 1090.38 2604.63 1118.91 2604.63 1118.91L2670.67 1104.64C2670.67 1104.64 2737.77 1067.66 2742.52 1071.89C2747.28 1076.11 2743.78 1154.57 2727.2 1166.14C2713.79 1175.49 2605.16 1188.12 2605.16 1188.12L2581.48 1209.91L2538.95 1166.14Z" fill="white"/>
</mask>
<g mask="url(#mask0_1_4)">
<path d="M2658.48 1130.58C2657.41 1130.58 2656.4 1129.9 2656.04 1128.83C2655.58 1127.48 2656.3 1126.02 2657.65 1125.56L2692.2 1113.83C2693.69 1113.44 2695.07 1112.82 2696.97 1111.66L2743.94 1084.6C2745.17 1083.89 2746.75 1084.31 2747.46 1085.54C2748.17 1086.78 2747.75 1088.35 2746.52 1089.06L2699.6 1116.1C2697.36 1117.46 2695.54 1118.28 2693.58 1118.8L2659.31 1130.44C2659.03 1130.54 2658.75 1130.58 2658.48 1130.58Z" fill="#102A54"/>
</g>
<mask id="mask1_1_4" style="mask-type:luminance" maskUnits="userSpaceOnUse" x="2538" y="1067" width="207" height="143">
<path d="M2538.95 1166.14C2538.95 1166.14 2563.95 1114.68 2569.23 1107.81C2574.51 1100.94 2628.4 1067.13 2628.4 1067.13C2628.4 1067.13 2633.68 1077.7 2631.04 1084.04C2628.4 1090.38 2604.63 1118.91 2604.63 1118.91L2670.67 1104.64C2670.67 1104.64 2737.77 1067.66 2742.52 1071.89C2747.28 1076.11 2743.78 1154.57 2727.2 1166.14C2713.79 1175.49 2605.16 1188.12 2605.16 1188.12L2581.48 1209.91L2538.95 1166.14Z" fill="white"/>
</mask>
<g mask="url(#mask1_1_4)">
<path d="M2665.9 1149.25C2664.83 1149.25 2663.82 1148.57 2663.46 1147.5C2663 1146.15 2663.72 1144.69 2665.07 1144.23L2699.62 1132.5C2701.11 1132.11 2702.5 1131.48 2704.39 1130.33L2751.36 1103.27C2752.6 1102.55 2754.17 1102.98 2754.88 1104.21C2755.59 1105.45 2755.17 1107.02 2753.94 1107.73L2707.02 1134.77C2704.78 1136.13 2702.96 1136.95 2701 1137.47L2666.73 1149.11C2666.45 1149.2 2666.17 1149.25 2665.9 1149.25Z" fill="#102A54"/>
</g>
<mask id="mask2_1_4" style="mask-type:luminance" maskUnits="userSpaceOnUse" x="2538" y="1067" width="207" height="143">
<path d="M2538.95 1166.14C2538.95 1166.14 2563.95 1114.68 2569.23 1107.81C2574.51 1100.94 2628.4 1067.13 2628.4 1067.13C2628.4 1067.13 2633.68 1077.7 2631.04 1084.04C2628.4 1090.38 2604.63 1118.91 2604.63 1118.91L2670.67 1104.64C2670.67 1104.64 2737.77 1067.66 2742.52 1071.89C2747.28 1076.11 2743.78 1154.57 2727.2 1166.14C2713.79 1175.49 2605.16 1188.12 2605.16 1188.12L2581.48 1209.91L2538.95 1166.14Z" fill="white"/>
</mask>
<g mask="url(#mask2_1_4)">
<path d="M2670.57 1168.16C2669.47 1168.16 2668.44 1167.44 2668.1 1166.33C2667.69 1164.97 2668.46 1163.53 2669.82 1163.11L2704.71 1152.45C2706.22 1152.11 2707.62 1151.52 2709.55 1150.43L2757.33 1124.82C2758.58 1124.15 2760.15 1124.62 2760.82 1125.88C2761.49 1127.13 2761.02 1128.69 2759.76 1129.37L2712.04 1154.95C2709.76 1156.24 2707.91 1157 2705.94 1157.46L2671.32 1168.04C2671.07 1168.12 2670.82 1168.16 2670.57 1168.16Z" fill="#102A54"/>
</g>
<path d="M2641.36 1165.37C2640.94 1165.37 2640.51 1165.27 2640.12 1165.05L2614.72 1151.06L2602.23 1119.87C2601.7 1118.54 2602.34 1117.04 2603.67 1116.51C2604.99 1115.98 2606.49 1116.63 2607.02 1117.95L2618.83 1147.43L2642.61 1160.53C2643.85 1161.22 2644.31 1162.79 2643.62 1164.04C2643.15 1164.89 2642.27 1165.37 2641.36 1165.37Z" fill="#102A54"/>
<path d="M1053.33 1166.63C1053.33 1166.63 1028.33 1115.18 1023.05 1108.31C1017.76 1101.44 963.875 1067.63 963.875 1067.63C963.875 1067.63 958.592 1078.19 961.233 1084.53C963.875 1090.87 987.649 1119.4 987.649 1119.4L921.609 1105.14C921.609 1105.14 854.512 1068.15 849.757 1072.38C845.002 1076.61 854.512 1154.16 865.078 1166.63C875.644 1179.1 987.12 1188.61 987.12 1188.61L1010.8 1210.4L1053.33 1166.63Z" fill="#FFC0B1"/>
<mask id="mask3_1_4" style="mask-type:luminance" maskUnits="userSpaceOnUse" x="848" y="1067" width="206" height="144">
<path d="M1053.33 1166.63C1053.33 1166.63 1028.33 1115.18 1023.05 1108.31C1017.76 1101.44 963.875 1067.63 963.875 1067.63C963.875 1067.63 958.592 1078.19 961.233 1084.53C963.875 1090.87 987.649 1119.4 987.649 1119.4L921.609 1105.14C921.609 1105.14 854.512 1068.15 849.757 1072.38C845.002 1076.61 854.512 1154.16 865.078 1166.63C875.644 1179.1 987.12 1188.61 987.12 1188.61L1010.8 1210.4L1053.33 1166.63Z" fill="white"/>
</mask>
<g mask="url(#mask3_1_4)">
<path d="M928.507 1131.28C928.248 1131.28 927.985 1131.24 927.724 1131.15L898.211 1121.76L847.143 1090.2C845.931 1089.45 845.556 1087.86 846.305 1086.65C847.054 1085.44 848.643 1085.06 849.855 1085.81L900.382 1117.04L929.288 1126.24C930.645 1126.67 931.395 1128.12 930.964 1129.48C930.615 1130.58 929.6 1131.28 928.507 1131.28Z" fill="#102A54"/>
</g>
<mask id="mask4_1_4" style="mask-type:luminance" maskUnits="userSpaceOnUse" x="848" y="1067" width="206" height="144">
<path d="M1053.33 1166.63C1053.33 1166.63 1028.33 1115.18 1023.05 1108.31C1017.76 1101.44 963.875 1067.63 963.875 1067.63C963.875 1067.63 958.592 1078.19 961.233 1084.53C963.875 1090.87 987.649 1119.4 987.649 1119.4L921.609 1105.14C921.609 1105.14 854.512 1068.15 849.757 1072.38C845.002 1076.61 854.512 1154.16 865.078 1166.63C875.644 1179.1 987.12 1188.61 987.12 1188.61L1010.8 1210.4L1053.33 1166.63Z" fill="white"/>
</mask>
<g mask="url(#mask4_1_4)">
<path d="M925.08 1149.78C924.896 1149.78 924.71 1149.76 924.523 1149.72L891.185 1142.39L840.015 1110.76C838.803 1110.01 838.428 1108.42 839.177 1107.21C839.926 1105.99 841.516 1105.62 842.727 1106.37L893.151 1137.54L925.632 1144.68C927.023 1144.99 927.903 1146.36 927.597 1147.75C927.331 1148.96 926.264 1149.78 925.08 1149.78Z" fill="#102A54"/>
</g>
<mask id="mask5_1_4" style="mask-type:luminance" maskUnits="userSpaceOnUse" x="848" y="1067" width="206" height="144">
<path d="M1053.33 1166.63C1053.33 1166.63 1028.33 1115.18 1023.05 1108.31C1017.76 1101.44 963.875 1067.63 963.875 1067.63C963.875 1067.63 958.592 1078.19 961.233 1084.53C963.875 1090.87 987.649 1119.4 987.649 1119.4L921.609 1105.14C921.609 1105.14 854.512 1068.15 849.757 1072.38C845.002 1076.61 854.512 1154.16 865.078 1166.63C875.644 1179.1 987.12 1188.61 987.12 1188.61L1010.8 1210.4L1053.33 1166.63Z" fill="white"/>
</mask>
<g mask="url(#mask5_1_4)">
<path d="M917.808 1167.92C917.624 1167.92 917.438 1167.9 917.251 1167.86L883.913 1160.53L832.743 1128.9C831.531 1128.15 831.156 1126.56 831.905 1125.35C832.654 1124.14 834.244 1123.76 835.455 1124.51L885.879 1155.68L918.36 1162.82C919.751 1163.13 920.631 1164.51 920.325 1165.9C920.059 1167.1 918.992 1167.92 917.808 1167.92Z" fill="#102A54"/>
</g>
<path d="M950.917 1165.86C950.007 1165.86 949.125 1165.38 948.655 1164.53C947.968 1163.28 948.422 1161.71 949.67 1161.03L973.448 1147.93L985.255 1118.44C985.785 1117.12 987.286 1116.48 988.609 1117.01C989.931 1117.54 990.574 1119.04 990.044 1120.36L977.552 1151.56L952.16 1165.54C951.765 1165.76 951.338 1165.86 950.917 1165.86Z" fill="#102A54"/>
<path d="M2538.41 1139.01L2250.93 1377.58L2034.72 1154.57C2010.35 1118.71 1969.24 1095.16 1922.61 1095.16H1662.45C1643.74 1095.16 1625.93 1098.95 1609.72 1105.8C1589.12 1114.52 1571.74 1128.03 1558.4 1144.61L1558.4 1144.58L1338.94 1377.57L1051.46 1139.01L980.718 1208.42L1237.58 1518.86C1257.16 1542.52 1284.61 1558.33 1314.89 1563.38C1349.51 1569.16 1384.98 1560.42 1412.95 1539.23L1557.54 1421.22L1565.53 1820.27H2055.32L2057.05 1448.41L2176.92 1539.23C2204.89 1560.42 2240.36 1569.16 2274.98 1563.38C2305.26 1558.33 2332.71 1542.52 2352.28 1518.86L2609.15 1208.42L2538.41 1139.01Z" fill="#102A54"/>
<path d="M1651.8 1095.57C1651.8 1095.57 1689.25 1322.62 1805.65 1440.13C1805.65 1440.13 1899.11 1312.95 1903.99 1095.57H1651.8Z" fill="#0C203F"/>
<path d="M1763.43 1154.57C1731.5 1154.57 1706.33 1127.37 1708.81 1095.54L1723.64 904.795H1801.08L1818 1094.93C1820.85 1126.98 1795.6 1154.57 1763.43 1154.57Z" fill="#FFC0B1"/>
<path d="M1669.74 726.88L1904.61 727.215L1905.81 742.498C1909.98 795.338 1918.98 847.732 1933.56 898.689C1940.54 923.069 1945.13 952.919 1937.93 979.409C1923.8 1031.37 1871.95 1064.46 1819.38 1052.77C1766.39 1040.99 1689.08 990.474 1669.74 726.88Z" fill="#FFC0B1"/>
<path d="M1827.97 888.717C1826.78 888.717 1825.71 887.89 1825.45 886.681C1825.15 885.289 1826.04 883.916 1827.43 883.616L1849.54 878.847C1851.45 878.435 1853.03 877.183 1853.86 875.413C1854.68 873.643 1854.64 871.634 1853.73 869.902L1819.61 804.777C1818.95 803.515 1819.43 801.956 1820.69 801.295C1821.96 800.634 1823.52 801.121 1824.18 802.382L1858.3 867.508C1859.96 870.68 1860.04 874.358 1858.53 877.6C1857.01 880.842 1854.13 883.135 1850.63 883.889L1828.52 888.658C1828.33 888.698 1828.15 888.717 1827.97 888.717Z" fill="#102A54"/>
<path d="M1793.89 824.047C1796.23 817.589 1792.89 810.455 1786.44 808.111C1779.98 805.768 1772.84 809.104 1770.5 815.561C1768.16 822.019 1771.49 829.154 1777.95 831.497C1784.41 833.84 1791.54 830.505 1793.89 824.047Z" fill="#102A54"/>
<path d="M1880.52 795.958C1881.97 802.674 1877.7 809.292 1870.98 810.74C1864.26 812.188 1857.65 807.918 1856.2 801.203C1854.75 794.487 1859.02 787.869 1865.74 786.421C1872.45 784.972 1879.07 789.242 1880.52 795.958Z" fill="#102A54"/>
<path d="M1834.79 929.069H1808.03C1806.61 929.069 1805.46 927.914 1805.46 926.49C1805.46 925.066 1806.61 923.911 1808.03 923.911H1834.79C1842.67 923.911 1850.41 922.529 1857.8 919.802L1868.9 915.71C1870.23 915.219 1871.72 915.9 1872.21 917.237C1872.7 918.573 1872.02 920.056 1870.68 920.55L1859.59 924.642C1851.62 927.58 1843.28 929.069 1834.79 929.069Z" fill="#102A54"/>
<path d="M1831.77 1057.29C1831.68 1057.29 1831.59 1057.28 1831.5 1057.27C1829.98 1057.12 1793.74 1053.14 1764.45 1030.7C1763.32 1029.84 1763.1 1028.22 1763.97 1027.09C1764.84 1025.96 1766.45 1025.74 1767.59 1026.61C1795.69 1048.14 1831.67 1052.11 1832.03 1052.14C1833.45 1052.29 1834.48 1053.56 1834.33 1054.98C1834.2 1056.3 1833.08 1057.29 1831.77 1057.29Z" fill="#102A54"/>
<path d="M1692.69 782.454C1692.69 782.454 1714.3 865.972 1697.06 883.585C1679.82 901.198 1667.65 877.101 1667.65 877.101C1667.65 877.101 1620.58 797.056 1662.32 768.096C1687.9 750.352 1692.69 782.454 1692.69 782.454Z" fill="#102A54"/>
<path d="M1683.4 920.339C1698.19 917.151 1706.38 897.003 1701.71 875.337C1697.04 853.671 1681.27 838.691 1666.48 841.879C1651.7 845.066 1643.51 865.214 1648.18 886.881C1652.85 908.547 1668.62 923.526 1683.4 920.339Z" fill="#FFC0B1"/>
<path d="M1651.8 788.835C1651.8 788.835 1558.8 690.178 1632.36 638.856C1705.92 587.534 1884.34 602.931 1884.34 602.931C1891.68 584.477 1911.24 574.678 1931.05 573.287C1950.86 571.896 1971.22 583.84 1978.68 602.243C1986.15 620.646 1979.34 644.062 1962.59 654.735C1980.51 657.808 1989.85 680.947 1982.73 697.67C1975.6 714.394 1956.8 723.824 1938.65 724.733C1948.91 733.509 1948.51 750.764 1940.13 761.344C1931.74 771.924 1917.58 776.504 1904.07 776.68C1890.57 776.856 1877.36 773.24 1864.2 770.185C1806.16 756.704 1745.67 753.82 1686.61 761.717C1670.32 763.896 1658.26 773.723 1651.8 788.835Z" fill="#102A54"/>
<path d="M1743.89 802.083C1741.63 802.083 1739.39 801.095 1737.87 799.194C1735.22 795.875 1735.75 791.031 1739.07 788.376C1758.51 772.83 1790.17 778.322 1791.51 778.563C1795.69 779.317 1798.47 783.32 1797.72 787.503C1796.96 791.683 1792.97 794.458 1788.79 793.713C1788.67 793.692 1781.86 792.518 1773.35 792.886C1765.98 793.205 1755.73 794.766 1748.69 800.394C1747.27 801.532 1745.57 802.083 1743.89 802.083Z" fill="#102A54"/>
<path d="M1838.91 894.836C1838.91 894.836 1808.26 891.286 1794.58 898.387C1780.9 905.488 1769.7 926.491 1769.7 926.491L1903.99 904.796C1903.99 904.796 1887.24 888.992 1874.92 886.138C1862.61 883.284 1838.91 894.836 1838.91 894.836Z" fill="#102A54"/>
<path d="M1697.06 886.165C1695.84 886.165 1694.75 885.298 1694.52 884.057C1689.74 858.357 1665.12 861.727 1664.08 861.885C1662.68 862.097 1661.36 861.127 1661.14 859.72C1660.93 858.314 1661.89 857.001 1663.3 856.785C1663.61 856.739 1693.89 852.453 1699.59 883.113C1699.85 884.513 1698.93 885.86 1697.53 886.12C1697.37 886.151 1697.21 886.165 1697.06 886.165Z" fill="#102A54"/>
<path d="M1708.81 1095.16L1763.43 1154.19L1702.65 1181.16C1689.64 1186.93 1675 1177.41 1675 1163.18V1095.16H1708.81Z" fill="black"/>
<path d="M1818 1094.93L1788.46 1148.54L1824.56 1172.28C1838.36 1181.36 1856.72 1171.46 1856.72 1154.94V1094.93L1818 1094.93Z" fill="black"/>
<path d="M1788.46 1148.54C1786.93 1144.93 1783.07 1140.1 1776.26 1140.72C1765.67 1141.67 1763.43 1154.19 1763.43 1154.19V1660.7L1836.41 1756.17L1875.42 1660.57L1788.46 1148.54Z" fill="#E6515C"/>
<path d="M2659.01 992.831C2777.37 992.831 2873.32 891.723 2873.32 767C2873.32 642.277 2777.37 541.168 2659.01 541.168C2540.64 541.168 2444.69 642.277 2444.69 767C2444.69 891.723 2540.64 992.831 2659.01 992.831Z" fill="#FFE876"/>
<path opacity="0.4" d="M2773.17 575.88C2673 509.439 2540.68 541.146 2477.63 646.701C2414.58 752.254 2444.66 891.683 2544.84 958.123L2773.17 575.88Z" fill="white"/>
<path d="M2780 894.5C2846.83 824.084 2846.83 709.916 2780 639.5C2713.17 569.084 2604.83 569.084 2538 639.5C2471.17 709.916 2471.17 824.084 2538 894.5C2604.83 964.916 2713.17 964.916 2780 894.5Z" fill="#E6B54A"/>
<path d="M2505.85 767C2505.85 670.59 2577.66 591.859 2667.99 586.934C2665.01 586.771 2662.02 586.686 2659.01 586.686C2564.5 586.686 2487.88 667.415 2487.88 767C2487.88 866.585 2564.5 947.314 2659.01 947.314C2662.02 947.314 2665.01 947.226 2667.99 947.065C2577.66 942.144 2505.85 863.41 2505.85 767Z" fill="#D19828"/>
<path d="M2741.66 653.532H2591.09L2576.35 677.878H2607.42C2607.42 677.878 2649.65 673.679 2663.19 703.901H2591.88L2576.35 726.989H2665.58C2665.58 726.989 2669.56 779.457 2585.11 773.16V794.148L2672.75 911.259H2711.39L2620.16 791.63C2620.16 791.63 2687.09 794.988 2697.84 727.829H2727.32L2741.66 703.483H2698.24C2698.24 703.483 2697.04 689.21 2686.29 677.878H2726.52L2741.66 653.532Z" fill="#FFE876"/>
<path opacity="0.4" d="M2620.17 791.627C2620.17 791.627 2632.01 792.199 2646.52 787.897L2698 701.724C2697.31 697.588 2694.79 686.83 2686.29 677.875H2712.25L2726.79 653.528H2591.09L2576.35 677.875H2607.42C2607.42 677.875 2649.65 673.676 2663.19 703.898H2591.88L2576.35 726.985H2665.58C2665.58 726.985 2669.56 779.454 2585.11 773.157V794.145L2617.19 837.007L2633.7 809.369L2620.17 791.627Z" fill="white"/>
</g>
<defs>
<clipPath id="clip0_1_4">
<rect width="3500" height="2000" fill="white"/>
</clipPath>
</defs>
</svg>
