<?xml version="1.0" encoding="utf-8"?>
<!-- Generator: Adobe Illustrator 27.5.0, SVG Export Plug-In . SVG Version: 6.00 Build 0)  -->
<svg version="1.1" xmlns="http://www.w3.org/2000/svg" xmlns:xlink="http://www.w3.org/1999/xlink" x="0px" y="0px"
	 viewBox="0 0 750 500" style="enable-background:new 0 0 750 500;" xml:space="preserve">
<g id="BACKGROUND">
	<rect style="fill:currentColor;" width="750" height="500"/>
</g>
<g id="OBJECTS">
	<g>
		<g>
			<path style="fill:#CFE6F9;" d="M484.551,364.195c11.096,6.406,29.086,6.406,40.182,0c11.096-6.406,11.096-16.793,0-23.199
				c-11.096-6.406-29.086-6.406-40.182,0C473.455,347.402,473.455,357.789,484.551,364.195z"/>
		</g>
		<g>
			<path style="fill:#CFE6F9;" d="M439.789,351.029c11.096,6.406,29.086,6.406,40.182,0c11.096-6.406,11.096-16.793,0-23.199
				c-11.096-6.406-29.086-6.406-40.182,0C428.693,334.236,428.693,344.623,439.789,351.029z"/>
		</g>
		<g>
			<path style="fill:#CFE6F9;" d="M65.554,341.135c11.096,6.406,29.086,6.406,40.182,0c11.096-6.406,11.096-16.793,0-23.199
				c-11.096-6.406-29.086-6.406-40.182,0C54.459,324.342,54.458,334.729,65.554,341.135z"/>
		</g>
		<g>
			<path style="fill:#CFE6F9;" d="M95.48,356.679c11.096,6.406,29.086,6.406,40.182,0c11.096-6.406,11.096-16.793,0-23.199
				c-11.096-6.406-29.086-6.406-40.182,0C84.384,339.886,84.384,350.273,95.48,356.679z"/>
		</g>
		<polygon style="fill:#CFE6F9;" points="184.503,339.429 82.942,334.634 51.689,312.055 99.609,306.305 184.503,309.055 		"/>
		<polygon style="fill:#CFE6F9;" points="250.91,378.713 166.019,374.492 134.766,351.913 182.685,346.163 250.91,348.339 		"/>
		<polygon style="fill:#CFE6F9;" points="315.499,415.713 241.275,410.918 210.022,388.339 257.942,382.589 315.499,385.339 		"/>
		<polygon style="fill:#CFE6F9;" points="377.895,451.882 324.942,447.918 293.689,425.339 341.609,419.589 377.894,421.507 		"/>
		<polygon style="fill:#CFE6F9;" points="651.328,359.055 498.249,352.107 516.276,339.429 429.609,312.055 444.942,289.722 
			382.275,289.722 165.117,203.055 207.609,184.388 392.275,262.005 484.662,265.055 468.942,300.555 536.942,320.388 
			559.789,306.305 		"/>
		<g>
			<polygon style="fill:#91C9FF;" points="186.658,0 430.249,217.722 489.582,190.388 625.582,315.055 634.915,305.722 
				498.249,135.722 436.249,155.055 271.195,0 			"/>
			<polygon style="fill:#1E3358;" points="156.662,0 416.662,232.388 475.995,205.055 611.995,329.722 621.328,320.388 
				484.662,150.388 422.662,169.722 241.995,0 			"/>
			<polygon style="fill:#91C9FF;" points="671.359,347.555 573.359,318.222 647.359,253.555 			"/>
			<polygon style="fill:#4271E9;" points="651.328,359.055 671.359,347.555 647.359,253.555 627.328,265.055 			"/>
			<polygon style="fill:#4271E9;" points="484.662,150.388 498.249,135.722 634.915,305.722 621.328,320.388 			"/>
			<polygon style="fill:#91C9FF;" points="436.249,155.055 422.662,169.722 484.662,150.388 498.249,135.722 			"/>
			<polygon style="fill:#1E3358;" points="651.328,359.055 553.328,329.722 627.328,265.055 			"/>
			<polygon style="fill:#4271E9;" points="241.995,0 271.195,0 436.249,155.055 422.662,169.722 			"/>
		</g>
		<g>
			<polygon style="fill:#FF569D;" points="184.503,102.673 145.73,80.287 184.503,57.902 223.275,80.287 			"/>
			<polygon style="fill:#801643;" points="145.73,80.287 184.503,102.673 184.503,339.429 145.73,317.044 			"/>
			<polygon style="fill:#FF2C85;" points="223.275,80.287 223.275,317.044 184.503,339.429 184.503,102.673 			"/>
		</g>
		<g>
			<polygon style="fill:#FF569D;" points="251.105,197.492 212.332,175.107 251.104,152.722 289.877,175.107 			"/>
			<polygon style="fill:#801643;" points="212.332,175.107 251.105,197.492 251.105,378.713 212.332,356.328 			"/>
			<polygon style="fill:#FF2C85;" points="289.877,175.107 289.877,356.328 251.105,378.713 251.105,197.492 			"/>
		</g>
		<g>
			<polygon style="fill:#FF569D;" points="315.499,275.94 276.727,253.555 315.499,231.17 354.272,253.555 			"/>
			<polygon style="fill:#801643;" points="276.727,253.555 315.499,275.94 315.499,415.713 276.727,393.328 			"/>
			<polygon style="fill:#FF2C85;" points="354.272,253.555 354.272,393.328 315.499,415.713 315.499,275.94 			"/>
		</g>
		<g>
			<polygon style="fill:#FF569D;" points="377.895,374.492 339.122,352.107 377.894,329.722 416.667,352.107 			"/>
			<polygon style="fill:#801643;" points="339.122,352.107 377.895,374.492 377.895,451.882 339.122,429.496 			"/>
			<polygon style="fill:#FF2C85;" points="416.667,352.107 416.667,429.496 377.895,451.882 377.895,374.492 			"/>
		</g>
		<g>
			<path style="fill:#00449E;" d="M186.15,152.553l-5.853,1.181l1.749,7.231l1.505-0.675l-2.891,8.605l-24.216-27.441l5.491-16.342
				l-4.212-4.772l-5.853,1.181l1.842,8.032l1.135-0.656L92.292,315.07l-2.146,0.23l-0.288,8.085l5.853-1.181l4.361-12.979
				l20.779,24.085l1.34-3.661l3.227,3.656l-4.875,14.509l-2.158,0.019l-0.098,7.765l5.853-1.181l66.223-197.093L186.15,152.553z
				 M132.681,311.686l-24.216-27.441l3.39-10.09l20.779,24.085l1.564-4.274l3.213,3.641L132.681,311.686z M138.678,293.837
				l-24.216-27.441l3.538-10.53l20.779,24.086l1.407-3.844l3.223,3.652L138.678,293.837z M144.675,275.988l-24.216-27.441
				l3.686-10.971l20.779,24.086l1.249-3.414l3.232,3.662L144.675,275.988z M150.673,258.139l-24.216-27.441l3.834-11.412
				l20.779,24.085l1.092-2.984l3.241,3.673L150.673,258.139z M156.67,240.29l-24.217-27.441l3.729-11.098l20.779,24.085l1.204-3.29
				l3.235,3.665L156.67,240.29z M162.667,222.441L138.451,195l3.37-10.029l20.779,24.086l1.586-4.333l3.212,3.64L162.667,222.441z
				 M168.664,204.592l-24.216-27.442l3.771-11.224l20.779,24.085l1.159-3.166l3.237,3.669L168.664,204.592z M174.662,186.743
				l-24.217-27.441l3.666-10.91l20.779,24.085l1.271-3.473l3.231,3.661L174.662,186.743z M102.467,302.094l3.496-10.404
				l20.779,24.085l1.452-3.967l3.22,3.649l-4.73,14.078L102.467,302.094z"/>
			<g>
				<polygon style="fill:#4270E9;" points="89.857,323.385 85.646,318.613 151.869,121.52 156.081,126.292 				"/>
				<polygon style="fill:#4270E9;" points="118.285,355.599 114.074,350.827 180.297,153.734 184.509,158.506 				"/>
				<polygon style="fill:#4270E9;" points="175.47,176.034 147.217,144.019 148.484,140.248 176.737,172.263 				"/>
				<polygon style="fill:#4270E9;" points="169.472,193.883 141.22,161.868 142.487,158.097 170.739,190.112 				"/>
				<polygon style="fill:#4270E9;" points="163.475,211.732 135.223,179.717 136.49,175.946 164.742,207.961 				"/>
				<polygon style="fill:#4270E9;" points="157.478,229.581 129.225,197.566 130.492,193.795 158.745,225.81 				"/>
				<polygon style="fill:#4270E9;" points="151.481,247.43 123.228,215.415 124.495,211.644 152.748,243.659 				"/>
				<polygon style="fill:#4270E9;" points="145.483,265.279 117.231,233.264 118.498,229.493 146.75,261.508 				"/>
				<polygon style="fill:#4270E9;" points="139.486,283.128 111.233,251.113 112.501,247.342 140.753,279.357 				"/>
				<polygon style="fill:#4270E9;" points="133.489,300.977 105.236,268.962 106.503,265.191 134.756,297.206 				"/>
				<polygon style="fill:#4270E9;" points="127.492,318.826 99.239,286.811 100.506,283.04 128.758,315.055 				"/>
				<polygon style="fill:#4270E9;" points="121.494,336.675 93.242,304.66 94.509,300.889 122.761,332.904 				"/>
			</g>
		</g>
		<g>
			<path style="fill:#F3C69F;" d="M145.843,200.985c-0.676,0.021-0.206,0.611-0.916,2.543c-0.384,0.897-0.759,1.613-0.747,1.784
				c0.044,0.686,0.972,0.78,1.295,0.985c1.089,0.694,1.2-0.955,1.418-1.699c0.287-0.972,0.587-2.222,0.589-2.453
				c0.004-0.479-0.468-0.771-0.799-0.633c-0.484,0.216-0.383,0.647-0.359-0.076C146.332,201.182,146.085,200.977,145.843,200.985
				 M145.377,201.793C145.372,201.837,145.373,201.83,145.377,201.793"/>
			<path style="fill:#F3C69F;" d="M122.393,181.48c-0.001,0-2.178,0.534-2.178,0.534c-0.203,0.027-0.447,0.031-0.646,0.096
				c-0.439,0.136-0.451,0.622-0.565,0.961c-0.064,0.149-0.134,0.274-0.11,0.435c0.006,0.175,0.091,0.333,0.212,0.42
				c0.399,0.384,0.998,0.049,2.001-0.143c0.649-0.094,1.966-0.149,2.073-0.796c0.027-0.169,0.021-0.312-0.077-0.457
				c0.216-0.301,0.051-0.709-0.238-0.827C122.787,181.517,122.586,181.434,122.393,181.48"/>
			<path style="fill:#BF2164;" d="M150.878,150.82c-0.483-0.139-0.965,0.083-1.195,0.511c-2.955,1.206-4.449,1.951-6.058,4.59
				c-1.984,3.223-3.514,10.234-3.913,12.572c-0.401,2.277-0.138,2.829-1.954,3.16c-1.563,0.194-1.524,0.048-3.649,1.379
				c-3.347,2.097-0.678,0.716-5.123,3.237c-3.548,2.012-7.648,4.739-7.648,4.739c-0.618,0.506,0.072,1.758-0.031,1.496
				c0.148,0.374-0.178,0.664,0.288,1.154c0.38,0.404,1.066,0.328,1.653,0.327c4.815-0.063,6.577-0.347,9.729-1.493
				c7.791-2.839,9.483,0.998,15.662-9.588c0.116-0.198,5.054-9.528,4.956-12.275C153.586,160.389,152.799,151.374,150.878,150.82"/>
			<path style="fill:#FF2C85;" d="M160.545,153.793c-0.187-0.054-0.361-0.052-0.556-0.033c-0.238,0.023-3.968,0.661-7.251,0.09
				c-0.978-0.169-1.919-0.362-2.686-0.163c-0.677,0.176-1.024,1.073-0.535,1.683c-3.096,5.791-1.298,10.607,0.684,17.538
				c1.162,4.137-1.349,5.485-3.77,14.186c-0.33,1.192-0.598,2.072-0.819,4.295l0.009-0.047c-0.147,1.16-0.287,2.063-0.379,2.955
				l0.011-0.076c-0.298,2.667-0.315,3.774-0.315,3.774c0.027,0.937-0.26,4.221-0.251,3.992c-0.036,0.931,1.038,1.559,1.754,1.771
				c1.222,0.352,0.866-0.012,10.347-18.865c3.178-6.319,4.312-11.429,4.807-16.18l-0.016,0.104c0.236-2.234,0.149-4.517-0.021-6.767
				C161.105,156.181,162.106,154.243,160.545,153.793"/>
			<path style="fill:#F3C69F;" d="M182.112,100.526L182.112,100.526c-0.295-0.085-1.441,0.197-1.207,0.891
				c-0.035,0.145-0.066,0.829-0.066,0.726c-0.253,1.271-0.903,4.181-0.067,5.622l-0.002,0.001l0.003,0.006l-0.001,0l0.001,0.001
				l0.001-0.001l0.007,0.014l0.002-0.001c-0.003,0.004,0.003,0.02,0.011,0.036l-0.011-0.036c0.024,0.064,0.067,0.148,0.099,0.212
				l-0.001-0.003c0.059,0.152,0.128,0.326,0.209,0.495l-0.008-0.026c0.029,0.071,0.031,0.077,0.075,0.177l-0.008-0.027
				c0.235,0.557,0.516,0.877,0.516,0.877l0,0c-0.001,0-0.002-0.001-0.002-0.002l0.014,0.019l-0.002,0
				c0.268,0.996-0.275,2.144-0.592,6.789l0.007-0.028c-0.839,7.65,2.604,3.85-6.455,9.872c-2.029,1.347-2.605,1.649-3.28,2.006
				c-0.323,0.17-0.225,0.743,0.204,0.744c0.059,0.358,0.196,0.512,0.378,0.667c0.3,0.255,0.131,0.414,0.695,0.73
				c1.127,0.64,2.849-0.732,6.66-2.424l-0.035,0.012c5.841-2.45,6.875-1.747,6.8-6.886c-0.113-8.737-0.276-9.098-0.46-10.186
				l0.001,0.037c-0.336-2.12-0.564-1.518-0.477-2.798c0.486-2.451,0.684-3.469-1.653-6.054l0.001-0.001
				c-0.184-0.253-0.254-0.422-0.642-0.911l0,0C182.643,100.823,182.446,100.637,182.112,100.526"/>
			<g>
				<path style="fill:#F3C69F;" d="M144.346,141.692c-0.038-0.711-0.155-1.276-0.815-1.466c-0.414-0.119-0.892,0.087-1.352,0.423
					c-0.128-0.052-0.278-0.021-0.384,0.079c-1.909,1.8-5.256,6.005-7.138,8.557c-0.777,0.882-1.302,1.412-1.794,1.99
					c-0.593,0.701-0.949,1.145-1.651,1.335c-2.244,0.603-2.375,0.644-2.956,1.138c-0.962,0.809-1.088,1.346-1.088,1.346
					c-0.754,1.66-0.796,2.21-0.851,2.645c-0.155,1.242-0.39,1.819,0.13,2.089c0.77,0.396,1.506-0.825,1.939-1.574
					c0.922-1.593,1.394-1.769,2.697-2.201c1.436-0.475,1.516-0.537,1.828-0.801c0.055-0.047,0.123-0.128,0.18-0.202
					c1.707-0.749,3.357-3.633,8.918-9.119c0.659-0.651,0.61-0.682,1.07-1.069c0.329-0.278,0.484-0.351,0.484-0.619
					C144.228,143.552,144.422,142.984,144.346,141.692z"/>
				<path style="fill:#F3C69F;" d="M136.757,146.535l0.098-0.132C136.835,146.429,136.776,146.508,136.757,146.535z"/>
			</g>
			<path style="fill:#FFB600;" d="M146.106,205.18c-0.386-0.047-1.214-0.701-1.595-0.503c-0.864,0.024-1.355,0.87-1.587,1.699
				c-0.246,0.891-0.222,1.513,0.38,2.153c0.438,0.475,2.96,1.72,4.764,2.068c1.888,0.365,3.137,0.691,3.865,0.165
				c0.493-0.356,0.651-0.875,0.25-1.366c-0.101-0.123-0.354-0.222-0.503-0.326c-1.278-1.048-1.066-0.993-1.509-1.467
				C147.831,205.104,147.426,205.289,146.106,205.18 M145.938,209.931C146.086,209.988,146.086,209.988,145.938,209.931
				 M146.398,210.114C146.245,210.055,146.258,210.06,146.398,210.114"/>
			<path style="fill:#FFB600;" d="M118.487,179.967c-0.895-0.215-1.836-0.076-2.511,0.566c-0.486,0.458-0.513,1.199-0.586,2.505
				c-0.116,2.047,0.57,1.904,0.819,3.276c0.246,1.582,0.242,3.665,0.701,4.802c0.521,1.278,1.31,1.052,1.522,0.767
				c0.291-0.394,1.165-3.663,1.218-3.898c0.47-2.078,0.845-2.588,0.687-3.441c-0.117-0.64-1.148-0.822-0.558-2.579
				c0.05-0.15,0.006-0.308-0.088-0.429c-0.024-0.915-0.447-1.354-1.107-1.544C118.552,179.983,118.519,179.975,118.487,179.967
				 M119.956,183.945C120.024,184.031,120.031,184.039,119.956,183.945"/>
			<path style="fill:#B7DEEB;" d="M179.311,123.005c-0.82-0.236-2.002,0.629-4.075,1.347c-0.682,0.236-0.907,0.364-0.885,0.354
				c-0.671,0.289-1.885,0.504-1.656,0.457c-1.881,0.392-1.974,0.601-3.51,1.026c-0.924,0.259-1.611,0.05-3.894,0.015
				c-0.672-0.105-0.543-0.038-0.82-0.06l0.014,0.004c0,0-0.313-0.055-1.001,0.14c-0.292,0.083-0.15,0.006-0.546,0.048
				c-0.84,0.081-0.938,0.269-1.952,0.038c-0.03-0.007-0.75-0.126-0.755-0.108l0.019,0.004l0-0.002l0.023,0.007
				c-1.303-0.191-2.3-0.132-2.568-0.126c-0.797,0.02-2.704-0.61-5.339,1.549l0.06-0.043c-2.142,1.715-4.791,4.567-6.25,6.453
				c-2.186,2.835-4.208,5.086-5.31,6.534l0,0l-0.012,0.016l0.003-0.004c-0.783,1.025-1.048,1.399-0.472,2.571
				c0.394,0.81,0.856,1.478,0.856,1.478l-0.003-0.009c0.235,0.501,0.219,2.508,4.285-1.088c0.728-0.645,0.859-0.769,2.279-1.761
				c1.572-1.1,1.292-1.279,0.633,0.596l-2.094,6.864c-0.546,1.991-1.872,3.583-0.163,4.64c0.986,0.621,1.296,0.488,2.407,0.934
				c0.762,0.344,0.773,0.574,3.486,1.204c1.04,0.242,0.811,0.281,1.659,0.525c3.558,1.025,5.089,0.753,5.613,0.823
				c2.383,0.319,2.626-0.488,2.944-1.813c2.694-11.286,1.879-6.453,5.042-15.257l0.615-1.84c1.392-3.556,1.359-3.173,2.091-3.525
				l-0.042,0.014c0,0,0.426-0.237,1.005-0.492l-0.023,0.006c0.999-0.282,4.764-2.233,5.453-2.482
				c0.961-0.347,0.632-0.162,1.873-0.773l-0.047,0.016c0.157-0.066,0.312-0.137,0.467-0.209c-0.518,0.179,1.343-0.483,2.877-1.793
				l-0.058,0.04c0.405-0.312,0.597-0.627,0.721-1c0.304-0.849-0.361-0.599-1.672-3.36
				C180.359,124.363,180.162,123.25,179.311,123.005 M142.419,144.197c-0.001-0.002-0.002-0.004-0.002-0.004
				C142.536,144.128,142.561,144.11,142.419,144.197"/>
			<path style="fill:#043059;" d="M161.365,111.585c-1.579-0.455-2.726,0.032-3.94,0.872c-0.414,0.288-0.69,0.441-1.001,0.818
				c-0.471,0.57-0.693,1.288-0.924,1.984c-0.02,0.045-0.09,0.211-0.09,0.211l-0.014,0.034l0.003-0.006
				c-1.61,3.989-1.208,3.927-2.101,7.481c-0.884,3.541-1.493,3.57-1.825,7.708c0.01-0.035,0.01-0.05,0.01-0.05
				c-0.077,0.723-0.087,1.674,0.037,2.45l-0.001-0.01c0.001,0.006,0.015,0.115,0.02,0.117v0c0.001,0,0.004,0.01,0.004,0.01l0,0
				c0.324,2.11,0.715,2.607,1.166,4.537c0.171,0.736,0.582,2.193,0.655,2.447c0.439,1.544,0.677,1.71,0.874,2.731
				c0.059,0.389,0.097,0.762,0.177,1.133c0.097,0.448,0.56,1.048,1.427,0.568c0.786-0.434,1.604-0.651,3.237-2.901l-0.038,0.046
				c2.323-3.059,0.687-3.794,5.104-10.969l0.002,0.001c2.419-3.238,2.602-5.342,2.578-7.544c-0.031-2.771-0.014-2.553-0.925-5.764
				c-0.071-0.252-0.988-2.917-1.932-4.295c-0.299-0.434-0.601-0.989-2.366-1.567C161.456,111.612,161.411,111.598,161.365,111.585"
				/>
		</g>
		<g>
			<path style="fill:#F3C69F;" d="M489.868,348.929c-2.043,0.04-0.663,1.346-1.055,4.048c-0.111,0.496-0.394,1.079,0.159,1.247
				c0.196,0.061,0.4-0.012,0.522-0.162c0.221,0.106,0.912,0.182,0.564,0.121c1.152,0.194,1.365,0.284,1.773-0.07
				c0.566-0.486,0.123-1.518,0.761-3.052c0.152-0.37,0.308-0.594,0.226-1.099c-0.14-0.874-1.407-1.107-2.273-1.107
				C490.317,348.855,490.093,348.899,489.868,348.929"/>
			<path style="fill:#F3C69F;" d="M510.81,348.929c-2.043,0.04-0.663,1.346-1.055,4.048c-0.111,0.496-0.394,1.079,0.159,1.247
				c0.196,0.061,0.4-0.012,0.523-0.162c0.221,0.106,0.912,0.182,0.564,0.121c1.152,0.194,1.365,0.284,1.773-0.07
				c0.566-0.486,0.123-1.518,0.761-3.052c0.152-0.37,0.308-0.594,0.226-1.099c-0.14-0.874-1.407-1.107-2.273-1.107
				C511.259,348.855,511.036,348.899,510.81,348.929"/>
			<path style="fill:#D89603;" d="M497.639,290.432c-0.564,0-1.36,0.4-1.811,1.526c-0.11,0.276-1.171,3.11-1.031,3.701
				c-0.338,3.087,0.642,10.068,1.211,13.006c1.645,8.489,2.711,7.577-1.352,15.796c-1.239,2.509-1.735,5.642-1.785,5.898
				c-1.112,5.677-4.009,13.1-4.229,16.882c-0.133,2.361-0.711,3.118,0.618,3.865c1.207,0.687,2.13,0.836,2.06,0.82
				c0.841,0.192,1.257,0.628,2.354-1.117c0.488-0.78,5.107-10.282,7.894-17.935c3.449-9.457,6.925-7.796,8.305-23.759
				c0.001-0.014,0.405-7.544,0.403-7.576c-0.059-1.607-0.929-3.526-1.683-4.513c-4.019-5.272-5.82-5.797-10.06-6.495
				C498.242,290.482,497.94,290.432,497.639,290.432"/>
			<path style="fill:#FFB600;" d="M496.021,288.335c-0.517,0-0.933,0.471-0.831,1.001c-1.328,5.288,1.296,9.447,2.936,12.353
				c1.072,1.902,1.581,2.526,1.581,2.526c0.281,0.39,2.215,2.812,2.215,2.812c0.022,0.029,0.054,0.068,0.08,0.099
				c-0.316-0.485,0.932,1.178,2.599,2.822c4.204,4.148,5.555,6.623,4.571,12.945c-1.051,6.754-1.885,2.901-1.189,16.07
				c0.289,5.363-0.335,12.318,1.024,12.996c1.115,0.553,3.123,0.461,3.378,0.459c0.497,0,1.027,0.103,1.783-1.483
				c0.606-1.275,1.358-2.473,2.485-7.133c1.123-4.665,2.323-14.473,2.408-15.681c0.498-4.945,1.259-5.111,1.248-9.183
				c-0.013-3.337-2.782-13.335-2.859-13.59c-1.162-3.858-0.891-2.536-1.878-5.735c-2.54-8.237-2.274-7.746-5.691-8.571
				c-3.509-0.863-3.077-0.509-5.167-0.853c-0.165-0.027-6.978-1.259-7.271-1.356c-0.79-0.298-1.02-0.395-1.02-0.395
				c-0.152-0.057-0.213-0.08-0.213-0.08C496.147,288.341,496.084,288.335,496.021,288.335"/>
			<path style="fill:#F0B37F;" d="M499.208,251.97c-0.529,0-1.263,0.519-0.61,1.581c3.484,5.782,1.614,8.828,1.8,10.285
				c0.087,0.696,0.507,0.871,0.902,0.737c0,0,0.959,0.139,1.47,0.139c1.214-0.006,1.296-0.245,3.093-0.642
				c1.114-0.246,1.729-0.714,1.393-1.795c-0.077-0.255-0.527-1.269-0.772-3.627c-0.13-1.251-0.098-1.412,0.157-2.51
				c0.233-1.016-0.578-1.302-1.062-1.025c-0.581-0.911-0.867-1.342-3.325-2.226c-0.96-0.377-1.22-0.384-1.22-0.384
				c-1.307-0.255-1.145-0.381-1.624-0.508C499.342,251.978,499.275,251.97,499.208,251.97"/>
			<path style="fill:#F3C69F;" d="M500.74,245.597c-1.018,0-1.638,0.566-2.293,1.356c-0.425,0.513-0.714,0.749-0.962,1.228
				c-0.165,0.321-0.412,1.049-0.373,0.944c-0.883,2.347-0.284,3.386,1.369,5.143c1.083,1.151,1.555,1.915,3.646,3.038
				c0.839,0.45,3.635,1.682,5.002,1.425c0.577-0.1,1.162-0.459,1.407-0.713c1.092-1.136-0.358-4.896-1.024-6.314l0.018,0.045
				c-1.423-3.152-2.125-3.826-3.349-4.842C503.672,246.269,502.818,245.597,500.74,245.597"/>
			<path style="fill:#00449E;" d="M500.142,243.068c-0.303,0-0.71,0.035-0.988,0.18c-0.343,0.177-0.606,0.467-0.555,0.417
				c-0.834,0.807-1.582,0.826-3.366,2.645l0.151-0.143c-0.687,0.662-1.408,1.679-1.725,2.85l0.011-0.029
				c-1.296,4.604,2.439,10.5,7.245,10.57c1.903,0.033,2.979-0.721,2.763-2.612c-0.263-2.24-1.944-2.78-2.14-4.218
				c-0.248-1.797,0.412-1.87,1.022-3.771c0.837-2.553,0.969-4.475-1.409-5.672C500.864,243.139,500.534,243.068,500.142,243.068"/>
			<path style="fill:#F3C69F;" d="M500.647,252.415c-0.451,0.432-0.604,1.034-0.202,1.693c0.32,0.525,2.36,1.447,3.534,1.051
				c0.89-0.295,0.956-1.709-0.243-1.813c-0.365-0.146-0.038-0.07-0.198-0.452c-0.1-0.239-0.524-0.427-0.853-0.584
				c-0.29-0.14-0.634-0.172-1.111-0.172C501.237,252.139,500.886,252.187,500.647,252.415 M500.875,254.491
				C500.997,254.564,500.982,254.555,500.875,254.491"/>
			<path style="fill:#FF2C85;" d="M511.719,353.383c-0.439,0.071-1.553-0.385-1.91-0.048c-0.941,0.299-1.211,1.383-1.205,2.366
				c0.012,1.055,0.234,1.73,1.097,2.242c0.631,0.383,3.791,0.952,5.88,0.764c2.187-0.196,3.66-0.233,4.292-1.04
				c0.428-0.546,0.438-1.166-0.157-1.578c-0.15-0.103-0.459-0.132-0.655-0.199c-1.733-0.746-1.483-0.752-2.12-1.132
				C513.587,352.755,513.202,353.086,511.719,353.383 M513.037,358.648C513.217,358.664,513.217,358.664,513.037,358.648
				 M513.599,358.704C513.412,358.687,513.428,358.689,513.599,358.704"/>
			<path style="fill:#F3C69F;" d="M530.37,254.584c0.203-0.175,0.401-0.353,0.594-0.534c1.57-1.481,3.23-2.88,4.468-4.669
				c0.555-0.802,1.018-1.668,1.637-2.422s1.431-1.404,2.39-1.577c-0.353,0.997-0.965,1.901-1.761,2.598
				c1.916-1.259,3.744-2.65,5.468-4.161c0.191,0.079,0.251,0.315,0.279,0.519c0.138,1.011,0.082,2.048-0.163,3.038
				c-0.118,0.477-0.283,0.95-0.574,1.346c-0.313,0.425-0.754,0.737-1.207,1.006c-1.265,0.753-3.016,1.151-3.901,2.326
				c-0.422,0.56-0.774,0.754-1.381,1.853c-0.912,1.65-1.837,3.294-2.759,4.939c-1.037,1.85-3.504,6.199-5.923,6.614
				c-1.343,0.23-2.296-0.107-2.89-1.333c-0.599-1.234,0.003-2.475,0.687-3.664C526.355,258.686,528.85,255.896,530.37,254.584z"/>
			<path style="fill:#F3C69F;" d="M528.178,264.772c-0.065,0.083-0.137,0.163-0.212,0.238c-0.531,0.522-1.224,0.816-1.905,1.09
				c-4.024,1.617-8.204,2.878-12.487,3.648c-1.947,0.349-3.916,0.599-5.902,0.734c-1.49,0.102-3.083,0.117-4.428-0.711
				c-0.751-0.46-1.623-1.372-1.761-2.326c-0.132-0.906,0.566-1.668,1.22-2.099c0.588-0.387,1.266-0.603,1.938-0.811
				c6.551-2.031,13.295-3.699,20.242-3.692c0.75,0,1.519,0.025,2.236,0.323c0.717,0.298,1.381,0.926,1.552,1.724
				C528.819,263.573,528.585,264.261,528.178,264.772z"/>
			<path style="fill:#FF2C85;" d="M490.701,352.983c-0.444,0.009-1.486-0.596-1.885-0.311c-0.973,0.166-1.39,1.202-1.52,2.177
				c-0.134,1.046-0.007,1.746,0.777,2.372c0.572,0.466,3.624,1.466,5.718,1.568c2.193,0.107,3.657,0.274,4.395-0.438
				c0.499-0.481,0.595-1.094,0.062-1.584c-0.134-0.123-0.436-0.194-0.622-0.288c-1.613-0.978-1.365-0.95-1.943-1.414
				C492.638,352.618,492.21,352.893,490.701,352.983 M491.28,358.379C491.456,358.42,491.456,358.42,491.28,358.379
				 M491.829,358.512C491.646,358.47,491.662,358.473,491.829,358.512"/>
			<path style="fill:#4270E9;" d="M517.259,259.71c-0.058,0-2.296,0.373-2.763,0.43c-0.721,0.09-2.834,0.047-2.58,0.051
				c-4.959,0-6.615,0.219-9.869,1.096c-3.432,0.924-4.446,2.035-5.181,3.053c-3.689,5.111-2.082,12.063-2.517,17.099l0.011-0.065
				c-0.263,2.047-0.456,11.213-0.064,11.839c0.95,1.524,13.351,2.377,15.77,2.05c4.314-0.583,3.768-0.24,2.838-8.112
				c-0.549-4.587-0.943-12.711-0.945-12.723c-0.322-2.481,0.027-2.352,0.446-2.513c0.235-0.089,0.431-0.168,0.921-0.398
				c0.301-0.134,0.995-0.285,0.863-0.253c4.301-1.049,3.451-0.522,6.162-1.581c1.468-0.58,1.34-1.08,0.791-2.004
				c-1.131-1.917-0.347-1.002-2.484-5.873C518.199,260.759,518.382,259.71,517.259,259.71"/>
		</g>
		<g>
			<path style="fill:#F3C69F;" d="M433.284,221.285c-0.156-0.237-0.307-0.475-0.45-0.715c-1.17-1.962-2.455-3.867-3.198-6.046
				c-0.333-0.977-0.554-1.993-0.966-2.939c-0.412-0.946-1.05-1.844-1.977-2.298c0.071,1.117,0.433,2.215,1.041,3.155
				c-1.586-1.836-3.045-3.782-4.363-5.819c-0.217,0.025-0.347,0.248-0.434,0.447c-0.432,0.989-0.676,2.061-0.713,3.14
				c-0.018,0.519,0.013,1.049,0.195,1.536c0.196,0.523,0.555,0.968,0.938,1.374c1.07,1.132,2.738,2.044,3.299,3.497
				c0.267,0.693,0.57,0.992,0.87,2.286c0.451,1.944,0.917,3.885,1.379,5.827c0.52,2.183,1.773,7.325,4.116,8.447
				c1.3,0.623,2.368,0.555,3.328-0.521c0.966-1.083,0.713-2.521,0.361-3.929C436.185,226.623,434.452,223.061,433.284,221.285z"/>
			<path style="fill:#F3C69F;" d="M450.061,251.108c-0.133-0.734-0.462-1.412-0.792-2.079c-3.219-6.506-6.859-12.894-11.932-18.218
				c-0.547-0.574-1.127-1.147-1.879-1.479c-0.751-0.332-1.717-0.383-2.455,0.067c-0.734,0.447-1.095,1.298-1.109,2.086
				c-0.013,0.788,0.266,1.534,0.553,2.257c2.463,6.206,5.75,12.11,10.05,17.3c1.009,1.217,2.16,2.45,3.775,2.878
				c0.9,0.239,2.236,0.242,3.068-0.346C450.133,253.015,450.208,251.923,450.061,251.108z"/>
			<path style="fill:#F3C69F;" d="M487.722,225.676c0.215-0.185,0.425-0.373,0.629-0.565c1.662-1.568,3.419-3.048,4.729-4.941
				c0.587-0.849,1.078-1.766,1.733-2.564c0.655-0.798,1.514-1.486,2.53-1.67c-0.373,1.055-1.022,2.012-1.864,2.75
				c2.028-1.332,3.963-2.805,5.788-4.404c0.202,0.083,0.266,0.333,0.295,0.549c0.146,1.07,0.087,2.167-0.172,3.215
				c-0.125,0.504-0.3,1.006-0.608,1.424c-0.331,0.45-0.798,0.78-1.278,1.065c-1.339,0.797-3.192,1.218-4.129,2.462
				c-0.447,0.593-0.819,0.798-1.462,1.961c-0.966,1.747-1.944,3.487-2.92,5.228c-1.097,1.958-3.708,6.561-6.269,7.001
				c-1.421,0.244-2.43-0.113-3.059-1.411c-0.634-1.306,0.003-2.62,0.727-3.878C483.473,230.017,486.114,227.064,487.722,225.676z"/>
			<path style="fill:#F3C69F;" d="M485.887,236.357c-0.036,0.106-0.082,0.21-0.131,0.31c-0.354,0.704-0.947,1.236-1.535,1.744
				c-3.477,2.996-7.233,5.688-11.26,7.925c-1.831,1.016-3.717,1.94-5.66,2.754c-1.458,0.611-3.048,1.172-4.678,0.803
				c-0.909-0.204-2.094-0.82-2.559-1.728c-0.442-0.862-0.004-1.865,0.504-2.52c0.457-0.588,1.062-1.037,1.663-1.475
				c5.867-4.275,12.051-8.252,19.013-10.622c0.752-0.257,1.53-0.494,2.35-0.441c0.82,0.053,1.7,0.455,2.145,1.196
				C486.118,234.936,486.119,235.705,485.887,236.357z"/>
			<path style="fill:#FF2C85;" d="M450.503,249.463c-0.186-0.916-0.562-1.782-0.935-2.64c-0.295-0.678-0.59-1.356-0.884-2.034
				c-0.267-0.614-0.534-1.229-0.854-1.818c-0.314-0.579-0.678-1.131-1.04-1.681c-0.621-0.942-1.241-1.883-1.862-2.825
				c-3.842,1.359-7.206,4.03-9.4,7.464c1.065,1.433,2.232,2.789,3.49,4.056c1.231,1.24,2.572,2.41,4.155,3.15
				c1.553,0.727,3.62,1.017,5.325,0.688C450.376,253.46,450.821,251.027,450.503,249.463z"/>
			<path style="fill:#F3C69F;" d="M460.955,236.524c-0.364,0.821-0.921,1.685-1.803,1.862c-0.285,0.057-1.047,0-1.856-0.116
				c-0.195-0.026-0.394-0.057-0.587-0.09c-0.815-0.14-1.567-0.323-1.807-0.492c-0.535-0.376-1.488-1.947-1.575-2.165
				c-0.024-0.057-0.053-0.122-0.089-0.191c-0.067-0.138-0.158-0.297-0.252-0.467c-0.293-0.518-0.644-1.128-0.644-1.508
				c0-2.756,1.165-3.48,2.189-4.826c1.026-1.345,2.512-2.291,4.106-2.852c0.862-0.303,1.909-0.541,2.813-0.277
				c0.807,0.234,0.703,0.821,0.744,1.545C462.382,230.233,462.305,233.475,460.955,236.524z"/>
			<path style="fill:#F3C69F;" d="M458.51,242.756c-1.998,2.154-5.189,3.122-8.047,2.439c-0.815-0.195-1.61-0.514-2.449-0.551
				c1.159-0.748,1.75-2.132,2.014-3.486c0.297-1.512,0.258-3.096-0.148-4.585c-0.081-0.297-0.76-1.577-0.447-1.811
				c0.266-0.197,1.76,0.451,2.189,0.441c0.476-0.01,0.923-0.154,1.364-0.339c0.073-0.031,0.146-0.063,0.219-0.096l0.002-0.002
				c0.492-0.222,0.974-0.478,1.482-0.642c0.106-0.035,0.22-0.065,0.329-0.035c0.091,0.026,0.165,0.09,0.236,0.154
				c0.658,0.594,1.317,1.187,1.976,1.779c-0.219,0.65-0.386,1.319-0.496,1.996c-0.01,0.053-0.018,0.106-0.026,0.161
				c-0.096,0.642-0.144,1.291-0.142,1.941c0,0.185,0.006,0.372,0.026,0.557c0.022,0.238,0.067,0.472,0.15,0.697
				C457.016,242.112,457.726,242.669,458.51,242.756z"/>
			<path style="fill:#043059;" d="M454.56,237.375c0.532-0.444,1.05-0.914,1.46-1.472c0.988-1.346,1.266-3.085,2.093-4.535
				c0.533-0.934,1.293-1.737,2.197-2.32c0.751-0.485,1.603-0.823,2.272-1.415c1.019-0.903,1.489-2.313,1.484-3.675
				c-0.005-1.362-0.436-2.688-0.977-3.938c-0.517,0.575-1.329,0.77-2.095,0.873c-2.115,0.284-4.267,0.095-6.391,0.293
				c-2.125,0.199-4.338,0.868-5.723,2.49c-1.468,1.72-1.723,4.146-1.765,6.407c-0.021,1.141-0.005,2.292,0.222,3.41
				c0.295,1.455,0.948,2.837,1.885,3.988C450.78,239.398,452.865,238.789,454.56,237.375z"/>
			<path style="fill:#F3C69F;" d="M458.622,230.873c-0.172-0.275-0.39-0.536-0.685-0.672c-0.294-0.136-0.677-0.12-0.908,0.108
				c-0.179,0.177-0.238,0.448-0.214,0.698c0.025,0.25,0.122,0.487,0.219,0.719c0.337,0.811,0.683,1.635,1.244,2.311
				c0.098,0.118,0.238,0.241,0.384,0.197c0.086-0.026,0.145-0.105,0.193-0.182c0-0.201,0.283-0.571,0.339-0.79
				c0.079-0.304,0.105-0.619,0.085-0.932c-0.02,0.006,0.03,0.06-0.035,0.053C458.933,232.025,458.898,231.315,458.622,230.873z"/>
			<path style="fill:#FFB600;" d="M446.269,340.167c-0.081,0.602-0.159,1.228,0.027,1.806c0.375,1.161,1.742,1.759,2.958,1.653
				c1.215-0.106,2.31-0.747,3.353-1.381c1.705-1.036,3.408-2.104,4.87-3.462c0.551-0.512,1.075-1.077,1.378-1.765
				c0.303-0.688,0.357-1.521-0.016-2.173c-0.579-1.013-1.977-1.265-3.107-0.975c-1.131,0.29-2.108,0.985-3.167,1.476
				c-1.441,0.669-2.289,1.175-3.765,1.746C447.036,337.774,446.507,338.391,446.269,340.167z"/>
			<path style="fill:#00449E;" d="M444.321,283.857c-0.307,3.772,0.364,7.545,0.914,11.289c0.578,3.934,1.024,7.888,1.337,11.852
				c0.096,1.221,0.18,2.45,0.054,3.669c-0.205,1.97-0.95,3.84-1.349,5.779c-0.678,3.292-0.347,6.697-0.013,10.041
				c0.221,2.215,0.442,4.429,0.663,6.644c0.21,2.1,0.423,4.217,1.061,6.228c1.876,0.685,2.927-0.075,3.588-0.716
				c0.345-5.813,1.284-11.591,2.797-17.215c0.474-1.762,1.005-3.513,1.311-5.311c0.346-2.031,0.4-4.098,0.537-6.154
				c0.525-7.849,2.268-15.674,1.565-23.509c-0.272-3.03-0.907-6.014-1.541-8.989c-0.057-0.27-0.123-0.555-0.317-0.751
				c-0.217-0.22-0.546-0.277-0.851-0.324c-1.61-0.245-3.219-0.49-4.829-0.734c-0.976-0.148-2.263-0.619-3.04,0.206
				c-0.763,0.81-0.916,2.626-1.164,3.668C444.706,280.954,444.439,282.398,444.321,283.857z"/>
			<path style="fill:#FFB600;" d="M462.275,343.365c-0.107,0.633-0.212,1.29-0.041,1.909c0.35,1.268,1.795,1.974,3.109,1.921
				s2.527-0.684,3.689-1.3c1.814-0.962,3.632-1.926,5.357-3.04c1.005-0.649,2.02-1.397,2.526-2.482
				c0.506-1.084,0.305-2.587-0.732-3.184c-1.124-0.648-2.508,0.013-3.72,0.477c-1.305,0.499-2.687,0.76-4.06,1.019
				c-1.391,0.262-3.777,0.24-4.991,0.944C462.357,340.24,462.471,342.201,462.275,343.365z"/>
			<path style="fill:#00449E;" d="M453.703,290.846c0.794,1.188,1.749,2.265,2.499,3.482c1.024,1.662,1.635,3.538,2.238,5.395
				c1.649,5.083,3.315,10.259,3.401,15.602c0.06,3.742-0.658,7.454-0.754,11.195c-0.064,2.488,0.148,4.975,0.36,7.455
				c0.217,2.545,0.435,5.09,0.652,7.635c2.071,0.196,4.198-0.247,6.019-1.254c-0.35-6.296,0.32-12.612,1.404-18.824
				c0.523-3,1.143-5.989,1.414-9.023c0.497-5.566-0.193-11.163-0.881-16.709c-0.854-6.882-1.725-13.835-4.128-20.339
				c0.163,0.44-11.553,1.572-12.562,1.673c-3.737,0.374-2.717,4.88-2.159,7.587C451.654,286.893,452.468,288.997,453.703,290.846z"
				/>
			<path style="fill:#003377;" d="M451.024,306.737c0.373,1.261,0.8,2.514,0.979,3.816c0.206,1.502,0.076,3.027-0.055,4.537
				c-0.149,1.715-0.297,3.429-0.446,5.144c-0.384,4.434-0.714,8.88-1.432,13.272c-0.288,1.762,0.315,3.183,0.501,5.162
				c1.725-5.591,2.512-10.841,3.579-16.593c1.202-6.48,1.553-13.084,1.901-19.665c0.1-1.9,0.201-3.801,0.302-5.701
				c0.051-0.963,0.089-1.987-0.388-2.826c-0.475-0.836-1.367-1.327-2.182-1.837c-2.106-1.319-3.46-3.217-5.303-4.749
				c-0.657,0.876-0.051,3.16,0.034,4.213c0.14,1.716,0.301,3.43,0.512,5.139C449.445,300.052,450.05,303.443,451.024,306.737z"/>
			<path style="fill:#FF2C85;" d="M466.583,263.919c0.126-1.171,0.307-2.34,0.301-3.518c-0.012-2.128-0.634-4.199-1.25-6.236
				c-0.829-2.739-1.657-5.478-2.486-8.217c-0.303-1.003-0.61-2.014-1.118-2.93c-1.334,0.225-2.72,0.136-4.015-0.257l0.19,0.132
				c-1.791,1.511-4.167,2.303-6.506,2.189c0.001-0.005,0.002-0.008,0.003-0.013c-0.256-0.124-0.689-0.085-1.009-0.227
				c-0.279-0.124-0.583-0.293-0.843-0.456c-0.403-0.254-0.874-0.814-0.662-1.319c-0.75,0.548-1.288,0.729-2.211,0.773
				c-0.652,0.03-1.451,0.086-1.971,0.532c-0.889,0.763-1.375,1.931-1.572,3.089c-0.018,0.054-0.038,0.107-0.053,0.161
				c-0.288,0.997-0.204,2.059-0.105,3.093c0.206,2.163,0.462,4.328,0.99,6.436c0.331,1.321,0.768,2.616,1.012,3.956
				c0.983,5.396-1.23,11.003-0.194,16.39c0.656-0.048,1.199,0.462,1.715,0.87c1.75,1.385,4.059,1.87,6.29,1.924
				c2.231,0.054,4.453-0.279,6.685-0.335c2.541-0.063,5.379,0.138,7.295-1.533C466.474,273.611,466.064,268.739,466.583,263.919z"/>
			<path style="fill:#BF2164;" d="M461.704,244.882c-0.699-0.413-1.655-0.014-2.11,0.658c-0.455,0.673-0.529,1.527-0.546,2.339
				c-0.102,4.878,1.346,9.652,1.747,14.514c0.085,1.028,0.121,2.077-0.137,3.076c-0.249,0.967-0.762,1.844-1.081,2.79
				c-0.627,1.858-0.478,3.888-0.129,5.817c0.349,1.93,0.891,3.831,1.032,5.787c2.412-0.131,4.803-0.625,7.07-1.46
				c0.142-0.052,0.294-0.115,0.367-0.247c0.076-0.135,0.046-0.302,0.015-0.453c-0.925-4.583-0.87-9.307-0.562-13.972
				c0.078-1.185,0.173-2.373,0.082-3.557c-0.083-1.089-0.322-2.16-0.563-3.226c-0.581-2.577-1.23-5.268-2.973-7.254
				c-0.638-0.728-1.411-1.342-1.952-2.145c-0.541-0.803-0.814-1.892-0.34-2.735c0.219,0.331,0.438,0.662,0.657,0.993"/>
			<path style="fill:#FF2C85;" d="M458.762,245.372c0.538-0.765,1.229-1.407,1.914-2.044c0.542-0.503,1.084-1.006,1.625-1.509
				c0.491-0.456,0.982-0.912,1.511-1.323c0.52-0.405,1.074-0.764,1.627-1.124c0.946-0.614,1.892-1.228,2.838-1.842
				c2.975,2.785,4.987,6.58,5.621,10.606c-1.55,0.886-3.163,1.661-4.823,2.317c-1.625,0.643-3.322,1.177-5.069,1.221
				c-1.714,0.044-3.724-0.519-5.154-1.504C457.277,249.085,457.844,246.678,458.762,245.372z"/>
			<path style="fill:#3887CC;" d="M456.846,240.738c0.114,0.118,0.047,0.075-0.031,0.002
				C456.825,240.74,456.837,240.74,456.846,240.738z"/>
		</g>
		<g>
			<path style="fill:#CFE6F9;" d="M602.824,218.742c11.096,6.406,29.086,6.406,40.182,0c11.096-6.406,11.096-16.793,0-23.199
				c-11.096-6.406-29.086-6.406-40.182,0C591.728,201.949,591.728,212.336,602.824,218.742z"/>
		</g>
		<g>
			<path style="fill:#F0B37F;" d="M610.24,94.964c-0.545,0.66-1.363,1.019-2.15,1.356c-0.898,0.384-1.796,0.768-2.693,1.152
				c1.36,4.584,3.615,8.9,6.602,12.634c2.297-2.12,4.465-4.422,6.092-7.091c1.627-2.67,2.984-5.158,2.952-8.284
				c-0.711,0.37-1.918-0.526-2.453-1.124c-0.534-0.598-0.756-1.41-0.885-2.201c-0.386-2.357-0.102-4.767,0.182-7.139
				c-1.123,1.418-2.688,2.479-4.42,2.998c-1.34,0.401-3.805,0.945-3.161,2.882C610.832,91.732,611.47,93.474,610.24,94.964z"/>
			<path style="fill:#F3C69F;" d="M606.177,78.707c-1.176,2.086-1.228,4.672-0.569,6.975c0.659,2.303,1.969,4.365,3.406,6.281
				c0.677,0.904,1.524,1.858,2.651,1.927c1.014,0.062,1.916-0.623,2.623-1.352c4.341-4.472,4.666-11.286,2.185-14.706
				C613.861,74.233,608.29,74.961,606.177,78.707z"/>
			<path style="fill:#043059;" d="M604.591,79.255c0.982-1.277,2.713-1.868,4.308-1.646c1.596,0.222,3.035,1.187,4.015,2.466
				c0.98,1.279,1.528,2.85,1.769,4.442c0.106,0.701-8.078,0.284-8.796,0.158c-1.333-0.234-2.494-0.118-2.41-1.656
				C603.549,81.704,603.766,80.326,604.591,79.255z"/>
			<path style="fill:#043059;" d="M606.105,76.034c0.981-1.318,2.398-2.281,3.942-2.843c3.079-1.12,6.92-0.471,8.964,2.091
				c1.258,1.576,1.717,3.653,1.816,5.667c0.136,2.76-0.34,5.548-1.384,8.106c-0.205,0.502-0.589,1.085-1.123,0.991
				c-0.412-0.073-0.632-0.519-0.77-0.914c-0.318-0.91-0.547-1.852-0.683-2.806c-0.123-0.86-0.211-1.817-0.854-2.402
				c-0.503-0.458-1.228-0.567-1.824-0.896c-0.971-0.536-1.515-1.597-2.315-2.366c-0.91-0.875-2.182-1.362-3.444-1.317
				c-0.755,0.027-1.431,0.254-2.102,0.582c-0.476,0.232-1.011,0.697-1.444,0.094C604.204,79.072,605.548,76.782,606.105,76.034z"/>
			<path style="fill:#043059;" d="M612.547,70.823c0.308-0.837,1.216-1.313,2.097-1.455c2.166-0.349,4.481,1.062,5.165,3.147
				c0.273,0.832,0.27,1.838-0.323,2.482c-0.602,0.654-1.613,0.731-2.488,0.574C615.103,75.233,611.635,73.299,612.547,70.823z"/>
			<path style="fill:#F3C69F;" d="M615.777,86.317c-0.308-1.868,1.136-3.646,1.99-3.179c0.379,0.208,0.418,0.73,0.385,1.161
				c-0.127,1.614-0.613,3.198-1.412,4.605c-0.31-0.754-0.62-1.509-0.93-2.264"/>
			<path style="fill:#F3C69F;" d="M624.988,99.151c-0.131,0.75-0.074,1.519-0.012,2.278c0.601,7.405,1.604,14.853,4.196,21.815
				c0.28,0.751,0.588,1.513,1.124,2.108c0.536,0.595,1.351,1.001,2.137,0.844c0.781-0.155,1.376-0.834,1.651-1.582
				c0.275-0.748,0.283-1.563,0.277-2.36c-0.05-6.838-0.91-13.693-2.881-20.242c-0.462-1.536-1.043-3.139-2.291-4.146
				c-0.696-0.562-1.845-1.059-2.758-0.805C625.563,97.304,625.133,98.318,624.988,99.151z"/>
			<path style="fill:#F3C69F;" d="M601.61,103.99c-0.277,0.523-0.419,1.104-0.555,1.679c-1.332,5.612-2.379,11.352-2.134,17.115
				c0.026,0.621,0.071,1.258,0.324,1.826c0.253,0.568,0.758,1.063,1.375,1.136c0.614,0.073,1.216-0.286,1.599-0.772
				c0.382-0.486,0.584-1.087,0.771-1.676c1.604-5.061,2.613-10.329,2.728-15.638c0.027-1.245-0.017-2.568-0.697-3.611
				c-0.379-0.581-1.108-1.224-1.843-1.256C602.477,102.764,601.917,103.41,601.61,103.99z"/>
			<path style="fill:#FF2C85;" d="M625.519,110.815c2.918,0.265,5.841-0.308,8.715-0.877c-0.037-1.259-0.124-2.516-0.258-3.768
				c-0.032-0.683-0.118-1.362-0.259-2.031c-0.038-0.255-0.078-0.511-0.12-0.765c-0.02,0.007-0.041,0.013-0.061,0.02
				c-0.506-1.854-1.418-3.599-2.68-5.049c-3.365-2.494-7.382-3.725-11.544-4.191c-1.757,4.334-4.394,7.902-6.997,11.788
				c0.137-0.205-1.756-3.501-1.935-3.928c-0.58-1.383-0.938-2.842-1.495-4.226c-0.342-0.85-0.345-1.711-0.345-1.711
				s-4.227,1.501-5.456,2.423c-1.621,1.216-2.652,3.087-3.216,5.033c-0.022,0.076-0.039,0.153-0.06,0.23
				c0.039,0.051-1.022,4.216-1.022,6.3c-0.005,0.405,0.02,0.855,0.307,1.142c0.014,0.014,0.03,0.025,0.045,0.038
				c0.375,0.438,1.066,0.513,1.666,0.535c2.978,0.109,2.318,0.072,3.141,0.155c0.013-0.083,0.026-0.166,0.038-0.249
				c0.042-0.031,0.08-0.065,0.115-0.102c0.228,0.593,0.44,1.19,0.635,1.79c0.09,0.249,0.345,0.747,0.391,0.744
				c1.546,4.883,1.619,10.222,0.208,15.146c6.866,0.692,20.647-0.436,20.647-0.436l0.966-0.449c0,0-0.418-1.265-0.948-1.771
				c-1.038-0.991-1.208-2.565-1.275-3.998c-0.21-4.499-0.021-9.015,0.554-13.482C625.376,109.979,625.485,110.815,625.519,110.815z"
				/>
			<path style="fill:#BF2164;" d="M602.899,104.079c-0.367,2.116-0.719,4.239-0.882,6.381c-0.025,0.324-0.041,0.669,0.114,0.955
				c0.257,0.473,2.104,0.54,2.104,0.54s-0.458-1.626-0.584-2.206C603.247,107.884,602.995,105.985,602.899,104.079z"/>
			<path style="fill:#BF2164;" d="M608.996,112.95c3.878,0.102,7.746-0.352,11.598-0.806c-1.178,1.163-2.757,1.911-4.404,2.086
				c-1.502,0.16-3.029-0.144-4.527,0.05c-1.238,0.16-2.437,0.658-3.685,0.616c-1.128-0.038-2.233-0.539-3.004-1.364
				c-0.526-0.563-1.372-1.852-1.07-2.654C605.129,112.554,606.628,112.887,608.996,112.95z"/>
			<path style="fill:#BF2164;" d="M625.532,110.559c-0.448-3.021-0.895-6.042-1.343-9.063c0.368,3.724,0.284,7.493-0.249,11.197
				c-0.37,2.572-0.957,5.123-1.02,7.721c-0.063,2.597,0.453,5.313,2.059,7.355c0.24,0.305,0.512,0.6,0.865,0.763
				c0.353,0.163,0.802,0.166,1.101-0.082c-1.421-1.223-1.667-3.3-1.75-5.173c-0.203-4.576-0.024-9.159,0.155-13.735"/>
			<path style="fill:#1A61FD;" d="M624.838,122.174c2.9,6.236,5.554,12.717,6.252,19.559c0.747,7.327-0.784,14.674-2.306,21.881
				c-0.326,1.544-0.635,2.229-2.423,2.848c-1.94,0.672-4.025,0.924-6.069,0.734c-0.843-4.84-3.165-9.272-4.972-13.841
				c-3.8-9.609-5.359-20.096-4.518-30.395c-0.007,0.07-3.988,0.047-4.349,0.07c2.953,0.232,6.143-0.268,9.106-0.41
				C618.652,122.471,621.745,122.323,624.838,122.174z"/>
			<path style="fill:#1A61FD;" d="M608.227,167.615c2.917,0.282,5.857,0.321,8.78,0.115c1.328-3.331,1.497-7.029,1.101-10.593
				c-0.396-3.564-1.333-7.042-2.157-10.532c-1.816-7.689-3.097-15.505-3.83-23.371c-0.004-0.044-5.119-0.427-5.524-0.198
				c-0.532,0.301-0.677,1.313-0.847,1.837c-1.46,4.524-2.078,9.28-2.119,14.033C603.547,148.635,605.885,158.137,608.227,167.615z"
				/>
			<path style="fill:#FF2C85;" d="M634.534,208.079c-0.109-0.789-0.654-1.437-1.14-2.068c-2.232-2.904-3.621-6.448-3.957-10.096
				c-1.121,0.378-2.043,0.034-3.129,0.092c0.015,1.379-0.07,2.625-0.347,3.99c-0.342,1.691-0.67,3.154-0.232,4.808
				c0.193,0.21,0.374,0.434,0.538,0.669c1.528,1.492,1.996,2.367,2.816,4.324c0.247,0.192,0.508,0.367,0.785,0.514
				c0.941,0.499,2.095,0.675,3.082,0.275C633.938,210.188,634.68,209.134,634.534,208.079z"/>
			<path style="fill:#FF2C85;" d="M611.285,202.897c-1.104,1.429-2.63,2.55-3.439,4.164c-0.322,0.644-0.435,1.586,0.189,1.945
				c0.388,0.223,0.876,0.096,1.301-0.044c2.555-0.841,5.016-1.971,7.319-3.361c0.571-0.344,1.182-0.775,1.312-1.43
				c0.065-0.329-0.005-0.669-0.075-0.997c-0.482-2.259-0.964-4.518-1.446-6.777c-0.08-0.374-2.29-0.116-2.565-0.044
				c-0.943,0.249-0.609,0.9-0.696,1.756C613.008,199.839,612.348,201.521,611.285,202.897z"/>
			<path style="fill:#1A61FD;" d="M621.096,171.171c0.379,1.898,0.757,3.797,1.136,5.696c1.987,9.963,3.217,15.424,3.385,21.258
				c0.245,0.037,0.49,0.077,0.733,0.12c0.91-0.05,1.829-0.031,2.737,0.028c0.539-0.03,1.078-0.055,1.616-0.081
				c-1.129-8.774,1.762-17.348,0.362-25.915c-0.473-2.894-1.428-5.685-2.379-8.46c-0.287-0.836-0.596-1.708-1.243-2.311
				c-0.607-0.565-1.453-0.824-2.283-0.851c-2.45-0.08-5.413,2.365-5.155,4.97C620.189,167.474,620.732,169.349,621.096,171.171z"/>
			<path style="fill:#1A61FD;" d="M612.599,198.195c1.521,0.056,3.042,0.113,4.563,0.169c0.308-6.986,2.589-13.923,1.655-20.853
				c-0.352-2.609-1.153-5.136-1.641-7.723c-0.487-2.587-0.647-5.326,0.261-7.798c-0.161,0.439-4.01,0.351-4.523,0.353
				c-0.783,0.004-1.566-0.021-2.347-0.076c-0.52-0.036-1.611-0.378-2.084-0.148c-0.865,0.419-0.416,2.994-0.367,3.791
				c0.096,1.561,0.307,3.112,0.566,4.653C609.392,174.792,611.607,183.989,612.599,198.195z"/>
			<path style="fill:#F3C69F;" d="M592.533,123.028c-3.006,1.376-5.914,3.267-9.212,3.49c-1.727,0.117-3.498-0.235-5.174,0.198
				c1.112,0.357,2.224,0.715,3.336,1.072c-1.448,1.192-3.278,1.911-5.149,2.023c-0.555,0.033-1.238,0.092-1.458,0.603
				c1.396,1.25,3.385,1.834,5.222,1.463c1.457-0.295,2.734-1.134,4.067-1.793c4.568-2.258,9.853-2.415,14.79-3.676
				c0.887-0.227,1.783-0.497,2.536-1.019c0.753-0.521,1.354-1.334,1.413-2.248c0.236-3.686-5.872-1.773-7.671-1.18
				C594.313,122.265,593.413,122.625,592.533,123.028z"/>
			<path style="fill:#1047BF;" d="M612.963,133.876c0.008,1.98,0.57,4.01,0.941,5.941c0.333,1.735,0.487,3.473,0.812,5.194
				c0.863,4.579,2.863,8.991,3.538,13.604c0.274,1.875,0.338,3.402-0.34,5.106c0.027-1.868-0.881-4.063-1.512-5.821
				c-0.681-1.901-1.495-3.709-2.071-5.651c-1.173-3.957-2.039-8.009-2.041-12.169C612.289,138.004,613.008,135.889,612.963,133.876z
				"/>
			<path style="fill:#1047BF;" d="M616.425,168.116c-1.892,1.47,0.117,5.162,0.628,6.889c0.7,2.369,0.982,4.717,1.2,7.175
				c0.106,1.194,0.341,2.622,0.096,3.775c-0.011-1.007,0.434-2.098,0.585-3.091c0.174-1.144,0.212-2.255,0.088-3.391
				c-0.291-2.67-1.04-5.235-1.742-7.858C616.941,170.346,616.814,169.038,616.425,168.116z"/>
			<path style="fill:#1047BF;" d="M628.64,163.692c-2.613,1.24,0.721,6.91,1.178,8.731c0.688,2.74,0.946,5.783,0.842,8.589
				c-0.056,1.517,0.022,3.016-0.005,4.56c1.294-5.816,1.049-12.367-0.488-18.069C629.843,166.299,629.454,164.688,628.64,163.692z"
				/>
			<path style="fill:none;stroke:#072D80;stroke-width:0.1714;stroke-miterlimit:10;" d="M610.462,123.008
				c-0.351,1.496-1.619,11.534,1.924,10.387"/>
			<path style="fill:none;stroke:#072D80;stroke-width:0.1714;stroke-miterlimit:10;" d="M618.06,122.911
				c-0.065-0.243,0.075,1.016,0.141,1.335c0.179,0.868,0.536,1.686,0.96,2.459c0.873,1.591,1.816,2.941,3.264,4.046
				c1.306,0.996,3.657,2.868,5.349,1.971"/>
			<path style="fill:none;stroke:#072D80;stroke-width:0.1714;stroke-miterlimit:10;" d="M609.019,123.585
				c0,2.275-1.086,5.032-1.991,7.112c-0.48,1.103-1.175,2.668-2.434,2.891"/>
			<path style="fill:none;stroke:#072D80;stroke-width:0.1714;stroke-miterlimit:10;" d="M612.193,124.066
				c-0.608-0.813-1.686,0.893-0.769,1.346c0.956,0.473,1.694-0.924,0.769-1.538"/>
			<g>
				<polygon style="fill:#69D2E7;" points="575.904,129.946 593.072,119.885 615.586,129.678 617.642,129.575 617.694,130.605 
					617.675,130.606 600.627,141.06 				"/>
				<polygon style="fill:#B7DEEB;" points="600.578,140.084 617.644,129.619 593.023,118.909 575.855,128.97 				"/>
				<polygon style="fill:#69D2E7;" points="565.678,113.046 566.421,112.429 591.048,123.563 601.457,140.551 600.627,141.06 
					598.553,139.705 599.126,139.434 576.646,129.329 567.657,114.471 567.345,114.831 				"/>
				<polygon style="fill:#B7DEEB;" points="600.627,141.06 590.306,124.18 565.678,113.046 575.904,129.946 				"/>
				<path style="fill:#69D2E7;" d="M594.846,126.834l5.097,2.611c0.574,0.294,1.419,0.286,1.888-0.016l3.41-2.204
					c0.469-0.303,0.384-0.787-0.19-1.081l-5.097-2.611c-0.574-0.294-1.419-0.286-1.888,0.017l-3.41,2.204
					C594.188,126.057,594.273,126.54,594.846,126.834z"/>
			</g>
			<path style="fill:#F3C69F;" d="M621.253,123.928c-3.769,1.725-7.415,4.096-11.551,4.375c-2.165,0.146-4.386-0.295-6.487,0.249
				c1.394,0.448,2.789,0.896,4.183,1.344c-1.815,1.494-4.11,2.396-6.457,2.537c-0.696,0.042-1.552,0.116-1.829,0.757
				c1.751,1.568,4.244,2.3,6.548,1.834c1.827-0.37,3.428-1.422,5.1-2.248c5.728-2.831,12.354-3.029,18.545-4.609
				c1.113-0.284,2.235-0.624,3.18-1.277c0.945-0.653,1.698-1.673,1.771-2.819c0.297-4.622-7.362-2.223-9.619-1.479
				C623.485,122.971,622.357,123.424,621.253,123.928z"/>
		</g>
	</g>
</g>
</svg>
