<?xml version="1.0" encoding="utf-8"?>
<!-- Generator: Adobe Illustrator 27.5.0, SVG Export Plug-In . SVG Version: 6.00 Build 0)  -->
<svg version="1.1" xmlns="http://www.w3.org/2000/svg" xmlns:xlink="http://www.w3.org/1999/xlink" x="0px" y="0px"
	 viewBox="0 0 3710 3710" style="enable-background:new 0 0 3710 3710;" xml:space="preserve">
<g id="Background">
	<g>
		<g>
			<rect style="fill:#FFFFFF;" width="3710" height="3710"/>
		</g>
	</g>
</g>
<g id="Illustration">
	<g>
		<linearGradient id="SVGID_1_" gradientUnits="userSpaceOnUse" x1="3361.3372" y1="3208.7131" x2="1361.8264" y2="1459.1428">
			<stop  offset="0" style="stop-color:#B37CFF"/>
			<stop  offset="1" style="stop-color:#F895E7"/>
		</linearGradient>
		<path style="opacity:0.3;fill:url(#SVGID_1_);" d="M3021.524,2300.083c-258.417,608.469-946.781,949.337-1543.732,857.389
			c-97.136-14.962-363.437-59.531-599.209-269.791C424.706,2482.915,327.64,1681.424,693.77,1116.594
			c266.478-411.097,744.167-644.134,1198.065-632.477c97.77,2.511,472.464,17.985,801.755,289.512
			c48.366,39.882,155.043,134.652,251.185,285C3170.533,1411.671,3189.938,1903.536,3021.524,2300.083z"/>
		<g>
			<g>
				
					<linearGradient id="SVGID_00000048492063624739232840000001901923541870953904_" gradientUnits="userSpaceOnUse" x1="1475.3027" y1="45.6483" x2="405.2491" y2="1256.2943" gradientTransform="matrix(-1 0 0 1 1492.1381 0)">
					<stop  offset="0" style="stop-color:#A737D5"/>
					<stop  offset="1" style="stop-color:#EF497A"/>
				</linearGradient>
				<path style="fill:url(#SVGID_00000048492063624739232840000001901923541870953904_);" d="M1262.495,2181.142
					c0,0,8.975-377.32-164.816-478.307c-173.789-100.988-504.225-164.125-516.61-705.921c-7.252-317.191-15.1-455.873-20.36-516.344
					c-2.052-23.589,18.91-42.629,42.178-38.246c164.593,31.007,699.285,158.632,811.388,523.584
					C1547.172,1398.562,1262.495,2181.142,1262.495,2181.142z"/>
				
					<linearGradient id="SVGID_00000048495157675502136580000008946888436548317864_" gradientUnits="userSpaceOnUse" x1="1083.0858" y1="904.6795" x2="-2314.5352" y2="3333.7842" gradientTransform="matrix(-1 0 0 1 1492.1381 0)">
					<stop  offset="0" style="stop-color:#CB236D"/>
					<stop  offset="1" style="stop-color:#4C246D"/>
				</linearGradient>
				<path style="fill:url(#SVGID_00000048495157675502136580000008946888436548317864_);" d="M730.177,593.068
					c180.674,161.136,389.59,446.313,500.945,731.491c14.294,46.999,56.104,146.948,74.261,324.529
					c16.217,148.106,8.155,304.61-11.509,408.208c-1.243,6.55-7.56,10.851-14.11,9.608c-11.262-2.136-9.764-14.249-9.662-13.867
					c22.457-176.999,13.135-397.304-38.322-596.084c-65.742-244.078-212.372-480.72-364.035-681.426l-15.607-19.763
					C734.634,604.863,709.898,603.751,720.882,593.232C723.477,590.748,727.537,590.726,730.177,593.068z"/>
			</g>
			<g>
				
					<linearGradient id="SVGID_00000007393486693383299180000002526025248689731239_" gradientUnits="userSpaceOnUse" x1="1026.8989" y1="1153.6011" x2="261.4579" y2="2106.4961" gradientTransform="matrix(-1 0 0 1 1492.1381 0)">
					<stop  offset="0" style="stop-color:#A737D5"/>
					<stop  offset="1" style="stop-color:#EF497A"/>
				</linearGradient>
				<path style="fill:url(#SVGID_00000007393486693383299180000002526025248689731239_);" d="M1541.781,2906.591
					c23.513,11.53-222.598-297.957-299.693-784.029c-36.329-229.05-36.803-516.029-167.28-626.621
					c-108.592-92.042-478.114-33.933-599.022-11.849c-15.108,2.759-20.194,21.844-8.434,31.722
					c57.982,48.695,182.016,163.554,214.334,279.311c42.597,152.576,187.655,249.623,317.518,275.887
					c129.863,26.264,202.103,51.752,265.369,259.432C1327.838,2538.122,1474.97,2873.831,1541.781,2906.591z"/>
				
					<linearGradient id="SVGID_00000016762735304135674030000006063370487346514318_" gradientUnits="userSpaceOnUse" x1="785.505" y1="1621.4963" x2="-1143.7184" y2="3121.1345" gradientTransform="matrix(-1 0 0 1 1492.1381 0)">
					<stop  offset="0" style="stop-color:#CB236D"/>
					<stop  offset="1" style="stop-color:#4C246D"/>
				</linearGradient>
				<path style="fill:url(#SVGID_00000016762735304135674030000006063370487346514318_);" d="M645.835,1548.557
					c154.26,6.461,319.846,76.829,403.875,208.825l7.931,12.595c18.318,29.534,122.133,239.484,179.792,413.522
					c0.718,2.17-0.458,4.511-2.627,5.23c-3.685,1.22-5.531-2.835-5.18-2.477c-40.172-98.318-97.869-222.97-143.821-316.186
					c-49.279-101.718-83.766-170.604-196.17-236.587c-125.109-71.061-244.633-78.376-244.275-78.302
					c-1.824-0.186-3.153-1.816-2.966-3.64C642.573,1549.783,644.097,1548.488,645.835,1548.557z"/>
			</g>
		</g>
		<g>
			
				<linearGradient id="SVGID_00000050641913097730088730000011950743844718048386_" gradientUnits="userSpaceOnUse" x1="2097.5837" y1="3013.6792" x2="1964.0706" y2="-938.3774">
				<stop  offset="0" style="stop-color:#2B3582"/>
				<stop  offset="1" style="stop-color:#150E42"/>
			</linearGradient>
			<path style="fill:url(#SVGID_00000050641913097730088730000011950743844718048386_);" d="M1158.261,931.593
				c0-94.277,76.427-170.703,170.704-170.703h1451.672c80.088,0,146.126,62.762,150.198,142.746l107.154,2104.653
				c3.187,62.59-46.084,115.385-108.745,116.525l-1663.799,30.239c-58.878,1.07-107.184-46.365-107.184-105.253V931.593z"/>
			
				<linearGradient id="SVGID_00000137832473259743899340000011983661106572039870_" gradientUnits="userSpaceOnUse" x1="838.6191" y1="2654.0698" x2="2351.7988" y2="3615.3857">
				<stop  offset="0" style="stop-color:#A737D5"/>
				<stop  offset="1" style="stop-color:#EF497A"/>
			</linearGradient>
			<path style="fill:url(#SVGID_00000137832473259743899340000011983661106572039870_);" d="M1508.613,3119.272
				c-0.017,0-0.035,0-0.052,0l-186.17-2.406c-62.251-0.807-112.895-52.111-112.895-114.364v-281.081c0-2.197,1.78-3.974,3.974-3.974
				c2.195,0,3.975,1.778,3.975,3.974v281.081c0,57.925,47.124,105.662,105.049,106.415l186.167,2.407
				c2.195,0.027,3.951,1.832,3.924,4.025C1512.557,3117.526,1510.783,3119.272,1508.613,3119.272z"/>
			
				<linearGradient id="SVGID_00000022546465552335615490000009222815961142954424_" gradientUnits="userSpaceOnUse" x1="965.632" y1="2454.1428" x2="2478.8079" y2="3415.4563">
				<stop  offset="0" style="stop-color:#A737D5"/>
				<stop  offset="1" style="stop-color:#EF497A"/>
			</linearGradient>
			<path style="fill:url(#SVGID_00000022546465552335615490000009222815961142954424_);" d="M1213.47,2638.329
				c-2.195,0-3.974-1.778-3.974-3.975v-45.521c0-2.197,1.78-3.975,3.974-3.975c2.195,0,3.975,1.778,3.975,3.975v45.521
				C1217.445,2636.551,1215.666,2638.329,1213.47,2638.329z"/>
			<g>
				
					<linearGradient id="SVGID_00000106132988041133488830000016571427665356582790_" gradientUnits="userSpaceOnUse" x1="3269.6475" y1="325.3814" x2="79.6827" y2="4600.8726">
					<stop  offset="0" style="stop-color:#53D8FF"/>
					<stop  offset="1" style="stop-color:#3840F7"/>
				</linearGradient>
				<path style="fill:url(#SVGID_00000106132988041133488830000016571427665356582790_);" d="M1277.19,793.284
					c-0.178-30.163,26.349-53.508,56.24-49.455c198.239,26.883,879.931,110.027,1443.546,66.762
					c25.703-1.973,48.009,17.501,49.377,43.244l112.356,2114.035c1.541,28.987-20.594,53.774-49.571,55.49
					c-237.046,14.028-1213.275,68.257-1561.481,31.786c-21.193-2.22-37.279-20.063-37.405-41.371L1277.19,793.284z"/>
				<path style="opacity:0.6;fill:#FFFFFF;" d="M1300.541,846.26c-0.171-29.027,25.357-51.493,54.122-47.592
					c190.774,25.871,846.797,105.885,1389.188,64.248c24.735-1.899,46.201,16.843,47.518,41.615l108.126,2034.43
					c1.483,27.895-19.819,51.75-47.705,53.4c-228.12,13.5-1167.588,65.687-1502.682,30.588
					c-20.395-2.136-35.876-19.307-35.996-39.813L1300.541,846.26z"/>
				<g style="opacity:0.6;">
					<path style="fill:#FFFFFF;" d="M1480.461,2184.326c3.963,11.287,16.987,18.91,31.631,18.516l1193.434-32.169
						c13.501-0.364,24.123-9.515,23.61-20.34c-0.499-10.524-11.359-18.739-24.487-18.523l-1193.717,19.637
						C1489.859,2151.793,1474.758,2168.088,1480.461,2184.326z"/>
				</g>
				<g style="opacity:0.6;">
					<path style="fill:#FFFFFF;" d="M1482.18,1264.317c3.778,11.35,16.676,19.186,31.324,19.031l1193.8-12.655
						c13.505-0.143,24.275-9.119,23.939-19.951c-0.327-10.531-11.051-18.922-24.181-18.921l-1193.878,0.12
						C1492.109,1231.943,1476.743,1247.989,1482.18,1264.317z"/>
				</g>
				<g style="opacity:0.6;">
					<path style="fill:#FFFFFF;" d="M1480.762,1089.281c3.439,22.268,16.101,37.853,30.751,37.853l1193.946-0.075
						c13.506-0.001,24.542-17.327,24.529-38.511c-0.013-20.595-10.485-37.222-23.613-37.491l-1193.651-24.433
						C1491.653,1026.193,1475.813,1057.246,1480.762,1089.281z"/>
				</g>
				<g style="opacity:0.6;">
					<path style="fill:#FFFFFF;" d="M1487.786,2548.595c3.963,11.287,16.987,18.91,31.63,18.516l1193.434-32.169
						c13.501-0.364,24.123-9.515,23.61-20.34c-0.499-10.524-11.359-18.739-24.487-18.522l-1193.717,19.637
						C1497.185,2516.063,1482.084,2532.358,1487.786,2548.595z"/>
				</g>
				<g style="opacity:0.6;">
					<path style="fill:#FFFFFF;" d="M1491.381,2727.357c3.963,11.287,16.987,18.911,31.631,18.516l1193.433-32.169
						c13.501-0.364,24.123-9.514,23.61-20.34c-0.499-10.524-11.359-18.739-24.487-18.523l-1193.717,19.637
						C1500.78,2694.825,1485.679,2711.119,1491.381,2727.357z"/>
				</g>
				<g style="opacity:0.6;">
					<path style="fill:#FFFFFF;" d="M1496.068,2355.378c3.963,11.287,16.987,18.911,31.631,18.516l1193.433-32.169
						c13.501-0.364,24.123-9.514,23.61-20.34c-0.499-10.524-11.359-18.739-24.487-18.522L1526.538,2322.5
						C1505.467,2322.846,1490.365,2339.141,1496.068,2355.378z"/>
				</g>
				<g style="opacity:0.6;">
					<path style="fill:#FFFFFF;" d="M1498.223,2902.739L1498.223,2902.739c3.963,11.287,16.987,18.911,31.63,18.516l1193.433-32.169
						c13.501-0.364,24.123-9.514,23.61-20.34c-0.499-10.524-11.359-18.739-24.487-18.523l-1193.717,19.637
						C1507.621,2870.207,1492.52,2886.501,1498.223,2902.739z"/>
				</g>
				<g>
					<path style="fill:#FFFFFF;" d="M1542.006,1999.018c-17.115,0-33.212-6.604-45.417-18.65
						c-12.411-12.25-19.246-28.598-19.246-46.036v-484.094c0-35.097,28.549-64.109,63.639-64.677l1089.822-17.583
						c0.363-0.003,0.731-0.007,1.09-0.007c34.818,0,63.083,26.992,64.577,61.918l20.829,487.053
						c0.755,17.622-5.504,34.384-17.624,47.202s-28.509,20.003-46.148,20.237l-1110.651,14.63
						C1542.587,1999.015,1542.295,1999.018,1542.006,1999.018z M2631.882,1384.786c-0.268,0-0.537,0-0.806,0.007l-1089.822,17.583
						c-25.969,0.417-47.097,21.888-47.097,47.862v484.094c0,12.903,5.057,25.005,14.243,34.069
						c9.186,9.064,21.314,14.026,34.256,13.797l1110.651-14.631c13.052-0.171,25.181-5.488,34.149-14.975
						c8.969-9.484,13.601-21.889,13.044-34.933l-20.829-487.053C2678.565,1404.763,2657.646,1384.786,2631.882,1384.786z"/>
					<rect x="1852.163" y="1390.313" style="fill:#FFFFFF;" width="16.815" height="601.96"/>
					<rect x="1862.252" y="1555.095" style="fill:#FFFFFF;" width="830.637" height="16.815"/>
					<rect x="1862.252" y="1797.224" style="fill:#FFFFFF;" width="830.637" height="16.815"/>
				</g>
			</g>
			
				<linearGradient id="SVGID_00000182517941437416729330000012283613203718362284_" gradientUnits="userSpaceOnUse" x1="2306.7964" y1="257.2428" x2="1639.0786" y2="1135.6099">
				<stop  offset="0" style="stop-color:#2B3582"/>
				<stop  offset="1" style="stop-color:#150E42"/>
			</linearGradient>
			<path style="fill:url(#SVGID_00000182517941437416729330000012283613203718362284_);" d="M2144.835,473.93
				c-52.437-36.479-98.031-35.757-130.127-26.286c-29.279,8.639-48.255,36.907-45.47,67.307l13.842,151.081l164.71,14.617
				C2147.789,680.65,2247.671,545.471,2144.835,473.93z M2072.401,595.816c-22.682,0-41.07-18.387-41.07-41.07
				c0-22.683,18.387-41.071,41.07-41.071c22.683,0,41.07,18.388,41.07,41.071C2113.471,577.429,2095.084,595.816,2072.401,595.816z"
				/>
			<path style="fill:#FFFFFF;" d="M1999.532,602.479c-2.032,0-3.765-1.549-3.953-3.614l-2.205-24.06
				c-0.202-2.185,1.409-4.118,3.594-4.32c2.229-0.209,4.122,1.409,4.32,3.598l2.204,24.061c0.202,2.185-1.409,4.118-3.594,4.32
				C1999.775,602.475,1999.653,602.479,1999.532,602.479z M1995.212,555.328c-2.032,0-3.765-1.549-3.953-3.614l-1.675-18.265
				c-2.655-28.959,15.568-55.923,43.326-64.117c19.659-5.803,39.914-6.633,60.198-2.472c2.15,0.438,3.536,2.542,3.095,4.693
				c-0.44,2.147-2.524,3.521-4.691,3.094c-19.001-3.889-37.958-3.117-56.353,2.31c-24.129,7.122-39.969,30.577-37.661,55.771
				l1.674,18.265c0.202,2.185-1.409,4.118-3.594,4.32C1995.455,555.324,1995.333,555.328,1995.212,555.328z"/>
			
				<linearGradient id="SVGID_00000163782053987370290120000006190202309237953215_" gradientUnits="userSpaceOnUse" x1="2380.04" y1="312.9193" x2="1712.3214" y2="1191.2872">
				<stop  offset="0" style="stop-color:#2B3582"/>
				<stop  offset="1" style="stop-color:#150E42"/>
			</linearGradient>
			<path style="fill:url(#SVGID_00000163782053987370290120000006190202309237953215_);" d="M1758.28,763.669V687.71
				c0-26.221,21.732-47.222,47.938-46.324l523.704,17.943c23.241,0.796,42.063,19.141,43.456,42.355l4.376,72.985L1758.28,763.669z"
				/>
			<path style="fill:#FFFFFF;" d="M1953.556,670.006h-22.522c-2.195,0-3.975-1.777-3.975-3.974c0-2.197,1.78-3.975,3.975-3.975
				h22.522c2.195,0,3.975,1.777,3.975,3.975C1957.53,668.229,1955.751,670.006,1953.556,670.006z"/>
			<path style="fill:#FFFFFF;" d="M1786.626,739.817c-2.195,0-3.974-1.777-3.974-3.975v-30.729
				c0-23.742,19.315-43.056,43.058-43.056h82.801c2.195,0,3.975,1.777,3.975,3.975c0,2.197-1.78,3.974-3.975,3.974h-82.801
				c-19.358,0-35.109,15.751-35.109,35.107v30.729C1790.6,738.039,1788.821,739.817,1786.626,739.817z"/>
			
				<linearGradient id="SVGID_00000124131206959108862440000001678052955303803274_" gradientUnits="userSpaceOnUse" x1="2312.0938" y1="-326.5527" x2="1566.2194" y2="3016.5732">
				<stop  offset="0" style="stop-color:#53D8FF"/>
				<stop  offset="1" style="stop-color:#3840F7"/>
			</linearGradient>
			<path style="fill:url(#SVGID_00000124131206959108862440000001678052955303803274_);" d="M1544.892,782.849
				c1.264-26.303,22.958-46.98,49.292-46.981l915.795-0.025c32.929-0.001,61.082,23.696,66.698,56.143l0.775,4.478
				c6.152,35.54-21.21,68.046-57.279,68.046h-939.551c-21.586,0-38.787-18.048-37.751-39.609L1544.892,782.849z"/>
		</g>
		<g>
			<g>
				<path d="M776.306,2473.346l-75.989-512.366c78.035-159.384,134.169,66.935,141.789,505.637L776.306,2473.346z"/>
				<path d="M764.706,2590.622l10.028-1.026l673.525-68.877c27.62-65.015-34.101-112.168-200.75-130.035l-466.271,41.271
					L764.706,2590.622z"/>
			</g>
			<g>
				<g>
					<g>
						
							<linearGradient id="SVGID_00000042005464237483224380000000400079225080585111_" gradientUnits="userSpaceOnUse" x1="11745.9053" y1="3090.2063" x2="11977.7373" y2="3090.2063" gradientTransform="matrix(0.9948 -0.1017 0.1017 0.9948 -10503.5527 1069.2203)">
							<stop  offset="0" style="stop-color:#CB236D"/>
							<stop  offset="1" style="stop-color:#4C246D"/>
						</linearGradient>
						<path style="fill:url(#SVGID_00000042005464237483224380000000400079225080585111_);" d="M1588.384,2940.282
							c-56.538,5.782-82.05,3.49-93.686,0.21c3.123,9.062,12.143,15.547,22.592,14.479l200.014-20.454
							c6.736-0.689,10.328-7.572,8.121-13.245C1702.814,2925.437,1654.707,2933.5,1588.384,2940.282z"/>
						
							<linearGradient id="SVGID_00000131367521218044419400000000491384915312704446_" gradientUnits="userSpaceOnUse" x1="11924.5264" y1="2644.3921" x2="11861.1797" y2="3082.0603" gradientTransform="matrix(0.9948 -0.1017 0.1017 0.9948 -10503.5527 1069.2203)">
							<stop  offset="0" style="stop-color:#53D8FF"/>
							<stop  offset="1" style="stop-color:#3840F7"/>
						</linearGradient>
						<path style="fill:url(#SVGID_00000131367521218044419400000000491384915312704446_);" d="M1725.425,2921.271
							c-0.445-1.143-1.04-2.253-1.986-3.236c-17.225-17.894-50.954-45.314-92.528-40.47c-60.903,7.096-81.492,15.887-129.614,13.631
							l-7.39,38.205c-0.753,3.895-0.387,7.669,0.791,11.091c11.636,3.28,37.148,5.572,93.686-0.21
							C1654.707,2933.5,1702.814,2925.437,1725.425,2921.271z"/>
					</g>
					
						<linearGradient id="SVGID_00000070806564445811789980000000400163521995940005_" gradientUnits="userSpaceOnUse" x1="11757.4844" y1="3020.3423" x2="11820.21" y2="3020.3423" gradientTransform="matrix(0.9948 -0.1017 0.1017 0.9948 -10503.5527 1069.2203)">
						<stop  offset="0" style="stop-color:#F9B776"/>
						<stop  offset="1" style="stop-color:#F47960"/>
					</linearGradient>
					<path style="fill:url(#SVGID_00000070806564445811789980000000400163521995940005_);" d="M1510.938,2849.854l-8.951,48.082
						c0,0,31.822,10.733,57.428-3.115l1.115-40.979L1510.938,2849.854z"/>
					
						<linearGradient id="SVGID_00000112590647782530631820000014548182728102309809_" gradientUnits="userSpaceOnUse" x1="1511.8008" y1="1504.9381" x2="1368.5677" y2="2446.9736">
						<stop  offset="0" style="stop-color:#7C27DD"/>
						<stop  offset="1" style="stop-color:#2B41D9"/>
					</linearGradient>
					<path style="fill:url(#SVGID_00000112590647782530631820000014548182728102309809_);" d="M1162.95,2348.054
						c0,0,341.321-6.978,414.103,18.61c72.782,25.588-6.471,496.631-6.471,496.631s-17.974,11.032-61.375,2.257
						c0,0,8.56-342.507-31.035-412.538l-372.632-22.466L1162.95,2348.054z"/>
				</g>
				<g>
					<g>
						
							<linearGradient id="SVGID_00000124132205397292321850000011273082180235560577_" gradientUnits="userSpaceOnUse" x1="11742.6816" y1="3137.5098" x2="11978.4297" y2="3137.5098" gradientTransform="matrix(0.9948 -0.1017 0.1017 0.9948 -10503.5527 1069.2203)">
							<stop  offset="0" style="stop-color:#CB236D"/>
							<stop  offset="1" style="stop-color:#4C246D"/>
						</linearGradient>
						<path style="fill:url(#SVGID_00000124132205397292321850000011273082180235560577_);" d="M1591.556,2987.523
							c-57.493,5.88-83.436,3.549-95.269,0.213c3.176,9.216,12.348,15.81,22.974,14.723l203.394-20.8
							c6.85-0.7,10.502-7.699,8.258-13.468C1707.919,2972.427,1658.999,2980.626,1591.556,2987.523z"/>
						
							<linearGradient id="SVGID_00000040559207559284980500000017233574474201220798_" gradientUnits="userSpaceOnUse" x1="1944.9099" y1="2382.8323" x2="1124.068" y2="3809.6628">
							<stop  offset="0" style="stop-color:#53D8FF"/>
							<stop  offset="1" style="stop-color:#3840F7"/>
						</linearGradient>
						<path style="fill:url(#SVGID_00000040559207559284980500000017233574474201220798_);" d="M1730.913,2968.192
							c-0.452-1.163-1.058-2.292-2.02-3.291c-17.516-18.196-51.815-46.079-94.091-41.154
							c-61.932,7.216-82.869,16.155-131.804,13.861l-7.515,38.85c-0.766,3.96-0.394,7.799,0.805,11.278
							c11.833,3.336,37.776,5.666,95.269-0.213C1658.999,2980.626,1707.919,2972.427,1730.913,2968.192z"/>
					</g>
					
						<linearGradient id="SVGID_00000034780744409049960470000002397436422019359880_" gradientUnits="userSpaceOnUse" x1="11754.4561" y1="3066.4656" x2="11818.2412" y2="3066.4656" gradientTransform="matrix(0.9948 -0.1017 0.1017 0.9948 -10503.5527 1069.2203)">
						<stop  offset="0" style="stop-color:#F9B776"/>
						<stop  offset="1" style="stop-color:#F47960"/>
					</linearGradient>
					<path style="fill:url(#SVGID_00000034780744409049960470000002397436422019359880_);" d="M1512.801,2895.568l-9.102,48.894
						c0,0,32.359,10.914,58.398-3.167l1.134-41.672L1512.801,2895.568z"/>
					
						<linearGradient id="SVGID_00000143614711994654018800000011615398450242953129_" gradientUnits="userSpaceOnUse" x1="1594.2097" y1="2484.1135" x2="2374.4014" y2="1925.8724">
						<stop  offset="0" style="stop-color:#7C27DD"/>
						<stop  offset="1" style="stop-color:#2B41D9"/>
					</linearGradient>
					<path style="fill:url(#SVGID_00000143614711994654018800000011615398450242953129_);" d="M1158.935,2385.29
						c0,0,347.088-7.096,421.099,18.925c74.012,26.02-6.581,505.022-6.581,505.022s-18.277,11.219-62.412,2.295
						c0,0-22.486-319.287-62.75-390.501l-347.737-51.852L1158.935,2385.29z"/>
				</g>
			</g>
			
				<linearGradient id="SVGID_00000006704735272639412100000003430630429361210528_" gradientUnits="userSpaceOnUse" x1="-3011.1257" y1="1386.7314" x2="-1144.3579" y2="3213.8994" gradientTransform="matrix(-0.9948 0.1017 0.1017 0.9948 -1121.4419 109.362)">
				<stop  offset="0" style="stop-color:#2B3582"/>
				<stop  offset="1" style="stop-color:#150E42"/>
			</linearGradient>
			<path style="fill:url(#SVGID_00000006704735272639412100000003430630429361210528_);" d="M759.845,2422.81l537.455-51.67
				l-0.163-1.59c-2.682-26.226-25.685-45.595-51.984-43.771l-468.836,32.503c-18.892,1.31-31.443,20.129-25.392,38.074
				L759.845,2422.81z"/>
			
				<linearGradient id="SVGID_00000003097872744051563730000015798581313669428150_" gradientUnits="userSpaceOnUse" x1="-1427.0938" y1="1816.6426" x2="-1723.3268" y2="2537.0273" gradientTransform="matrix(-0.9948 0.1017 0.1017 0.9948 -1121.4419 109.362)">
				<stop  offset="0" style="stop-color:#2B3582"/>
				<stop  offset="1" style="stop-color:#150E42"/>
			</linearGradient>
			<path style="fill:url(#SVGID_00000003097872744051563730000015798581313669428150_);" d="M489.746,1887.261
				c183.373-73.919,247.465-5.217,253.346,214.458l42.57,416.278l-47.186,4.825l-50.365-492.497
				c-15.074-106.862-53.678-134.652-174.453-82.463C473.963,1956.988,447.61,1905.08,489.746,1887.261z"/>
			
				<linearGradient id="SVGID_00000040571113452004090090000016932907503176863377_" gradientUnits="userSpaceOnUse" x1="-2400.8872" y1="3166.2451" x2="-2174.5974" y2="3166.2451" gradientTransform="matrix(-0.9948 0.1017 0.1017 0.9948 -1121.4419 109.362)">
				<stop  offset="0" style="stop-color:#2B3582"/>
				<stop  offset="1" style="stop-color:#150E42"/>
			</linearGradient>
			<path style="fill:url(#SVGID_00000040571113452004090090000016932907503176863377_);" d="M1368.822,3057.119l219.153-22.411
				c1.639-0.168,2.842-1.645,2.675-3.284l-3.365-32.91c-0.168-1.638-1.645-2.842-3.284-2.674l-219.153,22.411
				c-1.639,0.167-2.842,1.645-2.675,3.284l3.365,32.91C1365.706,3056.083,1367.184,3057.287,1368.822,3057.119z"/>
			
				<linearGradient id="SVGID_00000157285322055630130410000017692905988089753742_" gradientUnits="userSpaceOnUse" x1="-2281.9985" y1="3327.8601" x2="-2037.043" y2="2735.3333" gradientTransform="matrix(-0.9948 0.1017 0.1017 0.9948 -1121.4419 109.362)">
				<stop  offset="0" style="stop-color:#2C759E"/>
				<stop  offset="1" style="stop-color:#051042"/>
			</linearGradient>
			<path style="fill:url(#SVGID_00000157285322055630130410000017692905988089753742_);" d="M788.576,2413.742l661.451,75.686
				c48.767,5.58,87.311,43.936,93.129,92.676l48.416,405.57l-47.775,4.886l-71.965-389.499l-690.242-0.341L788.576,2413.742z"/>
			<g>
				
					<linearGradient id="SVGID_00000001652019007553823320000012110350029285174915_" gradientUnits="userSpaceOnUse" x1="-2270.104" y1="3030.9871" x2="-2483.0901" y2="3420.7375" gradientTransform="matrix(-0.9948 0.1017 0.1017 0.9948 -1121.4419 109.362)">
					<stop  offset="0" style="stop-color:#2B3582"/>
					<stop  offset="1" style="stop-color:#150E42"/>
				</linearGradient>
				
					<circle style="fill:url(#SVGID_00000001652019007553823320000012110350029285174915_);" cx="1580.141" cy="3090.247" r="110.509"/>
				
					<linearGradient id="SVGID_00000026137099673658896990000008935561813897753732_" gradientUnits="userSpaceOnUse" x1="-2296.7273" y1="3079.7058" x2="-2460.1238" y2="3378.7104" gradientTransform="matrix(-0.9948 0.1017 0.1017 0.9948 -1121.4419 109.362)">
					<stop  offset="0" style="stop-color:#2C759E"/>
					<stop  offset="1" style="stop-color:#051042"/>
				</linearGradient>
				
					<circle style="fill:url(#SVGID_00000026137099673658896990000008935561813897753732_);" cx="1580.141" cy="3090.247" r="84.779"/>
			</g>
			<g>
				<g>
					<g>
						
							<linearGradient id="SVGID_00000070804287809775476580000001131299495300760494_" gradientUnits="userSpaceOnUse" x1="10537.5293" y1="1677.1039" x2="10724.1504" y2="1677.1039" gradientTransform="matrix(0.7325 -0.6808 0.6808 0.7325 -8058.5298 7795.2192)">
							<stop  offset="0" style="stop-color:#F9B776"/>
							<stop  offset="1" style="stop-color:#F47960"/>
						</linearGradient>
						<path style="fill:url(#SVGID_00000070804287809775476580000001131299495300760494_);" d="M859.578,1685.144
							c0,0-29.645,130.146-36.698,187.089l101.008-24.711c0,0-2.647-74.925,15.514-124.052L859.578,1685.144z"/>
						<g>
							
								<linearGradient id="SVGID_00000091730182046361812290000017993373201671090836_" gradientUnits="userSpaceOnUse" x1="-5654.0571" y1="1460.6355" x2="-5837.6587" y2="1703.525" gradientTransform="matrix(0.8945 -0.447 0.447 0.8945 5334.0161 -2225.0469)">
								<stop  offset="0" style="stop-color:#F9B776"/>
								<stop  offset="1" style="stop-color:#F47960"/>
							</linearGradient>
							<path style="fill:url(#SVGID_00000091730182046361812290000017993373201671090836_);" d="M961.122,1591.801
								c1.082,2.165,20.051,161.073,20.051,161.073l-90.964,8.903l-40.355-147.941
								C849.854,1613.835,943.009,1555.552,961.122,1591.801z"/>
							
								<linearGradient id="SVGID_00000008124522313844458740000014055182254949661579_" gradientUnits="userSpaceOnUse" x1="-5794.2754" y1="1519.2261" x2="-5574.9604" y2="1519.2261" gradientTransform="matrix(0.8945 -0.447 0.447 0.8945 5334.0161 -2225.0469)">
								<stop  offset="0" style="stop-color:#2B3582"/>
								<stop  offset="1" style="stop-color:#150E42"/>
							</linearGradient>
							<path style="fill:url(#SVGID_00000008124522313844458740000014055182254949661579_);" d="M879.622,1639.914l15.145,79.542
								c0.194,1.02,0.515,1.985,0.978,2.914c2.833,5.689,14.016,24.548,32.613,11.93c16.875-11.449,32.445-21.647,45.436-21.95
								c5.833-0.136,10.807,4.169,11.497,9.963c1.719,14.438,4.993,47.045,3.515,75.808c-0.3,5.837-5.061,10.428-10.902,10.641
								c-17.599,0.642-54.755,0.956-84.705-5.792c-4.058-0.914-7.293-3.926-8.435-7.926c-5.564-19.503-22.698-78.717-30.025-94.479
								c-6.877-14.794-28.811-17.751-38.11-18.336c-3.048-0.192-5.859-1.612-7.826-3.948c-6.954-8.259-19.492-28.55,5.273-46.779
								c5.183-3.815,6.169-11.093,2.198-16.159c-7.906-10.083-15.43-26.975,2.854-43.718c18.584-17.018,38.742-10.786,50.678-4.248
								c4.826,2.644,10.73,1.333,14.221-2.921c1.987-2.422,5.053-4.016,9.774-2.876c6.362,1.537,12.601-3.017,13.471-9.503
								c1.671-12.462,8.513-27.485,31.095-30.91c40.07-6.076,58.294,34.517,56.453,62.456c-1.84,27.938-45.658,32.056-70.195,26.413
								c-18.656-4.29-35.518,12.279-42.53,20.469C879.876,1633.1,878.983,1636.559,879.622,1639.914z"/>
							
								<linearGradient id="SVGID_00000033359052257846449020000014853753503606987943_" gradientUnits="userSpaceOnUse" x1="-5922.9614" y1="1652.9844" x2="-5775.6973" y2="1501.8956" gradientTransform="matrix(0.8945 -0.447 0.447 0.8945 5334.0161 -2225.0469)">
								<stop  offset="0" style="stop-color:#F9B776"/>
								<stop  offset="1" style="stop-color:#F47960"/>
							</linearGradient>
							<path style="fill:url(#SVGID_00000033359052257846449020000014853753503606987943_);" d="M860.543,1729.473
								c0,0,1.117-48.819-18.442-54.2c-19.559-5.381-41.438,8.032-25.733,37.923
								C835.903,1750.376,860.543,1729.473,860.543,1729.473z"/>
						</g>
					</g>
				</g>
				<g>
					
						<linearGradient id="SVGID_00000057838019385696641230000007939901909212290468_" gradientUnits="userSpaceOnUse" x1="9472.5" y1="1409.6388" x2="9635.1396" y2="1409.6388" gradientTransform="matrix(0.9974 0.0727 -0.0727 0.9974 -7991.9727 296.1805)">
						<stop  offset="0" style="stop-color:#F9B776"/>
						<stop  offset="1" style="stop-color:#F47960"/>
					</linearGradient>
					<path style="fill:url(#SVGID_00000057838019385696641230000007939901909212290468_);" d="M1353.293,2392.529l22.799-4.331
						l69.047-10.774c8.313-1.297,16.799,0.778,23.576,5.764l44.012,32.383c3.376,2.484,1.395,7.837-2.784,7.525l-146.737-10.944
						L1353.293,2392.529z"/>
					
						<linearGradient id="SVGID_00000134209658670975885640000006191147019299220405_" gradientUnits="userSpaceOnUse" x1="-1120.5406" y1="1937.2991" x2="-2145.2117" y2="2917.8999" gradientTransform="matrix(-1 0 0 1 -401.855 0)">
						<stop  offset="0" style="stop-color:#FDF53F"/>
						<stop  offset="1" style="stop-color:#D93C65"/>
					</linearGradient>
					<path style="fill:url(#SVGID_00000134209658670975885640000006191147019299220405_);" d="M874.106,2461.842
						c0,0,110.886-19.301,176.236-103.993c0,0-27.853-216.81-16.337-293.176c0,0,227.337,444.265,342.355,348.46l9.026-26.386
						c-52.75,6.642-250.153-371.252-276.996-439.057c-28.907-73.019-155.616-113.076-208.663-108.803
						c-33.036,2.661-53.765,3.042-64.704,2.95c-5.988-0.051-11.343,3.602-13.452,9.207
						C802.131,1902.711,721.079,2152.667,874.106,2461.842z"/>
				</g>
			</g>
			<g>
				
					<linearGradient id="SVGID_00000135659528940287266980000012677904210592512918_" gradientUnits="userSpaceOnUse" x1="-2324.6995" y1="2877.8584" x2="-1427.1205" y2="2877.8584" gradientTransform="matrix(-0.9948 0.1017 0.1017 0.9948 -1121.4419 109.362)">
					<stop  offset="0" style="stop-color:#2B3582"/>
					<stop  offset="1" style="stop-color:#150E42"/>
				</linearGradient>
				
					<circle style="fill:url(#SVGID_00000135659528940287266980000012677904210592512918_);" cx="1037.391" cy="2781.476" r="448.783"/>
				
					<linearGradient id="SVGID_00000049189491882246315930000010714915880255322261_" gradientUnits="userSpaceOnUse" x1="1138.6102" y1="2249.5293" x2="3352.1646" y2="2714.9978" gradientTransform="matrix(-0.9462 -0.3237 -0.3237 0.9462 3510.7346 1112.9044)">
					<stop  offset="0" style="stop-color:#233894"/>
					<stop  offset="0.9964" style="stop-color:#DD397A"/>
				</linearGradient>
				
					<circle style="fill:url(#SVGID_00000049189491882246315930000010714915880255322261_);" cx="1030.552" cy="2789.873" r="384.452"/>
			</g>
		</g>
		<g>
			
				<linearGradient id="SVGID_00000161591984169516603200000015574009398363793818_" gradientUnits="userSpaceOnUse" x1="2484.4512" y1="881.9308" x2="3189.7556" y2="881.9308">
				<stop  offset="0" style="stop-color:#A737D5"/>
				<stop  offset="1" style="stop-color:#EF497A"/>
			</linearGradient>
			<path style="fill:url(#SVGID_00000161591984169516603200000015574009398363793818_);" d="M3177.756,1166.597h-681.304
				c-6.6,0-12-5.4-12-12V609.264c0-6.6,5.4-12,12-12h681.304c6.6,0,12,5.4,12,12v545.333
				C3189.756,1161.197,3184.355,1166.597,3177.756,1166.597z"/>
			<path style="opacity:0.6;fill:#FFFFFF;" d="M3167.671,1150.621H2510.57c-6.6,0-12-5.4-12-12V630.511c0-6.6,5.4-12,12-12h657.101
				c6.6,0,12,5.4,12,12v508.109C3179.671,1145.221,3174.271,1150.621,3167.671,1150.621z"/>
			<g>
				<path style="opacity:0.72;fill:#FFFFFF;" d="M2939.402,720.445c0-5.487-3.95-9.993-9.486-10.092l-58.779-1.007
					c-5.626-0.1-12.64,4.304-12.64,9.846v55.94c0,5.542,7.284,10.081,12.91,10.126l57.156,0.436
					c5.537,0.044,10.839-4.379,10.839-9.865V720.445z"/>
				<path style="opacity:0.72;fill:#FFFFFF;" d="M3041.444,722.118c0-5.414-4.519-9.869-9.91-9.964l-54.583-0.942
					c-5.477-0.097-9.648,4.288-9.648,9.754v55.182c0,5.467,4.098,9.912,9.574,9.955l54.827,0.416c5.391,0.043,9.74-4.331,9.74-9.746
					V722.118z"/>
				<path style="opacity:0.72;fill:#FFFFFF;" d="M3142.771,723.795c0-5.342-4.654-9.745-9.903-9.838l-53.728-0.973
					c-5.331-0.095-9.991,4.176-9.991,9.569v54.443c0,5.393,4.46,9.828,9.79,9.87l53.861,0.436c5.248,0.042,9.97-4.242,9.97-9.584
					V723.795z"/>
				<path style="opacity:0.72;fill:#FFFFFF;" d="M2939.402,821.747c0-5.487-3.95-9.941-9.486-9.966l-58.779-0.257
					c-5.626-0.026-12.64,4.445-12.64,9.987v55.94c0,5.542,7.284,10.012,12.91,9.982l57.156-0.306
					c5.537-0.029,10.839-4.509,10.839-9.996V821.747z"/>
				
					<linearGradient id="SVGID_00000118380119934561807650000000373063934475583393_" gradientUnits="userSpaceOnUse" x1="2988.5881" y1="72.1691" x2="3000.689" y2="668.142">
					<stop  offset="0" style="stop-color:#A737D5"/>
					<stop  offset="1" style="stop-color:#EF497A"/>
				</linearGradient>
				<path style="fill:url(#SVGID_00000118380119934561807650000000373063934475583393_);" d="M3041.444,822.087
					c0-5.414-4.519-9.816-9.91-9.841l-54.583-0.225c-5.477-0.025-9.648,4.411-9.648,9.877v55.182c0,5.467,4.098,9.859,9.574,9.83
					l54.827-0.301c5.391-0.029,9.74-4.452,9.74-9.867V822.087z"/>
				<path style="opacity:0.72;fill:#FFFFFF;" d="M3142.771,822.426c0-5.342-4.654-9.691-9.903-9.715l-53.728-0.27
					c-5.331-0.024-9.991,4.3-9.991,9.694v54.443c0,5.393,4.46,9.773,9.79,9.745l53.861-0.266c5.248-0.028,9.97-4.365,9.97-9.707
					V822.426z"/>
				<path style="opacity:0.72;fill:#FFFFFF;" d="M2616.228,820.778c0-5.718-5.291-10.404-11.306-10.432l-60.777-0.32
					c-6.116-0.028-10.635,4.591-10.635,10.369v58.321c0,5.778,4.302,10.466,10.419,10.433l61.322-0.284
					c6.014-0.032,10.978-4.653,10.978-10.371V820.778z"/>
				<path style="opacity:0.72;fill:#FFFFFF;" d="M2726.848,821.056c0-5.639-4.263-10.216-10.11-10.243l-60.366-0.274
					c-5.946-0.027-11.619,4.565-11.619,10.262v57.503c0,5.697,5.914,10.297,11.859,10.266l59.585-0.321
					c5.848-0.031,10.651-4.633,10.651-10.272V821.056z"/>
				<path style="opacity:0.72;fill:#FFFFFF;" d="M2833.512,821.519c0-5.562-4.32-10.137-10.011-10.163l-59.458-0.295
					c-5.785-0.026-12.028,4.475-12.028,10.094v56.723c0,5.619,6.388,10.154,12.173,10.123l58.472-0.257
					c5.691-0.03,10.852-4.515,10.852-10.077V821.519z"/>
				<path style="opacity:0.72;fill:#FFFFFF;" d="M2943.246,1034.496c0-5.487-3.95-9.941-9.486-9.966l-58.779-0.257
					c-5.626-0.026-12.64,4.445-12.64,9.987v55.939c0,5.542,7.284,10.012,12.91,9.982l57.156-0.306
					c5.537-0.029,10.839-4.509,10.839-9.996V1034.496z"/>
				<path style="opacity:0.72;fill:#FFFFFF;" d="M3045.288,1034.836c0-5.415-4.519-9.816-9.91-9.841l-54.583-0.225
					c-5.477-0.025-9.648,4.411-9.648,9.877v55.182c0,5.467,4.098,9.858,9.574,9.829l54.827-0.301c5.391-0.029,9.74-4.452,9.74-9.867
					V1034.836z"/>
				<path style="opacity:0.72;fill:#FFFFFF;" d="M2620.072,1033.527c0-5.718-5.291-10.404-11.306-10.432l-60.778-0.32
					c-6.116-0.028-10.635,4.591-10.635,10.369v58.321c0,5.778,4.302,10.466,10.419,10.433l61.322-0.284
					c6.014-0.032,10.977-4.653,10.977-10.371V1033.527z"/>
				<path style="opacity:0.72;fill:#FFFFFF;" d="M2730.692,1033.805c0-5.639-4.262-10.216-10.11-10.243l-60.366-0.274
					c-5.946-0.027-11.619,4.565-11.619,10.261v57.503c0,5.697,5.914,10.297,11.859,10.266l59.585-0.321
					c5.848-0.031,10.651-4.633,10.651-10.272V1033.805z"/>
				<path style="opacity:0.72;fill:#FFFFFF;" d="M2837.357,1034.268c0-5.562-4.32-10.137-10.011-10.163l-59.458-0.295
					c-5.785-0.026-12.028,4.475-12.028,10.094v56.723c0,5.619,6.388,10.154,12.173,10.124l58.472-0.257
					c5.691-0.03,10.852-4.515,10.852-10.077V1034.268z"/>
				<path style="opacity:0.72;fill:#FFFFFF;" d="M2939.402,923.049c0-5.487-3.95-9.888-9.486-9.84l-58.779,0.493
					c-5.626,0.049-12.64,4.585-12.64,10.127v55.94c0,5.542,7.284,9.942,12.91,9.838l57.156-1.048
					c5.537-0.102,10.839-4.639,10.839-10.126V923.049z"/>
				<path style="opacity:0.72;fill:#FFFFFF;" d="M3041.444,922.056c0-5.414-4.519-9.764-9.91-9.717l-54.583,0.492
					c-5.477,0.048-9.648,4.533-9.648,10v55.182c0,5.467,4.098,9.805,9.574,9.704l54.827-1.017c5.391-0.1,9.74-4.573,9.74-9.987
					V922.056z"/>
				<path style="opacity:0.72;fill:#FFFFFF;" d="M3143.03,923.437c0-5.415-4.519-9.764-9.91-9.717l-54.583,0.492
					c-5.477,0.048-9.648,4.533-9.648,10v55.182c0,5.467,4.098,9.805,9.574,9.704l54.827-1.017c5.391-0.1,9.74-4.573,9.74-9.987
					V923.437z"/>
				<path style="opacity:0.72;fill:#FFFFFF;" d="M2616.228,926.348c0-5.718-5.291-10.333-11.306-10.281l-60.777,0.489
					c-6.116,0.053-10.635,4.737-10.635,10.515v58.321c0,5.778,4.302,10.404,10.419,10.291l61.322-1.098
					c6.014-0.111,10.978-4.802,10.978-10.52V926.348z"/>
				<path style="opacity:0.72;fill:#FFFFFF;" d="M2726.848,925.167c0-5.639-4.263-10.16-10.11-10.109l-60.366,0.514
					c-5.946,0.052-11.619,4.709-11.619,10.406v57.503c0,5.697,5.914,10.228,11.859,10.118l59.585-1.103
					c5.848-0.108,10.651-4.769,10.651-10.408V925.167z"/>
				<path style="opacity:0.72;fill:#FFFFFF;" d="M2833.512,924.219c0-5.562-4.32-10.079-10.011-10.029l-59.458,0.477
					c-5.785,0.05-12.028,4.62-12.028,10.24v56.723c0,5.619,6.388,10.084,12.173,9.977l58.472-1.024
					c5.691-0.105,10.852-4.652,10.852-10.215V924.219z"/>
			</g>
			
				<linearGradient id="SVGID_00000044871608779338810590000000243157106762398632_" gradientUnits="userSpaceOnUse" x1="2779.123" y1="203.3516" x2="2590.7954" y2="846.9772">
				<stop  offset="0" style="stop-color:#CE1567"/>
				<stop  offset="1" style="stop-color:#7A1DBC"/>
			</linearGradient>
			<path style="fill:url(#SVGID_00000044871608779338810590000000243157106762398632_);" d="M2669.667,666.693h-21.73
				c-2.529,0-4.598-2.069-4.598-4.598v-95.074c0-2.529,2.069-4.598,4.598-4.598h21.73c2.529,0,4.598,2.069,4.598,4.598v95.074
				C2674.265,664.624,2672.196,666.693,2669.667,666.693z"/>
			
				<linearGradient id="SVGID_00000004547653678569503160000001632722297633256613_" gradientUnits="userSpaceOnUse" x1="2885.6582" y1="235.4084" x2="2697.3306" y2="879.0341">
				<stop  offset="0" style="stop-color:#CE1567"/>
				<stop  offset="1" style="stop-color:#7A1DBC"/>
			</linearGradient>
			<path style="fill:url(#SVGID_00000004547653678569503160000001632722297633256613_);" d="M2785.583,666.693h-21.73
				c-2.529,0-4.598-2.069-4.598-4.598v-95.074c0-2.529,2.069-4.598,4.598-4.598h21.73c2.529,0,4.598,2.069,4.598,4.598v95.074
				C2790.18,664.624,2788.111,666.693,2785.583,666.693z"/>
			
				<linearGradient id="SVGID_00000017483146908012814840000018022094366608308110_" gradientUnits="userSpaceOnUse" x1="2989.2109" y1="266.5685" x2="2800.8833" y2="910.1942">
				<stop  offset="0" style="stop-color:#CE1567"/>
				<stop  offset="1" style="stop-color:#7A1DBC"/>
			</linearGradient>
			<path style="fill:url(#SVGID_00000017483146908012814840000018022094366608308110_);" d="M2898.253,666.693h-21.73
				c-2.529,0-4.598-2.069-4.598-4.598v-95.074c0-2.529,2.069-4.598,4.598-4.598h21.73c2.529,0,4.598,2.069,4.598,4.598v95.074
				C2902.851,664.624,2900.781,666.693,2898.253,666.693z"/>
			
				<linearGradient id="SVGID_00000060001588277843428320000002692193136984538808_" gradientUnits="userSpaceOnUse" x1="3097.5999" y1="299.1837" x2="2909.2722" y2="942.8093">
				<stop  offset="0" style="stop-color:#CE1567"/>
				<stop  offset="1" style="stop-color:#7A1DBC"/>
			</linearGradient>
			<path style="fill:url(#SVGID_00000060001588277843428320000002692193136984538808_);" d="M3016.185,666.693h-21.73
				c-2.529,0-4.598-2.069-4.598-4.598v-95.074c0-2.529,2.069-4.598,4.598-4.598h21.73c2.529,0,4.598,2.069,4.598,4.598v95.074
				C3020.783,664.624,3018.714,666.693,3016.185,666.693z"/>
		</g>
		<g>
			<g>
				<g>
					
						<linearGradient id="SVGID_00000040546858959477408060000016027568194914600844_" gradientUnits="userSpaceOnUse" x1="2081.9651" y1="2068.5125" x2="2243.1472" y2="1881.4263" gradientTransform="matrix(0.9651 -0.2618 0.2618 0.9651 -1163.5303 186.1516)">
						<stop  offset="0" style="stop-color:#FDF53F"/>
						<stop  offset="1" style="stop-color:#D93C65"/>
					</linearGradient>
					
						<circle style="fill:url(#SVGID_00000040546858959477408060000016027568194914600844_);" cx="1496.041" cy="1410.161" r="120.164"/>
					
						<linearGradient id="SVGID_00000105425166599616577990000017151936508349177272_" gradientUnits="userSpaceOnUse" x1="2334.2256" y1="1744.9727" x2="1857.6062" y2="2465.0085" gradientTransform="matrix(0.9651 -0.2618 0.2618 0.9651 -1163.5303 186.1516)">
						<stop  offset="0" style="stop-color:#FDF53F"/>
						<stop  offset="1" style="stop-color:#D93C65"/>
					</linearGradient>
					
						<circle style="fill:url(#SVGID_00000105425166599616577990000017151936508349177272_);" cx="1496.041" cy="1410.161" r="116.169"/>
					<path style="fill:#FFFFFF;" d="M1391.97,1392.418c-0.568,0.154-1.179,0.182-1.795,0.055c-2.103-0.432-3.456-2.487-3.023-4.585
						c8.494-41.366,39.07-73.923,79.795-84.971c6.5-1.763,13.166-2.943,19.816-3.509c2.136-0.182,4.017,1.403,4.199,3.539
						c0.183,2.139-1.389,4.032-3.542,4.2c-6.183,0.53-12.388,1.627-18.438,3.268c-37.878,10.276-66.318,40.559-74.22,79.033
						C1394.456,1390.934,1393.341,1392.046,1391.97,1392.418z"/>
					
						<ellipse transform="matrix(0.3793 -0.9253 0.9253 0.3793 -375.9532 2263.4216)" style="opacity:0.78;fill:#FFFFFF;" cx="1499.147" cy="1411.941" rx="98.323" ry="98.323"/>
					<g>
						
							<linearGradient id="SVGID_00000117635984542830207180000006408694120098684606_" gradientUnits="userSpaceOnUse" x1="2320.0071" y1="1765.6047" x2="2066.219" y2="2191.6729" gradientTransform="matrix(0.9651 -0.2618 0.2618 0.9651 -1163.5303 186.1516)">
							<stop  offset="0" style="stop-color:#FDF53F"/>
							<stop  offset="1" style="stop-color:#D93C65"/>
						</linearGradient>
						<path style="fill:url(#SVGID_00000117635984542830207180000006408694120098684606_);" d="M1508.972,1485.012l-2.801-10.324
							c-10.879,2.489-22.214,2.836-30.672,1.577c-3.02-0.449-5.218-3.106-5.214-6.159l0.014-10.328
							c0.005-3.789,3.346-6.654,7.103-6.156c8.353,1.11,18.288,1.085,28.273-1.624c10.366-2.812,17.143-8.423,15.189-15.627
							c-1.763-6.5-8.785-8.744-24.241-8.701c-22.081-0.046-39.271-5.003-44.18-23.099c-4.433-16.34,4.131-32.056,23.958-41.018
							l-2.801-10.325c-0.901-3.322,1.061-6.746,4.383-7.647l6.066-1.645c3.322-0.901,6.746,1.062,7.647,4.384l2.515,9.27
							c10.067-2.303,17.778-2.567,24.079-2.106c3.229,0.236,5.701,2.974,5.701,6.212l0.001,9.548c0,3.682-3.155,6.555-6.82,6.199
							c-5.84-0.566-13.895-0.62-23.629,2.02c-12.299,3.337-14.43,9.385-13.191,13.953c1.525,5.622,9.952,7.485,27.276,8.068
							c24.699,0.656,36.76,7.569,41.384,24.612c4.242,15.637-3.541,32.839-25.077,42.453l3.134,11.554
							c0.901,3.322-1.061,6.746-4.383,7.647l-6.066,1.646C1513.297,1490.296,1509.873,1488.334,1508.972,1485.012z"/>
					</g>
				</g>
				<g>
					
						<linearGradient id="SVGID_00000087384894098228498450000010207726846694575288_" gradientUnits="userSpaceOnUse" x1="2294.2878" y1="1922.3583" x2="2557.3364" y2="1617.0344" gradientTransform="matrix(0.9651 -0.2618 0.2618 0.9651 -1163.5303 186.1516)">
						<stop  offset="0" style="stop-color:#FDF53F"/>
						<stop  offset="1" style="stop-color:#D93C65"/>
					</linearGradient>
					
						<circle style="fill:url(#SVGID_00000087384894098228498450000010207726846694575288_);" cx="1731.408" cy="1069.898" r="196.108"/>
					
						<linearGradient id="SVGID_00000152251944429912330710000015277535162939198107_" gradientUnits="userSpaceOnUse" x1="2705.9758" y1="1394.3422" x2="1928.1339" y2="2569.4397" gradientTransform="matrix(0.9651 -0.2618 0.2618 0.9651 -1163.5303 186.1516)">
						<stop  offset="0" style="stop-color:#FDF53F"/>
						<stop  offset="1" style="stop-color:#D93C65"/>
					</linearGradient>
					
						<circle style="fill:url(#SVGID_00000152251944429912330710000015277535162939198107_);" cx="1731.408" cy="1069.898" r="189.587"/>
					<path style="fill:#FFFFFF;" d="M1560.861,1038.338c-0.532,0.144-1.105,0.171-1.683,0.051c-1.971-0.405-3.24-2.331-2.834-4.298
						c13.657-66.505,62.814-118.852,128.29-136.614c10.448-2.834,21.168-4.733,31.861-5.636c2.004-0.172,3.767,1.314,3.937,3.321
						c0.169,2.003-1.309,3.786-3.322,3.934c-10.257,0.87-20.543,2.691-30.569,5.411c-62.807,17.038-109.961,67.254-123.064,131.047
						C1563.191,1036.946,1562.146,1037.989,1560.861,1038.338z"/>
					
						<ellipse transform="matrix(0.7071 -0.7071 0.7071 0.7071 -249.9841 1542.0908)" style="opacity:0.78;fill:#FFFFFF;" cx="1736.476" cy="1072.803" rx="160.462" ry="160.462"/>
					<g>
						
							<linearGradient id="SVGID_00000034776569204653236170000012043707641281685382_" gradientUnits="userSpaceOnUse" x1="2682.7717" y1="1428.0133" x2="2268.5891" y2="2123.3574" gradientTransform="matrix(0.9651 -0.2618 0.2618 0.9651 -1163.5303 186.1516)">
							<stop  offset="0" style="stop-color:#FDF53F"/>
							<stop  offset="1" style="stop-color:#D93C65"/>
						</linearGradient>
						<path style="fill:url(#SVGID_00000034776569204653236170000012043707641281685382_);" d="M1752.511,1192.054l-4.571-16.849
							c-17.755,4.062-36.252,4.629-50.056,2.575c-4.929-0.733-8.517-5.069-8.51-10.053l0.023-16.855
							c0.008-6.183,5.462-10.859,11.592-10.045c13.631,1.811,29.846,1.77,46.142-2.651c16.917-4.589,27.978-13.748,24.789-25.504
							c-2.878-10.608-14.338-14.271-39.562-14.201c-36.036-0.075-64.09-8.165-72.102-37.698
							c-7.234-26.667,6.742-52.315,39.098-66.94l-4.571-16.85c-1.471-5.422,1.732-11.009,7.154-12.48l9.899-2.686
							c5.422-1.471,11.01,1.732,12.481,7.154l4.104,15.129c16.429-3.758,29.013-4.189,39.297-3.436
							c5.269,0.385,9.303,4.854,9.304,10.137l0.001,15.582c0.001,6.009-5.149,10.697-11.13,10.117
							c-9.531-0.924-22.676-1.012-38.562,3.297c-20.072,5.445-23.549,15.315-21.527,22.771c2.489,9.175,16.243,12.216,44.513,13.167
							c40.31,1.07,59.993,12.353,67.538,40.167c6.923,25.52-5.778,53.592-40.924,69.284l5.115,18.855
							c1.471,5.422-1.732,11.01-7.154,12.481l-9.9,2.686C1759.57,1200.679,1753.982,1197.476,1752.511,1192.054z"/>
					</g>
				</g>
				<g>
					
						<linearGradient id="SVGID_00000158721585578906909470000010213225902524536745_" gradientUnits="userSpaceOnUse" x1="2421.7651" y1="2369.4141" x2="2692.439" y2="2055.2395" gradientTransform="matrix(0.9651 -0.2618 0.2618 0.9651 -1163.5303 186.1516)">
						<stop  offset="0" style="stop-color:#FDF53F"/>
						<stop  offset="1" style="stop-color:#D93C65"/>
					</linearGradient>
					
						<circle style="fill:url(#SVGID_00000158721585578906909470000010213225902524536745_);" cx="1976.619" cy="1457.227" r="201.793"/>
					
						<linearGradient id="SVGID_00000005974297940059113330000010649121289953076099_" gradientUnits="userSpaceOnUse" x1="2845.3872" y1="1826.0917" x2="2044.9976" y2="3035.2524" gradientTransform="matrix(0.9651 -0.2618 0.2618 0.9651 -1163.5303 186.1516)">
						<stop  offset="0" style="stop-color:#FDF53F"/>
						<stop  offset="1" style="stop-color:#D93C65"/>
					</linearGradient>
					
						<circle style="fill:url(#SVGID_00000005974297940059113330000010649121289953076099_);" cx="1976.619" cy="1457.227" r="195.083"/>
					<path style="fill:#FFFFFF;" d="M1801.101,1424.65c-0.532,0.144-1.105,0.171-1.683,0.051c-1.971-0.405-3.24-2.331-2.834-4.299
						c14.044-68.393,64.597-122.225,131.933-140.492c10.744-2.915,21.768-4.866,32.766-5.797c2.004-0.172,3.767,1.314,3.938,3.321
						c0.169,2.003-1.3,3.773-3.322,3.934c-10.563,0.898-21.153,2.772-31.475,5.572c-64.667,17.543-113.217,69.243-126.707,134.924
						C1803.432,1423.258,1802.386,1424.301,1801.101,1424.65z"/>
					
						<ellipse transform="matrix(0.9991 -0.0433 0.0433 0.9991 -61.4104 87.2452)" style="opacity:0.78;fill:#FFFFFF;" cx="1981.835" cy="1460.216" rx="165.114" ry="165.114"/>
					<g>
						
							<linearGradient id="SVGID_00000168833261496036054850000006363091079232981434_" gradientUnits="userSpaceOnUse" x1="2821.5103" y1="1860.739" x2="2395.3213" y2="2576.2395" gradientTransform="matrix(0.9651 -0.2618 0.2618 0.9651 -1163.5303 186.1516)">
							<stop  offset="0" style="stop-color:#FDF53F"/>
							<stop  offset="1" style="stop-color:#D93C65"/>
						</linearGradient>
						<path style="fill:url(#SVGID_00000168833261496036054850000006363091079232981434_);" d="M1998.334,1582.925l-4.703-17.337
							c-18.27,4.179-37.303,4.763-51.507,2.65c-5.072-0.755-8.764-5.216-8.756-10.344l0.023-17.344
							c0.008-6.362,5.62-11.175,11.927-10.337c14.028,1.863,30.712,1.822,47.48-2.728c17.408-4.722,28.789-14.146,25.507-26.243
							c-2.961-10.916-14.753-14.685-40.708-14.612c-37.081-0.077-65.948-8.401-74.192-38.791
							c-7.444-27.441,6.938-53.831,40.232-68.881l-4.704-17.339c-1.513-5.579,1.782-11.328,7.362-12.842l10.186-2.763
							c5.579-1.514,11.328,1.782,12.842,7.361l4.223,15.567c16.906-3.868,29.855-4.31,40.437-3.536
							c5.422,0.396,9.573,4.994,9.573,10.43l0.001,16.034c0.001,6.183-5.299,11.007-11.453,10.411
							c-9.807-0.951-23.333-1.042-39.679,3.393c-20.654,5.603-24.233,15.759-22.151,23.431c2.561,9.441,16.714,12.57,45.804,13.549
							c41.478,1.101,61.732,12.711,69.495,41.331c7.124,26.259-5.945,55.145-42.11,71.292l5.263,19.402
							c1.514,5.579-1.782,11.329-7.361,12.842l-10.188,2.764C2005.598,1591.8,1999.848,1588.504,1998.334,1582.925z"/>
					</g>
				</g>
				<g>
					
						<linearGradient id="SVGID_00000115483734119879565890000005493030027681166760_" gradientUnits="userSpaceOnUse" x1="2729.0576" y1="1969.174" x2="2945.533" y2="1717.9083" gradientTransform="matrix(0.9651 -0.2618 0.2618 0.9651 -1163.5303 186.1516)">
						<stop  offset="0" style="stop-color:#FDF53F"/>
						<stop  offset="1" style="stop-color:#D93C65"/>
					</linearGradient>
					
						<circle style="fill:url(#SVGID_00000115483734119879565890000005493030027681166760_);" cx="2131.843" cy="1066.922" r="161.387"/>
					
						<linearGradient id="SVGID_00000108303767747314789420000004284614233465011386_" gradientUnits="userSpaceOnUse" x1="3067.8552" y1="1534.6444" x2="2427.7327" y2="2501.6873" gradientTransform="matrix(0.9651 -0.2618 0.2618 0.9651 -1163.5303 186.1516)">
						<stop  offset="0" style="stop-color:#FDF53F"/>
						<stop  offset="1" style="stop-color:#D93C65"/>
					</linearGradient>
					
						<circle style="fill:url(#SVGID_00000108303767747314789420000004284614233465011386_);" cx="2131.843" cy="1066.922" r="156.02"/>
					<path style="fill:#FFFFFF;" d="M1991.746,1041.892c-0.58,0.157-1.206,0.186-1.837,0.056c-2.151-0.443-3.536-2.545-3.093-4.692
						c11.314-55.093,52.038-98.459,106.278-113.172c8.644-2.345,17.523-3.917,26.395-4.67c2.186-0.187,4.11,1.435,4.297,3.621
						c0.185,2.187-1.412,4.136-3.625,4.298c-8.394,0.716-16.8,2.204-24.985,4.424c-51.326,13.924-89.864,54.962-100.572,107.095
						C1994.291,1040.374,1993.149,1041.512,1991.746,1041.892z"/>
					
						<ellipse transform="matrix(0.7071 -0.7071 0.7071 0.7071 -130.4941 1823.5844)" style="opacity:0.78;fill:#FFFFFF;" cx="2136.014" cy="1069.313" rx="132.052" ry="132.052"/>
					<g>
						
							<linearGradient id="SVGID_00000123431659913566249030000009099377914089114804_" gradientUnits="userSpaceOnUse" x1="3048.7598" y1="1562.3538" x2="2707.9089" y2="2134.5857" gradientTransform="matrix(0.9651 -0.2618 0.2618 0.9651 -1163.5303 186.1516)">
							<stop  offset="0" style="stop-color:#FDF53F"/>
							<stop  offset="1" style="stop-color:#D93C65"/>
						</linearGradient>
						<path style="fill:url(#SVGID_00000123431659913566249030000009099377914089114804_);" d="M2149.21,1167.45l-3.761-13.865
							c-14.611,3.342-29.834,3.81-41.194,2.119c-4.056-0.603-7.008-4.171-7.003-8.273l0.019-13.871
							c0.007-5.088,4.495-8.937,9.539-8.268c11.219,1.49,24.563,1.457,37.973-2.181c13.922-3.777,23.024-11.314,20.399-20.989
							c-2.368-8.73-11.799-11.745-32.557-11.686c-29.656-0.062-52.742-6.719-59.336-31.024
							c-5.953-21.946,5.548-43.052,32.176-55.088l-3.762-13.867c-1.211-4.462,1.425-9.06,5.887-10.271l8.146-2.21
							c4.462-1.21,9.061,1.426,10.271,5.888l3.377,12.45c13.52-3.093,23.876-3.447,32.339-2.828
							c4.336,0.317,7.656,3.994,7.656,8.342l0.001,12.824c0,4.944-4.238,8.803-9.16,8.326c-7.844-0.76-18.661-0.833-31.734,2.714
							c-16.518,4.481-19.38,12.603-17.716,18.739c2.049,7.551,13.367,10.053,36.633,10.835c33.172,0.881,49.371,10.166,55.58,33.055
							c5.697,21.001-4.755,44.103-33.679,57.017l4.209,15.517c1.21,4.462-1.425,9.06-5.887,10.271l-8.147,2.21
							C2155.019,1174.548,2150.42,1171.912,2149.21,1167.45z"/>
					</g>
				</g>
			</g>
		</g>
		<g>
			
				<linearGradient id="SVGID_00000025401669594972737940000002010225444356549790_" gradientUnits="userSpaceOnUse" x1="-185.3564" y1="3035.9993" x2="-794.0471" y2="3698.0845" gradientTransform="matrix(-1 0 0 1 2487.3088 0)">
				<stop  offset="0" style="stop-color:#2B3582"/>
				<stop  offset="1" style="stop-color:#150E42"/>
			</linearGradient>
			<path style="fill:url(#SVGID_00000025401669594972737940000002010225444356549790_);" d="M2865.073,3085.32
				c0,0,6.303,35.687,9.394,71.012c1.208,13.807-9.436,25.794-23.283,26.371c-47.043,1.959-147.671,5.769-183.781,4.158
				c-5.428-0.242-8.977-5.799-6.968-10.848l0,0c1.683-4.23,4.93-7.651,9.067-9.552l166.219-76.395L2865.073,3085.32z"/>
			
				<linearGradient id="SVGID_00000068673028539407401060000013240348206631891127_" gradientUnits="userSpaceOnUse" x1="-382.9279" y1="3085.1741" x2="-328.8609" y2="3085.1741" gradientTransform="matrix(-1 0 0 1 2487.3088 0)">
				<stop  offset="0" style="stop-color:#F9B776"/>
				<stop  offset="1" style="stop-color:#F47960"/>
			</linearGradient>
			<path style="fill:url(#SVGID_00000068673028539407401060000013240348206631891127_);" d="M2870.237,3064.352l-5.064,42.686
				c0,0-29.118,13.555-49.003-1.708l12.059-47.569L2870.237,3064.352z"/>
			
				<linearGradient id="SVGID_00000039833765944513328380000000311578534988094654_" gradientUnits="userSpaceOnUse" x1="3315.7012" y1="2398.8772" x2="2163.6509" y2="3106.7644">
				<stop  offset="0" style="stop-color:#7C27DD"/>
				<stop  offset="1" style="stop-color:#2B41D9"/>
			</linearGradient>
			<path style="fill:url(#SVGID_00000039833765944513328380000000311578534988094654_);" d="M2866.43,2261.846
				c2.188,11.147,11.743,556.269-46.527,800.557c-0.951,3.985,1.07,8.094,4.864,9.645c8.937,3.651,26.458,8.938,47.455,9.645
				c6.502,0.218,12.333-4.008,14.167-10.25c16.657-56.678,96.47-340.654,106.882-611.927c11.634-303.122,0-10.321,0-10.321
				l-6.823-187.371L2866.43,2261.846z"/>
			
				<linearGradient id="SVGID_00000137821139635463519710000008347343995886416781_" gradientUnits="userSpaceOnUse" x1="-321.9053" y1="2910.4609" x2="-930.5976" y2="3572.5481" gradientTransform="matrix(-1 0 0 1 2487.3088 0)">
				<stop  offset="0" style="stop-color:#2B3582"/>
				<stop  offset="1" style="stop-color:#150E42"/>
			</linearGradient>
			<path style="fill:url(#SVGID_00000137821139635463519710000008347343995886416781_);" d="M3056.281,3103.938
				c0,0,10.034,18.017,19.749,65.889c1.754,8.646-4.287,16.92-13.066,17.783c-15.533,1.527-39.447,3.491-58.602,3.359
				c-8.831-0.06-15.722-7.749-14.658-16.516c2.122-17.474,8.731-46.142,29.152-68.488L3056.281,3103.938z"/>
			
				<linearGradient id="SVGID_00000078036619311810280040000005769242898967995293_" gradientUnits="userSpaceOnUse" x1="-577.7842" y1="3082.4009" x2="-531.102" y2="3082.4009" gradientTransform="matrix(-1 0 0 1 2487.3088 0)">
				<stop  offset="0" style="stop-color:#F9B776"/>
				<stop  offset="1" style="stop-color:#F47960"/>
			</linearGradient>
			<path style="fill:url(#SVGID_00000078036619311810280040000005769242898967995293_);" d="M3065.093,3049.035l-11.834,64.552
				c0,0-11.701,8.703-34.848,2.394l5.649-69.455L3065.093,3049.035z"/>
			
				<linearGradient id="SVGID_00000158026891259621258450000006861287346751475103_" gradientUnits="userSpaceOnUse" x1="-3841.2891" y1="6307.9946" x2="-4986.3994" y2="7578.0244" gradientTransform="matrix(-1 0 0 1 2487.3088 0)">
				<stop  offset="0" style="stop-color:#7C27DD"/>
				<stop  offset="1" style="stop-color:#2B41D9"/>
			</linearGradient>
			<path style="fill:url(#SVGID_00000158026891259621258450000006861287346751475103_);" d="M3097.063,2278.574
				c47.656,287.611-10.338,710.854-29.897,793.693c-1.198,5.071-5.291,8.957-10.43,9.809c-8.732,1.447-23.105,2.628-37.276-1.488
				c-4.882-1.418-8.312-5.822-8.511-10.902c-2.624-66.973,2.099-478.121-42.306-640.609c-2.25-8.235-7.279-15.415-14.237-20.362
				l-86.187-61.272l-6.608-99.04L3097.063,2278.574z"/>
			<g>
				
					<linearGradient id="SVGID_00000036944427541660057720000001138300808400842130_" gradientUnits="userSpaceOnUse" x1="3177.6741" y1="1734.4738" x2="2589.5322" y2="2265.3621">
					<stop  offset="0" style="stop-color:#A737D5"/>
					<stop  offset="1" style="stop-color:#EF497A"/>
				</linearGradient>
				<path style="fill:url(#SVGID_00000036944427541660057720000001138300808400842130_);" d="M2793.393,1733.607
					c142.818-2.36,300.401,37.5,300.401,37.5c42.571,248.401,7.444,534.912,7.444,534.912
					c-110.565,28.996-235.29-17.727-235.29-17.727c-18.377-103.826-104.118-396.026-104.118-396.026
					c-69.781-8.66-127.264-28.793-174.603-55.409c36.109-41.856,53.131-95.115,60.525-126.598
					C2698.247,1725.952,2749.344,1734.335,2793.393,1733.607z"/>
				
					<linearGradient id="SVGID_00000143583352206127593550000009245568480773174443_" gradientUnits="userSpaceOnUse" x1="-160.4434" y1="1674.6384" x2="115.7744" y2="1674.6384" gradientTransform="matrix(-1 0 0 1 2487.3088 0)">
					<stop  offset="0" style="stop-color:#F9B776"/>
					<stop  offset="1" style="stop-color:#F47960"/>
				</linearGradient>
				<path style="fill:url(#SVGID_00000143583352206127593550000009245568480773174443_);" d="M2371.534,1523.243
					c14.031-16.945,31.786-8.929,31.786-8.929c21.017,88.777,131.217,160.76,244.432,195.945
					c-7.394,31.483-24.416,84.741-60.525,126.598C2399.337,1731.214,2371.534,1523.243,2371.534,1523.243z"/>
			</g>
			<g>
				
					<linearGradient id="SVGID_00000041987928137692743050000008666262859214667145_" gradientUnits="userSpaceOnUse" x1="10393.5361" y1="1628.3376" x2="10578.8848" y2="2050.0476" gradientTransform="matrix(1 0 0 1 -7960.4692 0)">
					<stop  offset="0" style="stop-color:#F9B776"/>
					<stop  offset="1" style="stop-color:#F47960"/>
				</linearGradient>
				<path style="fill:url(#SVGID_00000041987928137692743050000008666262859214667145_);" d="M2374.94,1527.553
					c-1.468,4.666,15.532,11.773,25.541-7.314c0.35-9.148,5.913-48.338,0.447-55.79c-29.113-39.691-85.555-89.444-85.555-89.444
					c-9.539,9.412-1.68,18.659-1.68,18.659l27.381,28.524c-5.727,10.349-12.713,19.085-15.986,31.604
					c-2.48,9.48-0.963,19.611,3.825,28.239c4.806,8.66,11.364,19.915,17.562,28.724
					C2358.209,1527.427,2374.94,1527.553,2374.94,1527.553z"/>
				
					<linearGradient id="SVGID_00000168834243596443150780000004923176395104768177_" gradientUnits="userSpaceOnUse" x1="114.4483" y1="1487.8928" x2="191.7867" y2="1368.9849" gradientTransform="matrix(-1 0 0 1 2487.3088 0)">
					<stop  offset="0" style="stop-color:#F9B776"/>
					<stop  offset="1" style="stop-color:#F47960"/>
				</linearGradient>
				<path style="fill:url(#SVGID_00000168834243596443150780000004923176395104768177_);" d="M2353.05,1440.694l24.951,21.153
					l7.834,21.06l-22.246,24.679c0,0-7.48-41.786-13.04-50.831C2344.989,1447.713,2347.872,1443.34,2353.05,1440.694z"/>
			</g>
			
				<linearGradient id="SVGID_00000004524452455220996550000011409482928188681867_" gradientUnits="userSpaceOnUse" x1="-496.4549" y1="1692.1964" x2="-358.2519" y2="1692.1964" gradientTransform="matrix(-1 0 0 1 2487.3088 0)">
				<stop  offset="0" style="stop-color:#F9B776"/>
				<stop  offset="1" style="stop-color:#F47960"/>
			</linearGradient>
			<path style="fill:url(#SVGID_00000004524452455220996550000011409482928188681867_);" d="M2938.057,1617.661l45.443,131.417
				c0.753,2.176-0.143,4.588-2.159,5.702c-12.387,6.849-57.016,26.645-110.797-7.454c-5.602-3.552-9.417-9.345-10.267-15.924
				l-14.716-113.741H2938.057z"/>
			<g>
				<path style="fill:#FFFFFF;" d="M2888.215,1420.703c-9.43-3.08-18.869-6.426-26.954-1.561c-5.188,3.122-8.143,8.97-12.978,12.615
					c-5.053,3.809-11.591,4.834-17.615,6.779c-11.778,3.803-23.933,15.283-26.68,27.793c-1.576,7.175,1.597,17.002,2.748,24.192
					c1.315,8.212,8.468,21.319,7.775,29.05c0.831-9.271,19.789-23.429,26.703-28.944c12.456-9.936,25.872-20.513,41.39-25.126
					c16.647-4.948,42.834,2.078,58.518,8.229c12.534,4.916,24.15,13.612,29.678,25.888c1.999-13.645,1.227-24.194-6.909-35.131
					c-12.815-17.229-28.005-35.949-50.748-39.276c-4.986-0.729-10.07-0.74-15.013-1.722
					C2894.866,1422.842,2891.541,1421.789,2888.215,1420.703z"/>
				<g>
					
						<linearGradient id="SVGID_00000073704047222587854340000008584657224827621023_" gradientUnits="userSpaceOnUse" x1="-2042.6082" y1="1431.0006" x2="-2030.4644" y2="1660.3289" gradientTransform="matrix(-1 0 0 1 830.3705 0)">
						<stop  offset="0" style="stop-color:#F9B776"/>
						<stop  offset="1" style="stop-color:#F47960"/>
					</linearGradient>
					<path style="fill:url(#SVGID_00000073704047222587854340000008584657224827621023_);" d="M2823.972,1466.961
						c-8.721,13.87-14.753,31.285-22.188,49.552c-13.951,34.28-27.8,68.603-41.607,102.941l87.244,32.944
						c20.017-34.177,39.348-68.75,59.458-102.872c10.707-18.167,21.471-43.632,43.424-50.484
						c12.799-3.995,25.914,3.121,21.425-14.314c-3.293-12.792-19.043-25.447-29.622-32.02
						c-17.18-10.674-37.604-15.353-57.822-15.913C2852.498,1435.915,2835.773,1448.193,2823.972,1466.961z"/>
					<path style="fill:#FFFFFF;" d="M2890.018,1535.111c-0.07,0.325-0.146,0.65-0.228,0.977c-1.976,7.81-7.795,16.069-11.297,23.288
						c-8.105,16.708-16.187,33.428-24.315,50.124c-0.463,0.952-1.035,1.818-1.738,2.61c-4.304,4.851-20.333,20.456-35.298,3.085
						c-13.582-15.765-26.209-29.948-38.927-33.699c-5.708-1.684-11.753,1.234-13.972,6.758
						c-5.531,13.765-17.423,45.018-23.611,73.745c-1.255,5.831,2.215,11.617,7.912,13.379c17.167,5.31,53.685,15.496,84.982,16.807
						c4.241,0.177,8.229-1.929,10.416-5.567c10.665-17.734,43.281-71.513,54.688-85.092c11.625-13.839,17.73,31.062,31.156,41.973
						c4.929,4.006,29.874-34.359,35.775-32.008c19.279,7.68,32.777-20.599,29.83-35.804c-3.516-18.143-23.716-23.536-6.732-40.861
						c8.569-8.741,7.132-23.8,0.132-33.842c-7.068-10.14-19.093-16.838-28.107-24.801c-9.735-8.599-20.543-11.161-33.531-11.534
						c-4.085-0.117-8.319,0.079-11.997,1.861c-5.275,2.556-8.85,8.103-14.447,9.844c-6.302,1.96-14.396-1.121-19.01,3.599
						c-3.073,3.144-2.793,8.194-1.939,12.506C2882.679,1507.198,2893.262,1520,2890.018,1535.111z"/>
					
						<linearGradient id="SVGID_00000116949740676183204840000012043913657504718233_" gradientUnits="userSpaceOnUse" x1="5157.4639" y1="8584.2607" x2="5306.0459" y2="8431.8193" gradientTransform="matrix(-0.7472 -0.6646 -0.6646 0.7472 12480.8506 -1168.7673)">
						<stop  offset="0" style="stop-color:#F9B776"/>
						<stop  offset="1" style="stop-color:#F47960"/>
					</linearGradient>
					<path style="fill:url(#SVGID_00000116949740676183204840000012043913657504718233_);" d="M2881.422,1626.192
						c0,0,15.683-46.119,36.379-46.222c20.699-0.101,38.687,18.927,15.272,44.198
						C2903.947,1655.602,2881.422,1626.192,2881.422,1626.192z"/>
				</g>
			</g>
			
				<linearGradient id="SVGID_00000071518544430182447500000001291748613044696214_" gradientUnits="userSpaceOnUse" x1="3109.6028" y1="2506.6023" x2="4344.9346" y2="1521.1135">
				<stop  offset="0" style="stop-color:#FDF53F"/>
				<stop  offset="1" style="stop-color:#D93C65"/>
			</linearGradient>
			<path style="fill:url(#SVGID_00000071518544430182447500000001291748613044696214_);" d="M2874.547,3233.077L2874.547,3233.077
				c-2.561,0-4.656-2.914-21.006-6.475V2170.934c16.349-3.561,18.445-6.475,21.006-6.475l0,0c2.561,0,4.656,2.914,4.656,6.475
				v1055.667C2879.203,3230.163,2877.108,3233.077,2874.547,3233.077z"/>
			
				<linearGradient id="SVGID_00000116234107880966479100000007025160916584261780_" gradientUnits="userSpaceOnUse" x1="2894.1702" y1="2237.9402" x2="4141.8799" y2="1242.5765">
				<stop  offset="0" style="stop-color:#FDF53F"/>
				<stop  offset="1" style="stop-color:#D93C65"/>
			</linearGradient>
			<path style="fill:url(#SVGID_00000116234107880966479100000007025160916584261780_);" d="M2857.671,2230.382
				c36.992-35.868,38.845-6.049,39.711,41.542c0.651,10.008,34.28,8.492,35.786-2.878c7.967-74.271-31.779-114.91-75.497-64.419
				V2230.382z"/>
			
				<linearGradient id="SVGID_00000042007072450893516310000014841239447175857046_" gradientUnits="userSpaceOnUse" x1="-1617.4672" y1="3047.2239" x2="-1229.4852" y2="3047.2239" gradientTransform="matrix(-0.9557 0.2943 0.2943 0.9557 824.9708 -379.3909)">
				<stop  offset="0" style="stop-color:#F9B776"/>
				<stop  offset="1" style="stop-color:#F47960"/>
			</linearGradient>
			<path style="fill:url(#SVGID_00000042007072450893516310000014841239447175857046_);" d="M2912.771,2170.902
				c0,0,185.049,19.115,215.474-63.662c11.282-30.694,9.729-94.013,3.075-106.842c36.235-34.876,82.517-28.774,106.06-37.966
				c16.517,31.163,11.752,99.335-4.547,143.671c-63.679,173.214-321.949,110.674-321.949,110.674L2912.771,2170.902z"/>
			
				<linearGradient id="SVGID_00000026860100255971538510000003229264718311745712_" gradientUnits="userSpaceOnUse" x1="3244.228" y1="1808.2051" x2="2656.0859" y2="2339.0938">
				<stop  offset="0" style="stop-color:#A737D5"/>
				<stop  offset="1" style="stop-color:#EF497A"/>
			</linearGradient>
			<path style="fill:url(#SVGID_00000026860100255971538510000003229264718311745712_);" d="M3039.015,1909.396l54.78-138.289
				c0,0,133.399,90.639,155.337,205.56c-25.206,1.856-71.072,8.412-115.966,31.081
				C3123.301,1953.484,3039.015,1909.396,3039.015,1909.396z"/>
			<g>
				
					<linearGradient id="SVGID_00000103248516350143479450000001684170796124796603_" gradientUnits="userSpaceOnUse" x1="-1251.1381" y1="3055.9236" x2="-1142.2365" y2="3055.9236" gradientTransform="matrix(-0.9557 0.2943 0.2943 0.9557 824.9708 -379.3909)">
					<stop  offset="0" style="stop-color:#F9B776"/>
					<stop  offset="1" style="stop-color:#F47960"/>
				</linearGradient>
				<path style="fill:url(#SVGID_00000103248516350143479450000001684170796124796603_);" d="M2926.749,2221.521
					c0,0-2.896-48.099-12.175-62.623c-9.277-14.525-24.068-32.318-51.021-19.052c-26.953,13.266-56.717,35.506-56.717,35.506
					s8.057,20.158,27.549,6.853l-10.178,14.452c0,0,7.008,15.97,22.484,1.52l-8.206,17.537c0,0,12.004,11.192,22.707-1.653
					C2871.897,2201.215,2890.436,2238.601,2926.749,2221.521z"/>
			</g>
		</g>
	</g>
</g>
</svg>
