<?xml version="1.0" encoding="utf-8"?>
<!-- Generator: Adobe Illustrator 27.5.0, SVG Export Plug-In . SVG Version: 6.00 Build 0)  -->
<svg version="1.1" xmlns="http://www.w3.org/2000/svg" xmlns:xlink="http://www.w3.org/1999/xlink" x="0px" y="0px"
	 viewBox="0 0 3710 3710" style="enable-background:new 0 0 3710 3710;" xml:space="preserve">
<g id="Background">
	<g>
		<g>
			<rect style="fill:#FFFFFF;" width="3710" height="3710"/>
		</g>
	</g>
</g>
<g id="Illustration">
	<g>
		<linearGradient id="SVGID_1_" gradientUnits="userSpaceOnUse" x1="3416.8147" y1="3617.5439" x2="1355.5603" y2="1392.6975">
			<stop  offset="0" style="stop-color:#B37CFF"/>
			<stop  offset="1" style="stop-color:#F895E7"/>
		</linearGradient>
		<path style="opacity:0.3;fill:url(#SVGID_1_);" d="M3137.009,2346.978c-284.918,658.594-1037.01,941.477-1626.286,893.245
			c-160.896-13.169-484.623-39.667-737.392-276.056c-485.425-453.972-410.665-1402.901,54.026-1961.577
			c59.842-71.946,474.064-553.976,1119.55-547.524c472.59,4.724,804.297,268.73,844.63,301.62
			c50.953,41.549,163.335,140.283,264.618,296.918C3294.135,1421.639,3315.054,1935.422,3137.009,2346.978z"/>
		<g>
			
				<linearGradient id="SVGID_00000078041421605786135010000005741485160925629584_" gradientUnits="userSpaceOnUse" x1="-954.0831" y1="2771.72" x2="-393.7844" y2="1090.8192" gradientTransform="matrix(-1 0 0 1 1155.7772 0)">
				<stop  offset="0" style="stop-color:#2B3582"/>
				<stop  offset="1" style="stop-color:#150E42"/>
			</linearGradient>
			<path style="fill:url(#SVGID_00000078041421605786135010000005741485160925629584_);" d="M663.123,2832.698
				c0,24.106,19.742,43.829,43.871,43.829h2372.354c24.129,0,43.871-19.723,43.871-43.829l19.74-1363.327
				c0-24.105-28.4-71.166-80.45-67.63L743.983,1341.75c-30.275-0.783-59.547,10.869-80.986,32.238
				c-21.439,21.369-33.169,50.586-32.454,80.833L663.123,2832.698z"/>
			
				<linearGradient id="SVGID_00000113337253186070378010000000018775016536261022_" gradientUnits="userSpaceOnUse" x1="2828.6379" y1="1279.8221" x2="785.0859" y2="3074.0146">
				<stop  offset="0" style="stop-color:#FDF53F"/>
				<stop  offset="1" style="stop-color:#D93C65"/>
			</linearGradient>
			<path style="fill:url(#SVGID_00000113337253186070378010000000018775016536261022_);" d="M706.435,2790.65
				c0,22.827,18.677,41.505,41.505,41.505h2274.198c22.828,0,41.504-18.678,41.504-41.505l18.628-1237.641
				c-2.194-74.478-67.49-101.246-107.072-99.666l-2222.097-59.615c-21.269-0.571-41.834,7.624-56.898,22.65
				c-15.064,15.026-23.349,35.59-22.816,56.86L706.435,2790.65z"/>
			<g>
				<path style="fill:#FFFFFF;" d="M3039.068,2202.684c-0.03,0-0.061,0-0.091,0c-3.361-0.049-6.044-2.811-5.992-6.174l1.472-100.371
					c0.049-3.327,2.762-5.992,6.077-5.992c0.031,0,0.061,0,0.091,0c3.361,0.049,6.044,2.811,5.992,6.175l-1.472,100.371
					C3045.097,2200.019,3042.383,2202.684,3039.068,2202.684z"/>
				<path style="fill:#FFFFFF;" d="M3042.681,1956.724c-0.03,0-0.061,0-0.091,0c-3.36-0.049-6.044-2.817-5.992-6.174l5.643-384.422
					c-0.106-22.834-7.036-41.066-20.603-54.065c-25.323-24.261-65.527-23.022-67.221-22.943l-710.231-19.046
					c-3.357-0.085-6.008-2.884-5.917-6.241c0.088-3.357,2.668-6.217,6.244-5.913l709.809,19.046
					c4.417-0.261,47.223-1.002,75.73,26.313c16.037,15.366,24.23,36.537,24.352,62.911l-5.646,384.543
					C3048.709,1954.059,3045.996,1956.724,3042.681,1956.724z"/>
			</g>
			
				<linearGradient id="SVGID_00000064340651803806620230000018047995760464945048_" gradientUnits="userSpaceOnUse" x1="350.0737" y1="2671.1365" x2="-2145.9338" y2="3278.2732" gradientTransform="matrix(-1 0 0 1 1155.7772 0)">
				<stop  offset="0" style="stop-color:#2B3582"/>
				<stop  offset="1" style="stop-color:#150E42"/>
			</linearGradient>
			<path style="fill:url(#SVGID_00000064340651803806620230000018047995760464945048_);" d="M476.321,2989.699h2785.605
				c3.11,0,5.654-2.544,5.654-5.654v-108.479c0-3.109-2.544-5.654-5.654-5.654H476.321c-3.109,0-5.654,2.544-5.654,5.654v108.479
				C470.667,2987.155,473.212,2989.699,476.321,2989.699z"/>
		</g>
		<g>
			
				<linearGradient id="SVGID_00000145781132939871956630000017002811510460993707_" gradientUnits="userSpaceOnUse" x1="1907.2123" y1="683.2777" x2="1475.1356" y2="3501.7456">
				<stop  offset="0" style="stop-color:#53D8FF"/>
				<stop  offset="0.2057" style="stop-color:#4DB9FD"/>
				<stop  offset="1" style="stop-color:#3840F7"/>
			</linearGradient>
			<path style="fill:url(#SVGID_00000145781132939871956630000017002811510460993707_);" d="M2512.099,469.193L878.255,459.19
				c-53.695-0.329-96.64,44.522-93.981,98.152l112.404,2321.302h1818.164l100.952-2073.959L2512.099,469.193z"/>
			
				<linearGradient id="SVGID_00000010288117563746756060000009163923875659425427_" gradientUnits="userSpaceOnUse" x1="2659.4585" y1="549.9885" x2="2272.6416" y2="1017.6331" gradientTransform="matrix(0.9994 0.0343 -0.0343 0.9994 56.5304 -41.0612)">
				<stop  offset="0" style="stop-color:#53D8FF"/>
				<stop  offset="0.2057" style="stop-color:#4DB9FD"/>
				<stop  offset="1" style="stop-color:#3840F7"/>
			</linearGradient>
			<path style="fill:url(#SVGID_00000010288117563746756060000009163923875659425427_);" d="M2580.038,794.742
				c-53.222-1.873-94.139-47.744-89.944-100.832l17.515-221.658l308.506,331.073L2580.038,794.742z"/>
			<g>
				<path style="opacity:0.82;fill:#FFFFFF;" d="M1883.573,1669.58H1098.52c-5.256,0-9.517-4.261-9.517-9.517V1556.19
					c0-5.256,4.261-9.517,9.517-9.517h785.053c5.256,0,9.517,4.261,9.517,9.517v103.873
					C1893.09,1665.319,1888.829,1669.58,1883.573,1669.58z"/>
				<path style="opacity:0.43;fill:#FFFFFF;" d="M2477.532,1673.743h-272.366c-5.256,0-9.517-4.261-9.517-9.517v-103.873
					c0-5.256,4.261-9.517,9.517-9.517h272.366c5.256,0,9.517,4.261,9.517,9.517v103.873
					C2487.049,1669.482,2482.788,1673.743,2477.532,1673.743z"/>
				<path style="opacity:0.43;fill:#FFFFFF;" d="M2473.251,1920.953h-272.366c-5.256,0-9.517-4.261-9.517-9.517v-103.873
					c0-5.256,4.261-9.517,9.517-9.517h272.366c5.256,0,9.517,4.261,9.517,9.517v103.873
					C2482.768,1916.692,2478.507,1920.953,2473.251,1920.953z"/>
				<path style="opacity:0.43;fill:#FFFFFF;" d="M2472.269,2155.222h-272.366c-5.256,0-9.517-4.261-9.517-9.517v-103.873
					c0-5.256,4.261-9.517,9.517-9.517h272.366c5.256,0,9.517,4.261,9.517,9.517v103.873
					C2481.786,2150.961,2477.525,2155.222,2472.269,2155.222z"/>
				<path style="opacity:0.43;fill:#FFFFFF;" d="M2467.988,2402.432h-272.366c-5.256,0-9.517-4.261-9.517-9.517v-103.873
					c0-5.256,4.261-9.517,9.517-9.517h272.366c5.256,0,9.517,4.261,9.517,9.517v103.873
					C2477.505,2398.171,2473.244,2402.432,2467.988,2402.432z"/>
				<path style="opacity:0.82;fill:#FFFFFF;" d="M1786.332,1925.005h-678.319c-4.854,0-8.789-3.935-8.789-8.789v-105.328
					c0-4.854,3.935-8.789,8.789-8.789h678.319c4.854,0,8.79,3.935,8.79,8.789v105.328
					C1795.122,1921.07,1791.187,1925.005,1786.332,1925.005z"/>
				<path style="opacity:0.82;fill:#FFFFFF;" d="M1926.214,2161.902H1113.8c-4.287,0-7.762-3.475-7.762-7.762v-107.383
					c0-4.287,3.475-7.762,7.762-7.762h812.414c4.287,0,7.762,3.475,7.762,7.762v107.383
					C1933.976,2158.427,1930.501,2161.902,1926.214,2161.902z"/>
				<path style="opacity:0.82;fill:#FFFFFF;" d="M2026.011,2398.544h-892.759c-3.74,0-6.772-3.032-6.772-6.772v-109.364
					c0-3.74,3.032-6.772,6.772-6.772h892.759c3.74,0,6.772,3.032,6.772,6.772v109.364
					C2032.783,2395.512,2029.751,2398.544,2026.011,2398.544z"/>
				<path style="opacity:0.7;fill:#FFFFFF;" d="M2445.726,1205.474H1146.392c-8.044,0-14.565-6.521-14.565-14.565v-124.573
					c0-8.044,6.521-14.565,14.565-14.565h1299.335c8.044,0,14.565,6.521,14.565,14.565v124.573
					C2460.292,1198.953,2453.771,1205.474,2445.726,1205.474z"/>
				<path style="opacity:0.43;fill:#FFFFFF;" d="M1022.096,1498.308h1546.039l3.085-82.469
					c1.519-41.127-32.713-74.238-75.474-74.238h-1402.71c-43.261,0-77.68,33.881-75.417,75.458L1022.096,1498.308z"/>
				<path style="opacity:0.77;fill:#FFFFFF;" d="M2456.281,2563.689H1151.182c-44.711,0-81.574-33.792-83.921-76.933
					l-58.146-1068.423c-1.193-21.912,6.591-42.891,21.916-59.073c15.882-16.771,38.483-26.388,62.006-26.388h1402.71
					c23.246,0,45.666,9.43,61.51,25.87c15.293,15.869,23.276,36.547,22.475,58.225l-39.465,1068.423
					C2538.643,2529.294,2501.753,2563.689,2456.281,2563.689z M1093.035,1349.905c-18.867,0-36.958,7.678-49.64,21.069
					c-12.075,12.75-18.209,29.241-17.275,46.434l58.146,1068.423c1.856,34.107,31.249,60.825,66.914,60.825h1305.099
					c36.268,0,65.68-27.187,66.961-61.896l39.468-1068.423c0.627-17.012-5.666-33.268-17.719-45.776
					c-12.65-13.128-30.6-20.656-49.245-20.656H1093.035z"/>
			</g>
			<path style="opacity:0.41;fill:#FFFFFF;" d="M1606.411,897.151h-585.385c-6.903,0-12.499-5.596-12.499-12.499V664.885
				c0-6.903,5.596-12.499,12.499-12.499h585.385c6.903,0,12.499,5.596,12.499,12.499v219.767
				C1618.91,891.555,1613.314,897.151,1606.411,897.151z"/>
		</g>
		<g>
			<g>
				
					<linearGradient id="SVGID_00000072981554704095737590000000036299219729196708_" gradientUnits="userSpaceOnUse" x1="826.4869" y1="1292.2019" x2="1167.7561" y2="896.0864">
					<stop  offset="0" style="stop-color:#FDF53F"/>
					<stop  offset="1" style="stop-color:#D93C65"/>
				</linearGradient>
				
					<circle style="fill:url(#SVGID_00000072981554704095737590000000036299219729196708_);" cx="1174.649" cy="888.085" r="254.429"/>
				
					<linearGradient id="SVGID_00000175314975556606104610000013298434622843429813_" gradientUnits="userSpaceOnUse" x1="1360.5955" y1="607.1738" x2="351.4532" y2="2131.7">
					<stop  offset="0" style="stop-color:#FDF53F"/>
					<stop  offset="1" style="stop-color:#D93C65"/>
				</linearGradient>
				
					<circle style="fill:url(#SVGID_00000175314975556606104610000013298434622843429813_);" cx="1174.649" cy="888.085" r="245.969"/>
				<path style="fill:#FFFFFF;" d="M971.823,789.316c-0.516,0-1.04-0.116-1.532-0.366c-1.68-0.847-2.354-2.896-1.505-4.576
					c39.463-78.182,118.346-126.751,205.863-126.751c13.973,0,27.96,1.258,41.574,3.739c1.851,0.338,3.079,2.111,2.741,3.962
					c-0.338,1.851-2.111,3.072-3.962,2.741c-13.213-2.409-26.789-3.63-40.353-3.63c-84.931,0-161.483,47.135-199.782,123.008
					C974.268,788.632,973.069,789.316,971.823,789.316z"/>
				
					<ellipse transform="matrix(0.7071 -0.7071 0.7071 0.7071 -286.1442 1096.076)" style="opacity:0.78;fill:#FFFFFF;" cx="1180.009" cy="893.445" rx="208.182" ry="208.182"/>
				<g>
					
						<linearGradient id="SVGID_00000160895841960778344110000013187649747452426635_" gradientUnits="userSpaceOnUse" x1="1330.4917" y1="650.8562" x2="793.1441" y2="1552.9739">
						<stop  offset="0" style="stop-color:#FDF53F"/>
						<stop  offset="1" style="stop-color:#D93C65"/>
					</linearGradient>
					<path style="fill:url(#SVGID_00000160895841960778344110000013187649747452426635_);" d="M1159.579,1048.21v-22.65
						c-23.611-0.945-46.965-6.518-63.552-13.779c-5.923-2.593-8.942-9.24-7.241-15.478l5.754-21.097
						c2.11-7.739,10.528-11.743,17.926-8.641c16.454,6.898,36.77,12.355,58.677,12.355c22.741,0,39.701-7.71,39.701-23.515
						c0-14.26-13.104-22.74-44.712-31.219c-45.097-12.334-77.476-31.993-77.476-71.695c0-35.849,26.212-63.215,71.695-70.537
						v-22.652c0-7.288,5.909-13.197,13.197-13.197h13.307c7.289,0,13.197,5.909,13.197,13.197v20.337
						c21.848,0.874,37.752,4.611,50.373,9.046c6.466,2.272,10,9.238,8.206,15.853l-5.291,19.511
						c-2.04,7.524-10.082,11.645-17.373,8.888c-11.62-4.395-28.049-8.97-49.405-8.97c-26.982,0-34.69,11.177-34.69,21.199
						c0,12.335,16.188,20.814,51.264,31.608c50.109,15.033,70.922,35.846,70.922,73.235c0,34.305-25.439,65.141-74.776,72.852
						v25.347c0,7.288-5.908,13.197-13.197,13.197h-13.309C1165.488,1061.407,1159.579,1055.498,1159.579,1048.21z"/>
				</g>
			</g>
			<g>
				
					<linearGradient id="SVGID_00000026148895263587420770000004330353436362812316_" gradientUnits="userSpaceOnUse" x1="1111.0057" y1="2117.1079" x2="1336.3733" y2="1855.5209">
					<stop  offset="0" style="stop-color:#FDF53F"/>
					<stop  offset="1" style="stop-color:#D93C65"/>
				</linearGradient>
				
					<circle style="fill:url(#SVGID_00000026148895263587420770000004330353436362812316_);" cx="1340.925" cy="1850.237" r="168.02"/>
				
					<linearGradient id="SVGID_00000138557087665797469820000014469628722285348246_" gradientUnits="userSpaceOnUse" x1="1463.7203" y1="1664.7286" x2="797.3024" y2="2671.4961">
					<stop  offset="0" style="stop-color:#FDF53F"/>
					<stop  offset="1" style="stop-color:#D93C65"/>
				</linearGradient>
				
					<circle style="fill:url(#SVGID_00000138557087665797469820000014469628722285348246_);" cx="1340.925" cy="1850.237" r="162.433"/>
				<path style="fill:#FFFFFF;" d="M1206.983,1786.17c-0.516,0-1.04-0.116-1.532-0.366c-1.68-0.847-2.354-2.896-1.505-4.576
					c26.257-52.023,78.745-84.342,136.979-84.342c9.295,0,18.602,0.838,27.661,2.49c1.851,0.338,3.079,2.113,2.741,3.962
					c-0.339,1.851-2.094,3.071-3.964,2.741c-8.656-1.58-17.552-2.38-26.438-2.38c-55.648,0-105.805,30.883-130.898,80.599
					C1209.428,1785.486,1208.229,1786.17,1206.983,1786.17z"/>
				
					<ellipse transform="matrix(0.1666 -0.986 0.986 0.1666 -707.3796 2870.6367)" style="opacity:0.78;fill:#FFFFFF;" cx="1344.464" cy="1853.776" rx="137.48" ry="137.479"/>
				<g>
					
						<linearGradient id="SVGID_00000053513401520270224680000004379953032966830774_" gradientUnits="userSpaceOnUse" x1="1443.8408" y1="1693.5756" x2="1088.9867" y2="2289.3169">
						<stop  offset="0" style="stop-color:#FDF53F"/>
						<stop  offset="1" style="stop-color:#D93C65"/>
					</linearGradient>
					<path style="fill:url(#SVGID_00000053513401520270224680000004379953032966830774_);" d="M1330.973,1955.98v-14.956
						c-15.591-0.625-31.014-4.305-41.968-9.099c-3.911-1.713-5.905-6.102-4.782-10.221l3.8-13.932
						c1.394-5.111,6.953-7.755,11.838-5.707c10.866,4.555,24.283,8.159,38.75,8.159c15.017,0,26.218-5.091,26.218-15.528
						c0-9.418-8.654-15.018-29.527-20.616c-29.781-8.146-51.163-21.128-51.163-47.346c0-23.674,17.31-41.746,47.345-46.582v-14.959
						c0-4.813,3.902-8.715,8.715-8.715h8.788c4.813,0,8.715,3.902,8.715,8.715v13.431c14.428,0.578,24.93,3.044,33.265,5.973
						c4.27,1.501,6.604,6.101,5.419,10.469l-3.494,12.884c-1.348,4.969-6.658,7.691-11.473,5.87
						c-7.674-2.902-18.523-5.924-32.626-5.924c-17.819,0-22.908,7.381-22.908,14c0,8.145,10.69,13.745,33.854,20.873
						c33.091,9.927,46.836,23.672,46.836,48.363c0,22.655-16.799,43.018-49.381,48.11v16.738c0,4.813-3.901,8.715-8.715,8.715
						h-8.789C1334.875,1964.695,1330.973,1960.793,1330.973,1955.98z"/>
				</g>
			</g>
			<g>
				
					<linearGradient id="SVGID_00000096038773186765488690000017914138203416344739_" gradientUnits="userSpaceOnUse" x1="1438.1637" y1="2319.7964" x2="1585.6395" y2="2148.6194">
					<stop  offset="0" style="stop-color:#FDF53F"/>
					<stop  offset="1" style="stop-color:#D93C65"/>
				</linearGradient>
				
					<circle style="fill:url(#SVGID_00000096038773186765488690000017914138203416344739_);" cx="1588.618" cy="2145.162" r="109.949"/>
				
					<linearGradient id="SVGID_00000156566764253691579920000006450426117550997682_" gradientUnits="userSpaceOnUse" x1="1668.9729" y1="2023.7687" x2="1232.8826" y2="2682.5767">
					<stop  offset="0" style="stop-color:#FDF53F"/>
					<stop  offset="1" style="stop-color:#D93C65"/>
				</linearGradient>
				
					<circle style="fill:url(#SVGID_00000156566764253691579920000006450426117550997682_);" cx="1588.618" cy="2145.162" r="106.293"/>
				<path style="fill:#FFFFFF;" d="M1500.967,2104.414c-0.516,0-1.04-0.116-1.532-0.366c-1.68-0.847-2.354-2.896-1.505-4.576
					c17.384-34.441,52.135-55.838,90.688-55.838c6.148,0,12.309,0.554,18.313,1.648c1.851,0.338,3.079,2.111,2.741,3.962
					c-0.336,1.853-2.118,3.067-3.962,2.741c-5.602-1.021-11.353-1.539-17.092-1.539c-35.968,0-68.386,19.961-84.606,52.095
					C1503.412,2103.73,1502.213,2104.414,1500.967,2104.414z"/>
				
					<ellipse transform="matrix(0.1602 -0.9871 0.9871 0.1602 -783.6531 3373.8811)" style="opacity:0.78;fill:#FFFFFF;" cx="1590.934" cy="2147.477" rx="89.964" ry="89.963"/>
				<g>
					
						<linearGradient id="SVGID_00000042010014986619693540000008094288450645814674_" gradientUnits="userSpaceOnUse" x1="1655.9641" y1="2042.6455" x2="1423.7548" y2="2432.4866">
						<stop  offset="0" style="stop-color:#FDF53F"/>
						<stop  offset="1" style="stop-color:#D93C65"/>
					</linearGradient>
					<path style="fill:url(#SVGID_00000042010014986619693540000008094288450645814674_);" d="M1582.106,2214.357v-9.787
						c-10.203-0.409-20.295-2.817-27.463-5.955c-2.559-1.121-3.864-3.993-3.129-6.689l2.486-9.117
						c0.913-3.345,4.55-5.074,7.747-3.734c7.111,2.981,15.89,5.339,25.357,5.339c9.827,0,17.156-3.332,17.156-10.161
						c0-6.163-5.663-9.827-19.322-13.491c-19.488-5.331-33.48-13.826-33.48-30.982c0-15.492,11.327-27.318,30.982-30.482v-9.789
						c0-3.149,2.553-5.703,5.703-5.703h5.75c3.15,0,5.703,2.553,5.703,5.703v8.789c9.441,0.378,16.313,1.992,21.768,3.909
						c2.794,0.982,4.321,3.992,3.546,6.851l-2.286,8.431c-0.882,3.252-4.357,5.033-7.508,3.841
						c-5.022-1.899-12.121-3.876-21.35-3.876c-11.66,0-14.991,4.83-14.991,9.161c0,5.33,6.995,8.994,22.153,13.659
						c21.654,6.496,30.648,15.49,30.648,31.648c0,14.825-10.993,28.15-32.314,31.482v10.953c0,3.15-2.553,5.703-5.703,5.703h-5.751
						C1584.659,2220.061,1582.106,2217.507,1582.106,2214.357z"/>
				</g>
			</g>
			<g>
				
					<linearGradient id="SVGID_00000145024585405431335160000017298682731191105173_" gradientUnits="userSpaceOnUse" x1="882.4368" y1="1743.2179" x2="1152.1655" y2="1430.1403">
					<stop  offset="0" style="stop-color:#FDF53F"/>
					<stop  offset="1" style="stop-color:#D93C65"/>
				</linearGradient>
				
					<circle style="fill:url(#SVGID_00000145024585405431335160000017298682731191105173_);" cx="1157.614" cy="1423.817" r="201.093"/>
				
					<linearGradient id="SVGID_00000072277617632865278360000012849643697725929896_" gradientUnits="userSpaceOnUse" x1="1304.5797" y1="1201.7926" x2="506.9846" y2="2406.7314">
					<stop  offset="0" style="stop-color:#FDF53F"/>
					<stop  offset="1" style="stop-color:#D93C65"/>
				</linearGradient>
				
					<circle style="fill:url(#SVGID_00000072277617632865278360000012849643697725929896_);" cx="1157.614" cy="1423.817" r="194.406"/>
				<path style="fill:#FFFFFF;" d="M997.305,1346.466c-0.516,0-1.04-0.116-1.532-0.366c-1.68-0.847-2.354-2.896-1.505-4.576
					c31.314-62.036,93.905-100.574,163.346-100.574c11.077,0,22.175,0.998,32.986,2.968c1.851,0.338,3.079,2.111,2.741,3.962
					c-0.336,1.85-2.093,3.071-3.962,2.741c-10.408-1.896-21.095-2.858-31.765-2.858c-66.856,0-127.115,37.103-157.265,96.831
					C999.75,1345.783,998.551,1346.466,997.305,1346.466z"/>
				<circle style="opacity:0.78;fill:#FFFFFF;" cx="1161.849" cy="1428.052" r="164.541"/>
				<g>
					
						<linearGradient id="SVGID_00000166648076001337315430000005297371904240503180_" gradientUnits="userSpaceOnUse" x1="1280.7866" y1="1236.318" x2="856.0836" y2="1949.3241">
						<stop  offset="0" style="stop-color:#FDF53F"/>
						<stop  offset="1" style="stop-color:#D93C65"/>
					</linearGradient>
					<path style="fill:url(#SVGID_00000166648076001337315430000005297371904240503180_);" d="M1145.703,1550.374v-17.901
						c-18.662-0.747-37.12-5.152-50.23-10.89c-4.681-2.049-7.068-7.303-5.723-12.233l4.548-16.675
						c1.668-6.117,8.321-9.281,14.168-6.829c13.005,5.452,29.062,9.765,46.376,9.765c17.974,0,31.379-6.094,31.379-18.585
						c0-11.271-10.357-17.973-35.339-24.674c-35.643-9.749-61.235-25.287-61.235-56.665c0-28.334,20.717-49.964,56.665-55.751
						v-17.903c0-5.761,4.67-10.43,10.43-10.43h10.518c5.761,0,10.43,4.67,10.43,10.43v16.074
						c17.268,0.691,29.838,3.644,39.813,7.149c5.111,1.796,7.904,7.302,6.485,12.53l-4.182,15.421
						c-1.613,5.947-7.968,9.204-13.731,7.025c-9.185-3.473-22.169-7.089-39.048-7.089c-21.326,0-27.418,8.834-27.418,16.756
						c0,9.749,12.795,16.45,40.517,24.982c39.605,11.881,56.056,28.332,56.056,57.882c0,27.114-20.106,51.486-59.101,57.58v20.034
						c0,5.76-4.67,10.431-10.43,10.431h-10.519C1150.373,1560.805,1145.703,1556.135,1145.703,1550.374z"/>
				</g>
			</g>
		</g>
		<g>
			
				<linearGradient id="SVGID_00000146471882936398008900000004590018433049657525_" gradientUnits="userSpaceOnUse" x1="1816.2734" y1="2797.0212" x2="1746.86" y2="2902.6245" gradientTransform="matrix(0.9983 -0.0579 0.0579 0.9983 -43.8676 40.427)">
				<stop  offset="0" style="stop-color:#FDF53F"/>
				<stop  offset="0.6645" style="stop-color:#E57A58"/>
				<stop  offset="1" style="stop-color:#D93C65"/>
			</linearGradient>
			<path style="fill:url(#SVGID_00000146471882936398008900000004590018433049657525_);" d="M1849.699,2780.226
				c15.309,2.132,104.534,48.447,101.129-10.228c-0.321-5.528-3.805-65.542-3.805-65.542S1845.301,2779.614,1849.699,2780.226z"/>
			
				<linearGradient id="SVGID_00000086668734111859686530000017494322998333828022_" gradientUnits="userSpaceOnUse" x1="1420.4784" y1="3098.6042" x2="1339.0891" y2="3200.9358" gradientTransform="matrix(0.9983 -0.0579 0.0579 0.9983 -43.8676 40.427)">
				<stop  offset="0" style="stop-color:#2B3582"/>
				<stop  offset="1" style="stop-color:#150E42"/>
			</linearGradient>
			<path style="fill:url(#SVGID_00000086668734111859686530000017494322998333828022_);" d="M1563.402,3079.409
				c0,0-21.006-15.469-47.512-11.498c-18.388,4.333-39.229,22.028-52.571,35.034c-2.327,2.267-2.954,5.699-1.576,8.597
				c1.377,2.897,4.469,4.649,7.75,4.391c34.797-2.744,102.836-8.77,102.537-13.906
				C1571.63,3095.127,1563.402,3079.409,1563.402,3079.409z"/>
			
				<linearGradient id="SVGID_00000018211134081929701950000003760434698228186287_" gradientUnits="userSpaceOnUse" x1="1435.5662" y1="3079.4304" x2="1388.3002" y2="3138.8584" gradientTransform="matrix(0.9983 -0.0579 0.0579 0.9983 -43.8676 40.427)">
				<stop  offset="0" style="stop-color:#F9B776"/>
				<stop  offset="1" style="stop-color:#F47960"/>
			</linearGradient>
			<path style="fill:url(#SVGID_00000018211134081929701950000003760434698228186287_);" d="M1575.507,3049.292l-14.238,31.133
				c0,0-35.955,5.058-35.596-9.224c0.359-14.283,8.246-31.974,8.246-31.974L1575.507,3049.292z"/>
			
				<linearGradient id="SVGID_00000003063168818503574630000017393220994929556353_" gradientUnits="userSpaceOnUse" x1="1887.6975" y1="2892.1497" x2="1506.6327" y2="3000.6067" gradientTransform="matrix(0.9983 -0.0579 0.0579 0.9983 -43.8676 40.427)">
				<stop  offset="0" style="stop-color:#CB236D"/>
				<stop  offset="1" style="stop-color:#4C246D"/>
			</linearGradient>
			<path style="fill:url(#SVGID_00000003063168818503574630000017393220994929556353_);" d="M1985.021,3046.156
				c-32.994-135.331-33.795-218.948-33.795-218.948s-310.605-166.175-336.489-120.698c-25.884,45.477-89.987,349.293-89.987,349.293
				l55.178,11.653c0,0,95.677-146.682,98.183-267.314c31.818,86.029,68.881,293.874,274.917,287.938
				c10.229-0.295,19.774-5.197,25.983-13.332C1985.219,3066.614,1987.445,3056.098,1985.021,3046.156z"/>
			
				<linearGradient id="SVGID_00000052100547530952454420000000458031368219713727_" gradientUnits="userSpaceOnUse" x1="1207.3241" y1="3070.9817" x2="1237.0272" y2="3175.1907" gradientTransform="matrix(0.9983 -0.0579 0.0579 0.9983 -43.8676 40.427)">
				<stop  offset="0" style="stop-color:#F9B776"/>
				<stop  offset="1" style="stop-color:#F47960"/>
			</linearGradient>
			<polygon style="fill:url(#SVGID_00000052100547530952454420000000458031368219713727_);" points="1384.614,3077.606 
				1353.27,3110.92 1325.698,3086.374 1357.745,3044.699 			"/>
			
				<linearGradient id="SVGID_00000054966002378369789820000002883983313034931096_" gradientUnits="userSpaceOnUse" x1="3474.6895" y1="2575.1401" x2="3489.0029" y2="2446.3181" gradientTransform="matrix(-0.9983 0.0579 0.0579 0.9983 5379.6812 -274.9918)">
				<stop  offset="0" style="stop-color:#F9B776"/>
				<stop  offset="1" style="stop-color:#F47960"/>
			</linearGradient>
			<path style="fill:url(#SVGID_00000054966002378369789820000002883983313034931096_);" d="M2074.921,2353.978l33.617,100.447
				c1.54,4.602,0.267,9.757-3.218,12.727c-12.748,10.864-46.43,32.952-95.366,16.227c-5.596-1.913-9.67-7.337-10.517-13.728
				l-11.726-88.524L2074.921,2353.978z"/>
			<g>
				
					<linearGradient id="SVGID_00000111151470772745009330000007599828541494293146_" gradientUnits="userSpaceOnUse" x1="3461.3655" y1="2527.3027" x2="3404.3831" y2="2339.3611" gradientTransform="matrix(-0.9997 -0.0271 -0.0271 0.9997 5504.0225 -47.9472)">
					<stop  offset="0" style="stop-color:#F9B776"/>
					<stop  offset="1" style="stop-color:#F47960"/>
				</linearGradient>
				<path style="fill:url(#SVGID_00000111151470772745009330000007599828541494293146_);" d="M1908.051,2281.068
					c0,0,11.033,96.241,47.062,126.723c36.028,30.482,108.383,10.228,134.578-61.389l-44.937-124.887L1908.051,2281.068z"/>
				
					<linearGradient id="SVGID_00000146477137388431805530000017671344480138202812_" gradientUnits="userSpaceOnUse" x1="3418.8154" y1="2189.3445" x2="3471.8923" y2="2492.0796" gradientTransform="matrix(-0.9997 -0.0271 -0.0271 0.9997 5504.0225 -47.9472)">
					<stop  offset="0" style="stop-color:#2B3582"/>
					<stop  offset="1" style="stop-color:#150E42"/>
				</linearGradient>
				<path style="fill:url(#SVGID_00000146477137388431805530000017671344480138202812_);" d="M2038.927,2308.694
					c-2.826,0.827-5.71-1.048-6.068-3.97c-1.089-8.886-3.933-26.491-10.328-38.602c0,0,3.856-12.483-31.962,5.561
					c-35.818,18.044-89.599,44.518-120.365,27.05c-29.996-17.03-58.615-99.421,21.414-82.13c3.045,0.658,5.925-1.704,5.78-4.816
					c-0.625-13.43,1.542-44.231,33.037-53.282c29.474-8.469,45.114,5.156,51.49,13.297c1.876,2.395,5.477,2.446,7.391,0.082
					c9.064-11.191,33.497-34.871,68.075-18.499c28.482,13.486,32.483,31.363,31.708,42.414c-0.251,3.581,3.321,6.109,6.62,4.696
					c8.938-3.827,23.196-5.554,36.337,11.858c18.166,24.072-9.261,43.776-17.468,48.914c-1.345,0.842-2.206,2.275-2.258,3.86
					c-0.408,12.252-1.526,66.809-29.133,96.232c-2.39,2.548-8.896,0.507-10.161-2.75l-19.293-49.705
					c-0.896-2.309-3.41-3.547-5.786-2.852L2038.927,2308.694z"/>
				
					<linearGradient id="SVGID_00000158029893282114783010000013362747036159892389_" gradientUnits="userSpaceOnUse" x1="3414.2559" y1="2549.7864" x2="3357.2734" y2="2361.845" gradientTransform="matrix(-0.9997 -0.0271 -0.0271 0.9997 5504.0225 -47.9472)">
					<stop  offset="0" style="stop-color:#F9B776"/>
					<stop  offset="1" style="stop-color:#F47960"/>
				</linearGradient>
				<path style="fill:url(#SVGID_00000158029893282114783010000013362747036159892389_);" d="M2035.285,2315.86
					c0,0,13.987-50.96,32.669-33.785c18.682,17.176-6.434,53.182-28.542,59.575L2035.285,2315.86z"/>
			</g>
			
				<linearGradient id="SVGID_00000139271580297778263350000004484704016150151563_" gradientUnits="userSpaceOnUse" x1="1152.2338" y1="3104.1724" x2="1179.9336" y2="3201.353" gradientTransform="matrix(0.9983 -0.0579 0.0579 0.9983 -43.8676 40.427)">
				<stop  offset="0" style="stop-color:#2B3582"/>
				<stop  offset="1" style="stop-color:#150E42"/>
			</linearGradient>
			<path style="fill:url(#SVGID_00000139271580297778263350000004484704016150151563_);" d="M1368.554,3094.675
				c-8.104,0.563-43.097-12.447-43.097-12.447l-31.291,10.334c-27.95-2.654-51.194,8.16-66.672,18.678
				c-3.38,2.297-4.821,6.566-3.536,10.447c1.285,3.881,4.986,6.44,9.07,6.272c31.401-1.301,82.947-3.768,108.949-6.844
				C1380.929,3116.506,1386.917,3117.286,1368.554,3094.675z"/>
			
				<linearGradient id="SVGID_00000002359874373823291010000016771130811885011384_" gradientUnits="userSpaceOnUse" x1="-2318.9241" y1="2670.8992" x2="-2122.2007" y2="2670.8992" gradientTransform="matrix(-0.9983 0.0579 0.0579 0.9983 -853.4013 86.815)">
				<stop  offset="0" style="stop-color:#2B3582"/>
				<stop  offset="1" style="stop-color:#150E42"/>
			</linearGradient>
			<path style="fill:url(#SVGID_00000002359874373823291010000016771130811885011384_);" d="M1623.332,2741.427l-82.005-225.138
				c-3.346-9.185-12.034-15.334-21.809-15.435l-93.13-0.962c-9.466-0.098-15.945,9.52-12.297,18.256l89.508,214.354
				c2.884,6.906,9.501,11.521,16.978,11.84l91.935,4.841L1623.332,2741.427z"/>
			
				<linearGradient id="SVGID_00000157268234568456989870000017348924967237031059_" gradientUnits="userSpaceOnUse" x1="-2295.05" y1="2756.8789" x2="-2452.3398" y2="2799.988" gradientTransform="matrix(-0.9983 0.0579 0.0579 0.9983 -853.4013 86.815)">
				<stop  offset="0" style="stop-color:#2B3582"/>
				<stop  offset="1" style="stop-color:#150E42"/>
			</linearGradient>
			<path style="fill:url(#SVGID_00000157268234568456989870000017348924967237031059_);" d="M1612.511,2749.183
				c0.149-0.009,0.298-0.021,0.447-0.038l194.067-21.136c4.798-0.521,8.263-4.834,7.741-9.631c-0.522-4.799-4.857-8.343-9.633-7.741
				l-194.067,21.136c-4.797,0.521-8.263,4.834-7.741,9.631C1603.832,2746.052,1607.896,2749.45,1612.511,2749.183z"/>
			
				<linearGradient id="SVGID_00000014620964893258745420000008092507455934044062_" gradientUnits="userSpaceOnUse" x1="-2632.9331" y1="2196.1677" x2="-2272.0872" y2="1702.5107" gradientTransform="matrix(-0.9678 -0.2519 -0.2519 0.9678 -185.137 -5.4191)">
				<stop  offset="0" style="stop-color:#F9B776"/>
				<stop  offset="1" style="stop-color:#F47960"/>
			</linearGradient>
			<path style="fill:url(#SVGID_00000014620964893258745420000008092507455934044062_);" d="M1900.36,2704.762
				c0,0-35.31,51.375-148.214-5.801c0,0-32.511-26.607-64.101-21.574c-31.59,5.033-52.135,49.599-52.135,49.599l61.246-4.817
				c0,0,91.131,98.358,269.113,88.027C1968.959,2770.306,1926.294,2739.079,1900.36,2704.762z"/>
			
				<linearGradient id="SVGID_00000069392419400579701200000010961572738330087578_" gradientUnits="userSpaceOnUse" x1="1872.38" y1="2529.979" x2="2139.1216" y2="3465.7996" gradientTransform="matrix(0.9983 -0.0579 0.0579 0.9983 -43.8676 40.427)">
				<stop  offset="0" style="stop-color:#FDF53F"/>
				<stop  offset="0.6645" style="stop-color:#E57A58"/>
				<stop  offset="1" style="stop-color:#D93C65"/>
			</linearGradient>
			<path style="fill:url(#SVGID_00000069392419400579701200000010961572738330087578_);" d="M2037.035,2446.477
				c-22.941,6.458-47.297,32.523-64.327,54.275c-13.665,17.452-23.121,37.406-28.087,59.008
				c-11.189,48.672-36.319,144.098-56.028,154.227c49.577,62.393,58.533,83.233,58.533,83.233
				c-4.103,78.122-21.234,94.696-21.234,94.696s94.62,83.609,204.434,102.589c94.46-78.377,97.488-287.084,97.488-287.084
				C2221.232,2460.472,2105.077,2427.324,2037.035,2446.477z"/>
			<path style="fill:#E78456;" d="M1946.446,2799.869c-0.625,0.036-1.262-0.188-1.731-0.674c-0.858-0.885-0.836-2.297,0.049-3.155
				c0.849-0.827,85.285-83.644,103.433-184.702c0.22-1.211,1.384-2.016,2.592-1.802c1.214,0.217,2.019,1.378,1.802,2.592
				c-18.407,102.499-103.858,186.282-104.721,187.116C1947.471,2799.633,1946.964,2799.839,1946.446,2799.869z"/>
			
				<linearGradient id="SVGID_00000152248860568260164740000005297707062524639918_" gradientUnits="userSpaceOnUse" x1="1488.9019" y1="2668.1213" x2="1717.4694" y2="3470.0146" gradientTransform="matrix(0.9983 -0.0579 0.0579 0.9983 -43.8676 40.427)">
				<stop  offset="0" style="stop-color:#CB236D"/>
				<stop  offset="1" style="stop-color:#4C246D"/>
			</linearGradient>
			<path style="fill:url(#SVGID_00000152248860568260164740000005297707062524639918_);" d="M2130.325,2994.505
				c0,0-36.753,134.651-260.289,73.345c-108.387-29.725-269.319-229.197-269.319-229.197s-30.875,102.814-214.927,248.987
				l-44.865-35.824c0,0,174.824-346.096,276.339-317.126S2155.754,2907.061,2130.325,2994.505z"/>
			
				<linearGradient id="SVGID_00000181049542831459616550000017638253290541181352_" gradientUnits="userSpaceOnUse" x1="1334.7562" y1="2661.5669" x2="1489.2522" y2="2661.5669" gradientTransform="matrix(0.9983 -0.0579 0.0579 0.9983 -43.8676 40.427)">
				<stop  offset="0" style="stop-color:#52F0C0"/>
				<stop  offset="1" style="stop-color:#9F71FB"/>
			</linearGradient>
			<polygon style="fill:url(#SVGID_00000181049542831459616550000017638253290541181352_);" points="1436.678,2515.944 
				1523.574,2720.091 1602.883,2713.413 1527.955,2517.065 			"/>
		</g>
		<g>
			<g>
				<g>
					
						<linearGradient id="SVGID_00000052085497369781120400000003418336437094595474_" gradientUnits="userSpaceOnUse" x1="3151.1287" y1="2046.8854" x2="1679.2618" y2="3868.7051">
						<stop  offset="0" style="stop-color:#2B3582"/>
						<stop  offset="1" style="stop-color:#150E42"/>
					</linearGradient>
					<path style="fill:url(#SVGID_00000052085497369781120400000003418336437094595474_);" d="M3247.362,1970.55
						c5.482,195.752,23.258,870.973,14.772,1110.251c-0.899,25.349-23.852,45.696-52.484,46.525
						c-141.611,4.103-660.749,14.501-892.376,5.898c-48.245-1.792-86.611-36.389-87.612-79.131
						c-4.814-205.467-15.433-783.366,9.808-1048.102c3.025-31.719,31.145-56.979,66.922-60.147
						c154.221-13.659,675.591-47.047,875.704-35.55C3218.186,1912.369,3246.467,1938.541,3247.362,1970.55z"/>
					
						<linearGradient id="SVGID_00000081646281150437326880000015929906824649107592_" gradientUnits="userSpaceOnUse" x1="3286.9517" y1="1590.0088" x2="2207.1831" y2="2701.3792">
						<stop  offset="0" style="stop-color:#A737D5"/>
						<stop  offset="1" style="stop-color:#EF497A"/>
					</linearGradient>
					<path style="fill:url(#SVGID_00000081646281150437326880000015929906824649107592_);" d="M3206.69,2056.857v165.892
						c0,31.813-25.789,57.602-57.601,57.602h-792.597c-31.812,0-57.601-25.789-57.601-57.602v-165.892
						c0-31.812,25.789-57.602,57.601-57.602h792.597C3180.901,1999.256,3206.69,2025.045,3206.69,2056.857z"/>
					<path style="opacity:0.2;fill:#FFFFFF;" d="M2341.037,2048.708c7.135-7.119,16.808-11.11,26.888-11.09l741.738,1.401
						c19.83,0.037,36.29,15.328,37.788,35.1l12.483,164.785c1.022,13.493-21.34,24.44-49.599,24.281l-729.182-4.126
						c-28.216-0.16-51.344-11.333-51.339-24.8l0.071-158.688C2329.89,2065.491,2333.902,2055.826,2341.037,2048.708z"/>
				</g>
				
					<linearGradient id="SVGID_00000127012418236078963180000009909099636102322571_" gradientUnits="userSpaceOnUse" x1="3759.7844" y1="1224.2954" x2="2359.9744" y2="3797.4749">
					<stop  offset="0" style="stop-color:#53D8FF"/>
					<stop  offset="1" style="stop-color:#3840F7"/>
				</linearGradient>
				<path style="fill:url(#SVGID_00000127012418236078963180000009909099636102322571_);" d="M3008.541,2448.548
					c0,29.268,23.726,52.993,52.993,52.993h64.514c29.268,0,52.993-23.726,52.993-52.993l0,0c0-29.267-23.726-52.993-52.993-52.993
					h-64.514C3032.267,2395.554,3008.541,2419.28,3008.541,2448.548L3008.541,2448.548z"/>
				
					<linearGradient id="SVGID_00000122690274671009336260000012767651559634077363_" gradientUnits="userSpaceOnUse" x1="3574.8843" y1="1123.704" x2="2175.074" y2="3696.8835">
					<stop  offset="0" style="stop-color:#53D8FF"/>
					<stop  offset="1" style="stop-color:#3840F7"/>
				</linearGradient>
				<path style="fill:url(#SVGID_00000122690274671009336260000012767651559634077363_);" d="M2768.919,2448.548
					c0,29.268,23.726,52.993,52.993,52.993h64.514c29.267,0,52.993-23.726,52.993-52.993l0,0c0-29.267-23.726-52.993-52.993-52.993
					h-64.514C2792.645,2395.554,2768.919,2419.28,2768.919,2448.548L2768.919,2448.548z"/>
				
					<linearGradient id="SVGID_00000029020127572814903320000009589234273957504441_" gradientUnits="userSpaceOnUse" x1="3397.0906" y1="1026.99" x2="1997.2802" y2="3600.1699">
					<stop  offset="0" style="stop-color:#53D8FF"/>
					<stop  offset="1" style="stop-color:#3840F7"/>
				</linearGradient>
				<path style="fill:url(#SVGID_00000029020127572814903320000009589234273957504441_);" d="M2538.513,2448.548
					c0,29.268,23.726,52.993,52.993,52.993h64.514c29.268,0,52.993-23.726,52.993-52.993l0,0c0-29.267-23.726-52.993-52.993-52.993
					h-64.514C2562.239,2395.554,2538.513,2419.28,2538.513,2448.548L2538.513,2448.548z"/>
				
					<linearGradient id="SVGID_00000019637611990648273070000009111859392985884302_" gradientUnits="userSpaceOnUse" x1="4889.4414" y1="2394.2878" x2="4509.646" y2="2842.1067" gradientTransform="matrix(-1 0 0 1 7226.8052 0)">
					<stop  offset="0" style="stop-color:#A737D5"/>
					<stop  offset="1" style="stop-color:#EF497A"/>
				</linearGradient>
				<path style="fill:url(#SVGID_00000019637611990648273070000009111859392985884302_);" d="M2304.951,2456.327
					c0,29.742,24.11,53.852,53.852,53.852h62.354c29.741,0,53.852-24.11,53.852-53.852l0,0c0-29.741-24.11-53.852-53.852-53.852
					h-62.354C2329.061,2402.476,2304.951,2426.586,2304.951,2456.327L2304.951,2456.327z"/>
				
					<linearGradient id="SVGID_00000157992440997371555040000006788265047556304784_" gradientUnits="userSpaceOnUse" x1="3829.4204" y1="1262.1805" x2="2429.606" y2="3835.3682">
					<stop  offset="0" style="stop-color:#53D8FF"/>
					<stop  offset="1" style="stop-color:#3840F7"/>
				</linearGradient>
				<path style="fill:url(#SVGID_00000157992440997371555040000006788265047556304784_);" d="M3008.541,2614.44
					c0,29.267,23.726,52.993,52.993,52.993h64.514c29.268,0,52.993-23.726,52.993-52.993l0,0c0-29.268-23.726-52.993-52.993-52.993
					h-64.514C3032.267,2561.447,3008.541,2585.173,3008.541,2614.44L3008.541,2614.44z"/>
				
					<linearGradient id="SVGID_00000034789829933434888190000007235875769875341972_" gradientUnits="userSpaceOnUse" x1="3644.5161" y1="1161.5964" x2="2244.7017" y2="3734.7842">
					<stop  offset="0" style="stop-color:#53D8FF"/>
					<stop  offset="1" style="stop-color:#3840F7"/>
				</linearGradient>
				<path style="fill:url(#SVGID_00000034789829933434888190000007235875769875341972_);" d="M2768.919,2614.44
					c0,29.267,23.726,52.993,52.993,52.993h64.514c29.267,0,52.993-23.726,52.993-52.993l0,0c0-29.268-23.726-52.993-52.993-52.993
					h-64.514C2792.645,2561.447,2768.919,2585.173,2768.919,2614.44L2768.919,2614.44z"/>
				
					<linearGradient id="SVGID_00000147217901637226947600000018126339146413986489_" gradientUnits="userSpaceOnUse" x1="3466.729" y1="1064.8706" x2="2066.9141" y2="3638.0586">
					<stop  offset="0" style="stop-color:#53D8FF"/>
					<stop  offset="1" style="stop-color:#3840F7"/>
				</linearGradient>
				<path style="fill:url(#SVGID_00000147217901637226947600000018126339146413986489_);" d="M2538.513,2614.44
					c0,29.267,23.726,52.993,52.993,52.993h64.514c29.268,0,52.993-23.726,52.993-52.993l0,0c0-29.268-23.726-52.993-52.993-52.993
					h-64.514C2562.239,2561.447,2538.513,2585.173,2538.513,2614.44L2538.513,2614.44z"/>
				
					<linearGradient id="SVGID_00000064334536887458060220000005679421512896765842_" gradientUnits="userSpaceOnUse" x1="3281.8247" y1="964.2868" x2="1882.01" y2="3537.4744">
					<stop  offset="0" style="stop-color:#53D8FF"/>
					<stop  offset="1" style="stop-color:#3840F7"/>
				</linearGradient>
				<path style="fill:url(#SVGID_00000064334536887458060220000005679421512896765842_);" d="M2298.891,2614.44
					c0,29.267,23.726,52.993,52.993,52.993h64.514c29.267,0,52.993-23.726,52.993-52.993l0,0c0-29.268-23.726-52.993-52.993-52.993
					h-64.514C2322.616,2561.447,2298.891,2585.173,2298.891,2614.44L2298.891,2614.44z"/>
				<g>
					
						<linearGradient id="SVGID_00000103232221799349187000000016913990036687337396_" gradientUnits="userSpaceOnUse" x1="1068.1595" y1="8395.2813" x2="-331.6515" y2="10968.4629" gradientTransform="matrix(-1 0 0 1 7226.8052 0)">
						<stop  offset="0" style="stop-color:#53D8FF"/>
						<stop  offset="1" style="stop-color:#3840F7"/>
					</linearGradient>
					<path style="opacity:0.63;fill:url(#SVGID_00000103232221799349187000000016913990036687337396_);" d="M3008.541,2761.36
						c0,29.268,23.726,52.993,52.993,52.993h64.514c29.268,0,52.993-23.726,52.993-52.993l0,0c0-29.267-23.726-52.993-52.993-52.993
						h-64.514C3032.267,2708.366,3008.541,2732.093,3008.541,2761.36L3008.541,2761.36z"/>
					
						<linearGradient id="SVGID_00000168092592686565951670000017600367474045697682_" gradientUnits="userSpaceOnUse" x1="3706.1931" y1="1195.1395" x2="2306.3821" y2="3768.3206">
						<stop  offset="0" style="stop-color:#53D8FF"/>
						<stop  offset="1" style="stop-color:#3840F7"/>
					</linearGradient>
					<path style="opacity:0.63;fill:url(#SVGID_00000168092592686565951670000017600367474045697682_);" d="M2768.919,2761.36
						c0,29.268,23.726,52.993,52.993,52.993h64.514c29.267,0,52.993-23.726,52.993-52.993l0,0c0-29.267-23.726-52.993-52.993-52.993
						h-64.514C2792.645,2708.366,2768.919,2732.093,2768.919,2761.36L2768.919,2761.36z"/>
					
						<linearGradient id="SVGID_00000041289415764505372930000001362489615963862710_" gradientUnits="userSpaceOnUse" x1="3528.3994" y1="1098.4255" x2="2128.5884" y2="3671.6069">
						<stop  offset="0" style="stop-color:#53D8FF"/>
						<stop  offset="1" style="stop-color:#3840F7"/>
					</linearGradient>
					<path style="fill:url(#SVGID_00000041289415764505372930000001362489615963862710_);" d="M2538.513,2761.36
						c0,29.268,23.726,52.993,52.993,52.993h64.514c29.268,0,52.993-23.726,52.993-52.993l0,0c0-29.267-23.726-52.993-52.993-52.993
						h-64.514C2562.239,2708.366,2538.513,2732.093,2538.513,2761.36L2538.513,2761.36z"/>
				</g>
				<g>
					
						<linearGradient id="SVGID_00000026123235563235490910000008196722175488084643_" gradientUnits="userSpaceOnUse" x1="3539.6648" y1="1853.8575" x2="2839.7603" y2="3531.5718">
						<stop  offset="0" style="stop-color:#53D8FF"/>
						<stop  offset="1" style="stop-color:#3840F7"/>
					</linearGradient>
					<path style="fill:url(#SVGID_00000026123235563235490910000008196722175488084643_);" d="M3008.541,2922.644
						c0,29.268,23.726,52.993,52.993,52.993h64.514c29.268,0,52.993-23.726,52.993-52.993l0,0c0-29.268-23.726-52.993-52.993-52.993
						h-64.514C3032.267,2869.651,3008.541,2893.377,3008.541,2922.644L3008.541,2922.644z"/>
					
						<linearGradient id="SVGID_00000049220934413455242260000000462927043455429262_" gradientUnits="userSpaceOnUse" x1="3773.8972" y1="1231.9679" x2="2374.0864" y2="3805.1487">
						<stop  offset="0" style="stop-color:#53D8FF"/>
						<stop  offset="1" style="stop-color:#3840F7"/>
					</linearGradient>
					<path style="fill:url(#SVGID_00000049220934413455242260000000462927043455429262_);" d="M2768.919,2922.644
						c0,29.268,23.726,52.993,52.993,52.993h64.514c29.267,0,52.993-23.726,52.993-52.993l0,0c0-29.268-23.726-52.993-52.993-52.993
						h-64.514C2792.645,2869.651,2768.919,2893.377,2768.919,2922.644L2768.919,2922.644z"/>
					
						<linearGradient id="SVGID_00000058564955970825510810000016229813344920851845_" gradientUnits="userSpaceOnUse" x1="3596.1035" y1="1135.2538" x2="2196.2925" y2="3708.4348">
						<stop  offset="0" style="stop-color:#53D8FF"/>
						<stop  offset="1" style="stop-color:#3840F7"/>
					</linearGradient>
					<path style="fill:url(#SVGID_00000058564955970825510810000016229813344920851845_);" d="M2538.513,2922.644
						c0,29.268,23.726,52.993,52.993,52.993h64.514c29.268,0,52.993-23.726,52.993-52.993l0,0c0-29.268-23.726-52.993-52.993-52.993
						h-64.514C2562.239,2869.651,2538.513,2893.377,2538.513,2922.644L2538.513,2922.644z"/>
				</g>
				
					<linearGradient id="SVGID_00000129184719807953874880000006692526944623391158_" gradientUnits="userSpaceOnUse" x1="3387.7468" y1="1021.9049" x2="1987.936" y2="3595.0857">
					<stop  offset="0" style="stop-color:#53D8FF"/>
					<stop  offset="1" style="stop-color:#3840F7"/>
				</linearGradient>
				<path style="fill:url(#SVGID_00000129184719807953874880000006692526944623391158_);" d="M2321.931,2918.316
					c0,37.046,30.032,67.078,67.078,67.078h4.088c37.046,0,67.078-30.032,67.078-67.078v-128.507
					c0-37.046-30.032-67.078-67.078-67.078h-4.088c-37.046,0-67.078,30.032-67.078,67.078V2918.316z"/>
			</g>
		</g>
	</g>
</g>
</svg>
