<?xml version="1.0" encoding="utf-8"?>
<!-- Generator: Adobe Illustrator 27.5.0, SVG Export Plug-In . SVG Version: 6.00 Build 0)  -->
<svg version="1.1" id="Illustration" xmlns="http://www.w3.org/2000/svg" xmlns:xlink="http://www.w3.org/1999/xlink" x="0px"
	 y="0px" viewBox="0 0 1200 800" style="enable-background:new 0 0 1200 800;" xml:space="preserve">
<g>
	<g style="opacity:0.8;">
		
			<linearGradient id="SVGID_1_" gradientUnits="userSpaceOnUse" x1="-6930.0112" y1="184.4186" x2="-7435.8926" y2="620.8312" gradientTransform="matrix(-1 0 0 1 -6718.4297 0)">
			<stop  offset="0" style="stop-color:#A737D5"/>
			<stop  offset="1" style="stop-color:#EF497A"/>
		</linearGradient>
		<path style="opacity:0.7;fill:url(#SVGID_1_);" d="M836.767,394.255c17.869,16.398,43.532,22.294,67.744,16.981
			c22.954-5.036,50.214-3.573,78.04,14.631c53.856,35.233,56.274,97.953,32.107,136.755c-12.541,20.136-16.565,44.081-10.192,66.679
			c5.57,19.75,0.947,41.887-39.255,52.053c-81.144,20.519-526.613,0.265-583.521-8.899c-56.908-9.164-269.22-59.697-134.538-127.191
			c0,0-233.466-239.32-85.719-368.385c133.743-116.832,273.204-51.149,337.065-8.745c24.038,15.962,52.824,24.19,82.145,23.431
			c74.716-1.932,212.941,13.158,207.36,152.179c-0.747,18.614,11.708,35.285,30.448,40.787
			C825.139,386.495,831.641,389.551,836.767,394.255z"/>
		
			<linearGradient id="SVGID_00000076563094561217703650000007121433010942583708_" gradientUnits="userSpaceOnUse" x1="-6955.1108" y1="214.1859" x2="-7422.3896" y2="617.2967" gradientTransform="matrix(-1 0 0 1 -6718.4297 0)">
			<stop  offset="0" style="stop-color:#B37CFF"/>
			<stop  offset="1" style="stop-color:#F895E7"/>
		</linearGradient>
		<path style="opacity:0.7;fill:url(#SVGID_00000076563094561217703650000007121433010942583708_);" d="M819.603,453.174
			c0,0,62.895-59.631,129.273-16.206c66.378,43.425,48.225,132.02,0,153.152c0,0,58.979,64.047-16.029,83.015
			c-75.008,18.967-486.789,0.245-539.394-8.226c-52.605-8.471-248.862-55.182-124.364-117.573c0,0-211.056-216.492-79.237-340.527
			c131.819-124.035,353.066-0.219,353.066-0.219s263.862-26.178,221.871,189.45C764.79,396.04,842.365,387.351,819.603,453.174z"/>
	</g>
	<g>
		<g style="opacity:0.4;">
			
				<linearGradient id="SVGID_00000048460759193162461980000017604031473206312639_" gradientUnits="userSpaceOnUse" x1="51.6695" y1="830.572" x2="-53.3253" y2="716.5776" gradientTransform="matrix(0.9919 -0.1267 0.1267 0.9919 -215.3351 -441.4702)">
				<stop  offset="0" style="stop-color:#CB236D"/>
				<stop  offset="1" style="stop-color:#4C246D"/>
			</linearGradient>
			<path style="fill:url(#SVGID_00000048460759193162461980000017604031473206312639_);" d="M307.549,659.316
				c0,0-52.404,57.775-96.171,33.357c-35.174-19.624,14.799-14.496,57.189-23.768c3.327-0.728,2.456-5.7-0.92-5.252
				c-33.166,4.397-83.773,7.991-92.562-9.302c-13.269-26.106-0.401-17.64,39.984-13.869c40.385,3.771,48.166-6.201,21.805-12.412
				c-26.361-6.211-68.297,7.527-78.066-5.248c-9.769-12.774-15.109-38.131-19.003-49.036c-3.894-10.905,50.271-27.268,64.914-12.952
				c14.643,14.316,26.535,46.269,43.913,52.103c17.378,5.834-1.316-22.431-12.841-37.021s-16.094-25.432,6.932-21.952
				c23.026,3.48,35.198,31.583,37.626,52.56c2.427,20.977,10.538,32.71,10.171,22.332c-0.367-10.378-4.133-42.205-11.493-51.774
				C271.667,567.515,324.205,579.192,307.549,659.316z"/>
			<path style="opacity:0.53;fill:#FFFFFF;" d="M303.284,659.867c-0.23,0.088-0.5,0.049-0.699-0.126
				c-44.98-39.351-120.422-67.953-121.178-68.237c-0.356-0.134-0.536-0.53-0.403-0.888c0.133-0.354,0.531-0.536,0.887-0.402
				c0.759,0.284,76.43,28.972,121.602,68.491c0.286,0.25,0.315,0.685,0.065,0.971C303.48,659.766,303.386,659.829,303.284,659.867z"
				/>
		</g>
		<g>
			
				<linearGradient id="SVGID_00000178205970220315452090000016455820854838395321_" gradientUnits="userSpaceOnUse" x1="308.1656" y1="1186.7429" x2="531.4421" y2="903.7009" gradientTransform="matrix(0.9919 -0.1267 0.1267 0.9919 -215.3351 -441.4702)">
				<stop  offset="0" style="stop-color:#CB236D"/>
				<stop  offset="1" style="stop-color:#4C246D"/>
			</linearGradient>
			<path style="fill:url(#SVGID_00000178205970220315452090000016455820854838395321_);" d="M336.32,687.755
				c0,0-95.703,3.157-111.566-56.287c-12.749-47.775,25.423,0.662,69.81,30.112c3.483,2.311,7.123-2.705,3.844-5.298
				c-32.21-25.482-78.612-67.027-70.876-89.549c11.679-34.001,15.208-15.423,46.385,23.402s46.615,37.166,29.57,8.62
				c-17.045-28.546-64.982-53.78-62.065-73.306c2.916-19.525,20.709-45.895,26.996-58.644c6.287-12.749,66.986,21.024,66.875,46.163
				c-0.111,25.14-18.122,62.921-8.419,83.225c9.703,20.304,18.652-20.323,21.667-42.947c3.016-22.624,8.671-35.915,25.275-12.643
				c16.604,23.273,2.227,58.012-14.193,78.073c-16.42,20.061-19.835,37.235-11,28.045c8.836-9.19,33.677-39.7,35.825-54.363
				C386.598,577.695,421.186,633.988,336.32,687.755z"/>
			<path style="opacity:0.53;fill:#FFFFFF;" d="M332.19,684.466c-0.274-0.128-0.471-0.399-0.486-0.724
				c-3.735-73.272-42.969-164.216-43.366-165.126c-0.186-0.428,0.009-0.926,0.438-1.113c0.426-0.185,0.926,0.01,1.112,0.439
				c0.398,0.912,39.753,92.132,43.503,165.716c0.024,0.465-0.335,0.863-0.801,0.887C332.448,684.552,332.311,684.522,332.19,684.466
				z"/>
		</g>
	</g>
	<g>
		<g style="opacity:0.4;">
			
				<linearGradient id="SVGID_00000152979522886098386710000015326392706982198962_" gradientUnits="userSpaceOnUse" x1="-1301.0483" y1="-2687.4414" x2="-1215.0483" y2="-2790.7749" gradientTransform="matrix(-0.9982 0.0595 0.0595 0.9982 -2284.9204 1084.6058)">
				<stop  offset="0" style="stop-color:#CB236D"/>
				<stop  offset="1" style="stop-color:#4C246D"/>
			</linearGradient>
			<path style="fill:url(#SVGID_00000152979522886098386710000015326392706982198962_);" d="M927.452,682.518
				c0,0,66.853,50.557,108.198,16.049c33.229-27.734-18.516-12.356-65.125-13.696c-3.658-0.105-3.73-5.529-0.076-5.73
				c35.897-1.969,90.05-8.264,95.883-28.276c8.806-30.211-3.093-18.706-44.984-6.672c-41.891,12.033-52.096,3.055-25.499-8.759
				c26.597-11.814,73.616-5.669,81.384-21.105c7.768-15.436,8.351-43.275,10.289-55.566c1.938-12.291-58.518-18.77-71.126-0.734
				c-12.608,18.036-18.794,54.147-35.98,63.771c-17.186,9.625-3.083-23.948,6.178-41.651c9.261-17.703,11.924-30.063-11.696-21.797
				c-23.62,8.265-30.87,40.366-29.25,63c1.619,22.634-4.606,36.64-6.287,25.609c-1.681-11.032-4.05-45.389,1.814-56.96
				C947.039,578.429,893.892,601.234,927.452,682.518z"/>
			<path style="opacity:0.53;fill:#FFFFFF;" d="M932.066,682.249c0.261,0.047,0.538-0.048,0.713-0.272
				c39.65-50.519,113.607-95.761,114.349-96.212c0.35-0.212,0.461-0.667,0.249-1.018c-0.212-0.348-0.667-0.46-1.017-0.247
				c-0.745,0.452-74.928,45.83-114.746,96.564c-0.252,0.321-0.196,0.786,0.125,1.039
				C931.838,682.181,931.951,682.228,932.066,682.249z"/>
		</g>
		<g>
			
				<linearGradient id="SVGID_00000160912176738831074970000009082163537215806848_" gradientUnits="userSpaceOnUse" x1="-3320.5588" y1="-222.2937" x2="-3080.6362" y2="-526.4375" gradientTransform="matrix(-0.9954 0.0955 0.0955 0.9954 -2265.1377 1232.2352)">
				<stop  offset="0" style="stop-color:#CB236D"/>
				<stop  offset="1" style="stop-color:#4C246D"/>
			</linearGradient>
			<path style="fill:url(#SVGID_00000160912176738831074970000009082163537215806848_);" d="M916.595,707.26
				c0,0,101.05-19.403,103.568-85.467c2.024-53.095-26.487,6.727-66.018,48.125c-3.102,3.249-8.107-1.144-5.286-4.641
				c27.71-34.35,66.482-88.902,53.029-110.671c-20.309-32.862-19.599-12.555-43.06,35.534
				c-23.46,48.089-40.035,50.014-28.945,16.051c11.089-33.962,55.34-71.785,47.65-91.556c-7.69-19.771-32.595-43.185-42.21-55.055
				c-9.615-11.869-65.214,37.93-59.132,64.251c6.082,26.321,33.925,61.643,28.575,85.225c-5.351,23.582-24.371-16.873-32.901-39.868
				c-8.53-22.996-17.611-35.583-29.489-7.252c-11.878,28.331,11.433,61.327,33.403,78.455c21.97,17.128,29.624,34.316,18.184,26.782
				c-11.441-7.534-44.716-33.615-50.448-48.472C837.782,603.844,814.892,671.05,916.595,707.26z"/>
			<path style="opacity:0.53;fill:#FFFFFF;" d="M920.142,702.832c0.257-0.2,0.398-0.53,0.338-0.874
				c-13.474-77.679,6.063-182.302,6.262-183.349c0.094-0.493-0.23-0.968-0.724-1.063c-0.491-0.093-0.968,0.231-1.062,0.724
				c-0.201,1.051-19.799,105.992-6.266,184c0.085,0.493,0.555,0.825,1.05,0.739C919.892,702.983,920.028,702.92,920.142,702.832z"/>
		</g>
	</g>
	<g>
		
			<linearGradient id="SVGID_00000093894216510734295690000010277931737989955237_" gradientUnits="userSpaceOnUse" x1="497.0463" y1="495.6096" x2="609.0438" y2="1275.5957" gradientTransform="matrix(0.9997 0.026 -0.026 0.9997 44.8071 8.0398)">
			<stop  offset="0" style="stop-color:#2B3582"/>
			<stop  offset="1" style="stop-color:#150E42"/>
		</linearGradient>
		<path style="fill:url(#SVGID_00000093894216510734295690000010277931737989955237_);" d="M361.253,159.334l331.382,5.646
			c18.282,0.312,33.113,14.896,33.732,33.17l16.275,480.859c0.484,14.3-10.969,26.16-25.277,26.176l-379.923,0.432
			c-13.445,0.015-24.287-11.001-24.058-24.444l8.238-483.536C321.989,176.117,339.732,158.967,361.253,159.334z"/>
		<path style="fill:#FFFFFF;" d="M393.106,698.488c-0.01,0-0.02,0-0.03,0l-42.489-1.273c-14.258-0.428-25.659-12.378-25.417-26.64
			l1.093-64.165c0.009-0.554,0.467-0.975,1.017-0.983c0.552,0.01,0.992,0.465,0.983,1.017l-1.093,64.165
			c-0.225,13.174,10.307,24.212,23.476,24.606l42.489,1.273c0.552,0.017,0.986,0.478,0.97,1.03
			C394.089,698.06,393.645,698.488,393.106,698.488z"/>
		<path style="fill:#FFFFFF;" d="M327.603,587.552c-0.006,0-0.012,0-0.018,0c-0.552-0.01-0.992-0.465-0.983-1.017l0.177-10.391
			c0.009-0.553,0.455-1.04,1.017-0.983c0.552,0.01,0.992,0.465,0.983,1.017l-0.177,10.391
			C328.593,587.115,328.147,587.552,327.603,587.552z"/>
		<g>
			
				<linearGradient id="SVGID_00000119085765818830723260000014324999709435430540_" gradientUnits="userSpaceOnUse" x1="-221.9319" y1="3782.5085" x2="164.5914" y2="3212.251" gradientTransform="matrix(0.9999 0.017 -0.017 0.9999 553.6373 -2979.7234)">
				<stop  offset="0" style="stop-color:#A737D5"/>
				<stop  offset="1" style="stop-color:#EF497A"/>
			</linearGradient>
			<path style="fill:url(#SVGID_00000119085765818830723260000014324999709435430540_);" d="M362.339,155.457
				c45.149,6.908,200.439,28.539,329.268,20.855c5.875-0.35,10.891,4.182,11.103,10.064l17.426,483.021
				c0.239,6.623-4.91,12.195-11.532,12.474c-54.166,2.28-277.227,10.863-356.573,1.183c-4.829-0.589-8.432-4.725-8.377-9.589
				l5.654-506.936C349.385,159.641,355.532,154.415,362.339,155.457z"/>
			<path style="opacity:0.6;fill:#FFFFFF;" d="M366.973,168.057c43.449,6.648,192.892,27.465,316.869,20.069
				c5.654-0.337,10.481,4.024,10.685,9.685l16.77,464.832c0.23,6.373-4.725,11.736-11.097,12.004
				c-52.127,2.194-266.788,10.454-343.145,1.138c-4.647-0.567-8.115-4.547-8.062-9.228l5.441-487.847
				C354.507,172.085,360.422,167.055,366.973,168.057z"/>
			<g style="opacity:0.6;">
				<path style="fill:#FFFFFF;" d="M678.844,228.857c2.2,0.038,3.926-1.436,3.836-3.276c-0.09-1.839-1.963-3.389-4.162-3.443
					l-279.725-6.972c-2.199-0.055-2.902,1.327-1.561,3.072l2.097,2.727c1.341,1.744,4.238,3.202,6.438,3.239L678.844,228.857z"/>
			</g>
			<g style="opacity:0.6;">
				<path style="fill:#FFFFFF;" d="M398.476,233.728c-2.199-0.055-2.902,1.327-1.561,3.071l2.097,2.728
					c1.341,1.744,4.238,3.202,6.437,3.239l273.078,4.653c2.2,0.038,3.926-1.437,3.836-3.276c-0.09-1.839-1.963-3.389-4.162-3.444
					L398.476,233.728z"/>
			</g>
			<path style="fill:#FFFFFF;" d="M443.34,403.22c-0.034,0.001-0.068,0.001-0.102,0.002l-37.301,0.214
				c-5.375,0.03-9.868-3.602-10.451-8.448l-3.76-31.243c-0.223-1.859,0.327-3.707,1.549-5.206c1.364-1.675,3.451-2.744,5.725-2.935
				l0,0c3.143-0.262,7.47-0.699,12.232-1.177c10.367-1.043,22.117-2.227,29.027-2.419c0.052-0.001,0.102-0.003,0.152-0.004
				c4.944-0.076,9.245,2.874,10.491,7.214c2.057,7.166,2.094,20.772,1.947,35.27C452.8,399.242,448.544,403.141,443.34,403.22z
				 M399.254,358.637c-1.456,0.122-2.775,0.786-3.62,1.824c-0.695,0.852-1.01,1.889-0.886,2.919l3.76,31.243
				c0.398,3.311,3.584,5.791,7.412,5.769l37.301-0.214c0.024,0,0.049-0.001,0.074-0.001c3.566-0.055,6.48-2.608,6.512-5.721
				c0.146-14.263,0.114-27.627-1.83-34.401c-0.862-2.998-4.138-5.186-7.633-5.006c-6.8,0.189-19.003,1.418-28.808,2.404
				C406.755,357.935,402.41,358.372,399.254,358.637L399.254,358.637z"/>
			<path style="opacity:0.6;fill:#FFFFFF;" d="M403.308,361.715c7.826-0.656,24.828-2.646,32.903-2.87
				c3.422-0.095,6.455,1.927,7.303,4.882c1.647,5.739,1.617,17.23,1.509,27.837c-0.032,3.177-2.91,5.756-6.471,5.777l-29.808,0.171
				c-3.666,0.021-6.747-2.431-7.138-5.681l-3.004-24.966C398.291,364.282,400.407,361.959,403.308,361.715z"/>
			<g style="opacity:0.6;">
				<path style="fill:#FFFFFF;" d="M476.519,370.254c-2.2-0.019-3.514,1.699-2.921,3.818l3.043,10.858
					c0.594,2.118,2.879,3.824,5.079,3.79l185.913-2.852c2.2-0.034,3.932-1.86,3.851-4.059l-0.22-5.914
					c-0.082-2.198-1.949-4.012-4.149-4.031L476.519,370.254z"/>
			</g>
			
				<linearGradient id="SVGID_00000073687452064596175030000006886080801051495296_" gradientUnits="userSpaceOnUse" x1="-93.8199" y1="3327.8994" x2="-284.281" y2="3652.9719" gradientTransform="matrix(0.9999 -0.0153 0.0153 0.9999 555.0074 -3118.7263)">
				<stop  offset="0" style="stop-color:#A737D5"/>
				<stop  offset="1" style="stop-color:#EF497A"/>
			</linearGradient>
			<path style="fill:url(#SVGID_00000073687452064596175030000006886080801051495296_);" d="M404.971,366.598L404.971,366.598
				c2.744-1.667,6.322-0.752,7.929,2.027l7.559,13.074c0.757,1.309,2.682,1.196,3.28-0.193l17.622-40.9
				c0.879-2.04,3.907-1.401,3.908,0.82c0.004,12.428-2.93,36.096-22.48,56.17c0,0-11.006-4.085-20.113-23.297
				C401.361,371.525,402.346,368.193,404.971,366.598z"/>
			<path style="fill:#FFFFFF;" d="M445.522,319.475c-0.034,0.001-0.068,0.001-0.103,0.002l-37.301,0.214
				c-5.375,0.03-9.868-3.602-10.451-8.449L393.908,280c-0.223-1.859,0.327-3.707,1.549-5.206c1.365-1.675,3.451-2.744,5.725-2.935
				l0,0c3.143-0.262,7.47-0.699,12.232-1.177c10.367-1.043,22.117-2.227,29.027-2.419c0.051-0.001,0.102-0.003,0.152-0.004
				c4.944-0.076,9.245,2.874,10.491,7.214c2.057,7.166,2.094,20.772,1.947,35.27C454.982,315.497,450.726,319.396,445.522,319.475z
				 M401.436,274.892c-1.456,0.122-2.775,0.786-3.62,1.824c-0.695,0.852-1.01,1.889-0.886,2.919l3.76,31.243
				c0.398,3.311,3.584,5.791,7.412,5.769l37.301-0.214c0.024,0,0.049-0.001,0.074-0.001c3.566-0.055,6.48-2.608,6.512-5.721
				c0.146-14.263,0.114-27.626-1.83-34.401c-0.862-2.998-4.138-5.186-7.633-5.006c-6.8,0.189-19.003,1.418-28.808,2.404
				C408.937,274.19,404.591,274.627,401.436,274.892L401.436,274.892z"/>
			<path style="opacity:0.6;fill:#FFFFFF;" d="M405.49,277.97c7.826-0.656,24.828-2.646,32.903-2.87
				c3.421-0.095,6.455,1.926,7.303,4.881c1.647,5.739,1.617,17.23,1.509,27.837c-0.032,3.177-2.91,5.756-6.471,5.777l-29.808,0.171
				c-3.666,0.021-6.747-2.432-7.138-5.681l-3.004-24.966C400.473,280.537,402.589,278.213,405.49,277.97z"/>
			<g style="opacity:0.6;">
				<path style="fill:#FFFFFF;" d="M478.7,286.509c-2.2-0.019-3.514,1.699-2.921,3.818l3.043,10.858
					c0.594,2.118,2.879,3.824,5.079,3.79l185.913-2.852c2.2-0.034,3.933-1.86,3.851-4.059l-0.22-5.914
					c-0.082-2.198-1.949-4.012-4.149-4.031L478.7,286.509z"/>
			</g>
			
				<linearGradient id="SVGID_00000088849741664565208420000015680610238239644048_" gradientUnits="userSpaceOnUse" x1="-90.357" y1="3244.1985" x2="-280.8182" y2="3569.271" gradientTransform="matrix(0.9999 -0.0153 0.0153 0.9999 555.0074 -3118.7263)">
				<stop  offset="0" style="stop-color:#A737D5"/>
				<stop  offset="1" style="stop-color:#EF497A"/>
			</linearGradient>
			<path style="fill:url(#SVGID_00000088849741664565208420000015680610238239644048_);" d="M407.153,282.853L407.153,282.853
				c2.744-1.667,6.322-0.752,7.929,2.027l7.559,13.074c0.757,1.309,2.682,1.196,3.28-0.193l17.622-40.9
				c0.879-2.04,3.907-1.402,3.908,0.82c0.004,12.428-2.93,36.096-22.479,56.17c0,0-11.006-4.085-20.113-23.296
				C403.542,287.78,404.528,284.447,407.153,282.853z"/>
			<path style="fill:#FFFFFF;" d="M444.566,483.154c-0.034,0-0.068,0.001-0.102,0.002l-37.301,0.214
				c-5.375,0.03-9.868-3.602-10.451-8.448l-3.759-31.241c-0.223-1.86,0.327-3.709,1.548-5.208c1.365-1.675,3.451-2.745,5.725-2.936
				l0,0c3.143-0.262,7.47-0.699,12.232-1.178c10.367-1.043,22.117-2.227,29.027-2.419c0.051-0.001,0.102-0.003,0.152-0.004
				c4.944-0.076,9.246,2.874,10.491,7.215c2.057,7.165,2.095,20.773,1.947,35.269C454.026,479.176,449.77,483.074,444.566,483.154z
				 M400.48,438.57c-1.455,0.122-2.774,0.786-3.62,1.824c-0.695,0.852-1.01,1.89-0.886,2.921l3.76,31.242
				c0.398,3.311,3.584,5.79,7.412,5.769l37.301-0.214c0.024,0,0.049-0.001,0.073-0.001c3.565-0.054,6.479-2.608,6.512-5.721
				c0.146-14.263,0.115-27.627-1.829-34.399c-0.862-3.001-4.138-5.149-7.633-5.008c-6.8,0.189-19.003,1.418-28.808,2.403
				C407.98,437.868,403.635,438.305,400.48,438.57L400.48,438.57z"/>
			<path style="opacity:0.6;fill:#FFFFFF;" d="M404.534,441.649c7.826-0.656,24.829-2.646,32.903-2.87
				c3.421-0.095,6.455,1.926,7.303,4.882c1.648,5.739,1.617,17.23,1.509,27.837c-0.032,3.177-2.91,5.756-6.471,5.777l-29.808,0.171
				c-3.666,0.021-6.747-2.431-7.138-5.681l-3.004-24.966C399.517,444.216,401.632,441.892,404.534,441.649z"/>
			<g style="opacity:0.6;">
				<path style="fill:#FFFFFF;" d="M477.745,450.187c-2.2-0.019-3.514,1.699-2.921,3.818l3.043,10.858
					c0.594,2.118,2.879,3.824,5.079,3.79l185.913-2.852c2.2-0.034,3.932-1.86,3.851-4.059l-0.22-5.914
					c-0.082-2.198-1.949-4.013-4.149-4.031L477.745,450.187z"/>
			</g>
			
				<linearGradient id="SVGID_00000179616719981991383350000008244756083059365567_" gradientUnits="userSpaceOnUse" x1="-58.9492" y1="3348.3296" x2="-249.4101" y2="3673.4014" gradientTransform="matrix(0.9999 -0.0153 0.0153 0.9999 555.0074 -3118.7263)">
				<stop  offset="0" style="stop-color:#A737D5"/>
				<stop  offset="1" style="stop-color:#EF497A"/>
			</linearGradient>
			<path style="fill:url(#SVGID_00000179616719981991383350000008244756083059365567_);" d="M406.197,446.531L406.197,446.531
				c2.744-1.667,6.322-0.752,7.929,2.027l7.558,13.074c0.757,1.309,2.682,1.196,3.28-0.193l17.622-40.9
				c0.879-2.04,3.907-1.401,3.908,0.82c0.004,12.428-2.93,36.096-22.48,56.17c0,0-11.005-4.085-20.113-23.297
				C402.586,451.458,403.572,448.126,406.197,446.531z"/>
			<path style="fill:#FFFFFF;" d="M442.251,559.963c-0.033,0.001-0.065,0.001-0.099,0.001l-37.302,0.212
				c-5.374,0.032-9.868-3.6-10.451-8.448l-3.759-31.241c-0.223-1.859,0.327-3.708,1.548-5.206c1.364-1.675,3.451-2.744,5.725-2.937
				l0,0c3.14-0.262,7.463-0.697,12.219-1.176c9.858-0.992,22.127-2.227,29.041-2.419c4.907-0.099,9.383,2.824,10.643,7.21
				c2.057,7.167,2.094,20.772,1.947,35.269C451.714,555.983,447.456,559.883,442.251,559.963z M398.167,515.378
				c-1.454,0.122-2.775,0.787-3.621,1.826c-0.695,0.853-1.009,1.89-0.885,2.919l3.759,31.241c0.398,3.311,3.585,5.792,7.411,5.769
				l37.302-0.212c3.515-0.116,6.553-2.59,6.586-5.724c0.145-14.263,0.114-27.625-1.83-34.4c-0.862-2.999-4.137-5.11-7.633-5.006
				c-6.803,0.187-19.011,1.417-28.82,2.404C405.661,514.676,401.321,515.113,398.167,515.378L398.167,515.378z"/>
			<path style="opacity:0.6;fill:#FFFFFF;" d="M402.221,518.457c7.827-0.655,24.829-2.645,32.903-2.87
				c3.422-0.095,6.455,1.926,7.303,4.881c1.647,5.739,1.617,17.23,1.509,27.837c-0.032,3.177-2.91,5.756-6.472,5.776l-29.808,0.171
				c-3.665,0.021-6.747-2.431-7.138-5.681l-3.004-24.966C397.205,521.024,399.32,518.7,402.221,518.457z"/>
			<g style="opacity:0.6;">
				<path style="fill:#FFFFFF;" d="M475.432,526.996c-2.2-0.019-3.514,1.699-2.921,3.818l3.043,10.858
					c0.594,2.118,2.879,3.824,5.079,3.79l185.913-2.851c2.2-0.034,3.932-1.86,3.851-4.058l-0.22-5.914
					c-0.082-2.198-1.949-4.012-4.149-4.031L475.432,526.996z"/>
			</g>
			
				<linearGradient id="SVGID_00000060713516779242954380000003054640138218843549_" gradientUnits="userSpaceOnUse" x1="-33.119" y1="3425.2864" x2="-283.7244" y2="3774.7019" gradientTransform="matrix(0.9999 -0.0153 0.0153 0.9999 555.0074 -3118.7263)">
				<stop  offset="0" style="stop-color:#A737D5"/>
				<stop  offset="1" style="stop-color:#EF497A"/>
			</linearGradient>
			<path style="fill:url(#SVGID_00000060713516779242954380000003054640138218843549_);" d="M403.884,523.34L403.884,523.34
				c2.744-1.667,6.322-0.752,7.929,2.027l7.559,13.074c0.757,1.309,2.681,1.195,3.279-0.193l17.623-40.9
				c0.879-2.04,3.907-1.402,3.908,0.82c0.004,12.428-2.93,36.096-22.48,56.169c0,0-11.005-4.084-20.113-23.296
				C400.274,528.267,401.26,524.935,403.884,523.34z"/>
			<path style="fill:#FFFFFF;" d="M439.231,639.181c-0.034,0-0.068,0.001-0.102,0.002l-37.301,0.214
				c-5.375,0.031-9.868-3.601-10.451-8.448l-3.759-31.243c-0.223-1.859,0.326-3.707,1.548-5.206
				c1.365-1.675,3.452-2.745,5.725-2.935l0,0c3.143-0.263,7.47-0.699,12.231-1.177c10.367-1.043,22.117-2.227,29.028-2.419
				c5.067-0.011,9.385,2.825,10.643,7.21c2.057,7.166,2.095,20.774,1.947,35.27C448.691,635.203,444.436,639.101,439.231,639.181z
				 M395.145,594.598c-1.455,0.122-2.775,0.786-3.62,1.824c-0.695,0.852-1.01,1.89-0.886,2.919l3.759,31.243
				c0.398,3.311,3.584,5.79,7.412,5.769l37.301-0.214c0.024-0.001,0.049-0.001,0.074-0.001c3.565-0.054,6.479-2.608,6.512-5.721
				c0.146-14.263,0.114-27.627-1.829-34.401c-0.862-3-4.137-5.072-7.633-5.006c-6.801,0.189-19.003,1.418-28.809,2.404
				C402.646,593.896,398.301,594.333,395.145,594.598L395.145,594.598z"/>
			<path style="opacity:0.6;fill:#FFFFFF;" d="M399.199,597.676c7.827-0.655,24.829-2.646,32.903-2.87
				c3.422-0.095,6.455,1.926,7.303,4.881c1.647,5.739,1.617,17.231,1.509,27.837c-0.033,3.177-2.91,5.756-6.472,5.777l-29.808,0.171
				c-3.666,0.021-6.747-2.432-7.138-5.681l-3.004-24.966C394.182,600.243,396.298,597.919,399.199,597.676z"/>
			<g style="opacity:0.6;">
				<path style="fill:#FFFFFF;" d="M472.41,606.215c-2.2-0.019-3.514,1.699-2.921,3.818l3.043,10.858
					c0.594,2.118,2.879,3.824,5.079,3.79l185.913-2.852c2.2-0.034,3.933-1.86,3.851-4.059l-0.22-5.914
					c-0.082-2.198-1.949-4.013-4.149-4.031L472.41,606.215z"/>
			</g>
			
				<linearGradient id="SVGID_00000069377322831817220230000013152147590739799429_" gradientUnits="userSpaceOnUse" x1="3.0661" y1="3385.231" x2="-187.3948" y2="3710.3027" gradientTransform="matrix(0.9999 -0.0153 0.0153 0.9999 555.0074 -3118.7263)">
				<stop  offset="0" style="stop-color:#A737D5"/>
				<stop  offset="1" style="stop-color:#EF497A"/>
			</linearGradient>
			<path style="fill:url(#SVGID_00000069377322831817220230000013152147590739799429_);" d="M400.862,602.559L400.862,602.559
				c2.744-1.667,6.322-0.752,7.929,2.028l7.559,13.073c0.756,1.309,2.681,1.196,3.28-0.193l17.623-40.9
				c0.879-2.04,3.907-1.402,3.908,0.82c0.004,12.428-2.93,36.096-22.48,56.17c0,0-11.005-4.085-20.113-23.296
				C397.252,607.486,398.238,604.154,400.862,602.559z"/>
		</g>
		
			<linearGradient id="SVGID_00000180367899455658977350000005815577786870496159_" gradientUnits="userSpaceOnUse" x1="543.1473" y1="26.4782" x2="390.61" y2="227.1376" gradientTransform="matrix(0.9997 0.026 -0.026 0.9997 44.8071 8.0398)">
			<stop  offset="0" style="stop-color:#2B3582"/>
			<stop  offset="1" style="stop-color:#150E42"/>
		</linearGradient>
		<path style="fill:url(#SVGID_00000180367899455658977350000005815577786870496159_);" d="M548.613,97.001
			c-11.828-8.531-22.239-8.543-29.603-6.506c-6.717,1.858-11.159,8.237-10.641,15.188l2.572,34.542l37.542,3.977
			C548.484,144.202,571.81,113.732,548.613,97.001z M531.604,124.543c-5.178-0.088-9.304-4.357-9.216-9.535
			c0.088-5.178,4.357-9.304,9.535-9.216c5.178,0.088,9.304,4.357,9.216,9.535C541.051,120.505,536.782,124.631,531.604,124.543z"/>
		<path style="fill:#FFFFFF;" d="M514.291,126.612c-0.65-0.251-1.133-0.858-1.188-1.6l-0.409-5.502
			c-0.076-1.025,0.693-1.918,1.718-1.995c1.025-0.078,1.92,0.69,1.996,1.719l0.409,5.501c0.076,1.026-0.693,1.918-1.719,1.994
			C514.815,126.752,514.54,126.708,514.291,126.612z M513.489,115.831c-0.65-0.251-1.133-0.858-1.188-1.6l-0.311-4.177
			c-0.526-7.075,4.031-13.575,10.838-15.459c4.659-1.289,9.442-1.405,14.214-0.342c0.988,0.236,1.637,1.218,1.412,2.223
			c-0.223,1.003-1.218,1.637-2.223,1.413c-4.169-0.93-8.345-0.829-12.41,0.296c-5.098,1.41-8.511,6.285-8.116,11.593l0.311,4.177
			c0.076,1.025-0.693,1.918-1.719,1.994C514.013,115.971,513.738,115.928,513.489,115.831z"/>
		
			<linearGradient id="SVGID_00000057850973780825551260000014057007864265411244_" gradientUnits="userSpaceOnUse" x1="100.9693" y1="3039.4724" x2="-51.465" y2="3239.9961" gradientTransform="matrix(0.9999 0.017 -0.017 0.9999 553.6373 -2979.7234)">
			<stop  offset="0" style="stop-color:#2B3582"/>
			<stop  offset="1" style="stop-color:#150E42"/>
		</linearGradient>
		<path style="fill:url(#SVGID_00000057850973780825551260000014057007864265411244_);" d="M459.245,161.638l0.296-17.34
			c0.102-5.986,5.145-10.695,11.123-10.388l119.479,6.133c5.302,0.272,9.528,4.534,9.755,9.838l0.715,16.678L459.245,161.638z"/>
		<path style="fill:#FFFFFF;" d="M504.202,141.109c-0.006,0-0.012,0-0.017,0l-5.141-0.087c-0.552-0.01-0.992-0.465-0.983-1.017
			c0.009-0.547,0.455-0.983,1-0.983c0.006,0,0.012,0,0.017,0l5.141,0.087c0.552,0.01,0.992,0.465,0.983,1.017
			C505.192,140.673,504.747,141.109,504.202,141.109z"/>
		<path style="fill:#FFFFFF;" d="M465.154,157.134c-0.708-0.273-1.205-0.966-1.191-1.77l0.119-7.015
			c0.049-2.88,1.216-5.568,3.288-7.571c2.072-2.002,4.799-3.079,7.68-3.03l18.901,0.323c1.023,0.021,1.848,0.865,1.83,1.895
			c-0.018,1.029-0.866,1.848-1.894,1.831l-18.901-0.323c-3.892-0.066-7.113,3.046-7.179,6.939l-0.12,7.015
			c-0.018,1.029-0.866,1.848-1.895,1.831C465.568,157.255,465.353,157.211,465.154,157.134z"/>
		
			<linearGradient id="SVGID_00000155836430879151126790000003920684386195449522_" gradientUnits="userSpaceOnUse" x1="81.7583" y1="3051.7405" x2="-23.4926" y2="3245.0027" gradientTransform="matrix(0.9999 0.017 -0.017 0.9999 553.6373 -2979.7234)">
			<stop  offset="0" style="stop-color:#2B3582"/>
			<stop  offset="1" style="stop-color:#150E42"/>
		</linearGradient>
		<path style="fill:url(#SVGID_00000155836430879151126790000003920684386195449522_);" d="M421.894,154.654l209.054,3.556
			c7.517,0.128,13.851,5.647,15.008,13.076l0.16,1.025c1.266,8.137-5.106,15.451-13.34,15.311l-214.477-3.654
			c-4.928-0.084-8.784-4.27-8.464-9.188l0.625-9.592C410.85,159.187,415.883,154.552,421.894,154.654z"/>
	</g>
	<g>
		<g>
			<g>
				
					<linearGradient id="SVGID_00000150078176518104311810000007695811964340883095_" gradientUnits="userSpaceOnUse" x1="830.6987" y1="404.1214" x2="824.698" y2="959.1762">
					<stop  offset="0" style="stop-color:#53D8FF"/>
					<stop  offset="1" style="stop-color:#3840F7"/>
				</linearGradient>
				<path style="fill:url(#SVGID_00000150078176518104311810000007695811964340883095_);" d="M719.055,457.591
					c-1.19,42.48-5.047,189.008-3.206,240.934c0.195,5.501,5.176,9.916,11.39,10.096c30.731,0.89,143.388,3.147,193.653,1.28
					c10.47-0.389,18.795-7.897,19.012-17.172c1.045-44.588,3.349-169.997-2.128-227.447c-0.656-6.883-6.759-12.365-14.523-13.052
					c-33.467-2.964-146.609-10.21-190.035-7.715C725.386,444.965,719.249,450.645,719.055,457.591z"/>
				
					<linearGradient id="SVGID_00000057847976867452678770000003187739814895036070_" gradientUnits="userSpaceOnUse" x1="812.4833" y1="557.9673" x2="833.7678" y2="469.7397">
					<stop  offset="0" style="stop-color:#2B3582"/>
					<stop  offset="1" style="stop-color:#150E42"/>
				</linearGradient>
				<path style="fill:url(#SVGID_00000057847976867452678770000003187739814895036070_);" d="M732.767,467.488
					c-1.654,9.929-6.872,42.96-5.216,55.174c0.242,1.785,5.73,3.229,12.686,3.333c28.64,0.43,126.351,1.377,168.358,0.515
					c7.564-0.155,13.5-1.724,13.908-3.666c2.129-10.129,8.241-40.886,6.654-52.963c-0.253-1.927-6.075-3.5-13.564-3.672
					c-30.983-0.713-134.813-2.41-170.509-1.911C738.383,464.391,733.053,465.769,732.767,467.488z"/>
				<path style="opacity:0.2;fill:#FFFFFF;" d="M916.108,476.114c-1.521-1.572-3.604-2.475-5.791-2.51l-160.943-2.557
					c-4.303-0.069-7.933,3.186-8.334,7.47l-3.344,35.706c-0.274,2.924,4.536,5.385,10.668,5.46l158.229,1.917
					c6.123,0.074,11.184-2.261,11.235-5.183l0.597-34.431C918.462,479.798,917.629,477.686,916.108,476.114z"/>
			</g>
			<g>
				
					<linearGradient id="SVGID_00000096031867467620023820000005943964018449616541_" gradientUnits="userSpaceOnUse" x1="734" y1="561.5" x2="771" y2="561.5">
					<stop  offset="0" style="stop-color:#2B3582"/>
					<stop  offset="1" style="stop-color:#150E42"/>
				</linearGradient>
				<path style="opacity:0.63;fill:url(#SVGID_00000096031867467620023820000005943964018449616541_);" d="M771,561.5
					c0,6.351-5.149,11.5-11.5,11.5h-14c-6.351,0-11.5-5.149-11.5-11.5l0,0c0-6.351,5.149-11.5,11.5-11.5h14
					C765.851,550,771,555.149,771,561.5L771,561.5z"/>
				
					<linearGradient id="SVGID_00000065752638199484905090000004323101544115768243_" gradientUnits="userSpaceOnUse" x1="786" y1="561.5" x2="823" y2="561.5">
					<stop  offset="0" style="stop-color:#2B3582"/>
					<stop  offset="1" style="stop-color:#150E42"/>
				</linearGradient>
				<path style="opacity:0.63;fill:url(#SVGID_00000065752638199484905090000004323101544115768243_);" d="M823,561.5
					c0,6.351-5.149,11.5-11.5,11.5h-14c-6.351,0-11.5-5.149-11.5-11.5l0,0c0-6.351,5.149-11.5,11.5-11.5h14
					C817.851,550,823,555.149,823,561.5L823,561.5z"/>
				
					<linearGradient id="SVGID_00000173874073754904746170000005858692373390858151_" gradientUnits="userSpaceOnUse" x1="836" y1="561.5" x2="873" y2="561.5">
					<stop  offset="0" style="stop-color:#2B3582"/>
					<stop  offset="1" style="stop-color:#150E42"/>
				</linearGradient>
				<path style="opacity:0.63;fill:url(#SVGID_00000173874073754904746170000005858692373390858151_);" d="M873,561.5
					c0,6.351-5.149,11.5-11.5,11.5h-14c-6.351,0-11.5-5.149-11.5-11.5l0,0c0-6.351,5.149-11.5,11.5-11.5h14
					C867.851,550,873,555.149,873,561.5L873,561.5z"/>
				
					<linearGradient id="SVGID_00000178190395077510706280000003956424568287533722_" gradientUnits="userSpaceOnUse" x1="916.8934" y1="549.066" x2="834.6527" y2="646.0364">
					<stop  offset="0" style="stop-color:#E40045"/>
					<stop  offset="1" style="stop-color:#5C0E16"/>
				</linearGradient>
				<path style="fill:url(#SVGID_00000178190395077510706280000003956424568287533722_);" d="M924,562.5
					c0,6.351-5.149,11.5-11.5,11.5h-14c-6.351,0-11.5-5.149-11.5-11.5l0,0c0-6.351,5.149-11.5,11.5-11.5h14
					C918.851,551,924,556.149,924,562.5L924,562.5z"/>
			</g>
			<g>
				
					<linearGradient id="SVGID_00000039819423770028056050000014824351297561750187_" gradientUnits="userSpaceOnUse" x1="734" y1="597.5" x2="771" y2="597.5">
					<stop  offset="0" style="stop-color:#2B3582"/>
					<stop  offset="1" style="stop-color:#150E42"/>
				</linearGradient>
				<path style="opacity:0.63;fill:url(#SVGID_00000039819423770028056050000014824351297561750187_);" d="M771,597.5
					c0,6.351-5.149,11.5-11.5,11.5h-14c-6.351,0-11.5-5.149-11.5-11.5l0,0c0-6.351,5.149-11.5,11.5-11.5h14
					C765.851,586,771,591.149,771,597.5L771,597.5z"/>
				
					<linearGradient id="SVGID_00000178898733769696970050000017979356177517105312_" gradientUnits="userSpaceOnUse" x1="786" y1="597.5" x2="823" y2="597.5">
					<stop  offset="0" style="stop-color:#2B3582"/>
					<stop  offset="1" style="stop-color:#150E42"/>
				</linearGradient>
				<path style="opacity:0.63;fill:url(#SVGID_00000178898733769696970050000017979356177517105312_);" d="M823,597.5
					c0,6.351-5.149,11.5-11.5,11.5h-14c-6.351,0-11.5-5.149-11.5-11.5l0,0c0-6.351,5.149-11.5,11.5-11.5h14
					C817.851,586,823,591.149,823,597.5L823,597.5z"/>
				
					<linearGradient id="SVGID_00000001634017154509649540000008777667657847591313_" gradientUnits="userSpaceOnUse" x1="836" y1="597.5" x2="873" y2="597.5">
					<stop  offset="0" style="stop-color:#2B3582"/>
					<stop  offset="1" style="stop-color:#150E42"/>
				</linearGradient>
				<path style="opacity:0.63;fill:url(#SVGID_00000001634017154509649540000008777667657847591313_);" d="M873,597.5
					c0,6.351-5.149,11.5-11.5,11.5h-14c-6.351,0-11.5-5.149-11.5-11.5l0,0c0-6.351,5.149-11.5,11.5-11.5h14
					C867.851,586,873,591.149,873,597.5L873,597.5z"/>
				
					<linearGradient id="SVGID_00000028322858083016904900000007409250892047701432_" gradientUnits="userSpaceOnUse" x1="888" y1="597.5" x2="925" y2="597.5">
					<stop  offset="0" style="stop-color:#2B3582"/>
					<stop  offset="1" style="stop-color:#150E42"/>
				</linearGradient>
				<path style="fill:url(#SVGID_00000028322858083016904900000007409250892047701432_);" d="M925,597.5
					c0,6.351-5.149,11.5-11.5,11.5h-14c-6.351,0-11.5-5.149-11.5-11.5l0,0c0-6.351,5.149-11.5,11.5-11.5h14
					C919.851,586,925,591.149,925,597.5L925,597.5z"/>
			</g>
			<g>
				
					<linearGradient id="SVGID_00000044860139534339443190000013213306692132373918_" gradientUnits="userSpaceOnUse" x1="734" y1="631.5" x2="771" y2="631.5">
					<stop  offset="0" style="stop-color:#2B3582"/>
					<stop  offset="1" style="stop-color:#150E42"/>
				</linearGradient>
				<path style="opacity:0.63;fill:url(#SVGID_00000044860139534339443190000013213306692132373918_);" d="M771,631.5
					c0,6.351-5.149,11.5-11.5,11.5h-14c-6.351,0-11.5-5.149-11.5-11.5l0,0c0-6.351,5.149-11.5,11.5-11.5h14
					C765.851,620,771,625.149,771,631.5L771,631.5z"/>
				
					<linearGradient id="SVGID_00000018946900798495309080000001107906633106182577_" gradientUnits="userSpaceOnUse" x1="786" y1="631.5" x2="823" y2="631.5">
					<stop  offset="0" style="stop-color:#2B3582"/>
					<stop  offset="1" style="stop-color:#150E42"/>
				</linearGradient>
				<path style="opacity:0.63;fill:url(#SVGID_00000018946900798495309080000001107906633106182577_);" d="M823,631.5
					c0,6.351-5.149,11.5-11.5,11.5h-14c-6.351,0-11.5-5.149-11.5-11.5l0,0c0-6.351,5.149-11.5,11.5-11.5h14
					C817.851,620,823,625.149,823,631.5L823,631.5z"/>
				
					<linearGradient id="SVGID_00000104667358326852408390000009121095869371290807_" gradientUnits="userSpaceOnUse" x1="836" y1="631.5" x2="873" y2="631.5">
					<stop  offset="0" style="stop-color:#2B3582"/>
					<stop  offset="1" style="stop-color:#150E42"/>
				</linearGradient>
				<path style="opacity:0.63;fill:url(#SVGID_00000104667358326852408390000009121095869371290807_);" d="M873,631.5
					c0,6.351-5.149,11.5-11.5,11.5h-14c-6.351,0-11.5-5.149-11.5-11.5l0,0c0-6.351,5.149-11.5,11.5-11.5h14
					C867.851,620,873,625.149,873,631.5L873,631.5z"/>
			</g>
			<g>
				
					<linearGradient id="SVGID_00000155112943733200135900000015930099087730475158_" gradientUnits="userSpaceOnUse" x1="734" y1="666.5" x2="771" y2="666.5">
					<stop  offset="0" style="stop-color:#2B3582"/>
					<stop  offset="1" style="stop-color:#150E42"/>
				</linearGradient>
				<path style="opacity:0.63;fill:url(#SVGID_00000155112943733200135900000015930099087730475158_);" d="M771,666.5
					c0,6.351-5.149,11.5-11.5,11.5h-14c-6.351,0-11.5-5.149-11.5-11.5l0,0c0-6.351,5.149-11.5,11.5-11.5h14
					C765.851,655,771,660.149,771,666.5L771,666.5z"/>
				
					<linearGradient id="SVGID_00000010310893218783312770000009088442731243387324_" gradientUnits="userSpaceOnUse" x1="786" y1="666.5" x2="823" y2="666.5">
					<stop  offset="0" style="stop-color:#2B3582"/>
					<stop  offset="1" style="stop-color:#150E42"/>
				</linearGradient>
				<path style="opacity:0.63;fill:url(#SVGID_00000010310893218783312770000009088442731243387324_);" d="M823,666.5
					c0,6.351-5.149,11.5-11.5,11.5h-14c-6.351,0-11.5-5.149-11.5-11.5l0,0c0-6.351,5.149-11.5,11.5-11.5h14
					C817.851,655,823,660.149,823,666.5L823,666.5z"/>
				
					<linearGradient id="SVGID_00000097469661997789243770000006641481406761684911_" gradientUnits="userSpaceOnUse" x1="836" y1="666.5" x2="873" y2="666.5">
					<stop  offset="0" style="stop-color:#2B3582"/>
					<stop  offset="1" style="stop-color:#150E42"/>
				</linearGradient>
				<path style="opacity:0.63;fill:url(#SVGID_00000097469661997789243770000006641481406761684911_);" d="M873,666.5
					c0,6.351-5.149,11.5-11.5,11.5h-14c-6.351,0-11.5-5.149-11.5-11.5l0,0c0-6.351,5.149-11.5,11.5-11.5h14
					C867.851,655,873,660.149,873,666.5L873,666.5z"/>
			</g>
			
				<linearGradient id="SVGID_00000121255878989017585730000001823259772202986661_" gradientUnits="userSpaceOnUse" x1="890" y1="649.5" x2="920" y2="649.5">
				<stop  offset="0" style="stop-color:#2B3582"/>
				<stop  offset="1" style="stop-color:#150E42"/>
			</linearGradient>
			<path style="fill:url(#SVGID_00000121255878989017585730000001823259772202986661_);" d="M920,663.443
				c0,8.039-6.517,14.557-14.557,14.557h-0.887c-8.039,0-14.556-6.517-14.556-14.557v-27.887c0-8.039,6.517-14.557,14.556-14.557
				h0.887c8.039,0,14.557,6.517,14.557,14.557V663.443z"/>
		</g>
		<g style="opacity:0.7;">
			<path style="fill:#FFFFFF;" d="M900,481.5c0,1.381-1.119,2.5-2.5,2.5h-7c-1.381,0-2.5-1.119-2.5-2.5l0,0
				c0-1.381,1.119-2.5,2.5-2.5h7C898.881,479,900,480.119,900,481.5L900,481.5z"/>
			<path style="fill:#FFFFFF;" d="M900,515.5c0,1.381-1.119,2.5-2.5,2.5h-7c-1.381,0-2.5-1.119-2.5-2.5l0,0
				c0-1.381,1.119-2.5,2.5-2.5h7C898.881,513,900,514.119,900,515.5L900,515.5z"/>
			<path style="fill:#FFFFFF;" d="M889,495.5c0,1.381-1.119,2.5-2.5,2.5l0,0c-1.381,0-2.5-1.119-2.5-2.5v-7
				c0-1.381,1.119-2.5,2.5-2.5l0,0c1.381,0,2.5,1.119,2.5,2.5V495.5z"/>
			<path style="fill:#FFFFFF;" d="M889,509.5c0,1.381-1.119,2.5-2.5,2.5l0,0c-1.381,0-2.5-1.119-2.5-2.5v-7
				c0-1.381,1.119-2.5,2.5-2.5l0,0c1.381,0,2.5,1.119,2.5,2.5V509.5z"/>
			<path style="fill:#FFFFFF;" d="M906,495.5c0,1.381-1.119,2.5-2.5,2.5l0,0c-1.381,0-2.5-1.119-2.5-2.5v-7
				c0-1.381,1.119-2.5,2.5-2.5l0,0c1.381,0,2.5,1.119,2.5,2.5V495.5z"/>
			<path style="fill:#FFFFFF;" d="M906,509.5c0,1.381-1.119,2.5-2.5,2.5l0,0c-1.381,0-2.5-1.119-2.5-2.5v-7
				c0-1.381,1.119-2.5,2.5-2.5l0,0c1.381,0,2.5,1.119,2.5,2.5V509.5z"/>
		</g>
	</g>
	<g>
		
			<linearGradient id="SVGID_00000174564442099861185080000000708235602143740320_" gradientUnits="userSpaceOnUse" x1="-5354.5771" y1="540.5721" x2="-5323.8188" y2="540.5721" gradientTransform="matrix(1 0 0 1 5585.3584 0)">
			<stop  offset="0" style="stop-color:#F9B776"/>
			<stop  offset="1" style="stop-color:#F47960"/>
		</linearGradient>
		<path style="fill:url(#SVGID_00000174564442099861185080000000708235602143740320_);" d="M241.852,524.72
			c-3.155,3.368-7.801,6.278-11.071,8.093c4.883,6.035,11.489,12.079,20.235,17.994l2.503,5.617l8.02-9.612
			C261.539,546.812,247.149,539.651,241.852,524.72z"/>
		
			<linearGradient id="SVGID_00000033348784578542633020000017701814970598001809_" gradientUnits="userSpaceOnUse" x1="-5323.6499" y1="698.8162" x2="-5300.5859" y2="698.8162" gradientTransform="matrix(1 0 0 1 5585.3584 0)">
			<stop  offset="0" style="stop-color:#A737D5"/>
			<stop  offset="1" style="stop-color:#EF497A"/>
		</linearGradient>
		<path style="fill:url(#SVGID_00000033348784578542633020000017701814970598001809_);" d="M284.772,707.028
			c0.003-0.172-0.009-0.346-0.053-0.521c-2.598-10.299-15.491-16.713-15.491-16.713l-5.109,0.4
			c-2.938,9.077-2.56,14.644-2.088,17.124c0.013,0.07,0.034,0.136,0.052,0.203C266.298,707.898,274.973,708.144,284.772,707.028z"/>
		
			<linearGradient id="SVGID_00000119110123646151758630000018044588544119371660_" gradientUnits="userSpaceOnUse" x1="-5265.9111" y1="671.6074" x2="-5349.8179" y2="737.4913" gradientTransform="matrix(1 0 0 1 5585.3584 0)">
			<stop  offset="0" style="stop-color:#53D8FF"/>
			<stop  offset="1" style="stop-color:#3840F7"/>
		</linearGradient>
		<path style="fill:url(#SVGID_00000119110123646151758630000018044588544119371660_);" d="M262.084,707.521
			c0.228,0.828,0.839,1.473,1.621,1.637c5.995,1.261,15.524,0.246,19.524-0.277c0.883-0.115,1.528-0.932,1.543-1.853
			C274.973,708.144,266.298,707.898,262.084,707.521z"/>
		
			<linearGradient id="SVGID_00000101096889467411827200000007444200145359516064_" gradientUnits="userSpaceOnUse" x1="-5317.2363" y1="672.5591" x2="-5321.6416" y2="711.0079" gradientTransform="matrix(1 0 0 1 5585.3584 0)">
			<stop  offset="0" style="stop-color:#F9B776"/>
			<stop  offset="1" style="stop-color:#F47960"/>
		</linearGradient>
		<path style="fill:url(#SVGID_00000101096889467411827200000007444200145359516064_);" d="M262.065,682.585l2.164,10.417
			c0.159,0.763,0.745,1.335,1.456,1.401c0.87,0.082,2.107,0.13,3.352-0.053c1.116-0.164,1.894-1.299,1.696-2.516l-1.504-9.249
			H262.065z"/>
		
			<linearGradient id="SVGID_00000037694366329771265720000003590918993278962077_" gradientUnits="userSpaceOnUse" x1="-5251.0054" y1="690.5904" x2="-5334.9121" y2="756.4742" gradientTransform="matrix(1 0 0 1 5585.3584 0)">
			<stop  offset="0" style="stop-color:#53D8FF"/>
			<stop  offset="1" style="stop-color:#3840F7"/>
		</linearGradient>
		<path style="fill:url(#SVGID_00000037694366329771265720000003590918993278962077_);" d="M306.898,707.417
			c-5.643-0.158-8.561-0.823-10.07-1.439c-0.004,0.561,0,1.132,0.018,1.724c0.02,0.632,0.487,1.137,1.063,1.133l30.981-0.2
			c0.989-0.007,1.566-1.153,1.138-2.06C325.966,706.91,315.62,707.661,306.898,707.417z"/>
		
			<linearGradient id="SVGID_00000013877560661818482950000002216999930873021869_" gradientUnits="userSpaceOnUse" x1="-5288.5298" y1="699.4296" x2="-5255.3301" y2="699.4296" gradientTransform="matrix(1 0 0 1 5585.3584 0)">
			<stop  offset="0" style="stop-color:#A737D5"/>
			<stop  offset="1" style="stop-color:#EF497A"/>
		</linearGradient>
		<path style="fill:url(#SVGID_00000013877560661818482950000002216999930873021869_);" d="M330.028,706.574
			c-0.037-0.079-0.069-0.159-0.123-0.234c-2.736-3.823-9.705-11.436-23.475-14.737l-6.606-0.209c0,0-2.941,5.113-2.997,14.583
			c1.509,0.617,4.427,1.281,10.07,1.439C315.62,707.661,325.966,706.91,330.028,706.574z"/>
		
			<linearGradient id="SVGID_00000128450336711837076560000002990723132608066970_" gradientUnits="userSpaceOnUse" x1="-5281.3496" y1="676.6711" x2="-5285.7549" y2="715.1198" gradientTransform="matrix(1 0 0 1 5585.3584 0)">
			<stop  offset="0" style="stop-color:#F9B776"/>
			<stop  offset="1" style="stop-color:#F47960"/>
		</linearGradient>
		<path style="fill:url(#SVGID_00000128450336711837076560000002990723132608066970_);" d="M298.6,681.383
			c0.073,0.492,0.979,7.976,1.329,10.878c0.083,0.689,0.583,1.223,1.212,1.298c1.125,0.134,2.945,0.257,4.538-0.07
			c0.859-0.176,1.481-1.001,1.481-1.961v-11.747L298.6,681.383z"/>
		
			<linearGradient id="SVGID_00000104669551334488552190000013022050094287345836_" gradientUnits="userSpaceOnUse" x1="-5229.0034" y1="500.8513" x2="-5369.9102" y2="719.4998" gradientTransform="matrix(1 0 0 1 5585.3584 0)">
			<stop  offset="0" style="stop-color:#7C27DD"/>
			<stop  offset="1" style="stop-color:#2B41D9"/>
		</linearGradient>
		<path style="fill:url(#SVGID_00000104669551334488552190000013022050094287345836_);" d="M293.301,544.81
			c0,0,15.933,60.55,15.645,136.747c-0.005,1.389-0.981,2.588-2.34,2.875c-2.003,0.422-4.948,0.923-7.386,0.854
			c-1.301-0.036-2.389-1.002-2.608-2.285c-2.234-13.101-15.055-86.906-22.359-98.888c0,0-4.806,65.734-3.27,99.838
			c0.038,0.848-0.583,1.583-1.426,1.681c-1.279,0.148-3.325,0.26-5.93-0.016c-0.988-0.105-1.786-0.852-1.927-1.836
			c-1.591-11.088-10.75-77.087-10.361-124.63c0.022-2.681,7.09-14.339,7.09-14.339H293.301z"/>
		
			<linearGradient id="SVGID_00000105424515033573732560000009704522696547201696_" gradientUnits="userSpaceOnUse" x1="-6083.2261" y1="457.8756" x2="-6105.8535" y2="679.4327" gradientTransform="matrix(1 0 0 1 6353.127 0)">
			<stop  offset="0" style="stop-color:#53D8FF"/>
			<stop  offset="1" style="stop-color:#3840F7"/>
		</linearGradient>
		<path style="fill:url(#SVGID_00000105424515033573732560000009704522696547201696_);" d="M315.459,471.529
			c-2.586-3.241-4.851-6.716-6.746-10.296c-2.647-5-0.213,3.237-0.936-2.41c-19.819-14.302-49.662-7.063-61.205-5.609
			c-3.785,0.477-7.247,2.343-9.741,5.23c-9.892,11.447-31.598,42.788-6.049,74.368c3.269-1.815,7.915-4.725,11.071-8.093
			c-2.827-7.968-3.058-18.15,2.866-30.637c0.202,0.99,0.453,1.969,0.757,2.934c8.165,25.866,8.6,47.391,8.582,52.351
			c-0.003,0.674,0.402,1.28,1.027,1.531c10.745,4.306,31.43,1.743,38.374,0.709c1.273-0.19,2.13-1.375,1.954-2.65
			c-3.408-24.689,14.081-65.303,18.701-75.475C314.444,472.75,314.904,472.092,315.459,471.529z"/>
		
			<linearGradient id="SVGID_00000142867954648359698180000015842356498294207633_" gradientUnits="userSpaceOnUse" x1="-5307.5034" y1="426.7655" x2="-5324.3247" y2="499.4578" gradientTransform="matrix(1 0 0 1 5585.3584 0)">
			<stop  offset="0" style="stop-color:#F9B776"/>
			<stop  offset="1" style="stop-color:#F47960"/>
		</linearGradient>
		<path style="fill:url(#SVGID_00000142867954648359698180000015842356498294207633_);" d="M265.144,432.426l-2.071,21.159
			c0,0,11.903,3.585,20.56-2.523l-6.086-19.23L265.144,432.426z"/>
		<g>
			
				<linearGradient id="SVGID_00000127025279941725197020000004175726096100144299_" gradientUnits="userSpaceOnUse" x1="-5360.5298" y1="-5015.4448" x2="-5390.373" y2="-4975.9644" gradientTransform="matrix(0.6854 -0.7281 0.7281 0.6854 7600.9199 -52.7232)">
				<stop  offset="0" style="stop-color:#F9B776"/>
				<stop  offset="1" style="stop-color:#F47960"/>
			</linearGradient>
			<path style="fill:url(#SVGID_00000127025279941725197020000004175726096100144299_);" d="M278.956,408.31
				c0.286,0.27,12.09,23.45,12.09,23.45l-13.379,6.458l-14.452-20.308C263.216,417.911,274.16,403.796,278.956,408.31z"/>
			
				<linearGradient id="SVGID_00000171687005799642904810000017651154873846239654_" gradientUnits="userSpaceOnUse" x1="-5383.3218" y1="-5005.9639" x2="-5347.6733" y2="-5005.9639" gradientTransform="matrix(0.6854 -0.7281 0.7281 0.6854 7600.9199 -52.7232)">
				<stop  offset="0" style="stop-color:#2B3582"/>
				<stop  offset="1" style="stop-color:#150E42"/>
			</linearGradient>
			<path style="fill:url(#SVGID_00000171687005799642904810000017651154873846239654_);" d="M269.135,418.473
				c-0.239,0.617-0.18,1.307,0.16,1.874l6.672,11.123c0.101,0.169,0.222,0.321,0.366,0.456c0.794,0.739,3.512,2.89,5.613-0.038
				c1.791-2.495,3.471-4.764,5.271-5.7c1.051-0.547,2.345-0.11,2.879,0.948c1.099,2.179,3.229,6.621,4.567,10.833
				c0.335,1.056-0.21,2.189-1.236,2.605c-2.709,1.098-8.063,3.082-12.814,3.738c-0.78,0.108-1.553-0.221-2.018-0.858
				c-2.044-2.8-7.805-10.626-9.772-12.585c-1.827-1.82-5.198-1.134-6.717-0.697c-0.577,0.166-1.191,0.086-1.705-0.224
				c-1.542-0.928-4.231-3.24-1.771-7.155c0.612-0.973,0.3-2.27-0.661-2.901c-1.721-1.132-3.588-3.257-1.809-6.698
				c1.801-3.484,5.017-3.796,7.208-3.529c0.969,0.119,1.953-0.39,2.325-1.293c0.165-0.402,0.492-0.744,1.101-0.867
				c1.148-0.233,1.902-1.283,1.676-2.432c-0.386-1.971-0.095-4.532,3.052-6.263c5.773-3.174,10.829,1.998,12.115,6.363
				c1.286,4.366-5.168,7.451-9.228,7.965C271.428,413.517,269.793,416.772,269.135,418.473z"/>
			
				<linearGradient id="SVGID_00000182510243806782120650000004418951594675147143_" gradientUnits="userSpaceOnUse" x1="-5404.2388" y1="-4984.1797" x2="-5380.3018" y2="-5008.7378" gradientTransform="matrix(0.6854 -0.7281 0.7281 0.6854 7600.9199 -52.7232)">
				<stop  offset="0" style="stop-color:#F9B776"/>
				<stop  offset="1" style="stop-color:#F47960"/>
			</linearGradient>
			<path style="fill:url(#SVGID_00000182510243806782120650000004418951594675147143_);" d="M271.33,434.954
				c0,0-2.567-7.511-5.852-7.235c-3.286,0.276-5.872,3.549-1.8,7.229C268.743,439.524,271.33,434.954,271.33,434.954z"/>
		</g>
		
			<linearGradient id="SVGID_00000003807963067315816390000012834245785675982234_" gradientUnits="userSpaceOnUse" x1="-5321.6694" y1="440.4611" x2="-5356.4912" y2="504.4362" gradientTransform="matrix(1 0 0 1 5585.3584 0)">
			<stop  offset="0" style="stop-color:#53D8FF"/>
			<stop  offset="1" style="stop-color:#3840F7"/>
		</linearGradient>
		<path style="fill:url(#SVGID_00000003807963067315816390000012834245785675982234_);" d="M243.634,492.149
			c-4.331-11.853-2.76-26.165-2.743-26.308l1.193,0.136c-0.016,0.141-1.553,14.178,2.679,25.759L243.634,492.149z"/>
		
			<linearGradient id="SVGID_00000067937566587234967440000014475316904699314346_" gradientUnits="userSpaceOnUse" x1="-5308.0273" y1="559.5609" x2="-5319.8423" y2="580.588" gradientTransform="matrix(1 0 0 1 5585.3584 0)">
			<stop  offset="0" style="stop-color:#2B3582"/>
			<stop  offset="1" style="stop-color:#150E42"/>
		</linearGradient>
		<path style="fill:url(#SVGID_00000067937566587234967440000014475316904699314346_);" d="M273.667,582.569
			c-0.267,0-0.511-0.179-0.581-0.45c-1.321-5.096-11.215-10.696-11.315-10.752c-0.289-0.162-0.393-0.528-0.23-0.818
			c0.162-0.289,0.527-0.393,0.818-0.23c0.425,0.239,10.441,5.908,11.89,11.499c0.083,0.321-0.11,0.649-0.431,0.732
			C273.767,582.563,273.716,582.569,273.667,582.569z"/>
		<g>
			
				<linearGradient id="SVGID_00000052787016129697207070000001606780498854955706_" gradientUnits="userSpaceOnUse" x1="-6031.6709" y1="462.7945" x2="-6055.8916" y2="699.9554" gradientTransform="matrix(1 0 0 1 6353.127 0)">
				<stop  offset="0" style="stop-color:#53D8FF"/>
				<stop  offset="1" style="stop-color:#3840F7"/>
			</linearGradient>
			<path style="fill:url(#SVGID_00000052787016129697207070000001606780498854955706_);" d="M355.688,478.183
				c-22.415,3.363-37.025-10.78-47.911-19.36c-14.373-11.327-25.558-5.816-25.558-5.816l15.328,29.254
				c22.891,21.583,46.361,16.79,61.157,9.796C358.932,486.407,357.422,481.678,355.688,478.183z"/>
			
				<linearGradient id="SVGID_00000129174740505239312660000011263185649849836467_" gradientUnits="userSpaceOnUse" x1="-5943.1602" y1="424.9894" x2="-6046.0977" y2="556.6893" gradientTransform="matrix(1 0 0 1 6353.127 0)">
				<stop  offset="0" style="stop-color:#F9B776"/>
				<stop  offset="1" style="stop-color:#F47960"/>
			</linearGradient>
			<path style="fill:url(#SVGID_00000129174740505239312660000011263185649849836467_);" d="M387.193,464.81l-7.433,4
				c-8.915,5.428-16.892,8.296-24.071,9.373c1.733,3.495,3.243,8.223,3.015,13.874c9.419-4.452,15.324-9.796,15.324-9.796
				C390.867,472.22,387.193,464.81,387.193,464.81z"/>
		</g>
		
			<linearGradient id="SVGID_00000031900538514832438570000014451978183247743157_" gradientUnits="userSpaceOnUse" x1="-5929.3833" y1="435.7567" x2="-6032.3218" y2="567.457" gradientTransform="matrix(1 0 0 1 6353.127 0)">
			<stop  offset="0" style="stop-color:#F9B776"/>
			<stop  offset="1" style="stop-color:#F47960"/>
		</linearGradient>
		<path style="fill:url(#SVGID_00000031900538514832438570000014451978183247743157_);" d="M409.091,475.285
			c-0.48-1.595-1.659-2.886-3.205-3.507l-15.086-6.067c0,0-0.228-1.935,3.187-3.249c3.415-1.315,2.617-5.14,2.617-5.14
			s-4.666,2.128-11.496,5.504c-3.906,1.931-6.098,5.339-7.26,7.905l3.883,5.107c9.298,2.793,18.706,3.327,28.194,2.219
			L409.091,475.285z"/>
	</g>
	<g>
		<g>
			
				<linearGradient id="SVGID_00000060726313564963646170000009465395930030270378_" gradientUnits="userSpaceOnUse" x1="-3538.6501" y1="5411.7407" x2="-3699.6108" y2="5623.1577" gradientTransform="matrix(-0.4034 -0.915 0.915 -0.4034 -5643.835 -787.3131)">
				<stop  offset="0" style="stop-color:#2B3582"/>
				<stop  offset="1" style="stop-color:#150E42"/>
			</linearGradient>
			<path style="fill:url(#SVGID_00000060726313564963646170000009465395930030270378_);" d="M794.865,380.447
				c-6.034,2.66-13.082-0.075-15.742-6.109l-40.963-92.911c-2.26-5.126-0.107-11.123,4.898-13.641l131.68-66.247
				c3.916-1.97,8.685-0.307,10.526,3.672l48.885,105.635c1.73,3.738,0.057,8.168-3.712,9.83L794.865,380.447z"/>
			<g>
				
					<linearGradient id="SVGID_00000178189998780566974960000013514855405651757204_" gradientUnits="userSpaceOnUse" x1="16244.8027" y1="-2116.095" x2="16019.2363" y2="-2029.6711" gradientTransform="matrix(-0.4034 -0.915 0.915 -0.4034 -5643.835 -787.3131)">
					<stop  offset="0" style="stop-color:#A737D5"/>
					<stop  offset="1" style="stop-color:#EF497A"/>
				</linearGradient>
				<path style="fill:url(#SVGID_00000178189998780566974960000013514855405651757204_);" d="M782.657,376.738
					c-1.925,0.862-4.168-0.177-4.753-2.204c-3.873-13.446-17.788-59.423-36.461-94.275c-0.851-1.589-0.234-3.566,1.375-4.38
					l132.134-66.845c1.812-0.917,4.023-0.2,4.95,1.607c7.587,14.775,38.605,75.727,46.096,99.042
					c0.456,1.419-0.232,2.952-1.592,3.561L782.657,376.738z"/>
				<path style="opacity:0.6;fill:#FFFFFF;" d="M785.389,373.748c-1.853,0.83-4.011-0.17-4.573-2.121
					c-3.728-12.94-17.118-57.185-35.088-90.725c-0.82-1.53-0.226-3.432,1.322-4.215l127.158-64.328
					c1.744-0.882,3.871-0.192,4.764,1.546c7.301,14.219,37.151,72.875,44.361,95.313c0.439,1.366-0.223,2.841-1.532,3.427
					L785.389,373.748z"/>
			</g>
			
				<linearGradient id="SVGID_00000043445598785256314410000014598502001587228068_" gradientUnits="userSpaceOnUse" x1="1218.1228" y1="-208.5583" x2="1187.6571" y2="-149.4549" gradientTransform="matrix(0.915 -0.4034 0.4034 0.915 -270.8328 909.5185)">
				<stop  offset="0" style="stop-color:#FDF53F"/>
				<stop  offset="1" style="stop-color:#D93C65"/>
			</linearGradient>
			<path style="fill:url(#SVGID_00000043445598785256314410000014598502001587228068_);" d="M762.989,276.574l-1.238,0.546
				c-1.346,0.593-2.919-0.017-3.513-1.363l-7.982-18.105c-0.433-0.983-0.234-2.129,0.505-2.909l2.119-2.234
				c1.366-1.44,3.77-0.934,4.44,0.934l7.101,19.793C764.894,274.552,764.268,276.01,762.989,276.574z"/>
			
				<linearGradient id="SVGID_00000052090715351415888020000011602430629370232507_" gradientUnits="userSpaceOnUse" x1="1245.8923" y1="-210.0401" x2="1215.4269" y2="-150.9372" gradientTransform="matrix(0.915 -0.4034 0.4034 0.915 -270.8328 909.5185)">
				<stop  offset="0" style="stop-color:#FDF53F"/>
				<stop  offset="1" style="stop-color:#D93C65"/>
			</linearGradient>
			<path style="fill:url(#SVGID_00000052090715351415888020000011602430629370232507_);" d="M787.8,264.015l-1.238,0.546
				c-1.346,0.594-2.919-0.016-3.513-1.363l-7.982-18.105c-0.433-0.983-0.234-2.129,0.505-2.909l2.119-2.234
				c1.366-1.44,3.77-0.934,4.441,0.934l7.101,19.794C789.705,261.994,789.08,263.452,787.8,264.015z"/>
			
				<linearGradient id="SVGID_00000152950854512607912070000008989676327388698278_" gradientUnits="userSpaceOnUse" x1="1282.9187" y1="-210.0407" x2="1252.4531" y2="-150.9376" gradientTransform="matrix(0.915 -0.4034 0.4034 0.915 -270.8328 909.5185)">
				<stop  offset="0" style="stop-color:#FDF53F"/>
				<stop  offset="1" style="stop-color:#D93C65"/>
			</linearGradient>
			<path style="fill:url(#SVGID_00000152950854512607912070000008989676327388698278_);" d="M821.679,249.079l-1.238,0.546
				c-1.346,0.594-2.919-0.017-3.513-1.363l-7.982-18.105c-0.434-0.983-0.234-2.13,0.505-2.909l2.119-2.234
				c1.366-1.44,3.771-0.934,4.441,0.934l7.101,19.793C823.584,247.057,822.958,248.515,821.679,249.079z"/>
			
				<linearGradient id="SVGID_00000130614411610534475630000014662411477321973893_" gradientUnits="userSpaceOnUse" x1="1319.9448" y1="-212.0436" x2="1289.4791" y2="-152.9402" gradientTransform="matrix(0.915 -0.4034 0.4034 0.915 -270.8328 909.5185)">
				<stop  offset="0" style="stop-color:#FDF53F"/>
				<stop  offset="1" style="stop-color:#D93C65"/>
			</linearGradient>
			<path style="fill:url(#SVGID_00000130614411610534475630000014662411477321973893_);" d="M854.75,232.31l-1.238,0.546
				c-1.346,0.594-2.919-0.017-3.513-1.363l-7.982-18.105c-0.433-0.983-0.234-2.129,0.505-2.909l2.119-2.234
				c1.366-1.44,3.77-0.934,4.44,0.934l7.101,19.793C856.655,230.289,856.029,231.746,854.75,232.31z"/>
			<path style="opacity:0.72;fill:#FFFFFF;" d="M830.891,264.212l4.139,9.388c0.632,1.433,2.315,2.071,3.737,1.417l9.56-4.394
				c1.392-0.64,2.013-2.278,1.395-3.68l-4.352-9.87c-0.654-1.483-2.426-2.105-3.863-1.355l-9.348,4.876
				C830.85,261.277,830.295,262.86,830.891,264.212z"/>
			<path style="opacity:0.72;fill:#FFFFFF;" d="M803.065,291.576l9.56-4.394c1.392-0.64,2.013-2.278,1.395-3.68l-3.701-8.394
				c-0.65-1.475-2.407-2.1-3.842-1.366l-9.384,4.794c-1.324,0.676-1.89,2.268-1.29,3.629l3.525,7.994
				C799.959,291.592,801.642,292.23,803.065,291.576z"/>
			<path style="opacity:0.72;fill:#FFFFFF;" d="M830.734,329.087l-9.111,4.143c-1.526,0.694-2.21,2.487-1.534,4.021l3.782,8.578
				c0.672,1.524,2.438,2.231,3.976,1.591l9.243-3.844c1.584-0.659,2.317-2.491,1.625-4.061l-3.913-8.877
				C834.114,329.079,832.286,328.382,830.734,329.087z"/>
			<path style="opacity:0.72;fill:#FFFFFF;" d="M820.567,347.122l-3.698-8.387c-0.676-1.533-2.473-2.218-3.998-1.525l-9.207,4.186
				c-1.5,0.682-2.172,2.444-1.508,3.952l3.565,8.085c0.66,1.497,2.397,2.192,3.908,1.564l9.34-3.885
				C820.527,350.465,821.247,348.664,820.567,347.122z"/>
			<path style="opacity:0.72;fill:#FFFFFF;" d="M803.873,309.257l-3.036-6.885c-0.733-1.663-2.691-2.396-4.336-1.625l-8.745,4.098
				c-1.593,0.746-2.298,2.628-1.588,4.237l2.901,6.58c0.716,1.623,2.603,2.368,4.234,1.671l8.88-3.793
				C803.84,312.832,804.6,310.907,803.873,309.257z"/>
			<path style="opacity:0.72;fill:#FFFFFF;" d="M812.694,329.265l-4.643-10.531c-0.665-1.508-2.419-2.2-3.934-1.553l-9.088,3.882
				c-1.658,0.708-2.417,2.634-1.69,4.283l4.682,10.621c0.68,1.543,2.496,2.225,4.024,1.513l9.168-4.275
				C812.696,332.513,813.354,330.763,812.694,329.265z"/>
			<path style="opacity:0.72;fill:#FFFFFF;" d="M820.944,283.359l9.56-4.394c1.392-0.64,2.013-2.278,1.395-3.68l-4.032-9.144
				c-0.65-1.475-2.407-2.099-3.842-1.366l-9.384,4.794c-1.324,0.677-1.89,2.269-1.29,3.629l3.855,8.743
				C817.838,283.375,819.521,284.013,820.944,283.359z"/>
			<path style="opacity:0.72;fill:#FFFFFF;" d="M830.509,320.901l-4.342-9.849c-0.676-1.534-2.461-2.238-4.003-1.58l-9.204,3.932
				c-1.567,0.67-2.286,2.49-1.598,4.049l4.474,10.148c0.692,1.57,2.539,2.264,4.094,1.539l9.073-4.231
				C830.511,324.206,831.18,322.425,830.509,320.901z"/>
			<path style="opacity:0.72;fill:#FFFFFF;" d="M832.99,283.647l-10.404,4.876c-1.142,0.535-1.648,1.884-1.139,3.038l4.175,9.471
				c0.513,1.164,1.867,1.698,3.036,1.198l10.564-4.513c1.189-0.508,1.734-1.888,1.212-3.071l-4.336-9.833
				C835.574,283.62,834.17,283.093,832.99,283.647z"/>
			<path style="opacity:0.72;fill:#FFFFFF;" d="M839.502,283.742l3.977,9.019c0.645,1.463,2.346,2.134,3.816,1.506l9.467-4.045
				c1.494-0.638,2.179-2.374,1.524-3.86l-4.12-9.345c-0.661-1.499-2.425-2.16-3.908-1.465l-9.324,4.37
				C839.498,280.596,838.863,282.292,839.502,283.742z"/>
			<path style="opacity:0.72;fill:#FFFFFF;" d="M810.565,309.959l10.564-4.513c1.188-0.508,1.734-1.889,1.212-3.071l-4.062-9.212
				c-0.525-1.192-1.929-1.719-3.109-1.166l-10.404,4.876c-1.142,0.535-1.648,1.885-1.139,3.038l3.901,8.849
				C808.042,309.925,809.395,310.459,810.565,309.959z"/>
			<path style="opacity:0.72;fill:#FFFFFF;" d="M840.257,301.742l-9.204,3.932c-1.567,0.669-2.286,2.49-1.598,4.049l4.215,9.561
				c0.692,1.57,2.539,2.264,4.094,1.539l9.073-4.231c1.509-0.704,2.179-2.485,1.507-4.009l-4.084-9.262
				C843.584,301.788,841.799,301.083,840.257,301.742z"/>
			<path style="opacity:0.72;fill:#FFFFFF;" d="M858.67,293.876l-9.849,4.207c-1.388,0.593-2.024,2.205-1.415,3.586l4.243,9.625
				c0.613,1.39,2.249,2.005,3.626,1.363l9.708-4.527c1.336-0.623,1.93-2.201,1.335-3.55l-4.103-9.306
				C861.615,293.917,860.035,293.293,858.67,293.876z"/>
			<path style="opacity:0.72;fill:#FFFFFF;" d="M786.465,299.056l7.256-3.335c1.93-0.887,2.791-3.159,1.934-5.102l-2.659-6.03
				c-0.803-1.822-2.973-2.593-4.747-1.688l-7.919,4.046c-1.797,0.918-2.565,3.079-1.751,4.925l2.22,5.036
				C781.758,299.08,784.308,300.047,786.465,299.056z"/>
			<path style="opacity:0.72;fill:#FFFFFF;" d="M799.051,347.091c-0.727-1.649-2.661-2.387-4.302-1.641l-3.167,1.44
				c-2.407,1.094-3.627,3.592-2.739,5.606l2.57,5.829c0.881,1.998,3.514,2.788,5.935,1.781l3.451-1.435
				c1.557-0.647,2.278-2.448,1.597-3.991L799.051,347.091z"/>
			<path style="opacity:0.72;fill:#FFFFFF;" d="M899.499,297.82l-6.228,2.832c-1.528,0.695-2.212,2.489-1.535,4.024l4.815,10.922
				c0.672,1.525,2.44,2.233,3.979,1.593l6.294-2.618c2.509-1.044,3.826-3.611,2.913-5.682l-4.129-9.366
				C904.702,297.471,901.953,296.704,899.499,297.82z"/>
			<path style="opacity:0.72;fill:#FFFFFF;" d="M790.097,343.052l3.078-1.435c1.596-0.744,2.304-2.628,1.594-4.24l-4.72-10.705
				c-0.715-1.623-2.603-2.368-4.234-1.671l-3.145,1.343c-2.479,1.059-3.767,3.606-2.861,5.66l4.129,9.366
				C784.851,343.441,787.634,344.201,790.097,343.052z"/>
			<path style="opacity:0.72;fill:#FFFFFF;" d="M780.889,322.637l3.933-1.68c1.253-0.535,1.828-1.992,1.278-3.239l-3.409-7.732
				c-0.554-1.258-2.035-1.813-3.279-1.229l-3.909,1.832c-2.37,1.111-3.558,3.583-2.678,5.578l2.077,4.712
				C775.791,322.892,778.458,323.676,780.889,322.637z"/>
			<path style="opacity:0.72;fill:#FFFFFF;" d="M873.442,239.374l-6.113,3.123c-1.377,0.704-1.966,2.36-1.342,3.775l4.756,10.788
				c0.657,1.491,2.408,2.155,3.888,1.474l6.419-2.95c2.394-1.1,3.603-3.589,2.718-5.596l-3.979-9.024
				C878.848,238.831,875.934,238.1,873.442,239.374z"/>
			<path style="opacity:0.72;fill:#FFFFFF;" d="M848.646,320.943l-9.111,4.143c-1.526,0.694-2.21,2.487-1.534,4.021l4.041,9.165
				c0.672,1.524,2.438,2.231,3.976,1.591l9.243-3.844c1.584-0.659,2.317-2.491,1.625-4.061l-4.172-9.464
				C852.026,320.935,850.197,320.237,848.646,320.943z"/>
			<path style="opacity:0.72;fill:#FFFFFF;" d="M882.87,260.269l-6.297,2.951c-1.435,0.673-2.071,2.368-1.431,3.819l4.525,10.263
				c0.645,1.462,2.346,2.134,3.816,1.506l6.424-2.744c2.479-1.059,3.767-3.606,2.861-5.66l-3.728-8.457
				C888.125,259.873,885.335,259.114,882.87,260.269z"/>
			<path style="opacity:0.72;fill:#FFFFFF;" d="M891.687,279.771l-6.678,2.853c-1.388,0.593-2.024,2.205-1.415,3.586l3.726,8.451
				c0.613,1.39,2.248,2.005,3.625,1.363l6.609-3.082c2.376-1.108,3.569-3.585,2.689-5.583l-2.57-5.829
				C896.785,279.516,894.118,278.732,891.687,279.771z"/>
			<path style="opacity:0.72;fill:#FFFFFF;" d="M865.5,293.94l3.985,9.038c0.613,1.39,2.249,2.005,3.626,1.363l9.708-4.527
				c1.336-0.623,1.929-2.201,1.335-3.55l-3.844-8.719c-0.599-1.359-2.18-1.982-3.545-1.399l-9.849,4.207
				C865.527,290.946,864.891,292.559,865.5,293.94z"/>
			<path style="opacity:0.72;fill:#FFFFFF;" d="M884.466,304.655l-9.106,4.141c-1.528,0.695-2.212,2.489-1.535,4.024l4.557,10.335
				c0.672,1.525,2.44,2.233,3.979,1.593l9.238-3.842c1.586-0.659,2.319-2.493,1.627-4.064l-4.688-10.633
				C887.849,304.647,886.018,303.949,884.466,304.655z"/>
			<path style="opacity:0.72;fill:#FFFFFF;" d="M773.327,305.094l3.804-1.748c1.215-0.558,1.758-1.989,1.218-3.212l-3.334-7.563
				c-0.568-1.288-2.101-1.833-3.354-1.193l-3.951,2.019c-2.262,1.155-3.354,3.555-2.501,5.491l1.989,4.511
				C768.105,305.46,770.868,306.224,773.327,305.094z"/>
			<path style="opacity:0.72;fill:#FFFFFF;" d="M866.555,312.8l-8.953,4.071c-1.612,0.733-2.335,2.627-1.62,4.248l4.229,9.593
				c0.672,1.525,2.441,2.233,3.98,1.593l9.238-3.842c1.586-0.66,2.319-2.493,1.627-4.064l-4.429-10.046
				C869.937,312.792,868.107,312.094,866.555,312.8z"/>
			<path style="opacity:0.72;fill:#FFFFFF;" d="M848.437,255.239l4.426,10.039c0.657,1.491,2.408,2.154,3.888,1.474l9.355-4.3
				c1.448-0.665,2.094-2.37,1.451-3.828l-4.599-10.431c-0.676-1.534-2.504-2.184-3.997-1.421l-9.182,4.691
				C848.402,252.168,847.813,253.824,848.437,255.239z"/>
			<path style="opacity:0.72;fill:#FFFFFF;" d="M857.322,275.391l4.251,9.641c0.645,1.462,2.346,2.134,3.816,1.506l9.467-4.044
				c1.494-0.638,2.179-2.374,1.523-3.86l-4.394-9.966c-0.66-1.499-2.425-2.16-3.908-1.465l-9.324,4.37
				C857.318,272.245,856.682,273.94,857.322,275.391z"/>
			<path style="fill:#FFFFFF;" d="M763.05,285.765l1.898,2.948c0.608,0.944,1.812,1.306,2.839,0.853l0.15-0.066
				c1.153-0.509,1.676-1.855,1.167-3.008l-1.435-3.254c-0.556-1.261-2.095-1.745-3.273-1.029l-0.613,0.373
				C762.687,283.246,762.355,284.686,763.05,285.765z"/>
			<path style="fill:#FFFFFF;" d="M777.284,278.139l1.898,2.948c0.608,0.944,1.812,1.305,2.839,0.853l0.15-0.066
				c1.153-0.508,1.676-1.855,1.167-3.008l-1.435-3.254c-0.556-1.261-2.095-1.745-3.273-1.029l-0.613,0.373
				C776.92,275.62,776.589,277.06,777.284,278.139z"/>
			<path style="fill:#FFFFFF;" d="M795.376,270l1.898,2.948c0.608,0.944,1.812,1.305,2.839,0.853l0.15-0.066
				c1.153-0.508,1.676-1.855,1.167-3.008l-1.435-3.254c-0.556-1.261-2.095-1.745-3.273-1.029l-0.613,0.373
				C795.013,267.482,794.682,268.922,795.376,270z"/>
			<path style="fill:#FFFFFF;" d="M812.526,261.046l1.898,2.948c0.608,0.944,1.812,1.305,2.839,0.853l0.15-0.066
				c1.153-0.508,1.676-1.855,1.167-3.008l-1.435-3.254c-0.556-1.261-2.095-1.745-3.273-1.029l-0.614,0.373
				C812.162,258.527,811.831,259.967,812.526,261.046z"/>
			<path style="fill:#FFFFFF;" d="M829.448,250.367l1.898,2.948c0.608,0.944,1.812,1.305,2.839,0.853l0.15-0.066
				c1.153-0.508,1.676-1.855,1.167-3.008l-1.435-3.254c-0.556-1.261-2.095-1.745-3.273-1.03l-0.613,0.373
				C829.085,247.848,828.754,249.288,829.448,250.367z"/>
			<path style="fill:#FFFFFF;" d="M848.695,241.881l1.898,2.948c0.608,0.944,1.812,1.305,2.839,0.852l0.15-0.066
				c1.153-0.508,1.676-1.855,1.167-3.008l-1.435-3.254c-0.556-1.261-2.095-1.745-3.273-1.029l-0.614,0.373
				C848.331,239.363,848,240.802,848.695,241.881z"/>
			<path style="fill:#FFFFFF;" d="M864.623,234.041l1.898,2.947c0.608,0.944,1.812,1.305,2.839,0.852l0.15-0.066
				c1.153-0.508,1.676-1.855,1.167-3.008l-1.435-3.254c-0.556-1.261-2.095-1.745-3.273-1.029l-0.613,0.373
				C864.26,231.523,863.928,232.962,864.623,234.041z"/>
			
				<linearGradient id="SVGID_00000056394896330519434090000002971874072547965837_" gradientUnits="userSpaceOnUse" x1="3115.6775" y1="-865.8503" x2="2976.3188" y2="-808.1623" gradientTransform="matrix(0.915 -0.4034 0.4034 0.915 -270.8328 909.5185)">
				<stop  offset="0" style="stop-color:#A737D5"/>
				<stop  offset="1" style="stop-color:#EF497A"/>
			</linearGradient>
			<path style="fill:url(#SVGID_00000056394896330519434090000002971874072547965837_);" d="M856.054,283.241
				c-0.357-0.662-1.204-0.622-1.535,0.034c-0.935,1.854-0.693,3.944-0.634,5.97c0.068,2.362,0.178,4.723,0.396,7.076
				c0.229,2.481,0.589,4.948,1.119,7.375c-2.205-2.166-4.538-4.19-7.115-5.941c-0.684-0.465-1.593,0.418-1.021,1.082
				c3.324,3.862,6.895,7.5,10.157,11.419c1.151,1.383,3.134,0.004,2.587-1.586c-1.492-4.342-2.339-8.767-2.743-13.337
				c-0.192-2.173-0.293-4.353-0.359-6.532C856.846,286.871,856.991,284.978,856.054,283.241z"/>
			
				<linearGradient id="SVGID_00000012457276170475549950000007719651353266623119_" gradientUnits="userSpaceOnUse" x1="3117.7026" y1="-860.9561" x2="2978.344" y2="-803.2681" gradientTransform="matrix(0.915 -0.4034 0.4034 0.915 -270.8328 909.5185)">
				<stop  offset="0" style="stop-color:#A737D5"/>
				<stop  offset="1" style="stop-color:#EF497A"/>
			</linearGradient>
			<path style="fill:url(#SVGID_00000012457276170475549950000007719651353266623119_);" d="M859.623,285.591
				c-1.398,0.359-1.098,2.224,0.323,2.193c9.406-0.207,14.939,8.992,12.034,17.481c-1.344,3.926-3.823,7.643-6.255,10.979
				c-2.468,3.383-5.523,6.514-9.56,7.926c-9.357,3.271-14.815-5.259-15.417-13.525c-0.579-7.95,2.494-15.73,8.068-21.372
				c0.72-0.729-0.278-1.988-1.021-1.252c-5.266,5.217-8.561,12.2-9.164,19.609c-0.555,6.815,1.147,15.267,7.683,18.799
				c6.763,3.655,14.694,0.077,19.547-5.026c5.338-5.613,11.255-14.166,10.636-22.284
				C875.848,290.614,868.362,283.345,859.623,285.591z"/>
			
				<linearGradient id="SVGID_00000130609409127434838360000012381003128669500043_" gradientUnits="userSpaceOnUse" x1="3103.5964" y1="-895.0578" x2="2964.2375" y2="-837.3696" gradientTransform="matrix(0.915 -0.4034 0.4034 0.915 -270.8328 909.5185)">
				<stop  offset="0" style="stop-color:#A737D5"/>
				<stop  offset="1" style="stop-color:#EF497A"/>
			</linearGradient>
			<path style="fill:url(#SVGID_00000130609409127434838360000012381003128669500043_);" d="M835.227,295.478
				c-1.009-2.085-1.954-4.358-3.706-5.917c-0.583-0.519-1.354,0.155-1.309,0.794c0.143,2.08,1.229,3.995,2.086,5.869
				c0.41,0.896,0.954,1.866,1.457,2.857c-2.443-2.621-5.701-5.665-9.529-5.539c-3.923,0.129-7.022,3.102-9.427,5.911
				c-5.651,6.597-8.38,15.064-13.211,22.197c-2.905,4.29-7.808,8.823-12.86,4.636c-3.575-2.963-5.108-8.558-5.56-12.998
				c-0.87-8.555,2.137-17.152,7.737-23.611c0.406-0.469-0.349-1.195-0.799-0.754c-5.878,5.755-8.944,13.654-8.904,21.865
				c0.033,6.815,2.217,17.822,10.124,19.605c8.619,1.944,13.946-9.084,17.169-15.193c2.281-4.323,4.435-8.75,7.426-12.642
				c1.682-2.188,3.774-4.685,6.417-5.715c3.658-1.427,6.797,1.866,8.996,4.368c1.103,1.255,2.957,0.158,2.914-1.111
				c0.239,0.531,0.444,1.063,0.597,1.59c-2.764,1.148-6.497,0.103-8.793,2.305c-0.326,0.313-0.208,0.902,0.282,0.959
				c3.114,0.361,8.116,0.605,10.871-1.067c0.602-0.365,0.988-0.889,0.898-1.624C837.82,299.983,836.216,297.52,835.227,295.478z"/>
		</g>
		<g>
			
				<linearGradient id="SVGID_00000047056243028730149310000010064054063886062741_" gradientUnits="userSpaceOnUse" x1="1004.4664" y1="220.4474" x2="689.4422" y2="457.0396">
				<stop  offset="0" style="stop-color:#53D8FF"/>
				<stop  offset="1" style="stop-color:#3840F7"/>
			</linearGradient>
			<path style="fill:url(#SVGID_00000047056243028730149310000010064054063886062741_);" d="M870.833,288.296
				c0.552,0,1.104-0.203,1.537-0.612l30.344-28.743c2.639-2.5,6.094-3.876,9.729-3.876h103.282c1.234,0,2.235-1.001,2.235-2.235
				c0-1.234-1.001-2.235-2.235-2.235H912.443c-4.783,0-9.33,1.812-12.803,5.101l-30.344,28.743
				c-0.896,0.849-0.935,2.263-0.086,3.159C869.65,288.062,870.241,288.296,870.833,288.296z"/>
			
				<linearGradient id="SVGID_00000181072227022519949830000001405153572002898057_" gradientUnits="userSpaceOnUse" x1="1001.6566" y1="216.7062" x2="686.6324" y2="453.2984">
				<stop  offset="0" style="stop-color:#53D8FF"/>
				<stop  offset="1" style="stop-color:#3840F7"/>
			</linearGradient>
			<path style="fill:url(#SVGID_00000181072227022519949830000001405153572002898057_);" d="M928.302,241.204h87.424
				c1.234,0,2.235-1,2.235-2.235c0-1.234-1.001-2.235-2.235-2.235h-87.424c-1.234,0-2.235,1.001-2.235,2.235
				C926.067,240.203,927.068,241.204,928.302,241.204z"/>
			
				<linearGradient id="SVGID_00000170261134498671316640000007248101620723278482_" gradientUnits="userSpaceOnUse" x1="997.5659" y1="211.2596" x2="682.5419" y2="447.8517">
				<stop  offset="0" style="stop-color:#53D8FF"/>
				<stop  offset="1" style="stop-color:#3840F7"/>
			</linearGradient>
			<path style="fill:url(#SVGID_00000170261134498671316640000007248101620723278482_);" d="M942.526,227.343h73.199
				c1.234,0,2.235-1.001,2.235-2.235c0-1.234-1.001-2.235-2.235-2.235h-73.199c-1.234,0-2.235,1-2.235,2.235
				C940.292,226.343,941.292,227.343,942.526,227.343z"/>
		</g>
	</g>
	<g>
		
			<linearGradient id="SVGID_00000165913773977304954400000001729006126599010189_" gradientUnits="userSpaceOnUse" x1="8876.5254" y1="494.8923" x2="8787.2695" y2="365.4085" gradientTransform="matrix(-1 0 0 1 9746.6602 0)">
			<stop  offset="0" style="stop-color:#E92556"/>
			<stop  offset="1" style="stop-color:#F9C342"/>
		</linearGradient>
		<circle style="fill:url(#SVGID_00000165913773977304954400000001729006126599010189_);" cx="943.279" cy="388.782" r="45.571"/>
		<g style="opacity:0.8;">
			<g>
				<g>
					<path style="fill:#FFFFFF;" d="M943.279,433.13c-24.454,0-44.349-19.895-44.349-44.349c0-24.454,19.895-44.348,44.349-44.348
						c24.454,0,44.348,19.895,44.348,44.348C987.628,413.236,967.733,433.13,943.279,433.13z M943.279,345.272
						c-23.992,0-43.51,19.519-43.51,43.51s19.519,43.51,43.51,43.51s43.51-19.519,43.51-43.51S967.271,345.272,943.279,345.272z"/>
				</g>
				<g>
					<path style="fill:#FFFFFF;" d="M906.26,388.782c0-20.412,16.607-37.019,37.019-37.019c20.413,0,37.019,16.607,37.019,37.019
						c0,20.412-16.606,37.019-37.019,37.019C922.867,425.801,906.26,409.194,906.26,388.782z M908.543,388.782
						c0,19.154,15.583,34.737,34.737,34.737c19.154,0,34.737-15.583,34.737-34.737c0-19.154-15.583-34.737-34.737-34.737
						C924.125,354.045,908.543,369.628,908.543,388.782z"/>
				</g>
			</g>
			<path style="fill:#FFFFFF;" d="M954.445,382.754h3.661c0.459,0,0.902-0.335,0.902-0.795v-2.496c0-4.667-3.866-8.443-8.533-8.443
				h-4.877v-3.412c0-0.77-0.94-1.395-2.095-1.395c-1.155,0-2.095,0.624-2.095,1.395v3.412h-4.816c-4.667,0-8.594,3.776-8.594,8.443
				v4.564c0,4.666,3.927,8.365,8.594,8.365h4.816v8.8h-4.816c-1.73,0-3.146-1.362-3.146-3.092v-0.214
				c0-0.46-0.364-0.885-0.824-0.885h-3.661c-0.46,0-0.963,0.425-0.963,0.885v0.214c0,4.666,3.927,8.121,8.594,8.121h4.816v3.734
				c0,0.77,0.94,1.395,2.095,1.395c1.155,0,2.095-0.624,2.095-1.395v-3.734h4.877c4.667,0,8.533-3.454,8.533-8.121v-2.472
				c0-4.666-3.866-8.684-8.533-8.684h-4.877v-10.896h4.877c1.73,0,3.085,1.684,3.085,3.414v2.496
				C953.561,382.419,953.986,382.754,954.445,382.754z M950.475,392.392c1.73,0,3.085,1.506,3.085,3.236v2.472
				c0,1.73-1.355,3.092-3.085,3.092h-4.877v-8.8H950.475z M941.408,386.945h-4.816c-1.73,0-3.146-1.187-3.146-2.917v-4.564
				c0-1.73,1.416-3.414,3.146-3.414h4.816V386.945z"/>
		</g>
	</g>
	<g>
		
			<linearGradient id="SVGID_00000140006362926168627570000011316427456129500858_" gradientUnits="userSpaceOnUse" x1="8790.8906" y1="537.1932" x2="8731.9824" y2="451.7347" gradientTransform="matrix(-1 0 0 1 9746.6602 0)">
			<stop  offset="0" style="stop-color:#E92556"/>
			<stop  offset="1" style="stop-color:#F9C342"/>
		</linearGradient>
		<circle style="fill:url(#SVGID_00000140006362926168627570000011316427456129500858_);" cx="1004.045" cy="467.161" r="30.076"/>
		<g style="opacity:0.8;">
			<g>
				<g>
					<path style="fill:#FFFFFF;" d="M1004.045,496.431c-16.139,0-29.27-13.13-29.27-29.27c0-16.139,13.13-29.27,29.27-29.27
						c16.139,0,29.27,13.13,29.27,29.27C1033.314,483.301,1020.184,496.431,1004.045,496.431z M1004.045,438.444
						c-15.834,0-28.717,12.882-28.717,28.717c0,15.834,12.882,28.717,28.717,28.717s28.717-12.882,28.717-28.717
						C1032.761,451.327,1019.879,438.444,1004.045,438.444z"/>
				</g>
				<g>
					<path style="fill:#FFFFFF;" d="M979.612,467.161c0-13.472,10.96-24.432,24.432-24.432c13.472,0,24.432,10.96,24.432,24.432
						c0,13.472-10.96,24.432-24.432,24.432C990.573,491.593,979.612,480.633,979.612,467.161z M981.119,467.161
						c0,12.641,10.285,22.926,22.926,22.926c12.642,0,22.926-10.285,22.926-22.926c0-12.642-10.285-22.926-22.926-22.926
						C991.403,444.235,981.119,454.52,981.119,467.161z"/>
				</g>
			</g>
			<path style="fill:#FFFFFF;" d="M1011.414,463.183h2.416c0.303,0,0.596-0.221,0.596-0.525v-1.647c0-3.08-2.552-5.572-5.632-5.572
				h-3.219v-2.252c0-0.508-0.62-0.92-1.383-0.92c-0.763,0-1.383,0.412-1.383,0.92v2.252h-3.179c-3.08,0-5.672,2.492-5.672,5.572
				v3.012c0,3.08,2.592,5.521,5.672,5.521h3.179v5.808h-3.179c-1.142,0-2.076-0.899-2.076-2.041v-0.141
				c0-0.303-0.24-0.584-0.544-0.584h-2.416c-0.303,0-0.636,0.281-0.636,0.584v0.141c0,3.08,2.592,5.36,5.672,5.36h3.179v2.464
				c0,0.508,0.62,0.92,1.383,0.92c0.763,0,1.383-0.412,1.383-0.92v-2.464h3.219c3.08,0,5.632-2.28,5.632-5.36v-1.632
				c0-3.08-2.552-5.731-5.632-5.731h-3.219v-7.191h3.219c1.142,0,2.036,1.111,2.036,2.253v1.647
				C1010.83,462.961,1011.111,463.183,1011.414,463.183z M1008.794,469.544c1.142,0,2.036,0.994,2.036,2.136v1.632
				c0,1.142-0.894,2.041-2.036,2.041h-3.219v-5.808H1008.794z M1002.81,465.948h-3.179c-1.142,0-2.076-0.783-2.076-1.925v-3.012
				c0-1.142,0.935-2.253,2.076-2.253h3.179V465.948z"/>
		</g>
	</g>
	<g style="opacity:0.6;">
		<g>
			<g>
				<path style="fill:#FFFFFF;" d="M208.697,292.964c-0.113,0-0.227-0.007-0.342-0.021l-11.755-1.425
					c-1.191-0.146-2.159-1.029-2.41-2.2l-1.842-8.586c-3.858-1.52-7.477-3.562-10.784-6.085l-8.304,2.869
					c-1.134,0.392-2.392,0.02-3.131-0.924l-7.305-9.32c-0.74-0.943-0.8-2.254-0.148-3.261l4.77-7.377
					c-1.659-3.815-2.777-7.817-3.332-11.926l-7.895-3.841c-1.077-0.523-1.705-1.675-1.561-2.865l1.426-11.758
					c0.144-1.189,1.028-2.158,2.2-2.41l8.585-1.842c1.52-3.858,3.562-7.477,6.085-10.784l-2.869-8.304
					c-0.391-1.135-0.02-2.392,0.924-3.131l9.321-7.305c0.944-0.739,2.255-0.799,3.261-0.148l7.377,4.771
					c3.814-1.659,7.816-2.777,11.926-3.331l3.84-7.896c0.525-1.079,1.681-1.704,2.868-1.561l11.755,1.426
					c1.189,0.144,2.158,1.027,2.41,2.2l1.842,8.586c3.858,1.52,7.477,3.563,10.784,6.085l8.304-2.869
					c1.134-0.391,2.393-0.02,3.131,0.924l7.305,9.321c0.739,0.942,0.799,2.253,0.149,3.26l-4.772,7.378
					c1.659,3.814,2.777,7.816,3.332,11.926l7.895,3.841c1.078,0.524,1.705,1.676,1.561,2.865l-1.426,11.758
					c-0.144,1.191-1.029,2.16-2.203,2.411l-8.582,1.841c-1.521,3.858-3.563,7.477-6.085,10.784l2.869,8.305
					c0.393,1.132,0.021,2.391-0.923,3.131l-9.321,7.305c-0.945,0.739-2.255,0.798-3.261,0.147l-7.377-4.771
					c-3.815,1.659-7.817,2.777-11.926,3.332l-3.84,7.895C210.75,292.358,209.762,292.964,208.697,292.964z M197.923,287.65
					l10.075,1.221l4.428-9.104l1.098-0.121c4.431-0.486,8.737-1.689,12.797-3.574l1.001-0.465l8.506,5.5l7.987-6.26l-3.308-9.575
					l0.691-0.861c2.8-3.492,4.997-7.385,6.529-11.572l0.379-1.037l9.898-2.124l1.222-10.074l-9.104-4.429l-0.121-1.097
					c-0.487-4.432-1.69-8.738-3.575-12.797l-0.465-1.001l5.501-8.506l-6.26-7.988l-9.575,3.309l-0.861-0.691
					c-3.491-2.801-7.385-4.998-11.571-6.529l-1.037-0.379l-2.124-9.898l-10.075-1.222l-4.428,9.104l-1.098,0.121
					c-4.432,0.486-8.738,1.689-12.797,3.574l-1.001,0.465l-8.506-5.501l-7.988,6.26l3.309,9.575l-0.691,0.861
					c-2.801,3.492-4.997,7.385-6.529,11.572l-0.379,1.037l-9.898,2.124l-1.222,10.074l9.104,4.429l0.121,1.097
					c0.486,4.43,1.689,8.736,3.574,12.797l0.465,1.002l-5.501,8.506l6.26,7.988l9.574-3.309l0.861,0.691
					c3.492,2.801,7.385,4.997,11.572,6.529l1.037,0.379L197.923,287.65z M160.055,226.725l-0.001,0.004
					C160.055,226.728,160.055,226.726,160.055,226.725z M158.07,226.485h0.01H158.07z M209.251,269.067
					c-1.242,0-2.49-0.075-3.742-0.227c-5.502-0.667-10.712-2.808-15.067-6.193c-0.872-0.678-1.029-1.935-0.352-2.807
					c0.677-0.871,1.934-1.03,2.807-0.352c3.783,2.94,8.311,4.801,13.094,5.381c7.048,0.853,14.005-1.086,19.593-5.465
					c5.588-4.379,9.136-10.672,9.99-17.72c0.854-7.047-1.086-14.006-5.465-19.593c-4.379-5.588-10.672-9.136-17.72-9.99
					c-7.044-0.854-14.005,1.086-19.593,5.465c-5.588,4.379-9.136,10.672-9.99,17.72c-0.229,1.884-0.257,3.789-0.085,5.66
					c0.101,1.1-0.708,2.074-1.809,2.175c-1.103,0.101-2.073-0.709-2.175-1.809c-0.198-2.153-0.165-4.343,0.098-6.508
					c0.983-8.108,5.065-15.348,11.494-20.386c6.428-5.038,14.436-7.271,22.542-6.288c8.108,0.983,15.348,5.065,20.386,11.494
					c5.038,6.428,7.271,14.434,6.288,22.542c-0.983,8.108-5.065,15.348-11.494,20.386
					C222.616,266.812,216.051,269.066,209.251,269.067z"/>
				<path style="fill:#FFFFFF;" d="M208.965,251.14c-1.495,0-3.012-0.269-4.488-0.838c-3.12-1.203-5.584-3.548-6.939-6.604
					c-1.355-3.056-1.439-6.457-0.237-9.576l0,0c2.483-6.44,9.742-9.66,16.181-7.177c6.44,2.482,9.659,9.741,7.177,16.181
					C218.744,248.089,213.992,251.14,208.965,251.14z M201.033,235.56c-0.818,2.122-0.761,4.436,0.161,6.516
					c0.922,2.08,2.599,3.675,4.722,4.493c4.381,1.691,9.32-0.501,11.01-4.883c1.689-4.381-0.501-9.32-4.883-11.009
					C207.661,228.987,202.722,231.178,201.033,235.56L201.033,235.56z"/>
			</g>
			<g>
				<path style="fill:#FFFFFF;" d="M293.219,216.635c-0.545,0-1.078-0.236-1.444-0.669l-2.544-3.008
					c-1.845,0.191-3.699,0.149-5.528-0.124l-2.676,2.887c-0.545,0.59-1.407,0.77-2.146,0.446l-5.214-2.3
					c-0.737-0.326-1.187-1.083-1.121-1.885l0.328-3.924c-1.434-1.168-2.714-2.508-3.818-3.999l-3.937,0.149
					c-0.811,0.031-1.543-0.455-1.834-1.207l-2.06-5.309c-0.291-0.753-0.073-1.607,0.542-2.127l3.008-2.544
					c-0.19-1.845-0.148-3.697,0.124-5.527l-2.887-2.676c-0.59-0.548-0.769-1.41-0.446-2.147l2.301-5.217
					c0.327-0.737,1.096-1.179,1.888-1.117l3.92,0.328c1.167-1.435,2.507-2.714,3.999-3.819l-0.149-3.936
					c-0.031-0.807,0.454-1.544,1.207-1.835l5.309-2.059c0.75-0.293,1.607-0.074,2.129,0.544l2.542,3.006
					c1.846-0.189,3.699-0.148,5.528,0.123l2.676-2.887c0.55-0.592,1.413-0.77,2.151-0.444l5.211,2.298
					c0.736,0.323,1.188,1.081,1.121,1.885l-0.329,3.924c1.435,1.168,2.715,2.508,3.819,3.999l3.936-0.15
					c0.801-0.02,1.544,0.456,1.835,1.207l2.06,5.31c0.292,0.751,0.074,1.605-0.542,2.126l-3.008,2.544
					c0.19,1.846,0.148,3.699-0.123,5.528l2.887,2.676c0.592,0.547,0.771,1.412,0.444,2.15l-2.297,5.21
					c-0.326,0.736-1.076,1.183-1.885,1.121l-3.925-0.328c-1.168,1.435-2.508,2.715-3.999,3.818l0.15,3.937
					c0.031,0.806-0.455,1.543-1.207,1.834l-5.309,2.06C293.68,216.594,293.448,216.635,293.219,216.635z M278.827,213.682
					c0,0.001-0.001,0.002-0.002,0.003L278.827,213.682z M290.464,209.77l3.091,3.654l3.835-1.488l-0.182-4.782l0.683-0.467
					c1.728-1.183,3.241-2.626,4.496-4.293l0.498-0.661l4.766,0.398l1.66-3.764l-3.507-3.251l0.153-0.813
					c0.384-2.049,0.431-4.141,0.139-6.215l-0.115-0.82l3.654-3.09l-1.488-3.835l-4.782,0.182l-0.467-0.683
					c-1.183-1.729-2.628-3.241-4.294-4.496l-0.662-0.498l0.399-4.766l-3.764-1.66l-3.251,3.507l-0.814-0.153
					c-2.049-0.384-4.139-0.431-6.215-0.139l-0.82,0.115l-3.09-3.653l-3.835,1.487l0.182,4.782l-0.683,0.467
					c-1.73,1.184-3.242,2.628-4.496,4.293l-0.498,0.661l-4.767-0.398l-1.66,3.764l3.508,3.251l-0.153,0.814
					c-0.384,2.051-0.431,4.142-0.139,6.214l0.116,0.82l-3.654,3.091l1.488,3.835l4.782-0.182l0.467,0.683
					c1.183,1.729,2.628,3.242,4.293,4.496l0.661,0.498l-0.398,4.766l3.764,1.66l3.251-3.508l0.814,0.153
					c2.05,0.384,4.14,0.43,6.215,0.139L290.464,209.77z M309.891,198.905c0.001,0.001,0.001,0.001,0.002,0.002L309.891,198.905z
					 M265.501,179.326c0.001,0.001,0.002,0.001,0.004,0.001L265.501,179.326z M266.607,178.671l0,0.001L266.607,178.671
					L266.607,178.671z M299.064,170.4l0.002,0.001L299.064,170.4z M293.852,168.101c0.001,0,0.002,0,0.002,0L293.852,168.101z
					 M281.126,167.811l-0.003,0.002C281.124,167.812,281.126,167.812,281.126,167.811z M279.876,167.494
					c0.001,0.001,0.001,0.002,0.002,0.003L279.876,167.494z M287.082,205.98c-2.09,0-4.177-0.436-6.147-1.305
					c-2.528-1.115-4.704-2.892-6.291-5.138c-0.478-0.676-0.318-1.612,0.359-2.09c0.676-0.478,1.614-0.317,2.09,0.359
					c1.274,1.802,3.021,3.228,5.053,4.124c2.993,1.321,6.32,1.395,9.369,0.213c3.049-1.183,5.456-3.482,6.775-6.475
					c2.725-6.177-0.085-13.42-6.262-16.145c-2.992-1.32-6.32-1.395-9.369-0.213c-3.049,1.183-5.456,3.482-6.775,6.475
					c-0.353,0.8-0.621,1.636-0.795,2.484c-0.168,0.812-0.963,1.331-1.773,1.167c-0.811-0.167-1.333-0.961-1.166-1.772
					c0.218-1.056,0.551-2.096,0.989-3.089c1.643-3.726,4.639-6.589,8.435-8.061c3.797-1.472,7.94-1.378,11.665,0.265
					c7.691,3.393,11.188,12.409,7.796,20.101c-1.643,3.726-4.639,6.588-8.435,8.061C290.811,205.634,288.944,205.98,287.082,205.98z
					"/>
			</g>
		</g>
	</g>
	<g>
		
			<linearGradient id="SVGID_00000102510407016794032580000011668001720846729636_" gradientUnits="userSpaceOnUse" x1="206.8257" y1="336.833" x2="39.8256" y2="127.3328">
			<stop  offset="0" style="stop-color:#CB236D"/>
			<stop  offset="1" style="stop-color:#4C246D"/>
		</linearGradient>
		<path style="fill:url(#SVGID_00000102510407016794032580000011668001720846729636_);" d="M173.515,268.814
			c-31.181,11.167-61.428,39.123-57.216,74.811c3.581,30.348,38.405,39.307,59.531,42.505c5.892,0.892,11.246,3.912,15.07,8.483
			c9.15,10.939,28.75,29.17,50.26,17.034c1.567-0.884,0.866-3.29-0.931-3.219c-5.718,0.227-13.833-0.596-19.357-5.97
			c-7.523-7.319-4.799-20.017,4.923-23.972c18.398-7.485,53.115-27.864,48.62-74.047
			C268.335,241.981,173.515,268.814,173.515,268.814z"/>
		<path style="fill:#FFFFFF;" d="M192.503,318.627c0,0,1.535-20.882,22.35-17.431c19.719,3.27,13.406,30.248-14.376,47.417
			c-3.012,1.861-6.742,2.135-10.001,0.75c-12.198-5.187-40.609-20.041-24.939-40.67
			C175.656,295.371,192.503,318.627,192.503,318.627z"/>
		<path style="fill:#FFFFFF;" d="M128.24,317.799c-0.261,0-0.526-0.051-0.781-0.16c-1.017-0.432-1.49-1.606-1.059-2.623
			c11.584-27.261,39.278-39.393,60.471-44.77c1.072-0.274,2.159,0.376,2.43,1.447c0.272,1.07-0.376,2.159-1.447,2.43
			c-20.316,5.155-46.831,16.705-57.773,42.458C129.758,317.342,129.018,317.799,128.24,317.799z"/>
		<path style="fill:#FFFFFF;" d="M123.665,345.625c-0.977,0-1.832-0.717-1.977-1.712c-0.024-0.163-0.575-4.064-0.026-10.092
			c0.101-1.1,1.071-1.915,2.173-1.81c1.1,0.1,1.91,1.073,1.81,2.173c-0.507,5.563-0.004,9.118,0.001,9.153
			c0.159,1.093-0.598,2.108-1.691,2.267C123.858,345.618,123.761,345.625,123.665,345.625z"/>
	</g>
	<g>
		<g>
			
				<linearGradient id="SVGID_00000022526246763734614730000018002464280129006479_" gradientUnits="userSpaceOnUse" x1="-3438.0977" y1="-1660.2771" x2="-3490.8154" y2="-1692.2272" gradientTransform="matrix(0.9999 0.0201 -0.197 0.9069 3872.2476 1747.3917)">
				<stop  offset="0" style="stop-color:#53D8FF"/>
				<stop  offset="1" style="stop-color:#3840F7"/>
			</linearGradient>
			<polygon style="fill:url(#SVGID_00000022526246763734614730000018002464280129006479_);" points="730.76,146.086 
				728.596,157.806 721.589,151.302 			"/>
			
				<linearGradient id="SVGID_00000011015764164004634680000001628864252974498977_" gradientUnits="userSpaceOnUse" x1="-3467.3564" y1="-1672.0897" x2="-3527.6843" y2="-1735.8792" gradientTransform="matrix(0.9999 0.0201 -0.197 0.9069 3872.2476 1747.3917)">
				<stop  offset="0" style="stop-color:#53D8FF"/>
				<stop  offset="1" style="stop-color:#3840F7"/>
			</linearGradient>
			<path style="fill:url(#SVGID_00000011015764164004634680000001628864252974498977_);" d="M679.298,129.628l26.526,33.607
				c0.508,0.643,1.256,1.053,2.071,1.133c0.816,0.08,1.629-0.174,2.253-0.706l32.739-27.904c0.375-0.32,0.518-0.835,0.363-1.302
				c-0.155-0.467-0.579-0.794-1.07-0.825L679.298,129.628z"/>
			
				<linearGradient id="SVGID_00000073001001049393162380000014715924056074931120_" gradientUnits="userSpaceOnUse" x1="-3441.9465" y1="-1660.8097" x2="-3491.1924" y2="-1690.6556" gradientTransform="matrix(0.9999 0.0201 -0.197 0.9069 3872.2476 1747.3917)">
				<stop  offset="0" style="stop-color:#53D8FF"/>
				<stop  offset="1" style="stop-color:#3840F7"/>
			</linearGradient>
			<polygon style="fill:url(#SVGID_00000073001001049393162380000014715924056074931120_);" points="730.756,146.086 
				679.298,129.628 725.487,150.606 725.025,153.882 			"/>
			
				<linearGradient id="SVGID_00000155852266344183424560000004488214583652799113_" gradientUnits="userSpaceOnUse" x1="793.2795" y1="-1440.7789" x2="815.7825" y2="-1447.2965" gradientTransform="matrix(-0.9999 -0.0201 -0.0201 0.9999 1500.9763 1613.8062)">
				<stop  offset="0" style="stop-color:#53D8FF"/>
				<stop  offset="1" style="stop-color:#3840F7"/>
			</linearGradient>
			<polygon style="fill:url(#SVGID_00000155852266344183424560000004488214583652799113_);" points="722.342,153.262 
				728.596,157.806 725.487,150.606 			"/>
		</g>
		<g>
			<path style="fill:#CE41A4;" d="M733.238,161.917c0.747,0.446,1.477,0.843,2.225,1.24c0.745,0.393,1.496,0.773,2.252,1.142
				c0.378,0.184,0.834,0.027,1.018-0.351c0.184-0.378,0.028-0.833-0.35-1.018c-0.742-0.363-1.477-0.737-2.206-1.122
				c-0.724-0.385-1.458-0.787-2.141-1.196l-0.013-0.008c-0.362-0.217-0.831-0.099-1.048,0.263
				C732.757,161.23,732.875,161.7,733.238,161.917L733.238,161.917z"/>
			<path style="fill:#CE41A4;" d="M742.307,166.379c1.549,0.65,3.115,1.26,4.697,1.826c0.393,0.141,0.825-0.063,0.966-0.456
				c0.141-0.393-0.063-0.825-0.456-0.966c-1.555-0.56-3.096-1.161-4.619-1.802c-0.386-0.163-0.831,0.018-0.993,0.404
				c-0.163,0.386,0.018,0.831,0.404,0.993L742.307,166.379z"/>
			<path style="fill:#CE41A4;" d="M751.793,169.776c1.611,0.479,3.235,0.914,4.871,1.301c0.403,0.095,0.807-0.154,0.902-0.557
				c0.095-0.403-0.154-0.807-0.557-0.902c-1.607-0.382-3.203-0.811-4.786-1.284c-0.398-0.119-0.818,0.107-0.937,0.505
				C751.167,169.238,751.393,169.657,751.793,169.776L751.793,169.776z"/>
			<path style="fill:#CE41A4;" d="M761.607,172.087c1.658,0.285,3.326,0.517,5.001,0.692c0.409,0.042,0.774-0.254,0.817-0.663
				c0.043-0.409-0.253-0.775-0.662-0.817c-1.641-0.173-3.276-0.402-4.902-0.684c-0.406-0.07-0.793,0.202-0.863,0.608
				C760.927,171.63,761.2,172.016,761.607,172.087L761.607,172.087z"/>
			<path style="fill:#CE41A4;" d="M771.649,173.123c1.684,0.053,3.371,0.044,5.056-0.034c0.407-0.019,0.722-0.364,0.703-0.771
				c-0.019-0.407-0.363-0.723-0.771-0.704c-1.645,0.074-3.294,0.082-4.941,0.027c-0.409-0.013-0.752,0.307-0.765,0.717
				C770.918,172.767,771.239,173.109,771.649,173.123L771.649,173.123z"/>
			<path style="fill:#CE41A4;" d="M781.746,172.647c1.674-0.218,3.338-0.508,4.987-0.874c0.395-0.088,0.644-0.479,0.557-0.874
				c-0.087-0.395-0.478-0.644-0.873-0.557c-1.606,0.354-3.228,0.635-4.86,0.846c-0.403,0.052-0.687,0.421-0.635,0.824
				C780.974,172.415,781.342,172.699,781.746,172.647L781.746,172.647z"/>
			<path style="fill:#CE41A4;" d="M791.623,170.451c1.606-0.517,3.183-1.089,4.749-1.693c0.374-0.145,0.561-0.565,0.416-0.94
				c-0.144-0.374-0.565-0.561-0.94-0.416c-1.545,0.594-3.102,1.157-4.671,1.66c-0.384,0.122-0.596,0.532-0.474,0.917
				c0.122,0.384,0.533,0.596,0.917,0.474L791.623,170.451z"/>
			<path style="fill:#CE41A4;" d="M801.024,166.842l4.568-2.109c0.361-0.167,0.519-0.595,0.352-0.957
				c-0.167-0.361-0.595-0.519-0.957-0.352l-0.027,0.012l-4.515,2.078l-0.027,0.013c-0.363,0.167-0.522,0.597-0.355,0.96
				C800.231,166.85,800.661,167.009,801.024,166.842L801.024,166.842z"/>
			<path style="fill:#CE41A4;" d="M810.062,162.427c1.473-0.805,2.928-1.648,4.356-2.534c0.336-0.209,0.439-0.65,0.23-0.985
				c-0.208-0.336-0.649-0.439-0.984-0.231c-1.405,0.87-2.837,1.698-4.29,2.49c-0.348,0.19-0.477,0.626-0.287,0.974
				C809.277,162.489,809.713,162.617,810.062,162.427L810.062,162.427z"/>
			<path style="fill:#CE41A4;" d="M818.616,157.085c1.366-0.989,2.695-2.035,3.965-3.157c0.294-0.259,0.321-0.708,0.062-1.001
				c-0.259-0.294-0.707-0.322-1.001-0.063c-1.23,1.084-2.526,2.101-3.861,3.066c-0.319,0.23-0.391,0.675-0.161,0.994
				C817.851,157.244,818.296,157.316,818.616,157.085L818.616,157.085z"/>
			<path style="fill:#CE41A4;" d="M826.168,150.305c1.103-1.304,2.105-2.715,2.896-4.262c0.177-0.346,0.04-0.77-0.306-0.947
				c-0.346-0.177-0.77-0.04-0.947,0.306c-0.73,1.423-1.67,2.75-2.72,3.988c-0.253,0.297-0.217,0.743,0.08,0.996
				c0.297,0.253,0.743,0.217,0.996-0.08L826.168,150.305z"/>
			<path style="fill:#CE41A4;" d="M830.602,141.043c0.09-0.88,0.081-1.772-0.028-2.652c-0.055-0.439-0.134-0.876-0.237-1.306
				c-0.105-0.436-0.223-0.84-0.381-1.282c-0.13-0.363-0.529-0.552-0.892-0.422c-0.363,0.13-0.552,0.529-0.422,0.892l0.008,0.023
				c0.122,0.342,0.24,0.739,0.328,1.114c0.091,0.381,0.16,0.766,0.208,1.153c0.095,0.775,0.102,1.559,0.022,2.337
				c-0.04,0.385,0.24,0.73,0.625,0.769C830.218,141.709,830.562,141.429,830.602,141.043L830.602,141.043z"/>
			<path style="fill:#CE41A4;" d="M826.222,131.93c-1.549-0.848-3.222-1.381-4.929-1.685c-0.376-0.067-0.736,0.184-0.803,0.56
				c-0.067,0.376,0.187,0.736,0.563,0.803c1.573,0.281,3.118,0.78,4.496,1.538c0.335,0.187,0.759,0.067,0.946-0.268
				s0.067-0.759-0.268-0.946L826.222,131.93z"/>
			<path style="fill:#CE41A4;" d="M816.076,130.181c-0.873,0.159-1.748,0.414-2.57,0.86c-0.409,0.22-0.807,0.499-1.155,0.822
				c-0.33,0.306-0.64,0.638-0.921,0.995c-0.235,0.298-0.184,0.729,0.114,0.964c0.298,0.235,0.729,0.184,0.964-0.113
				c0.235-0.297,0.496-0.576,0.777-0.837c0.263-0.244,0.552-0.447,0.878-0.622c0.646-0.351,1.39-0.574,2.155-0.712
				c0.375-0.065,0.626-0.423,0.561-0.798s-0.422-0.626-0.797-0.561L816.076,130.181z"/>
			<path style="fill:#CE41A4;" d="M809.697,137.917c-0.027,1.789,0.379,3.509,0.937,5.129c0.122,0.355,0.51,0.545,0.865,0.422
				c0.355-0.122,0.544-0.512,0.421-0.867c-0.524-1.524-0.884-3.105-0.856-4.659c0.008-0.377-0.291-0.69-0.668-0.699
				c-0.378-0.008-0.69,0.291-0.699,0.668V137.917z"/>
			<path style="fill:#CE41A4;" d="M812.759,147.704c0.845,1.483,1.82,2.889,2.897,4.206c0.236,0.289,0.661,0.332,0.95,0.096
				c0.289-0.236,0.332-0.661,0.096-0.949c-1.031-1.264-1.961-2.608-2.764-4.023c-0.185-0.326-0.599-0.439-0.924-0.254
				C812.688,146.964,812.574,147.378,812.759,147.704L812.759,147.704z"/>
			<path style="fill:#CE41A4;" d="M819.166,155.603c1.253,1.144,2.58,2.202,3.958,3.183c0.301,0.214,0.719,0.144,0.933-0.157
				c0.214-0.301,0.144-0.718-0.157-0.933c-1.337-0.954-2.62-1.98-3.828-3.085c-0.274-0.251-0.699-0.232-0.95,0.042
				C818.872,154.926,818.891,155.352,819.166,155.603L819.166,155.603z"/>
			<path style="fill:#CE41A4;" d="M827.397,161.505c1.465,0.836,2.966,1.605,4.491,2.317c0.332,0.155,0.727,0.011,0.882-0.32
				c0.155-0.332,0.012-0.727-0.32-0.882c-1.495-0.699-2.962-1.454-4.392-2.272c-0.319-0.183-0.727-0.072-0.909,0.247
				C826.966,160.915,827.076,161.322,827.397,161.505L827.397,161.505z"/>
			<path style="fill:#CE41A4;" d="M836.531,165.794c0.781,0.308,1.579,0.576,2.375,0.847l2.387,0.816
				c0.344,0.117,0.717-0.066,0.835-0.41c0.117-0.344-0.066-0.717-0.41-0.835l-0.033-0.011l-2.344-0.804
				c-0.782-0.267-1.564-0.53-2.334-0.835c-0.339-0.134-0.723,0.032-0.857,0.371c-0.134,0.339,0.032,0.723,0.371,0.857l0.001,0
				L836.531,165.794z"/>
			<path style="fill:#CE41A4;" d="M846.152,168.8c1.633,0.395,3.279,0.739,4.932,1.033c0.354,0.063,0.693-0.173,0.756-0.528
				c0.063-0.354-0.172-0.693-0.527-0.756c-1.628-0.292-3.247-0.632-4.853-1.022c-0.351-0.085-0.706,0.13-0.791,0.482
				S845.8,168.714,846.152,168.8L846.152,168.8z"/>
			<path style="fill:#CE41A4;" d="M856.065,170.573c1.666,0.201,3.338,0.356,5.011,0.471c0.356,0.024,0.664-0.244,0.689-0.601
				c0.024-0.356-0.244-0.665-0.6-0.689c-1.652-0.115-3.301-0.271-4.944-0.47c-0.356-0.043-0.68,0.21-0.723,0.566
				C855.456,170.207,855.709,170.53,856.065,170.573L856.065,170.573z"/>
			<path style="fill:#CE41A4;" d="M866.1,171.272l5.026,0.014c0.354,0.001,0.641-0.285,0.642-0.639
				c0.001-0.354-0.285-0.641-0.639-0.642h-0.024l-4.974-0.019l-0.026,0c-0.355-0.001-0.644,0.286-0.646,0.641
				C865.457,170.982,865.744,171.271,866.1,171.272L866.1,171.272z"/>
			<path style="fill:#CE41A4;" d="M876.144,171.114l5.007-0.328c0.35-0.023,0.615-0.325,0.592-0.675
				c-0.023-0.35-0.325-0.615-0.675-0.592l-0.017,0.001l-4.971,0.32l-0.019,0.001c-0.351,0.022-0.618,0.326-0.595,0.677
				C875.489,170.87,875.792,171.137,876.144,171.114L876.144,171.114z"/>
			<path style="fill:#CE41A4;" d="M886.145,170.329l4.98-0.559c0.345-0.039,0.594-0.35,0.555-0.695
				c-0.039-0.345-0.35-0.594-0.695-0.555l-0.01,0.001l-4.958,0.551l-0.012,0.001c-0.347,0.038-0.597,0.351-0.558,0.698
				C885.485,170.118,885.797,170.368,886.145,170.329L886.145,170.329z"/>
			<path style="fill:#CE41A4;" d="M896.093,169.135l4.958-0.688c0.341-0.047,0.579-0.362,0.532-0.703
				c-0.047-0.341-0.366-0.578-0.707-0.531l-4.948,0.681l-0.006,0.001c-0.343,0.047-0.582,0.363-0.535,0.706
				C895.434,168.943,895.749,169.183,896.093,169.135L896.093,169.135z"/>
			<path style="fill:#CE41A4;" d="M906.001,167.731l4.947-0.722c0.338-0.049,0.572-0.362,0.523-0.699
				c-0.049-0.338-0.362-0.572-0.7-0.523l-4.949,0.717c-0.339,0.049-0.574,0.364-0.525,0.703
				C905.346,167.545,905.661,167.78,906.001,167.731L906.001,167.731z"/>
			<path style="fill:#CE41A4;" d="M915.894,166.303l4.949-0.665l0.007-0.001c0.335-0.045,0.57-0.353,0.525-0.688
				c-0.045-0.335-0.352-0.57-0.687-0.525l-4.963,0.661c-0.336,0.045-0.573,0.354-0.528,0.69c0.045,0.336,0.354,0.573,0.69,0.528
				l0.001,0L915.894,166.303z"/>
			<path style="fill:#CE41A4;" d="M925.798,165.037l4.961-0.513l0.013-0.001c0.333-0.034,0.575-0.332,0.54-0.665
				c-0.034-0.333-0.331-0.575-0.664-0.541l-4.986,0.51c-0.335,0.035-0.578,0.333-0.544,0.668c0.034,0.334,0.333,0.578,0.668,0.544
				h0.001L925.798,165.037z"/>
			<path style="fill:#CE41A4;" d="M935.728,164.124l4.975-0.26l0.019-0.001c0.331-0.017,0.585-0.3,0.568-0.631
				c-0.017-0.331-0.299-0.586-0.63-0.568l-5.012,0.256c-0.333,0.017-0.589,0.301-0.572,0.633c0.017,0.333,0.3,0.588,0.633,0.572
				h0.001L935.728,164.124z"/>
			<path style="fill:#CE41A4;" d="M945.68,163.771l4.974,0.102l0.026,0.001c0.328,0.007,0.6-0.254,0.606-0.582
				c0.007-0.328-0.253-0.6-0.581-0.606l-5.024-0.109c-0.33-0.007-0.603,0.254-0.61,0.584c-0.007,0.33,0.255,0.603,0.584,0.61h0.001
				L945.68,163.771z"/>
			<path style="fill:#CE41A4;" d="M955.616,164.197c1.649,0.159,3.299,0.358,4.948,0.535l0.023,0.003
				c0.318,0.034,0.604-0.196,0.638-0.514c0.034-0.318-0.193-0.604-0.512-0.638c-1.664-0.186-3.323-0.4-4.991-0.563
				c-0.325-0.032-0.615,0.206-0.646,0.531c-0.032,0.325,0.206,0.615,0.531,0.646h0.001L955.616,164.197z"/>
			<path style="fill:#CE41A4;" d="M965.485,165.466c1.633,0.282,3.259,0.605,4.873,0.973c0.298,0.068,0.595-0.118,0.663-0.416
				c0.068-0.297-0.117-0.592-0.413-0.662c-1.633-0.382-3.277-0.717-4.927-1.012c-0.308-0.055-0.602,0.15-0.657,0.458
				c-0.055,0.308,0.15,0.602,0.458,0.657L965.485,165.466z"/>
			<path style="fill:#CE41A4;" d="M975.162,167.693c1.586,0.47,3.156,0.993,4.702,1.578c0.272,0.103,0.576-0.034,0.679-0.306
				c0.103-0.271-0.033-0.574-0.304-0.678c-1.569-0.603-3.161-1.143-4.768-1.629c-0.285-0.086-0.587,0.075-0.673,0.361
				c-0.086,0.285,0.075,0.587,0.361,0.673L975.162,167.693z"/>
			<path style="fill:#CE41A4;" d="M984.421,171.215c1.486,0.711,2.939,1.488,4.349,2.337c0.237,0.142,0.544,0.066,0.686-0.171
				c0.142-0.236,0.066-0.542-0.169-0.685c-1.434-0.873-2.912-1.674-4.421-2.406c-0.255-0.124-0.562-0.017-0.686,0.238
				c-0.124,0.255-0.017,0.562,0.238,0.686L984.421,171.215z"/>
		</g>
	</g>
</g>
</svg>
